<svg xmlns="http://www.w3.org/2000/svg" xmlns:xlink="http://www.w3.org/1999/xlink" width="209" height="233" viewBox="0 0 209 233">
  <defs>
    <linearGradient id="linear-gradient" y1="0.5" x2="1" y2="0.5" gradientUnits="objectBoundingBox">
      <stop offset="0" stop-color="#fff"/>
      <stop offset="0.396" stop-color="#d5e6f7"/>
      <stop offset="0.786" stop-color="#b2d2f1"/>
      <stop offset="0.996" stop-color="#a5cbef"/>
    </linearGradient>
    <linearGradient id="linear-gradient-2" y1="0.5" x2="1" y2="0.5" gradientUnits="objectBoundingBox">
      <stop offset="0.004" stop-color="#a5cbef"/>
      <stop offset="0.214" stop-color="#b2d2f1"/>
      <stop offset="0.604" stop-color="#d5e6f7"/>
      <stop offset="1" stop-color="#fff"/>
    </linearGradient>
    <linearGradient id="linear-gradient-4" y1="0.5" x2="1" y2="0.5" gradientUnits="objectBoundingBox">
      <stop offset="0" stop-color="#3c5185"/>
      <stop offset="0.6" stop-color="#435b95"/>
      <stop offset="1" stop-color="#4a65a3"/>
    </linearGradient>
    <linearGradient id="linear-gradient-5" x1="19.182" y1="0.5" x2="20.182" y2="0.5" gradientUnits="objectBoundingBox">
      <stop offset="0" stop-color="#fff"/>
      <stop offset="0.243" stop-color="#edf5fb"/>
      <stop offset="0.723" stop-color="#c1dbf4"/>
      <stop offset="0.996" stop-color="#a5cbef"/>
    </linearGradient>
    <linearGradient id="linear-gradient-6" y1="0.5" x2="1" y2="0.5" gradientUnits="objectBoundingBox">
      <stop offset="0" stop-color="#3c5185"/>
      <stop offset="0.128" stop-color="#41578d"/>
      <stop offset="0.695" stop-color="#5572b0"/>
      <stop offset="1" stop-color="#5d7dbe"/>
    </linearGradient>
    <linearGradient id="linear-gradient-7" x1="47.81" y1="0.942" x2="47.041" y2="0.246" xlink:href="#linear-gradient-6"/>
    <linearGradient id="linear-gradient-8" x1="52.205" y1="-0.093" x2="51.113" y2="1.18" gradientUnits="objectBoundingBox">
      <stop offset="0" stop-color="#5d7dbe"/>
      <stop offset="0.305" stop-color="#5572b0"/>
      <stop offset="0.872" stop-color="#41578d"/>
      <stop offset="1" stop-color="#3c5185"/>
    </linearGradient>
    <linearGradient id="linear-gradient-10" y1="0.5" x2="1" y2="0.5" gradientUnits="objectBoundingBox">
      <stop offset="0" stop-color="#4a65a3"/>
      <stop offset="0.4" stop-color="#435b95"/>
      <stop offset="1" stop-color="#3c5185"/>
    </linearGradient>
    <radialGradient id="radial-gradient" cx="0.5" cy="0.5" r="0.876" gradientTransform="translate(0.211 357.308) scale(0.577 0.517)" gradientUnits="objectBoundingBox">
      <stop offset="0.529" stop-color="#3c5185"/>
      <stop offset="0.569" stop-color="#65769f"/>
      <stop offset="0.615" stop-color="#8e9ab8"/>
      <stop offset="0.664" stop-color="#b1b9ce"/>
      <stop offset="0.716" stop-color="#cdd2e0"/>
      <stop offset="0.771" stop-color="#e3e6ed"/>
      <stop offset="0.831" stop-color="#f3f4f7"/>
      <stop offset="0.901" stop-color="#fcfcfd"/>
      <stop offset="1" stop-color="#fff"/>
    </radialGradient>
    <linearGradient id="linear-gradient-11" y1="0.5" x2="1" y2="0.5" gradientUnits="objectBoundingBox">
      <stop offset="0" stop-color="#7ea7df"/>
      <stop offset="1" stop-color="#fff"/>
    </linearGradient>
    <linearGradient id="linear-gradient-12" x1="0.001" y1="0.5" x2="0.999" y2="0.5" gradientUnits="objectBoundingBox">
      <stop offset="0" stop-color="#ecf2fa"/>
      <stop offset="1" stop-color="#7ea7df"/>
    </linearGradient>
    <clipPath id="clip-basic_definicion">
      <rect width="209" height="233"/>
    </clipPath>
  </defs>
  <g id="basic_definicion" clip-path="url(#clip-basic_definicion)">
    <rect width="209" height="233" fill="rgba(255,255,255,0)"/>
    <g id="Grupo_3058" data-name="Grupo 3058" transform="translate(-325.706 -122.547)">
      <g id="Grupo_3008" data-name="Grupo 3008">
        <g id="Grupo_3002" data-name="Grupo 3002" opacity="0.7">
          <path id="Trazado_11421" data-name="Trazado 11421" d="M416.684,235.57l-27.757,15.867a.9.9,0,0,0,0,1.562L432.14,277.95a3.584,3.584,0,0,0,3.568.007l27.756-15.866a.9.9,0,0,0,0-1.563l-43.217-24.951A3.583,3.583,0,0,0,416.684,235.57Z" fill="#3c5185" opacity="0"/>
          <path id="Trazado_11422" data-name="Trazado 11422" d="M416.713,235.6,389.04,251.414a.9.9,0,0,0,0,1.557l43.085,24.875a3.571,3.571,0,0,0,3.557.008l27.672-15.819a.9.9,0,0,0,0-1.557L420.269,235.6A3.567,3.567,0,0,0,416.713,235.6Z" fill="#3c5185" opacity="0.024"/>
          <path id="Trazado_11423" data-name="Trazado 11423" d="M416.742,235.621l-27.588,15.77a.9.9,0,0,0,0,1.553l42.953,24.8a3.56,3.56,0,0,0,3.546.008l27.587-15.77a.9.9,0,0,0,0-1.553l-42.953-24.8A3.56,3.56,0,0,0,416.742,235.621Z" fill="#3c5185" opacity="0.049"/>
          <path id="Trazado_11424" data-name="Trazado 11424" d="M416.77,235.647l-27.5,15.722a.892.892,0,0,0,0,1.548l42.822,24.723a3.55,3.55,0,0,0,3.535.008l27.5-15.722a.893.893,0,0,0,0-1.548l-42.821-24.723A3.549,3.549,0,0,0,416.77,235.647Z" fill="#3c5185" opacity="0.073"/>
          <path id="Trazado_11425" data-name="Trazado 11425" d="M416.8,235.673l-27.418,15.673a.89.89,0,0,0,0,1.543l42.691,24.648a3.536,3.536,0,0,0,3.524.007l27.419-15.673a.89.89,0,0,0,0-1.543l-42.69-24.648A3.538,3.538,0,0,0,416.8,235.673Z" fill="#3c5185" opacity="0.098"/>
          <path id="Trazado_11426" data-name="Trazado 11426" d="M416.828,235.7l-27.334,15.625a.887.887,0,0,0,0,1.538l42.558,24.572a3.527,3.527,0,0,0,3.514.007L462.9,261.816a.888.888,0,0,0,0-1.539l-42.559-24.571A3.527,3.527,0,0,0,416.828,235.7Z" fill="#3c5185" opacity="0.122"/>
          <path id="Trazado_11427" data-name="Trazado 11427" d="M416.857,235.724,389.607,251.3a.885.885,0,0,0,0,1.534l42.427,24.495a3.514,3.514,0,0,0,3.5.008l27.25-15.577a.885.885,0,0,0,0-1.534L420.36,235.732A3.516,3.516,0,0,0,416.857,235.724Z" fill="#3c5185" opacity="0.146"/>
          <path id="Trazado_11428" data-name="Trazado 11428" d="M416.886,235.75l-27.165,15.529a.882.882,0,0,0,0,1.529l42.3,24.419a3.506,3.506,0,0,0,3.492.008l27.166-15.529a.882.882,0,0,0,0-1.529l-42.3-24.42A3.506,3.506,0,0,0,416.886,235.75Z" fill="#3c5185" opacity="0.171"/>
          <path id="Trazado_11429" data-name="Trazado 11429" d="M416.915,235.776l-27.081,15.48a.878.878,0,0,0,0,1.524l42.164,24.344a3.5,3.5,0,0,0,3.481.007l27.081-15.48a.878.878,0,0,0,0-1.524L420.4,235.783A3.5,3.5,0,0,0,416.915,235.776Z" fill="#3c5185" opacity="0.195"/>
          <path id="Trazado_11430" data-name="Trazado 11430" d="M416.944,235.8l-27,15.433a.876.876,0,0,0,0,1.519l42.033,24.268a3.484,3.484,0,0,0,3.47.007l27-15.432a.876.876,0,0,0,0-1.519l-42.033-24.268A3.481,3.481,0,0,0,416.944,235.8Z" fill="#3c5185" opacity="0.22"/>
          <path id="Trazado_11431" data-name="Trazado 11431" d="M416.973,235.827l-26.912,15.384a.874.874,0,0,0,0,1.515l41.9,24.192a3.473,3.473,0,0,0,3.459.007l26.912-15.384a.874.874,0,0,0,0-1.515l-41.9-24.191A3.471,3.471,0,0,0,416.973,235.827Z" fill="#3c5185" opacity="0.244"/>
          <path id="Trazado_11432" data-name="Trazado 11432" d="M417,235.853l-26.828,15.336a.871.871,0,0,0,0,1.51l41.77,24.116a3.462,3.462,0,0,0,3.448.007l26.828-15.336a.871.871,0,0,0,0-1.51L420.45,235.86A3.462,3.462,0,0,0,417,235.853Z" fill="#3c5185" opacity="0.268"/>
          <path id="Trazado_11433" data-name="Trazado 11433" d="M417.031,235.879l-26.743,15.287a.868.868,0,0,0,0,1.505l41.639,24.04a3.449,3.449,0,0,0,3.437.008L462.1,261.431a.868.868,0,0,0,0-1.505l-41.639-24.04A3.449,3.449,0,0,0,417.031,235.879Z" fill="#3c5185" opacity="0.293"/>
          <path id="Trazado_11434" data-name="Trazado 11434" d="M417.06,235.9,390.4,251.144a.864.864,0,0,0,0,1.5L431.9,276.608a3.436,3.436,0,0,0,3.426.007l26.659-15.239a.865.865,0,0,0,0-1.5l-41.508-23.964A3.438,3.438,0,0,0,417.06,235.9Z" fill="#3c5185" opacity="0.317"/>
          <path id="Trazado_11435" data-name="Trazado 11435" d="M417.089,235.93l-26.575,15.191a.863.863,0,0,0,0,1.5l41.376,23.888a3.425,3.425,0,0,0,3.415.007l26.575-15.191a.862.862,0,0,0,0-1.5L420.5,235.937A3.427,3.427,0,0,0,417.089,235.93Z" fill="#3c5185" opacity="0.341"/>
          <path id="Trazado_11436" data-name="Trazado 11436" d="M417.118,235.956,390.628,251.1a.859.859,0,0,0,0,1.49L431.869,276.4a3.418,3.418,0,0,0,3.4.007l26.489-15.143a.86.86,0,0,0,0-1.491l-41.244-23.812A3.416,3.416,0,0,0,417.118,235.956Z" fill="#3c5185" opacity="0.366"/>
          <path id="Trazado_11437" data-name="Trazado 11437" d="M417.147,235.981l-26.406,15.1a.857.857,0,0,0,0,1.486L431.851,276.3a3.41,3.41,0,0,0,3.394.007l26.4-15.1a.857.857,0,0,0,0-1.486l-41.112-23.736A3.408,3.408,0,0,0,417.147,235.981Z" fill="#3c5185" opacity="0.39"/>
          <path id="Trazado_11438" data-name="Trazado 11438" d="M417.175,236.007l-26.321,15.046a.855.855,0,0,0,0,1.482l40.981,23.66a3.4,3.4,0,0,0,3.384.008l26.321-15.047a.854.854,0,0,0,0-1.481l-40.981-23.661A3.4,3.4,0,0,0,417.175,236.007Z" fill="#3c5185" opacity="0.415"/>
          <path id="Trazado_11439" data-name="Trazado 11439" d="M417.2,236.033l-26.236,15a.85.85,0,0,0,0,1.476l40.849,23.585a3.385,3.385,0,0,0,3.373.007l26.236-15a.851.851,0,0,0,0-1.476l-40.85-23.585A3.385,3.385,0,0,0,417.2,236.033Z" fill="#3c5185" opacity="0.439"/>
          <path id="Trazado_11440" data-name="Trazado 11440" d="M417.233,236.059l-26.152,14.949a.849.849,0,0,0,0,1.472L431.8,275.989a3.375,3.375,0,0,0,3.362.007l26.152-14.95a.848.848,0,0,0,0-1.471L420.6,236.066A3.374,3.374,0,0,0,417.233,236.059Z" fill="#3c5185" opacity="0.463"/>
          <path id="Trazado_11441" data-name="Trazado 11441" d="M417.262,236.084l-26.068,14.9a.846.846,0,0,0,0,1.467l40.587,23.433a3.364,3.364,0,0,0,3.351.007l26.068-14.9a.847.847,0,0,0,0-1.468l-40.587-23.432A3.364,3.364,0,0,0,417.262,236.084Z" fill="#3c5185" opacity="0.488"/>
          <path id="Trazado_11442" data-name="Trazado 11442" d="M417.291,236.11l-25.983,14.853a.843.843,0,0,0,0,1.462l40.455,23.358a3.355,3.355,0,0,0,3.34.007l25.983-14.853a.844.844,0,0,0,0-1.463l-40.456-23.357A3.353,3.353,0,0,0,417.291,236.11Z" fill="#3c5185" opacity="0.512"/>
          <path id="Trazado_11443" data-name="Trazado 11443" d="M417.32,236.136l-25.9,14.8a.84.84,0,0,0,0,1.457l40.324,23.281a3.34,3.34,0,0,0,3.329.007l25.9-14.8a.841.841,0,0,0,0-1.458l-40.324-23.281A3.342,3.342,0,0,0,417.32,236.136Z" fill="#3c5185" opacity="0.537"/>
          <path id="Trazado_11444" data-name="Trazado 11444" d="M417.349,236.162l-25.814,14.756a.838.838,0,0,0,0,1.453l40.193,23.2a3.331,3.331,0,0,0,3.318.007l25.815-14.756a.838.838,0,0,0,0-1.453l-40.193-23.2A3.329,3.329,0,0,0,417.349,236.162Z" fill="#3c5185" opacity="0.561"/>
          <path id="Trazado_11445" data-name="Trazado 11445" d="M417.378,236.187,391.648,250.9a.835.835,0,0,0,0,1.448l40.061,23.129a3.32,3.32,0,0,0,3.307.007l25.73-14.708a.835.835,0,0,0,0-1.448l-40.061-23.13A3.32,3.32,0,0,0,417.378,236.187Z" fill="#3c5185" opacity="0.585"/>
          <path id="Trazado_11446" data-name="Trazado 11446" d="M417.407,236.213l-25.646,14.66a.832.832,0,0,0,0,1.443l39.93,23.054a3.31,3.31,0,0,0,3.3.007l25.646-14.66a.833.833,0,0,0,0-1.444L420.7,236.22A3.307,3.307,0,0,0,417.407,236.213Z" fill="#3c5185" opacity="0.61"/>
          <path id="Trazado_11447" data-name="Trazado 11447" d="M417.436,236.239l-25.561,14.612a.829.829,0,0,0,0,1.438l39.8,22.978a3.3,3.3,0,0,0,3.285.007l25.562-14.612a.83.83,0,0,0,0-1.439l-39.8-22.977A3.294,3.294,0,0,0,417.436,236.239Z" fill="#3c5185" opacity="0.634"/>
          <path id="Trazado_11448" data-name="Trazado 11448" d="M417.465,236.264l-25.477,14.564a.827.827,0,0,0,0,1.434l39.667,22.9a3.285,3.285,0,0,0,3.274.008L460.4,260.607a.827.827,0,0,0,0-1.434l-39.666-22.9A3.287,3.287,0,0,0,417.465,236.264Z" fill="#3c5185" opacity="0.659"/>
          <path id="Trazado_11449" data-name="Trazado 11449" d="M417.494,236.29,392.1,250.806a.824.824,0,0,0,0,1.429l39.536,22.825a3.272,3.272,0,0,0,3.263.007l25.393-14.515a.824.824,0,0,0,0-1.429L420.758,236.3A3.279,3.279,0,0,0,417.494,236.29Z" fill="#3c5185" opacity="0.683"/>
          <path id="Trazado_11450" data-name="Trazado 11450" d="M417.523,236.316l-25.308,14.467a.821.821,0,0,0,0,1.424l39.4,22.75a3.267,3.267,0,0,0,3.254.007L460.176,260.5a.821.821,0,0,0,0-1.424l-39.4-22.75A3.266,3.266,0,0,0,417.523,236.316Z" fill="#3c5185" opacity="0.707"/>
          <path id="Trazado_11451" data-name="Trazado 11451" d="M417.552,236.342,392.328,250.76a.819.819,0,0,0,0,1.42L431.6,274.854a3.257,3.257,0,0,0,3.243.007l25.223-14.419a.819.819,0,0,0,0-1.42l-39.272-22.673A3.252,3.252,0,0,0,417.552,236.342Z" fill="#3c5185" opacity="0.732"/>
          <path id="Trazado_11452" data-name="Trazado 11452" d="M417.581,236.367l-25.139,14.371a.816.816,0,0,0,0,1.415l39.14,22.6a3.248,3.248,0,0,0,3.232.007l25.139-14.371a.816.816,0,0,0,0-1.415l-39.141-22.6A3.244,3.244,0,0,0,417.581,236.367Z" fill="#3c5185" opacity="0.756"/>
          <path id="Trazado_11453" data-name="Trazado 11453" d="M417.609,236.393l-25.054,14.322a.813.813,0,0,0,0,1.41l39.009,22.522a3.233,3.233,0,0,0,3.221.007l25.054-14.322a.813.813,0,0,0,0-1.41L420.83,236.4A3.233,3.233,0,0,0,417.609,236.393Z" fill="#3c5185" opacity="0.78"/>
          <path id="Trazado_11454" data-name="Trazado 11454" d="M417.638,236.419l-24.97,14.274a.81.81,0,0,0,0,1.405l38.878,22.446a3.222,3.222,0,0,0,3.21.007l24.97-14.274a.81.81,0,0,0,0-1.4l-38.878-22.446A3.222,3.222,0,0,0,417.638,236.419Z" fill="#3c5185" opacity="0.805"/>
          <path id="Trazado_11455" data-name="Trazado 11455" d="M417.667,236.445,392.782,250.67a.808.808,0,0,0,0,1.4l38.746,22.37a3.211,3.211,0,0,0,3.2.007l24.886-14.226a.807.807,0,0,0,0-1.4l-38.747-22.371A3.211,3.211,0,0,0,417.667,236.445Z" fill="#3c5185" opacity="0.829"/>
          <path id="Trazado_11456" data-name="Trazado 11456" d="M417.7,236.47l-24.8,14.178a.8.8,0,0,0,0,1.4l38.615,22.3a3.2,3.2,0,0,0,3.188.007l24.8-14.178a.8.8,0,0,0,0-1.395l-38.615-22.295A3.2,3.2,0,0,0,417.7,236.47Z" fill="#3c5185" opacity="0.854"/>
          <path id="Trazado_11457" data-name="Trazado 11457" d="M417.725,236.5l-24.717,14.129a.8.8,0,0,0,0,1.391l38.484,22.219a3.189,3.189,0,0,0,3.177.007l24.717-14.13a.8.8,0,0,0,0-1.391L420.9,236.5A3.189,3.189,0,0,0,417.725,236.5Z" fill="#3c5185" opacity="0.878"/>
          <path id="Trazado_11458" data-name="Trazado 11458" d="M417.754,236.522,393.122,250.6a.8.8,0,0,0,0,1.386l38.352,22.143a3.178,3.178,0,0,0,3.166.006l24.633-14.081a.8.8,0,0,0,0-1.386L420.92,236.529A3.176,3.176,0,0,0,417.754,236.522Z" fill="#3c5185" opacity="0.902"/>
          <path id="Trazado_11459" data-name="Trazado 11459" d="M417.783,236.548,393.235,250.58a.8.8,0,0,0,0,1.382l38.221,22.066a3.165,3.165,0,0,0,3.155.007L459.156,260a.8.8,0,0,0,0-1.382l-38.221-22.067A3.165,3.165,0,0,0,417.783,236.548Z" fill="#3c5185" opacity="0.927"/>
          <path id="Trazado_11460" data-name="Trazado 11460" d="M417.812,236.573l-24.464,13.985a.793.793,0,0,0,0,1.376l38.089,21.991a3.154,3.154,0,0,0,3.144.007l24.464-13.985a.793.793,0,0,0,0-1.376L420.957,236.58A3.159,3.159,0,0,0,417.812,236.573Z" fill="#3c5185" opacity="0.951"/>
          <path id="Trazado_11461" data-name="Trazado 11461" d="M417.841,236.6l-24.379,13.936a.791.791,0,0,0,0,1.372l37.958,21.915a3.146,3.146,0,0,0,3.133.007l24.379-13.936a.791.791,0,0,0,0-1.372l-37.957-21.915A3.145,3.145,0,0,0,417.841,236.6Z" fill="#3c5185" opacity="0.976"/>
          <path id="Trazado_11462" data-name="Trazado 11462" d="M417.87,236.625l-24.295,13.888a.788.788,0,0,0,0,1.367L431.4,273.719a3.135,3.135,0,0,0,3.122.007l24.3-13.888a.789.789,0,0,0,0-1.368l-37.826-21.839A3.135,3.135,0,0,0,417.87,236.625Z" fill="#3c5185"/>
        </g>
        <g id="Grupo_3007" data-name="Grupo 3007">
          <path id="Trazado_11463" data-name="Trazado 11463" d="M462.8,223.968l-41.921-24.2a.849.849,0,0,0-1.274.735v31.593a1.845,1.845,0,0,0,.923,1.6l41.921,24.2a.849.849,0,0,0,1.274-.736V225.567A1.847,1.847,0,0,0,462.8,223.968Z" fill="url(#linear-gradient)"/>
          <path id="Trazado_11464" data-name="Trazado 11464" d="M462.261,224.329l-41.921-24.2a.849.849,0,0,0-1.274.736v31.593a1.848,1.848,0,0,0,.923,1.6l41.921,24.2a.849.849,0,0,0,1.274-.736V225.928A1.848,1.848,0,0,0,462.261,224.329Z" fill="#3c5185"/>
          <path id="Trazado_11465" data-name="Trazado 11465" d="M460.7,226.325l-39.449-22.907v28.9L460.7,255.225Z" fill="#edf3fa"/>
          <path id="Trazado_11466" data-name="Trazado 11466" d="M417.366,235.576l-26.845,14.161s-.148,2.1.425,2.427l41.13,23.747a3.411,3.411,0,0,0,3.4.007l26.417-15.1c1.092-.678.432-2.432.432-2.432l-41.56-22.8A3.407,3.407,0,0,0,417.366,235.576Z" fill="url(#linear-gradient-2)"/>
          <path id="Trazado_11467" data-name="Trazado 11467" d="M417.366,233.951l-26.417,15.1a.857.857,0,0,0,0,1.486l41.13,23.747a3.409,3.409,0,0,0,3.4.007l26.417-15.1a.857.857,0,0,0,0-1.486l-41.131-23.747A3.407,3.407,0,0,0,417.366,233.951Z" fill="#fff"/>
          <path id="Trazado_11468" data-name="Trazado 11468" d="M415.024,253.5l-6.963,3.981a.226.226,0,0,0,0,.392l10.841,6.259a.9.9,0,0,0,.895,0l6.963-3.981a.226.226,0,0,0,0-.392l-10.841-6.259A.9.9,0,0,0,415.024,253.5Z" fill="#d1e1f2"/>
          <path id="Trazado_11469" data-name="Trazado 11469" d="M420.279,236.258l2.276,1.314a.136.136,0,0,1,0,.235l-1.131.65a.3.3,0,0,1-.293,0l-2.276-1.315a.136.136,0,0,1,0-.235l1.131-.65A.292.292,0,0,1,420.279,236.258Z" fill="#d1e1f2"/>
          <path id="Trazado_11470" data-name="Trazado 11470" d="M423.614,238.244l2.276,1.314a.137.137,0,0,1,0,.236l-1.131.65a.292.292,0,0,1-.293,0l-2.276-1.314a.136.136,0,0,1,0-.235l1.131-.65A.3.3,0,0,1,423.614,238.244Z" fill="#d1e1f2"/>
          <path id="Trazado_11471" data-name="Trazado 11471" d="M426.961,240.125l2.276,1.314a.137.137,0,0,1,0,.236l-1.131.65a.292.292,0,0,1-.293,0l-2.276-1.314a.136.136,0,0,1,0-.235l1.131-.65A.3.3,0,0,1,426.961,240.125Z" fill="#d1e1f2"/>
          <path id="Trazado_11472" data-name="Trazado 11472" d="M430.409,242.068l2.276,1.314a.135.135,0,0,1,0,.235l-1.131.65a.3.3,0,0,1-.293,0l-2.276-1.314a.136.136,0,0,1,0-.235l1.13-.65A.29.29,0,0,1,430.409,242.068Z" fill="#d1e1f2"/>
          <path id="Trazado_11473" data-name="Trazado 11473" d="M433.722,243.914,436,245.228a.136.136,0,0,1,0,.235l-1.131.65a.3.3,0,0,1-.293,0L432.3,244.8a.135.135,0,0,1,0-.235l1.131-.65A.3.3,0,0,1,433.722,243.914Z" fill="#d1e1f2"/>
          <path id="Trazado_11474" data-name="Trazado 11474" d="M436.942,245.9l2.276,1.314a.135.135,0,0,1,0,.235l-1.131.65a.3.3,0,0,1-.293,0l-2.276-1.314a.137.137,0,0,1,0-.236l1.13-.65A.292.292,0,0,1,436.942,245.9Z" fill="#d1e1f2"/>
          <path id="Trazado_11475" data-name="Trazado 11475" d="M440.314,247.76l2.276,1.314a.136.136,0,0,1,0,.235l-1.131.65a.3.3,0,0,1-.293,0l-2.276-1.314a.137.137,0,0,1,0-.236l1.131-.649A.29.29,0,0,1,440.314,247.76Z" fill="#d1e1f2"/>
          <path id="Trazado_11476" data-name="Trazado 11476" d="M443.635,249.738l2.277,1.314a.136.136,0,0,1,0,.235l-1.13.65a.292.292,0,0,1-.293,0l-2.276-1.314a.135.135,0,0,1,0-.235l1.131-.65A.29.29,0,0,1,443.635,249.738Z" fill="#d1e1f2"/>
          <path id="Trazado_11477" data-name="Trazado 11477" d="M446.9,251.665l2.276,1.314a.136.136,0,0,1,0,.235l-1.131.65a.3.3,0,0,1-.293,0l-2.276-1.314a.136.136,0,0,1,0-.235l1.131-.65A.3.3,0,0,1,446.9,251.665Z" fill="#d1e1f2"/>
          <path id="Trazado_11478" data-name="Trazado 11478" d="M450.345,253.649l2.276,1.314a.135.135,0,0,1,0,.235l-1.131.65a.3.3,0,0,1-.293,0l-2.276-1.314a.136.136,0,0,1,0-.235l1.13-.65A.292.292,0,0,1,450.345,253.649Z" fill="#d1e1f2"/>
          <path id="Trazado_11479" data-name="Trazado 11479" d="M453.689,255.525l2.276,1.314a.136.136,0,0,1,0,.236l-1.13.65a.3.3,0,0,1-.293,0l-2.276-1.314a.135.135,0,0,1,0-.235l1.13-.65A.3.3,0,0,1,453.689,255.525Z" fill="#d1e1f2"/>
          <g id="Grupo_3003" data-name="Grupo 3003">
            <path id="Trazado_11480" data-name="Trazado 11480" d="M415.649,238.734l1.542-.9a.646.646,0,0,1,.649,0l1.506.869a.321.321,0,0,1,.007.551l-1.5.92a.645.645,0,0,1-.66.009l-1.545-.89A.32.32,0,0,1,415.649,238.734Z" fill="#d1e1f2"/>
            <path id="Trazado_11481" data-name="Trazado 11481" d="M419.1,240.72l1.542-.9a.647.647,0,0,1,.648,0l1.506.869a.321.321,0,0,1,.008.551l-1.5.92a.646.646,0,0,1-.659.009l-1.545-.89A.321.321,0,0,1,419.1,240.72Z" fill="#d1e1f2"/>
            <path id="Trazado_11482" data-name="Trazado 11482" d="M422.454,242.6l1.542-.9a.642.642,0,0,1,.648,0l1.506.869a.321.321,0,0,1,.008.551l-1.5.92a.646.646,0,0,1-.659.009l-1.545-.89A.321.321,0,0,1,422.454,242.6Z" fill="#d1e1f2"/>
            <path id="Trazado_11483" data-name="Trazado 11483" d="M426.02,244.544l1.542-.9a.644.644,0,0,1,.648,0l1.506.87a.321.321,0,0,1,.008.551l-1.5.919a.644.644,0,0,1-.659.009l-1.545-.889A.321.321,0,0,1,426.02,244.544Z" fill="#d1e1f2"/>
            <path id="Trazado_11484" data-name="Trazado 11484" d="M429.162,246.39l1.542-.9a.644.644,0,0,1,.648,0l1.506.87a.321.321,0,0,1,.008.551l-1.5.919a.646.646,0,0,1-.659.01l-1.545-.89A.321.321,0,0,1,429.162,246.39Z" fill="#d1e1f2"/>
            <path id="Trazado_11485" data-name="Trazado 11485" d="M432.354,248.366l1.542-.9a.644.644,0,0,1,.648,0l1.506.869a.321.321,0,0,1,.008.551l-1.5.92a.646.646,0,0,1-.659.009l-1.545-.89A.321.321,0,0,1,432.354,248.366Z" fill="#d1e1f2"/>
            <path id="Trazado_11486" data-name="Trazado 11486" d="M435.765,250.236l1.542-.9a.644.644,0,0,1,.648,0l1.506.87a.321.321,0,0,1,.008.551l-1.5.919a.644.644,0,0,1-.659.009l-1.545-.889A.321.321,0,0,1,435.765,250.236Z" fill="#d1e1f2"/>
            <path id="Trazado_11487" data-name="Trazado 11487" d="M439.1,252.128l1.542-.9a.647.647,0,0,1,.648,0l1.506.87a.321.321,0,0,1,.008.551l-1.5.92a.646.646,0,0,1-.659.009l-1.545-.89A.321.321,0,0,1,439.1,252.128Z" fill="#d1e1f2"/>
            <path id="Trazado_11488" data-name="Trazado 11488" d="M442.385,254.141l1.542-.9a.644.644,0,0,1,.648,0l1.507.87a.321.321,0,0,1,.007.551l-1.5.919a.641.641,0,0,1-.659.009l-1.545-.889A.321.321,0,0,1,442.385,254.141Z" fill="#d1e1f2"/>
            <path id="Trazado_11489" data-name="Trazado 11489" d="M445.961,256.247l1.542-.9a.644.644,0,0,1,.648,0l1.506.87a.321.321,0,0,1,.008.551l-1.5.919a.644.644,0,0,1-.659.01l-1.545-.89A.321.321,0,0,1,445.961,256.247Z" fill="#d1e1f2"/>
            <path id="Trazado_11490" data-name="Trazado 11490" d="M449.194,258l1.542-.9a.644.644,0,0,1,.649,0l1.506.87a.321.321,0,0,1,.007.551l-1.5.92a.648.648,0,0,1-.66.009l-1.545-.89A.321.321,0,0,1,449.194,258Z" fill="#d1e1f2"/>
          </g>
          <g id="Grupo_3004" data-name="Grupo 3004">
            <path id="Trazado_11491" data-name="Trazado 11491" d="M412.214,240.6l1.542-.9a.644.644,0,0,1,.648,0l1.506.87a.321.321,0,0,1,.008.551l-1.5.919a.643.643,0,0,1-.66.009l-1.544-.889A.321.321,0,0,1,412.214,240.6Z" fill="#d1e1f2"/>
            <path id="Trazado_11492" data-name="Trazado 11492" d="M415.666,242.589l1.542-.9a.646.646,0,0,1,.649,0l1.506.869a.321.321,0,0,1,.007.551l-1.5.92a.644.644,0,0,1-.659.009l-1.545-.889A.321.321,0,0,1,415.666,242.589Z" fill="#d1e1f2"/>
            <path id="Trazado_11493" data-name="Trazado 11493" d="M419.018,244.47l1.542-.9a.646.646,0,0,1,.649,0l1.506.869a.322.322,0,0,1,.007.552l-1.5.919a.644.644,0,0,1-.659.009l-1.545-.89A.32.32,0,0,1,419.018,244.47Z" fill="#d1e1f2"/>
            <path id="Trazado_11494" data-name="Trazado 11494" d="M422.584,246.412l1.542-.9a.646.646,0,0,1,.649,0l1.506.87a.321.321,0,0,1,.007.551l-1.5.919a.644.644,0,0,1-.659.01l-1.545-.89A.321.321,0,0,1,422.584,246.412Z" fill="#d1e1f2"/>
            <path id="Trazado_11495" data-name="Trazado 11495" d="M425.726,248.258l1.542-.9a.644.644,0,0,1,.648,0l1.506.87a.321.321,0,0,1,.008.551l-1.5.919a.644.644,0,0,1-.659.01l-1.545-.89A.321.321,0,0,1,425.726,248.258Z" fill="#d1e1f2"/>
            <path id="Trazado_11496" data-name="Trazado 11496" d="M428.918,250.235l1.542-.9a.646.646,0,0,1,.649,0l1.506.869a.322.322,0,0,1,.007.552l-1.5.919a.644.644,0,0,1-.659.009l-1.545-.89A.32.32,0,0,1,428.918,250.235Z" fill="#d1e1f2"/>
            <path id="Trazado_11497" data-name="Trazado 11497" d="M432.329,252.1l1.542-.9a.644.644,0,0,1,.648,0l1.507.87a.321.321,0,0,1,.007.551l-1.5.919a.644.644,0,0,1-.659.01l-1.545-.89A.321.321,0,0,1,432.329,252.1Z" fill="#d1e1f2"/>
            <path id="Trazado_11498" data-name="Trazado 11498" d="M435.667,254l1.542-.9a.646.646,0,0,1,.649,0l1.506.869a.321.321,0,0,1,.007.551l-1.5.92a.645.645,0,0,1-.66.009l-1.545-.89A.32.32,0,0,1,435.667,254Z" fill="#d1e1f2"/>
            <path id="Trazado_11499" data-name="Trazado 11499" d="M438.949,256.009l1.542-.9a.649.649,0,0,1,.649,0l1.506.87a.321.321,0,0,1,.007.551l-1.5.92a.648.648,0,0,1-.66.009l-1.545-.89A.321.321,0,0,1,438.949,256.009Z" fill="#d1e1f2"/>
            <path id="Trazado_11500" data-name="Trazado 11500" d="M442.525,258.115l1.542-.9a.649.649,0,0,1,.649,0l1.506.87a.321.321,0,0,1,.007.551l-1.5.92a.646.646,0,0,1-.659.009l-1.545-.89A.321.321,0,0,1,442.525,258.115Z" fill="#d1e1f2"/>
            <path id="Trazado_11501" data-name="Trazado 11501" d="M445.759,259.87l1.542-.9a.644.644,0,0,1,.648,0l1.506.869a.321.321,0,0,1,.008.552l-1.5.919a.644.644,0,0,1-.659.009l-1.545-.89A.32.32,0,0,1,445.759,259.87Z" fill="#d1e1f2"/>
          </g>
          <g id="Grupo_3005" data-name="Grupo 3005">
            <path id="Trazado_11502" data-name="Trazado 11502" d="M408.778,242.47l1.542-.9a.647.647,0,0,1,.648,0l1.506.87a.321.321,0,0,1,.008.551l-1.5.92a.646.646,0,0,1-.659.009l-1.545-.89A.321.321,0,0,1,408.778,242.47Z" fill="#d1e1f2"/>
            <path id="Trazado_11503" data-name="Trazado 11503" d="M412.231,244.457l1.542-.9a.644.644,0,0,1,.648,0l1.506.87a.32.32,0,0,1,.007.551l-1.5.919a.643.643,0,0,1-.66.009l-1.544-.889A.321.321,0,0,1,412.231,244.457Z" fill="#d1e1f2"/>
            <path id="Trazado_11504" data-name="Trazado 11504" d="M415.583,246.338l1.542-.9a.644.644,0,0,1,.648,0l1.506.87a.321.321,0,0,1,.008.551l-1.5.919a.645.645,0,0,1-.66.009l-1.544-.889A.321.321,0,0,1,415.583,246.338Z" fill="#d1e1f2"/>
            <path id="Trazado_11505" data-name="Trazado 11505" d="M419.149,248.281l1.542-.9a.644.644,0,0,1,.648,0l1.506.869a.321.321,0,0,1,.008.551l-1.5.92a.646.646,0,0,1-.659.009l-1.546-.89A.32.32,0,0,1,419.149,248.281Z" fill="#d1e1f2"/>
            <path id="Trazado_11506" data-name="Trazado 11506" d="M422.29,250.127l1.542-.9a.644.644,0,0,1,.649,0l1.506.869a.321.321,0,0,1,.007.551l-1.5.92a.648.648,0,0,1-.66.009l-1.545-.89A.32.32,0,0,1,422.29,250.127Z" fill="#d1e1f2"/>
            <path id="Trazado_11507" data-name="Trazado 11507" d="M425.482,252.1l1.542-.9a.646.646,0,0,1,.649,0l1.506.87a.321.321,0,0,1,.007.551l-1.5.919a.648.648,0,0,1-.66.01l-1.545-.89A.321.321,0,0,1,425.482,252.1Z" fill="#d1e1f2"/>
            <path id="Trazado_11508" data-name="Trazado 11508" d="M428.893,253.972l1.542-.9a.649.649,0,0,1,.649,0l1.506.87a.321.321,0,0,1,.007.551l-1.5.92a.648.648,0,0,1-.66.009l-1.545-.89A.321.321,0,0,1,428.893,253.972Z" fill="#d1e1f2"/>
            <path id="Trazado_11509" data-name="Trazado 11509" d="M432.231,255.865l1.542-.9a.646.646,0,0,1,.649,0l1.506.869a.321.321,0,0,1,.007.552l-1.5.919a.645.645,0,0,1-.66.009l-1.545-.889A.321.321,0,0,1,432.231,255.865Z" fill="#d1e1f2"/>
            <path id="Trazado_11510" data-name="Trazado 11510" d="M435.514,257.878l1.542-.9a.644.644,0,0,1,.648,0l1.506.869a.321.321,0,0,1,.008.552l-1.5.919a.644.644,0,0,1-.659.009l-1.545-.89A.32.32,0,0,1,435.514,257.878Z" fill="#d1e1f2"/>
            <path id="Trazado_11511" data-name="Trazado 11511" d="M439.089,259.984l1.542-.9a.646.646,0,0,1,.649,0l1.506.869a.321.321,0,0,1,.008.551l-1.5.92a.646.646,0,0,1-.66.009l-1.544-.889A.321.321,0,0,1,439.089,259.984Z" fill="#d1e1f2"/>
            <path id="Trazado_11512" data-name="Trazado 11512" d="M442.323,261.738l1.542-.9a.644.644,0,0,1,.648,0l1.507.87a.321.321,0,0,1,.007.551l-1.5.919a.644.644,0,0,1-.659.009l-1.545-.889A.321.321,0,0,1,442.323,261.738Z" fill="#d1e1f2"/>
          </g>
          <g id="Grupo_3006" data-name="Grupo 3006">
            <path id="Trazado_11513" data-name="Trazado 11513" d="M405.342,244.338l1.542-.9a.644.644,0,0,1,.649,0l1.506.869a.321.321,0,0,1,.007.551l-1.5.92a.648.648,0,0,1-.66.009l-1.545-.89A.321.321,0,0,1,405.342,244.338Z" fill="#d1e1f2"/>
            <path id="Trazado_11514" data-name="Trazado 11514" d="M408.8,246.325l1.542-.9a.644.644,0,0,1,.648,0l1.506.87a.321.321,0,0,1,.008.551l-1.5.92a.646.646,0,0,1-.659.009l-1.545-.89A.321.321,0,0,1,408.8,246.325Z" fill="#d1e1f2"/>
            <path id="Trazado_11515" data-name="Trazado 11515" d="M412.147,248.206l1.542-.9a.644.644,0,0,1,.648,0l1.506.87a.321.321,0,0,1,.008.551l-1.5.919a.644.644,0,0,1-.659.01l-1.545-.89A.321.321,0,0,1,412.147,248.206Z" fill="#d1e1f2"/>
            <path id="Trazado_11516" data-name="Trazado 11516" d="M415.713,250.149l1.542-.9a.644.644,0,0,1,.648,0l1.506.869a.321.321,0,0,1,.008.552l-1.5.919a.644.644,0,0,1-.659.009l-1.545-.89A.32.32,0,0,1,415.713,250.149Z" fill="#d1e1f2"/>
            <path id="Trazado_11517" data-name="Trazado 11517" d="M419.149,252.2l1.542-.9a.642.642,0,0,1,.648,0l7.84,4.528a.32.32,0,0,1,.007.551l-1.5.919a.646.646,0,0,1-.66.01l-7.879-4.549A.32.32,0,0,1,419.149,252.2Z" fill="#d1e1f2"/>
            <path id="Trazado_11518" data-name="Trazado 11518" d="M428.8,257.733l1.542-.9a.644.644,0,0,1,.648,0l1.506.87a.321.321,0,0,1,.008.551l-1.5.919a.644.644,0,0,1-.659.01l-1.545-.89A.321.321,0,0,1,428.8,257.733Z" fill="#d1e1f2"/>
            <path id="Trazado_11519" data-name="Trazado 11519" d="M432.078,259.746l1.542-.9a.645.645,0,0,1,.648,0l1.507.87a.321.321,0,0,1,.007.551l-1.5.919a.644.644,0,0,1-.659.009l-1.545-.889A.321.321,0,0,1,432.078,259.746Z" fill="#d1e1f2"/>
            <path id="Trazado_11520" data-name="Trazado 11520" d="M435.654,261.852l1.542-.9a.644.644,0,0,1,.648,0l1.506.87a.321.321,0,0,1,.008.551l-1.5.919a.644.644,0,0,1-.659.01l-1.545-.89A.321.321,0,0,1,435.654,261.852Z" fill="#d1e1f2"/>
            <path id="Trazado_11521" data-name="Trazado 11521" d="M438.887,263.606l1.542-.9a.646.646,0,0,1,.649,0l1.506.87a.321.321,0,0,1,.007.551l-1.5.919a.645.645,0,0,1-.66.01l-1.545-.89A.321.321,0,0,1,438.887,263.606Z" fill="#d1e1f2"/>
          </g>
        </g>
      </g>
      <g id="Grupo_3015" data-name="Grupo 3015">
        <path id="Trazado_11522" data-name="Trazado 11522" d="M459.852,205.572a1.962,1.962,0,0,0-.881-1.53l-35.156-20.4a.683.683,0,0,0-.656-.017l-.548.283.25,47.856a1.962,1.962,0,0,0,.88,1.529l35.565,21.145.546.317Z" fill="url(#linear-gradient)"/>
        <path id="Trazado_11523" data-name="Trazado 11523" d="M459.306,205.972a1.964,1.964,0,0,0-.88-1.53L423.2,183.985c-.484-.281-.881-.053-.881.507v48.465l36.991,21.479Z" fill="#f6f9fc"/>
        <path id="Trazado_11524" data-name="Trazado 11524" d="M458.426,204.442,423.2,183.985c-.484-.281-.881-.053-.881.507v2.3l36.991,21.48v-2.3A1.964,1.964,0,0,0,458.426,204.442Z" fill="url(#linear-gradient-4)"/>
        <path id="Trazado_11525" data-name="Trazado 11525" d="M424.271,185.917c-.158-.091-.287-.016-.287.166a.638.638,0,0,0,.288.5c.158.091.287.016.286-.166A.637.637,0,0,0,424.271,185.917Z" fill="#fff"/>
        <path id="Trazado_11526" data-name="Trazado 11526" d="M425.522,186.659c-.157-.091-.286-.016-.286.166a.637.637,0,0,0,.287.5c.158.091.287.016.287-.167A.64.64,0,0,0,425.522,186.659Z" fill="#fff"/>
        <path id="Trazado_11527" data-name="Trazado 11527" d="M426.774,187.4c-.158-.091-.287-.016-.287.167a.641.641,0,0,0,.288.5c.158.091.287.016.286-.167A.642.642,0,0,0,426.774,187.4Z" fill="#fff"/>
        <path id="Trazado_11528" data-name="Trazado 11528" d="M432.3,200.81v1.073l25.151,14.708v-1.067Z" fill="#d1e1f2"/>
        <path id="Trazado_11529" data-name="Trazado 11529" d="M432.3,203.719v1.073L457.446,219.5v-1.066Z" fill="#d1e1f2"/>
        <path id="Trazado_11530" data-name="Trazado 11530" d="M432.3,206.627V207.7l15.117,8.891v-1.067Z" fill="#d1e1f2"/>
        <path id="Trazado_11531" data-name="Trazado 11531" d="M432.3,214.7v1.073l25.151,14.708v-1.066Z" fill="#d1e1f2"/>
        <path id="Trazado_11532" data-name="Trazado 11532" d="M432.3,217.609v1.073l25.151,14.708v-1.066Z" fill="#d1e1f2"/>
        <path id="Trazado_11533" data-name="Trazado 11533" d="M432.3,220.517v1.073l15.117,8.891v-1.066Z" fill="#d1e1f2"/>
        <path id="Trazado_11534" data-name="Trazado 11534" d="M432.3,228.59v1.073l25.151,14.708V243.3Z" fill="#d1e1f2"/>
        <path id="Trazado_11535" data-name="Trazado 11535" d="M432.3,231.5v1.073l25.151,14.708v-1.066Z" fill="#d1e1f2"/>
        <path id="Trazado_11536" data-name="Trazado 11536" d="M432.3,234.407v1.073l15.117,8.891V243.3Z" fill="#d1e1f2"/>
        <g id="Grupo_3010" data-name="Grupo 3010">
          <path id="Trazado_11537" data-name="Trazado 11537" d="M428.01,198.9c-1.526-.882-2.775-.161-2.775,1.6a6.16,6.16,0,0,0,2.775,4.807c1.527.881,2.776.16,2.776-1.6A6.155,6.155,0,0,0,428.01,198.9Z" fill="#3c5185"/>
          <g id="Grupo_3009" data-name="Grupo 3009">
            <path id="Trazado_11538" data-name="Trazado 11538" d="M427.6,203.623l-.989-1.2a.387.387,0,0,1,.6-.492l.507.616,1.246-.983a.387.387,0,0,1,.479.607Z" fill="#fff"/>
          </g>
        </g>
        <g id="Grupo_3012" data-name="Grupo 3012">
          <path id="Trazado_11539" data-name="Trazado 11539" d="M428.01,212.786c-1.526-.881-2.775-.16-2.775,1.6a6.157,6.157,0,0,0,2.775,4.806c1.527.882,2.776.161,2.776-1.6A6.158,6.158,0,0,0,428.01,212.786Z" fill="#3c5185"/>
          <g id="Grupo_3011" data-name="Grupo 3011">
            <path id="Trazado_11540" data-name="Trazado 11540" d="M427.6,217.512l-.989-1.2a.387.387,0,0,1,.6-.492l.507.616,1.246-.983a.387.387,0,0,1,.479.607Z" fill="#fff"/>
          </g>
        </g>
        <g id="Grupo_3014" data-name="Grupo 3014">
          <path id="Trazado_11541" data-name="Trazado 11541" d="M428.01,226.676c-1.526-.881-2.775-.16-2.775,1.6a6.157,6.157,0,0,0,2.775,4.807c1.527.882,2.776.161,2.776-1.6A6.155,6.155,0,0,0,428.01,226.676Z" fill="#3c5185"/>
          <g id="Grupo_3013" data-name="Grupo 3013">
            <path id="Trazado_11542" data-name="Trazado 11542" d="M427.6,231.4l-.989-1.2a.386.386,0,1,1,.6-.491l.507.616,1.246-.983a.387.387,0,0,1,.479.607Z" fill="#fff"/>
          </g>
        </g>
      </g>
      <path id="Trazado_11543" data-name="Trazado 11543" d="M459.878,214.84l-17.81-10.256a1.908,1.908,0,0,0-2.238.242.941.941,0,0,0-.1.14c-.006.007-.01.015-.015.022a.848.848,0,0,0-.123.239,1.046,1.046,0,0,0-.044.205c0,.022-.013.042-.013.065V233.56h0a2.49,2.49,0,0,0,1.121,1.943l4.131,2.378,15.092,8.694Z" fill="#a5cbef" opacity="0.5"/>
      <g id="Grupo_3020" data-name="Grupo 3020">
        <path id="Trazado_11544" data-name="Trazado 11544" d="M441.317,203.71h0a1.908,1.908,0,0,1,2.238-.242l28.906,16.646a2.486,2.486,0,0,1,1.121,1.942v27.995a1.507,1.507,0,0,1-1.109,1.454h0a1.023,1.023,0,0,1-.782-.1l-29.549-17.016a2.489,2.489,0,0,1-1.121-1.942V204.382A.912.912,0,0,1,441.317,203.71Z" fill="url(#linear-gradient-5)"/>
        <path id="Trazado_11545" data-name="Trazado 11545" d="M441.021,204.465c0-.712.505-1,1.121-.647l29.412,16.943a2.487,2.487,0,0,1,1.122,1.942v27.98c0,.712-.505,1-1.122.648l-29.412-16.944a2.489,2.489,0,0,1-1.121-1.942Z" fill="#f6f9fc"/>
        <path id="Trazado_11546" data-name="Trazado 11546" d="M471.554,220.761l-29.412-16.943c-.616-.356-1.121-.065-1.121.647v3.11l31.655,18.241V222.7A2.487,2.487,0,0,0,471.554,220.761Z" fill="url(#linear-gradient-6)"/>
        <path id="Trazado_11547" data-name="Trazado 11547" d="M442.609,210.386v6.453l5.688,3.247v-6.453Z" fill="#d1e1f2"/>
        <path id="Trazado_11548" data-name="Trazado 11548" d="M442.609,218.859v6.453l5.688,3.247v-6.453Z" fill="#d1e1f2"/>
        <path id="Trazado_11549" data-name="Trazado 11549" d="M442.609,227.331v6.453l5.688,3.247v-6.453Z" fill="#d1e1f2"/>
        <g id="Grupo_3016" data-name="Grupo 3016">
          <path id="Trazado_11550" data-name="Trazado 11550" d="M444.068,206.624c-.3-.171-.539-.031-.539.311a1.2,1.2,0,0,0,.539.934c.3.171.539.031.539-.311A1.194,1.194,0,0,0,444.068,206.624Z" fill="#fff"/>
          <path id="Trazado_11551" data-name="Trazado 11551" d="M445.913,207.711c-.3-.171-.539-.031-.539.311a1.194,1.194,0,0,0,.539.934c.3.171.539.031.539-.311A1.194,1.194,0,0,0,445.913,207.711Z" fill="#fff"/>
          <path id="Trazado_11552" data-name="Trazado 11552" d="M447.758,208.8c-.3-.171-.539-.031-.539.312a1.194,1.194,0,0,0,.539.933c.3.171.539.031.539-.311A1.2,1.2,0,0,0,447.758,208.8Z" fill="#fff"/>
        </g>
        <g id="Grupo_3017" data-name="Grupo 3017">
          <path id="Trazado_11553" data-name="Trazado 11553" d="M452.826,221.548l-.38-1.272-1.538-.827-.3.9-.872-.469,1.408-4.183.793.427,1.762,5.888Zm-1.232-4.134-.411,1.214.919.494Z" fill="#4a65a3"/>
        </g>
        <g id="Grupo_3018" data-name="Grupo 3018">
          <path id="Trazado_11554" data-name="Trazado 11554" d="M451.9,228.649l-1.606-.864-.178-5.036,1.428.768a2.881,2.881,0,0,1,.648.469,2.138,2.138,0,0,1,.418.55,2.476,2.476,0,0,1,.278,1.012q.021.589-.247.729a.483.483,0,0,1-.127.055c-.024,0-.067.008-.129.013a2.156,2.156,0,0,1,.559.713,2.22,2.22,0,0,1,.23.9,1.054,1.054,0,0,1-.23.788C452.749,228.955,452.4,228.92,451.9,228.649Zm-.893-3.42.389.208a1.056,1.056,0,0,0,.5.172c.107-.007.158-.123.15-.347a.856.856,0,0,0-.168-.525,1.746,1.746,0,0,0-.519-.384l-.393-.212Zm.072,2.046.562.3a.97.97,0,0,0,.523.164c.114-.015.168-.14.16-.372a.858.858,0,0,0-.2-.563,2.269,2.269,0,0,0-.6-.432l-.482-.259Z" fill="#4a65a3"/>
        </g>
        <g id="Grupo_3019" data-name="Grupo 3019">
          <path id="Trazado_11555" data-name="Trazado 11555" d="M451.94,236.541a.689.689,0,0,0,.963-.125l.551,1.024a1.083,1.083,0,0,1-1.438.173,3.619,3.619,0,0,1-1.422-1.485,4.7,4.7,0,0,1-.614-2.15,1.871,1.871,0,0,1,.493-1.569,1.117,1.117,0,0,1,1.341-.014,3.893,3.893,0,0,1,1.545,1.757l-.481.519a2.474,2.474,0,0,0-.989-1.183.678.678,0,0,0-.776-.01,1.077,1.077,0,0,0-.288.939,2.855,2.855,0,0,0,.349,1.294A1.985,1.985,0,0,0,451.94,236.541Z" fill="#4a65a3"/>
        </g>
        <path id="Trazado_11556" data-name="Trazado 11556" d="M454.534,217.158v1.309l16.567,9.763v-1.3Z" fill="#d1e1f2"/>
        <path id="Trazado_11557" data-name="Trazado 11557" d="M454.534,220.706v1.309l10.5,6.209v-1.3Z" fill="#d1e1f2"/>
        <path id="Trazado_11558" data-name="Trazado 11558" d="M454.534,225.631v1.309L471.1,236.7v-1.3Z" fill="#d1e1f2"/>
        <path id="Trazado_11559" data-name="Trazado 11559" d="M454.534,229.179v1.309l10.5,6.209v-1.3Z" fill="#d1e1f2"/>
        <path id="Trazado_11560" data-name="Trazado 11560" d="M454.534,234.1v1.309l16.567,9.763v-1.3Z" fill="#d1e1f2"/>
        <path id="Trazado_11561" data-name="Trazado 11561" d="M454.534,237.651v1.309l10.5,6.209v-1.3Z" fill="#d1e1f2"/>
      </g>
      <g id="Grupo_3048" data-name="Grupo 3048" transform="translate(16 -13)">
        <g id="Grupo_3046" data-name="Grupo 3046">
          <path id="Trazado_11602" data-name="Trazado 11602" d="M378.834,227.221a15.207,15.207,0,0,1,6.854,11.872,6,6,0,0,1-.832,3.288l.255,1.7a.376.376,0,0,1-.525.4l-1.531-.689a5.22,5.22,0,0,1-4.221-.738,15.207,15.207,0,0,1-6.854-11.872C371.98,226.826,375.064,225.045,378.834,227.221Z" fill="url(#linear-gradient-7)"/>
          <path id="Trazado_11603" data-name="Trazado 11603" d="M383.895,243.1a5.987,5.987,0,0,0,.832-3.287,15.205,15.205,0,0,0-6.854-11.872c-1.8-1.04-3.44-1.168-4.667-.552,1.241-1.344,3.3-1.511,5.628-.169a15.207,15.207,0,0,1,6.854,11.872,6,6,0,0,1-.832,3.288l.255,1.7a.376.376,0,0,1-.525.4l-.519-.234Z" fill="url(#linear-gradient-8)"/>
        </g>
        <g id="Grupo_3047" data-name="Grupo 3047">
          <path id="Trazado_11604" data-name="Trazado 11604" d="M378.768,237.161l-.862-.49-.007-.647a1.651,1.651,0,0,1,.066-.59,1.073,1.073,0,0,1,.31-.366l.547-.457a.74.74,0,0,0,.168-.559,1.7,1.7,0,0,0-.19-.756,1.226,1.226,0,0,0-.476-.529.421.421,0,0,0-.48-.025.676.676,0,0,0-.219.535l-.922-.525a1.423,1.423,0,0,1,.513-1.179,1.069,1.069,0,0,1,1.125.108,2.982,2.982,0,0,1,1.113,1.144,3.434,3.434,0,0,1,.443,1.68,1.363,1.363,0,0,1-.24.918,1.962,1.962,0,0,1-.217.234c-.051.042-.117.094-.2.156s-.153.117-.21.165a1.584,1.584,0,0,0-.139.127.9.9,0,0,0-.129.579Zm-.389,2.119a1.137,1.137,0,0,1-.418-.465,1.391,1.391,0,0,1-.181-.651.545.545,0,0,1,.165-.459.339.339,0,0,1,.409,0,1.144,1.144,0,0,1,.418.465,1.391,1.391,0,0,1,.181.651.55.55,0,0,1-.164.46A.342.342,0,0,1,378.379,239.28Z" fill="#fff"/>
        </g>
      </g>
      <g id="Grupo_3054" data-name="Grupo 3054">
        <g id="Grupo_3053" data-name="Grupo 3053" opacity="0.3">
          <path id="Trazado_11625" data-name="Trazado 11625" d="M437.263,280.721l-10.612,6.127a1.039,1.039,0,0,0,.01,1.806l10.623,5.98a2.177,2.177,0,0,0,2.138,0l10.623-5.98a1.039,1.039,0,0,0,.01-1.806l-10.612-6.127A2.182,2.182,0,0,0,437.263,280.721Z" fill="#3c5185" opacity="0"/>
          <path id="Trazado_11626" data-name="Trazado 11626" d="M437.268,280.755l-10.56,6.1a1.034,1.034,0,0,0,.01,1.8l10.571,5.952a2.168,2.168,0,0,0,2.128,0l10.571-5.952a1.034,1.034,0,0,0,.01-1.8l-10.56-6.1A2.168,2.168,0,0,0,437.268,280.755Z" fill="#3c5185" opacity="0.02"/>
          <path id="Trazado_11627" data-name="Trazado 11627" d="M437.274,280.788l-10.509,6.068a1.029,1.029,0,0,0,.009,1.788l10.52,5.923a2.159,2.159,0,0,0,2.118,0l10.52-5.923a1.029,1.029,0,0,0,.009-1.788l-10.509-6.068A2.161,2.161,0,0,0,437.274,280.788Z" fill="#3c5185" opacity="0.039"/>
          <path id="Trazado_11628" data-name="Trazado 11628" d="M437.279,280.822l-10.458,6.038a1.024,1.024,0,0,0,.01,1.78l10.468,5.893a2.15,2.15,0,0,0,2.108,0l10.468-5.893a1.025,1.025,0,0,0,.01-1.78l-10.458-6.038A2.147,2.147,0,0,0,437.279,280.822Z" fill="#3c5185" opacity="0.059"/>
          <path id="Trazado_11629" data-name="Trazado 11629" d="M437.284,280.856l-10.406,6.008a1.019,1.019,0,0,0,.01,1.771L437.3,294.5a2.137,2.137,0,0,0,2.1,0l10.416-5.864a1.019,1.019,0,0,0,.01-1.771l-10.406-6.008A2.138,2.138,0,0,0,437.284,280.856Z" fill="#3c5185" opacity="0.078"/>
          <path id="Trazado_11630" data-name="Trazado 11630" d="M437.289,280.889l-10.354,5.979a1.014,1.014,0,0,0,.009,1.762l10.366,5.836a2.129,2.129,0,0,0,2.086,0l10.366-5.836a1.014,1.014,0,0,0,.009-1.762l-10.355-5.979A2.132,2.132,0,0,0,437.289,280.889Z" fill="#3c5185" opacity="0.098"/>
          <path id="Trazado_11631" data-name="Trazado 11631" d="M437.3,280.923l-10.3,5.949a1.009,1.009,0,0,0,.009,1.753l10.314,5.807a2.115,2.115,0,0,0,2.076,0l10.314-5.807a1.009,1.009,0,0,0,.009-1.753l-10.3-5.949A2.116,2.116,0,0,0,437.3,280.923Z" fill="#3c5185" opacity="0.118"/>
          <path id="Trazado_11632" data-name="Trazado 11632" d="M437.3,280.957l-10.252,5.919a1,1,0,0,0,.01,1.745L437.32,294.4a2.106,2.106,0,0,0,2.066,0l10.262-5.777a1,1,0,0,0,.01-1.745l-10.252-5.919A2.107,2.107,0,0,0,437.3,280.957Z" fill="#3c5185" opacity="0.137"/>
          <path id="Trazado_11633" data-name="Trazado 11633" d="M437.3,280.99l-10.2,5.89a1,1,0,0,0,.009,1.736l10.211,5.748a2.092,2.092,0,0,0,2.056,0l10.21-5.748a1,1,0,0,0,.01-1.736l-10.2-5.89A2.1,2.1,0,0,0,437.3,280.99Z" fill="#3c5185" opacity="0.157"/>
          <path id="Trazado_11634" data-name="Trazado 11634" d="M437.311,281.024l-10.149,5.86a.994.994,0,0,0,.009,1.727l10.159,5.72a2.088,2.088,0,0,0,2.046,0l10.159-5.72a.994.994,0,0,0,.009-1.727l-10.149-5.86A2.085,2.085,0,0,0,437.311,281.024Z" fill="#3c5185" opacity="0.176"/>
          <path id="Trazado_11635" data-name="Trazado 11635" d="M437.316,281.058l-10.1,5.83a.988.988,0,0,0,.009,1.718l10.107,5.691a2.072,2.072,0,0,0,2.035,0l10.108-5.691a.988.988,0,0,0,.009-1.718l-10.1-5.83A2.072,2.072,0,0,0,437.316,281.058Z" fill="#3c5185" opacity="0.196"/>
          <path id="Trazado_11636" data-name="Trazado 11636" d="M437.321,281.092l-10.046,5.8a.984.984,0,0,0,.01,1.71l10.056,5.661a2.061,2.061,0,0,0,2.024,0l10.056-5.661a.984.984,0,0,0,.01-1.71l-10.046-5.8A2.062,2.062,0,0,0,437.321,281.092Z" fill="#3c5185" opacity="0.216"/>
          <path id="Trazado_11637" data-name="Trazado 11637" d="M437.327,281.125l-9.995,5.771a.979.979,0,0,0,.009,1.7l10.005,5.632a2.053,2.053,0,0,0,2.014,0l10.005-5.632a.979.979,0,0,0,.009-1.7l-9.995-5.771A2.055,2.055,0,0,0,437.327,281.125Z" fill="#3c5185" opacity="0.235"/>
          <path id="Trazado_11638" data-name="Trazado 11638" d="M437.332,281.159l-9.943,5.741a.973.973,0,0,0,.009,1.692l9.953,5.6a2.041,2.041,0,0,0,2,0l9.953-5.6a.973.973,0,0,0,.009-1.692l-9.943-5.741A2.041,2.041,0,0,0,437.332,281.159Z" fill="#3c5185" opacity="0.255"/>
          <path id="Trazado_11639" data-name="Trazado 11639" d="M437.337,281.193l-9.892,5.711a.969.969,0,0,0,.01,1.683l9.9,5.575a2.035,2.035,0,0,0,1.994,0l9.9-5.575a.968.968,0,0,0,.009-1.683l-9.891-5.711A2.032,2.032,0,0,0,437.337,281.193Z" fill="#3c5185" opacity="0.275"/>
          <path id="Trazado_11640" data-name="Trazado 11640" d="M437.342,281.226l-9.84,5.682a.965.965,0,0,0,.009,1.675l9.85,5.545a2.021,2.021,0,0,0,1.984,0l9.85-5.545a.965.965,0,0,0,.009-1.675l-9.84-5.682A2.023,2.023,0,0,0,437.342,281.226Z" fill="#3c5185" opacity="0.294"/>
          <path id="Trazado_11641" data-name="Trazado 11641" d="M437.348,281.26l-9.789,5.652a.959.959,0,0,0,.009,1.666l9.8,5.516a2.008,2.008,0,0,0,1.972,0l9.8-5.516a.959.959,0,0,0,.009-1.666l-9.789-5.652A2.01,2.01,0,0,0,437.348,281.26Z" fill="#3c5185" opacity="0.314"/>
          <path id="Trazado_11642" data-name="Trazado 11642" d="M437.353,281.294l-9.737,5.622a.954.954,0,0,0,.009,1.657l9.747,5.487a1.994,1.994,0,0,0,1.962,0l9.747-5.487a.954.954,0,0,0,.009-1.657l-9.737-5.622A2,2,0,0,0,437.353,281.294Z" fill="#3c5185" opacity="0.333"/>
          <path id="Trazado_11643" data-name="Trazado 11643" d="M437.358,281.327l-9.686,5.593a.949.949,0,0,0,.009,1.648l9.7,5.459a1.99,1.99,0,0,0,1.952,0l9.7-5.459a.948.948,0,0,0,.008-1.648l-9.685-5.593A1.992,1.992,0,0,0,437.358,281.327Z" fill="#3c5185" opacity="0.353"/>
          <path id="Trazado_11644" data-name="Trazado 11644" d="M437.363,281.361l-9.634,5.563a.944.944,0,0,0,.009,1.64l9.644,5.429a1.981,1.981,0,0,0,1.942,0l9.644-5.429a.944.944,0,0,0,.009-1.64l-9.635-5.563A1.982,1.982,0,0,0,437.363,281.361Z" fill="#3c5185" opacity="0.373"/>
          <path id="Trazado_11645" data-name="Trazado 11645" d="M437.369,281.395l-9.583,5.533a.939.939,0,0,0,.009,1.631l9.592,5.4a1.967,1.967,0,0,0,1.932,0l9.592-5.4a.939.939,0,0,0,.009-1.631l-9.583-5.533A1.966,1.966,0,0,0,437.369,281.395Z" fill="#3c5185" opacity="0.392"/>
          <path id="Trazado_11646" data-name="Trazado 11646" d="M437.374,281.429l-9.531,5.5a.933.933,0,0,0,.008,1.622l9.542,5.371a1.955,1.955,0,0,0,1.92,0l9.542-5.371a.933.933,0,0,0,.008-1.622l-9.531-5.5A1.957,1.957,0,0,0,437.374,281.429Z" fill="#3c5185" opacity="0.412"/>
          <path id="Trazado_11647" data-name="Trazado 11647" d="M437.379,281.462l-9.48,5.473a.929.929,0,0,0,.009,1.614l9.49,5.343a1.946,1.946,0,0,0,1.91,0l9.49-5.343a.928.928,0,0,0,.009-1.613l-9.48-5.474A1.948,1.948,0,0,0,437.379,281.462Z" fill="#3c5185" opacity="0.431"/>
          <path id="Trazado_11648" data-name="Trazado 11648" d="M437.385,281.5l-9.429,5.444a.923.923,0,0,0,.009,1.6l9.438,5.314a1.937,1.937,0,0,0,1.9,0l9.438-5.314a.923.923,0,0,0,.009-1.6l-9.429-5.444A1.935,1.935,0,0,0,437.385,281.5Z" fill="#3c5185" opacity="0.451"/>
          <path id="Trazado_11649" data-name="Trazado 11649" d="M437.39,281.53l-9.377,5.413a.919.919,0,0,0,.009,1.6l9.386,5.284a1.923,1.923,0,0,0,1.89,0l9.386-5.284a.918.918,0,0,0,.009-1.6l-9.377-5.414A1.926,1.926,0,0,0,437.39,281.53Z" fill="#3c5185" opacity="0.471"/>
          <path id="Trazado_11650" data-name="Trazado 11650" d="M437.395,281.563l-9.325,5.385a.914.914,0,0,0,.008,1.587l9.335,5.255a1.914,1.914,0,0,0,1.88,0l9.335-5.255a.914.914,0,0,0,.008-1.587l-9.325-5.385A1.917,1.917,0,0,0,437.395,281.563Z" fill="#3c5185" opacity="0.49"/>
          <path id="Trazado_11651" data-name="Trazado 11651" d="M437.4,281.6l-9.274,5.355a.908.908,0,0,0,.009,1.578l9.283,5.227a1.91,1.91,0,0,0,1.87,0l9.283-5.227a.908.908,0,0,0,.009-1.578L439.3,281.6A1.906,1.906,0,0,0,437.4,281.6Z" fill="#3c5185" opacity="0.51"/>
          <path id="Trazado_11652" data-name="Trazado 11652" d="M437.406,281.631l-9.223,5.325a.9.9,0,0,0,.009,1.569l9.232,5.2a1.892,1.892,0,0,0,1.858,0l9.232-5.2a.9.9,0,0,0,.009-1.569l-9.223-5.325A1.891,1.891,0,0,0,437.406,281.631Z" fill="#3c5185" opacity="0.529"/>
          <path id="Trazado_11653" data-name="Trazado 11653" d="M437.411,281.665l-9.171,5.295a.9.9,0,0,0,.008,1.561l9.181,5.168a1.883,1.883,0,0,0,1.848,0l9.181-5.168a.9.9,0,0,0,.008-1.561l-9.171-5.295A1.882,1.882,0,0,0,437.411,281.665Z" fill="#3c5185" opacity="0.549"/>
          <path id="Trazado_11654" data-name="Trazado 11654" d="M437.416,281.7l-9.119,5.265a.894.894,0,0,0,.008,1.553l9.129,5.139a1.869,1.869,0,0,0,1.838,0l9.129-5.139a.894.894,0,0,0,.008-1.553L439.29,281.7A1.878,1.878,0,0,0,437.416,281.7Z" fill="#3c5185" opacity="0.569"/>
          <path id="Trazado_11655" data-name="Trazado 11655" d="M437.422,281.732l-9.069,5.236a.888.888,0,0,0,.009,1.543l9.077,5.111a1.865,1.865,0,0,0,1.828,0l9.077-5.111a.888.888,0,0,0,.009-1.543l-9.069-5.236A1.86,1.86,0,0,0,437.422,281.732Z" fill="#3c5185" opacity="0.588"/>
          <path id="Trazado_11656" data-name="Trazado 11656" d="M437.427,281.766l-9.017,5.205a.884.884,0,0,0,.008,1.535l9.026,5.082a1.852,1.852,0,0,0,1.818,0l9.026-5.082a.884.884,0,0,0,.008-1.535l-9.017-5.205A1.851,1.851,0,0,0,437.427,281.766Z" fill="#3c5185" opacity="0.608"/>
          <path id="Trazado_11657" data-name="Trazado 11657" d="M437.432,281.8l-8.965,5.177a.878.878,0,0,0,.008,1.526l8.975,5.052a1.839,1.839,0,0,0,1.806,0l8.975-5.052a.878.878,0,0,0,.008-1.526l-8.965-5.177A1.842,1.842,0,0,0,437.432,281.8Z" fill="#3c5185" opacity="0.627"/>
          <path id="Trazado_11658" data-name="Trazado 11658" d="M437.437,281.833l-8.913,5.147a.873.873,0,0,0,.008,1.517l8.923,5.023a1.83,1.83,0,0,0,1.8,0l8.923-5.023a.873.873,0,0,0,.008-1.517l-8.913-5.147A1.833,1.833,0,0,0,437.437,281.833Z" fill="#3c5185" opacity="0.647"/>
          <path id="Trazado_11659" data-name="Trazado 11659" d="M437.443,281.867l-8.863,5.117a.868.868,0,0,0,.008,1.508l8.872,4.995a1.821,1.821,0,0,0,1.786,0l8.872-4.995a.868.868,0,0,0,.008-1.508l-8.863-5.117A1.82,1.82,0,0,0,437.443,281.867Z" fill="#3c5185" opacity="0.667"/>
          <path id="Trazado_11660" data-name="Trazado 11660" d="M437.448,281.9l-8.811,5.087a.863.863,0,0,0,.008,1.5l8.82,4.966a1.812,1.812,0,0,0,1.776,0l8.82-4.966a.864.864,0,0,0,.008-1.5l-8.811-5.087A1.812,1.812,0,0,0,437.448,281.9Z" fill="#3c5185" opacity="0.686"/>
          <path id="Trazado_11661" data-name="Trazado 11661" d="M437.453,281.934l-8.759,5.058a.858.858,0,0,0,.008,1.491l8.768,4.936a1.8,1.8,0,0,0,1.766,0L448,288.483a.858.858,0,0,0,.008-1.491l-8.759-5.058A1.8,1.8,0,0,0,437.453,281.934Z" fill="#3c5185" opacity="0.706"/>
          <path id="Trazado_11662" data-name="Trazado 11662" d="M437.459,281.968,428.75,287a.853.853,0,0,0,.008,1.482l8.717,4.907a1.787,1.787,0,0,0,1.755,0l8.717-4.907a.853.853,0,0,0,.008-1.482l-8.708-5.028A1.785,1.785,0,0,0,437.459,281.968Z" fill="#3c5185" opacity="0.725"/>
          <path id="Trazado_11663" data-name="Trazado 11663" d="M437.464,282l-8.657,5a.849.849,0,0,0,.008,1.474l8.666,4.879a1.781,1.781,0,0,0,1.744,0l8.666-4.879A.849.849,0,0,0,447.9,287l-8.657-5A1.776,1.776,0,0,0,437.464,282Z" fill="#3c5185" opacity="0.745"/>
          <path id="Trazado_11664" data-name="Trazado 11664" d="M437.469,282.035l-8.6,4.969a.842.842,0,0,0,.008,1.464l8.614,4.85a1.767,1.767,0,0,0,1.734,0l8.614-4.85a.842.842,0,0,0,.008-1.464l-8.605-4.969A1.767,1.767,0,0,0,437.469,282.035Z" fill="#3c5185" opacity="0.765"/>
          <path id="Trazado_11665" data-name="Trazado 11665" d="M437.474,282.069l-8.553,4.938a.838.838,0,0,0,.008,1.456l8.562,4.821a1.759,1.759,0,0,0,1.724,0l8.562-4.821a.838.838,0,0,0,.008-1.456l-8.554-4.938A1.756,1.756,0,0,0,437.474,282.069Z" fill="#3c5185" opacity="0.784"/>
          <path id="Trazado_11666" data-name="Trazado 11666" d="M437.48,282.1l-8.5,4.909a.833.833,0,0,0,.008,1.447l8.511,4.791a1.745,1.745,0,0,0,1.714,0l8.511-4.791a.833.833,0,0,0,.008-1.447l-8.5-4.909A1.745,1.745,0,0,0,437.48,282.1Z" fill="#3c5185" opacity="0.804"/>
          <path id="Trazado_11667" data-name="Trazado 11667" d="M437.485,282.136l-8.451,4.879a.828.828,0,0,0,.008,1.439l8.459,4.763a1.741,1.741,0,0,0,1.7,0l8.459-4.763a.828.828,0,0,0,.008-1.439l-8.451-4.879A1.737,1.737,0,0,0,437.485,282.136Z" fill="#3c5185" opacity="0.824"/>
          <path id="Trazado_11668" data-name="Trazado 11668" d="M437.49,282.17l-8.4,4.85a.822.822,0,0,0,.008,1.429l8.408,4.734a1.723,1.723,0,0,0,1.692,0l8.408-4.734a.822.822,0,0,0,.008-1.429l-8.4-4.85A1.728,1.728,0,0,0,437.49,282.17Z" fill="#3c5185" opacity="0.843"/>
          <path id="Trazado_11669" data-name="Trazado 11669" d="M437.5,282.2l-8.348,4.819a.818.818,0,0,0,.007,1.421l8.357,4.7a1.714,1.714,0,0,0,1.682,0l8.357-4.7a.818.818,0,0,0,.007-1.421L439.21,282.2A1.71,1.71,0,0,0,437.5,282.2Z" fill="#3c5185" opacity="0.863"/>
          <path id="Trazado_11670" data-name="Trazado 11670" d="M437.5,282.237l-8.3,4.791a.813.813,0,0,0,.008,1.412l8.3,4.675a1.705,1.705,0,0,0,1.672,0l8.3-4.675a.813.813,0,0,0,.008-1.412l-8.3-4.791A1.706,1.706,0,0,0,437.5,282.237Z" fill="#3c5185" opacity="0.882"/>
          <path id="Trazado_11671" data-name="Trazado 11671" d="M437.506,282.271l-8.245,4.76a.808.808,0,0,0,.008,1.4l8.253,4.647a1.7,1.7,0,0,0,1.662,0l8.253-4.647a.808.808,0,0,0,.008-1.4l-8.245-4.76A1.7,1.7,0,0,0,437.506,282.271Z" fill="#3c5185" opacity="0.902"/>
          <path id="Trazado_11672" data-name="Trazado 11672" d="M437.511,282.3l-8.193,4.73a.8.8,0,0,0,.007,1.395l8.2,4.618a1.687,1.687,0,0,0,1.652,0l8.2-4.618a.8.8,0,0,0,.007-1.395l-8.194-4.73A1.681,1.681,0,0,0,437.511,282.3Z" fill="#3c5185" opacity="0.922"/>
          <path id="Trazado_11673" data-name="Trazado 11673" d="M437.517,282.339l-8.142,4.7a.8.8,0,0,0,.007,1.385l8.15,4.589a1.671,1.671,0,0,0,1.641,0l8.151-4.589a.8.8,0,0,0,.007-1.385l-8.142-4.7A1.671,1.671,0,0,0,437.517,282.339Z" fill="#3c5185" opacity="0.941"/>
          <path id="Trazado_11674" data-name="Trazado 11674" d="M437.522,282.372l-8.091,4.671a.794.794,0,0,0,.008,1.378l8.1,4.559a1.661,1.661,0,0,0,1.63,0l8.1-4.559a.794.794,0,0,0,.008-1.378l-8.091-4.671A1.661,1.661,0,0,0,437.522,282.372Z" fill="#3c5185" opacity="0.961"/>
          <path id="Trazado_11675" data-name="Trazado 11675" d="M437.527,282.406l-8.039,4.642a.787.787,0,0,0,.008,1.368l8.047,4.531a1.652,1.652,0,0,0,1.62,0l8.047-4.531a.787.787,0,0,0,.008-1.368l-8.039-4.642A1.652,1.652,0,0,0,437.527,282.406Z" fill="#3c5185" opacity="0.98"/>
          <path id="Trazado_11676" data-name="Trazado 11676" d="M437.533,282.44l-7.988,4.611a.783.783,0,0,0,.007,1.36l8,4.5a1.643,1.643,0,0,0,1.61,0l8-4.5a.783.783,0,0,0,.007-1.36l-7.988-4.611A1.64,1.64,0,0,0,437.533,282.44Z" fill="#3c5185"/>
        </g>
        <path id="Trazado_11677" data-name="Trazado 11677" d="M437.421,281.548l-9.514,4.292v1.577a1.036,1.036,0,0,0,.522.9l9.01,5.125a1.86,1.86,0,0,0,1.828,0l8.983-5.062a1.033,1.033,0,0,0,.526-.9v-1.452l-9.491-4.478A1.869,1.869,0,0,0,437.421,281.548Z" fill="url(#linear-gradient-4)"/>
        <path id="Trazado_11678" data-name="Trazado 11678" d="M437.421,279.825l-9.069,5.237a.887.887,0,0,0,.008,1.543l9.079,5.112a1.865,1.865,0,0,0,1.828,0l9.079-5.112a.888.888,0,0,0,.008-1.543l-9.069-5.237A1.864,1.864,0,0,0,437.421,279.825Z" fill="#fff"/>
        <path id="Trazado_11679" data-name="Trazado 11679" d="M448.354,285.062l-9.069-5.237a1.862,1.862,0,0,0-1.863,0l-1.938,1.1,11.3,6.527,1.557-.843A.888.888,0,0,0,448.354,285.062Z" fill="url(#linear-gradient-10)"/>
        <path id="Trazado_11680" data-name="Trazado 11680" d="M435.252,285.121l2.124-1.226-2.124-1.226-2.124,1.226Z" fill="#d1e1f2"/>
        <path id="Trazado_11681" data-name="Trazado 11681" d="M438.353,286.951l2.124-1.226-2.124-1.226-2.124,1.226Z" fill="#d1e1f2"/>
        <path id="Trazado_11682" data-name="Trazado 11682" d="M441.454,288.781l2.124-1.226-2.124-1.226-2.124,1.226Z" fill="#d1e1f2"/>
        <path id="Trazado_11683" data-name="Trazado 11683" d="M432.383,286.951l2.124-1.226-2.124-1.226-2.124,1.226Z" fill="#d1e1f2"/>
        <path id="Trazado_11684" data-name="Trazado 11684" d="M435.484,288.781l2.124-1.226-2.124-1.226-2.124,1.226Z" fill="#d1e1f2"/>
        <path id="Trazado_11685" data-name="Trazado 11685" d="M438.585,290.612l2.124-1.226-2.124-1.226-2.124,1.226Z" fill="#d1e1f2"/>
      </g>
      <g id="Grupo_3057" data-name="Grupo 3057">
        <path id="Trazado_11686" data-name="Trazado 11686" d="M449.714,273.421a14.27,14.27,0,0,1,12.863,0c3.537,2.042,3.537,5.384,0,7.426a14.27,14.27,0,0,1-12.863,0C446.177,278.8,446.177,275.463,449.714,273.421Z" fill="url(#radial-gradient)" style="mix-blend-mode: multiply;isolation: isolate"/>
        <path id="Trazado_11687" data-name="Trazado 11687" d="M462.527,274.42H461.8a4.7,4.7,0,0,0-1.17-.924,10.208,10.208,0,0,0-9.2,0,4.711,4.711,0,0,0-1.171.924h-.728v1.719h0a3.219,3.219,0,0,0,1.9,2.671,10.208,10.208,0,0,0,9.2,0,3.22,3.22,0,0,0,1.9-2.671h0Z" fill="url(#linear-gradient-11)"/>
        <ellipse id="Elipse_276" data-name="Elipse 276" cx="6.509" cy="3.758" rx="6.509" ry="3.758" transform="translate(449.517 270.662)" fill="url(#linear-gradient-12)"/>
        <path id="Trazado_11688" data-name="Trazado 11688" d="M451.9,272.037a9.155,9.155,0,0,1,8.255,0c2.27,1.31,2.27,3.455,0,4.766a9.161,9.161,0,0,1-8.255,0C449.628,275.492,449.628,273.347,451.9,272.037Z" fill="#fff"/>
        <g id="Grupo_3055" data-name="Grupo 3055">
          <path id="Trazado_11689" data-name="Trazado 11689" d="M456.169,274.753a.321.321,0,0,1-.161-.6l2.538-1.466a.321.321,0,1,1,.32.556l-2.537,1.465A.323.323,0,0,1,456.169,274.753Z" fill="#3c5185"/>
        </g>
        <g id="Grupo_3056" data-name="Grupo 3056">
          <path id="Trazado_11690" data-name="Trazado 11690" d="M459.311,276.426a.248.248,0,0,1-.12-.032l-3.036-1.754a.24.24,0,1,1,.24-.416l3.036,1.753a.241.241,0,0,1-.12.449Z" fill="#4a65a3"/>
        </g>
        <path id="Trazado_11691" data-name="Trazado 11691" d="M455.427,274a1.642,1.642,0,0,1,1.483,0,.453.453,0,0,1,0,.857,1.648,1.648,0,0,1-1.483,0A.453.453,0,0,1,455.427,274Z" fill="#3c5185"/>
        <path id="Trazado_11692" data-name="Trazado 11692" d="M459.289,272.248a.585.585,0,0,1,.525,0,.16.16,0,0,1,0,.3.578.578,0,0,1-.525,0A.16.16,0,0,1,459.289,272.248Z" fill="#3c5185"/>
        <path id="Trazado_11693" data-name="Trazado 11693" d="M452.463,272.248a.585.585,0,0,1,.525,0,.16.16,0,0,1,0,.3.578.578,0,0,1-.525,0A.16.16,0,0,1,452.463,272.248Z" fill="#3c5185"/>
        <ellipse id="Elipse_277" data-name="Elipse 277" cx="0.371" cy="0.214" rx="0.371" ry="0.214" transform="translate(451.983 276.211)" fill="#3c5185"/>
        <path id="Trazado_11694" data-name="Trazado 11694" d="M459.5,276.488a.585.585,0,0,1,.525,0,.16.16,0,0,1,0,.3.578.578,0,0,1-.525,0A.16.16,0,0,1,459.5,276.488Z" fill="#3c5185"/>
      </g>
    </g>
  </g>
</svg>
