<svg xmlns="http://www.w3.org/2000/svg" xmlns:xlink="http://www.w3.org/1999/xlink" width="209" height="233" viewBox="0 0 209 233">
  <defs>
    <linearGradient id="linear-gradient" x1="-9.287" y1="0.5" x2="-8.287" y2="0.5" gradientUnits="objectBoundingBox">
      <stop offset="0" stop-color="#fff"/>
      <stop offset="0.396" stop-color="#d5e6f7"/>
      <stop offset="0.786" stop-color="#b2d2f1"/>
      <stop offset="0.996" stop-color="#a5cbef"/>
    </linearGradient>
    <linearGradient id="linear-gradient-2" x1="-7.225" y1="0.5" x2="-6.225" y2="0.5" gradientUnits="objectBoundingBox">
      <stop offset="0.004" stop-color="#a5cbef"/>
      <stop offset="0.214" stop-color="#b2d2f1"/>
      <stop offset="0.604" stop-color="#d5e6f7"/>
      <stop offset="1" stop-color="#fff"/>
    </linearGradient>
    <linearGradient id="linear-gradient-3" x1="-10.128" y1="1.133" x2="-8.966" y2="1.133" gradientUnits="objectBoundingBox">
      <stop offset="0.15" stop-color="#ff9800"/>
      <stop offset="1" stop-color="#ffc107"/>
    </linearGradient>
    <linearGradient id="linear-gradient-4" y1="0.5" x2="1" y2="0.5" gradientUnits="objectBoundingBox">
      <stop offset="0" stop-color="#3c5185"/>
      <stop offset="0.128" stop-color="#41578d"/>
      <stop offset="0.695" stop-color="#5572b0"/>
      <stop offset="1" stop-color="#5d7dbe"/>
    </linearGradient>
    <linearGradient id="linear-gradient-6" x1="-4.708" y1="0.467" x2="-3.697" y2="0.467" xlink:href="#linear-gradient-3"/>
    <linearGradient id="linear-gradient-7" x1="1.021" y1="0.953" x2="0.212" y2="-0.026" xlink:href="#linear-gradient-4"/>
    <linearGradient id="linear-gradient-8" x1="1.021" y1="0.953" x2="0.211" y2="-0.026" xlink:href="#linear-gradient-4"/>
    <radialGradient id="radial-gradient" cx="0.5" cy="0.5" r="0.875" gradientTransform="translate(0.211 473.063) scale(0.577 0.517)" gradientUnits="objectBoundingBox">
      <stop offset="0" stop-color="#3c5185"/>
      <stop offset="0.052" stop-color="#596b97"/>
      <stop offset="0.141" stop-color="#8492b2"/>
      <stop offset="0.235" stop-color="#aab3ca"/>
      <stop offset="0.331" stop-color="#c9cfdd"/>
      <stop offset="0.432" stop-color="#e0e4ec"/>
      <stop offset="0.539" stop-color="#f1f3f6"/>
      <stop offset="0.656" stop-color="#fbfcfd"/>
      <stop offset="0.802" stop-color="#fff"/>
    </radialGradient>
    <linearGradient id="linear-gradient-9" y1="0.5" x2="1" y2="0.5" gradientUnits="objectBoundingBox">
      <stop offset="0.021" stop-color="#ffc107"/>
      <stop offset="0.143" stop-color="#ffbb06"/>
      <stop offset="1" stop-color="#ff9800"/>
    </linearGradient>
    <linearGradient id="linear-gradient-11" x1="0.194" y1="0.518" x2="1.281" y2="0.518" gradientUnits="objectBoundingBox">
      <stop offset="0" stop-color="#7ea7df"/>
      <stop offset="0.358" stop-color="#a0bfe6"/>
      <stop offset="0.775" stop-color="#c3d7ee"/>
      <stop offset="1" stop-color="#d1e1f2"/>
    </linearGradient>
    <clipPath id="clip-basic_telegestion">
      <rect width="209" height="233"/>
    </clipPath>
  </defs>
  <g id="basic_telegestion" clip-path="url(#clip-basic_telegestion)">
    <rect width="209" height="233" fill="rgba(255,255,255,0)"/>
    <g id="Grupo_1652" data-name="Grupo 1652" transform="translate(-74.573 29.332)">
      <g id="Grupo_1618" data-name="Grupo 1618">
        <g id="Grupo_1613" data-name="Grupo 1613" opacity="0.7">
          <path id="Trazado_3468" data-name="Trazado 3468" d="M195.495,89.03l32.387,18.514a1.052,1.052,0,0,1,0,1.823L177.459,138.48a4.176,4.176,0,0,1-4.163.009l-32.387-18.514a1.051,1.051,0,0,1,0-1.822l50.427-29.114A4.178,4.178,0,0,1,195.495,89.03Z" fill="#3c5185" opacity="0"/>
          <path id="Trazado_3469" data-name="Trazado 3469" d="M195.461,89.06l32.289,18.458a1.048,1.048,0,0,1,0,1.817L177.481,138.36a4.168,4.168,0,0,1-4.151.009l-32.289-18.458a1.048,1.048,0,0,1,0-1.817L191.31,89.069A4.166,4.166,0,0,1,195.461,89.06Z" fill="#3c5185" opacity="0.024"/>
          <path id="Trazado_3470" data-name="Trazado 3470" d="M195.427,89.09l32.19,18.4a1.045,1.045,0,0,1,0,1.812L177.5,138.24a4.154,4.154,0,0,1-4.138.008l-32.19-18.4a1.045,1.045,0,0,1,0-1.812L191.289,89.1A4.154,4.154,0,0,1,195.427,89.09Z" fill="#3c5185" opacity="0.049"/>
          <path id="Trazado_3471" data-name="Trazado 3471" d="M195.393,89.12l32.092,18.345a1.041,1.041,0,0,1,0,1.806l-49.966,28.848a4.139,4.139,0,0,1-4.125.009l-32.092-18.345a1.041,1.041,0,0,1,0-1.806l49.966-28.848A4.139,4.139,0,0,1,195.393,89.12Z" fill="#3c5185" opacity="0.073"/>
          <path id="Trazado_3472" data-name="Trazado 3472" d="M195.359,89.15l31.994,18.289a1.038,1.038,0,0,1,0,1.8L177.544,138a4.129,4.129,0,0,1-4.112.009l-31.994-18.289a1.038,1.038,0,0,1,0-1.8l49.813-28.759A4.127,4.127,0,0,1,195.359,89.15Z" fill="#3c5185" opacity="0.098"/>
          <path id="Trazado_3473" data-name="Trazado 3473" d="M195.326,89.18l31.895,18.232a1.035,1.035,0,0,1,0,1.795l-49.659,28.671a4.114,4.114,0,0,1-4.1.009L141.57,119.655a1.036,1.036,0,0,1,0-1.795l49.66-28.671A4.114,4.114,0,0,1,195.326,89.18Z" fill="#3c5185" opacity="0.122"/>
          <path id="Trazado_3474" data-name="Trazado 3474" d="M195.292,89.21l31.8,18.176a1.032,1.032,0,0,1,0,1.79l-49.506,28.582a4.1,4.1,0,0,1-4.087.009l-31.8-18.176a1.032,1.032,0,0,1,0-1.79l49.506-28.582A4.1,4.1,0,0,1,195.292,89.21Z" fill="#3c5185" opacity="0.146"/>
          <path id="Trazado_3475" data-name="Trazado 3475" d="M195.258,89.24l31.7,18.12a1.029,1.029,0,0,1,0,1.784l-49.353,28.493a4.087,4.087,0,0,1-4.074.009l-31.7-18.12a1.028,1.028,0,0,1,0-1.783l49.353-28.494A4.087,4.087,0,0,1,195.258,89.24Z" fill="#3c5185" opacity="0.171"/>
          <path id="Trazado_3476" data-name="Trazado 3476" d="M195.224,89.27l31.6,18.063a1.026,1.026,0,0,1,0,1.779l-49.2,28.4a4.075,4.075,0,0,1-4.061.009l-31.6-18.064a1.025,1.025,0,0,1,0-1.778l49.2-28.4A4.073,4.073,0,0,1,195.224,89.27Z" fill="#3c5185" opacity="0.195"/>
          <path id="Trazado_3477" data-name="Trazado 3477" d="M195.191,89.3l31.5,18.007a1.022,1.022,0,0,1,0,1.773L177.649,137.4a4.065,4.065,0,0,1-4.049.008L142.1,119.4a1.021,1.021,0,0,1,0-1.772l49.046-28.317A4.065,4.065,0,0,1,195.191,89.3Z" fill="#3c5185" opacity="0.22"/>
          <path id="Trazado_3478" data-name="Trazado 3478" d="M195.157,89.33l31.4,17.951a1.019,1.019,0,0,1,0,1.767L177.67,137.276a4.05,4.05,0,0,1-4.036.009l-31.4-17.951a1.019,1.019,0,0,1,0-1.767L191.12,89.339A4.052,4.052,0,0,1,195.157,89.33Z" fill="#3c5185" opacity="0.244"/>
          <path id="Trazado_3479" data-name="Trazado 3479" d="M195.123,89.36l31.3,17.895a1.015,1.015,0,0,1,0,1.761l-48.739,28.14a4.04,4.04,0,0,1-4.024.009l-31.3-17.895a1.016,1.016,0,0,1,0-1.762L191.1,89.369A4.038,4.038,0,0,1,195.123,89.36Z" fill="#3c5185" opacity="0.268"/>
          <path id="Trazado_3480" data-name="Trazado 3480" d="M195.089,89.39l31.206,17.838a1.013,1.013,0,0,1,0,1.756l-48.585,28.051a4.023,4.023,0,0,1-4.011.009L142.5,119.206a1.013,1.013,0,0,1,0-1.756L191.078,89.4A4.023,4.023,0,0,1,195.089,89.39Z" fill="#3c5185" opacity="0.293"/>
          <path id="Trazado_3481" data-name="Trazado 3481" d="M195.056,89.42,226.162,107.2a1.009,1.009,0,0,1,0,1.751l-48.432,27.962a4.015,4.015,0,0,1-4,.009l-31.106-17.782a1.009,1.009,0,0,1,0-1.751l48.432-27.962A4.015,4.015,0,0,1,195.056,89.42Z" fill="#3c5185" opacity="0.317"/>
          <path id="Trazado_3482" data-name="Trazado 3482" d="M195.022,89.45l31.008,17.726a1.006,1.006,0,0,1,0,1.745l-48.279,27.874a4,4,0,0,1-3.986.008l-31.008-17.725a1.006,1.006,0,0,1,0-1.745l48.279-27.874A4,4,0,0,1,195.022,89.45Z" fill="#3c5185" opacity="0.341"/>
          <path id="Trazado_3483" data-name="Trazado 3483" d="M194.988,89.48l30.91,17.67a1,1,0,0,1,0,1.739l-48.126,27.785a3.986,3.986,0,0,1-3.973.009l-30.91-17.669a1,1,0,0,1,0-1.74l48.126-27.785A3.986,3.986,0,0,1,194.988,89.48Z" fill="#3c5185" opacity="0.366"/>
          <path id="Trazado_3484" data-name="Trazado 3484" d="M194.954,89.51l30.811,17.613a1,1,0,0,1,0,1.734l-47.972,27.7a3.976,3.976,0,0,1-3.96.009l-30.812-17.614a1,1,0,0,1,0-1.733l47.972-27.7A3.974,3.974,0,0,1,194.954,89.51Z" fill="#3c5185" opacity="0.39"/>
          <path id="Trazado_3485" data-name="Trazado 3485" d="M194.921,89.54,225.633,107.1a1,1,0,0,1,0,1.728l-47.819,27.609a3.966,3.966,0,0,1-3.948.008l-30.712-17.557a1,1,0,0,1,0-1.728l47.819-27.608A3.964,3.964,0,0,1,194.921,89.54Z" fill="#3c5185" opacity="0.415"/>
          <path id="Trazado_3486" data-name="Trazado 3486" d="M194.887,89.57l30.614,17.5a.993.993,0,0,1,0,1.723l-47.666,27.52a3.949,3.949,0,0,1-3.935.009l-30.614-17.5a.993.993,0,0,1,0-1.723l47.666-27.519A3.949,3.949,0,0,1,194.887,89.57Z" fill="#3c5185" opacity="0.439"/>
          <path id="Trazado_3487" data-name="Trazado 3487" d="M194.853,89.6l30.516,17.444a.991.991,0,0,1,0,1.718L177.86,136.193a3.937,3.937,0,0,1-3.922.008l-30.516-17.444a.99.99,0,0,1,0-1.717l47.512-27.431A3.935,3.935,0,0,1,194.853,89.6Z" fill="#3c5185" opacity="0.463"/>
          <path id="Trazado_3488" data-name="Trazado 3488" d="M194.819,89.63l30.417,17.388a.987.987,0,0,1,0,1.712l-47.359,27.342a3.923,3.923,0,0,1-3.909.009l-30.417-17.388a.987.987,0,0,1,0-1.712L190.91,89.639A3.925,3.925,0,0,1,194.819,89.63Z" fill="#3c5185" opacity="0.488"/>
          <path id="Trazado_3489" data-name="Trazado 3489" d="M194.786,89.66,225.1,106.992a.984.984,0,0,1,0,1.706L177.9,135.952a3.91,3.91,0,0,1-3.9.008l-30.318-17.331a.984.984,0,0,1,0-1.706l47.205-27.254A3.914,3.914,0,0,1,194.786,89.66Z" fill="#3c5185" opacity="0.512"/>
          <path id="Trazado_3490" data-name="Trazado 3490" d="M194.752,89.69l30.22,17.275a.981.981,0,0,1,0,1.7l-47.052,27.165a3.9,3.9,0,0,1-3.885.009l-30.22-17.275a.981.981,0,0,1,0-1.7L190.867,89.7A3.9,3.9,0,0,1,194.752,89.69Z" fill="#3c5185" opacity="0.537"/>
          <path id="Trazado_3491" data-name="Trazado 3491" d="M194.718,89.72l30.121,17.219a.977.977,0,0,1,0,1.695l-46.9,27.077a3.887,3.887,0,0,1-3.872.008L143.951,118.5a.977.977,0,0,1,0-1.695l46.9-27.077A3.885,3.885,0,0,1,194.718,89.72Z" fill="#3c5185" opacity="0.561"/>
          <path id="Trazado_3492" data-name="Trazado 3492" d="M194.684,89.75l30.023,17.163a.974.974,0,0,1,0,1.689l-46.745,26.989a3.875,3.875,0,0,1-3.859.008l-30.023-17.162a.975.975,0,0,1,0-1.69l46.745-26.988A3.873,3.873,0,0,1,194.684,89.75Z" fill="#3c5185" opacity="0.585"/>
          <path id="Trazado_3493" data-name="Trazado 3493" d="M194.651,89.78l29.924,17.106a.971.971,0,0,1,0,1.684l-46.592,26.9a3.861,3.861,0,0,1-3.846.009l-29.925-17.106a.972.972,0,0,1,0-1.685l46.592-26.9A3.865,3.865,0,0,1,194.651,89.78Z" fill="#3c5185" opacity="0.61"/>
          <path id="Trazado_3494" data-name="Trazado 3494" d="M194.617,89.81l29.826,17.05a.968.968,0,0,1,0,1.679L178.008,135.35a3.85,3.85,0,0,1-3.834.008l-29.826-17.05a.968.968,0,0,1,0-1.678l46.438-26.811A3.848,3.848,0,0,1,194.617,89.81Z" fill="#3c5185" opacity="0.634"/>
          <path id="Trazado_3495" data-name="Trazado 3495" d="M194.583,89.84l29.727,16.994a.964.964,0,0,1,0,1.673l-46.285,26.722a3.834,3.834,0,0,1-3.821.009l-29.727-16.994a.964.964,0,0,1,0-1.673l46.285-26.722A3.833,3.833,0,0,1,194.583,89.84Z" fill="#3c5185" opacity="0.659"/>
          <path id="Trazado_3496" data-name="Trazado 3496" d="M194.549,89.87l29.629,16.937a.962.962,0,0,1,0,1.668L178.05,135.109a3.821,3.821,0,0,1-3.808.008L144.613,118.18a.961.961,0,0,1,0-1.667l46.132-26.634A3.821,3.821,0,0,1,194.549,89.87Z" fill="#3c5185" opacity="0.683"/>
          <path id="Trazado_3497" data-name="Trazado 3497" d="M194.515,89.9l29.531,16.881a.958.958,0,0,1,0,1.662l-45.978,26.546a3.812,3.812,0,0,1-3.795.008l-29.531-16.881a.959.959,0,0,1,0-1.662L190.72,89.908A3.812,3.812,0,0,1,194.515,89.9Z" fill="#3c5185" opacity="0.707"/>
          <path id="Trazado_3498" data-name="Trazado 3498" d="M194.482,89.931l29.432,16.824a.955.955,0,0,1,0,1.656l-45.825,26.457a3.794,3.794,0,0,1-3.783.008l-29.432-16.824a.956.956,0,0,1,0-1.657L190.7,89.939A3.794,3.794,0,0,1,194.482,89.931Z" fill="#3c5185" opacity="0.732"/>
          <path id="Trazado_3499" data-name="Trazado 3499" d="M194.448,89.96l29.333,16.769a.951.951,0,0,1,0,1.65l-45.672,26.369a3.784,3.784,0,0,1-3.77.008L145.01,117.988a.952.952,0,0,1,0-1.651l45.672-26.369A3.784,3.784,0,0,1,194.448,89.96Z" fill="#3c5185" opacity="0.756"/>
          <path id="Trazado_3500" data-name="Trazado 3500" d="M194.414,89.99,223.649,106.7a.948.948,0,0,1,0,1.645l-45.518,26.28a3.774,3.774,0,0,1-3.758.009l-29.235-16.712a.949.949,0,0,1,0-1.646L190.656,90A3.774,3.774,0,0,1,194.414,89.99Z" fill="#3c5185" opacity="0.78"/>
          <path id="Trazado_3501" data-name="Trazado 3501" d="M194.38,90.02l29.137,16.656a.946.946,0,0,1,0,1.64l-45.364,26.191a3.757,3.757,0,0,1-3.745.008l-29.137-16.656a.945.945,0,0,1,0-1.639l45.364-26.192A3.762,3.762,0,0,1,194.38,90.02Z" fill="#3c5185" opacity="0.805"/>
          <path id="Trazado_3502" data-name="Trazado 3502" d="M194.347,90.051l29.037,16.6a.942.942,0,0,1,0,1.634l-45.211,26.1a3.749,3.749,0,0,1-3.733.008l-29.037-16.6a.942.942,0,0,1,0-1.634l45.211-26.1A3.744,3.744,0,0,1,194.347,90.051Z" fill="#3c5185" opacity="0.829"/>
          <path id="Trazado_3503" data-name="Trazado 3503" d="M194.313,90.081l28.939,16.542a.94.94,0,0,1,0,1.629L178.2,134.266a3.735,3.735,0,0,1-3.72.008l-28.939-16.543a.939.939,0,0,1,0-1.628l45.058-26.014A3.732,3.732,0,0,1,194.313,90.081Z" fill="#3c5185" opacity="0.854"/>
          <path id="Trazado_3504" data-name="Trazado 3504" d="M194.279,90.111,223.12,106.6a.936.936,0,0,1,0,1.623l-44.9,25.926a3.72,3.72,0,0,1-3.707.008l-28.841-16.487a.936.936,0,0,1,0-1.623l44.9-25.926A3.723,3.723,0,0,1,194.279,90.111Z" fill="#3c5185" opacity="0.878"/>
          <path id="Trazado_3505" data-name="Trazado 3505" d="M194.245,90.141l28.743,16.43a.932.932,0,0,1,0,1.617L178.24,134.025a3.706,3.706,0,0,1-3.694.008L145.8,117.6a.933.933,0,0,1,0-1.618l44.751-25.836A3.706,3.706,0,0,1,194.245,90.141Z" fill="#3c5185" opacity="0.902"/>
          <path id="Trazado_3506" data-name="Trazado 3506" d="M194.212,90.171l28.643,16.374a.929.929,0,0,1,0,1.611l-44.6,25.749a3.7,3.7,0,0,1-3.682.008l-28.643-16.374a.93.93,0,0,1,0-1.612l44.6-25.749A3.7,3.7,0,0,1,194.212,90.171Z" fill="#3c5185" opacity="0.927"/>
          <path id="Trazado_3507" data-name="Trazado 3507" d="M194.178,90.2l28.545,16.317a.926.926,0,0,1,0,1.607l-44.444,25.66a3.681,3.681,0,0,1-3.669.007l-28.545-16.317a.927.927,0,0,1,0-1.607l44.445-25.66A3.683,3.683,0,0,1,194.178,90.2Z" fill="#3c5185" opacity="0.951"/>
          <path id="Trazado_3508" data-name="Trazado 3508" d="M194.144,90.231l28.447,16.261a.923.923,0,0,1,0,1.6L178.3,133.664a3.669,3.669,0,0,1-3.656.008L146.2,117.411a.923.923,0,0,1,0-1.6l44.291-25.571A3.669,3.669,0,0,1,194.144,90.231Z" fill="#3c5185" opacity="0.976"/>
          <path id="Trazado_3509" data-name="Trazado 3509" d="M194.11,90.261l28.348,16.205a.919.919,0,0,1,0,1.595l-44.138,25.483a3.659,3.659,0,0,1-3.643.008l-28.348-16.205a.92.92,0,0,1,0-1.6l44.137-25.483A3.658,3.658,0,0,1,194.11,90.261Z" fill="#3c5185"/>
        </g>
        <path id="Trazado_3510" data-name="Trazado 3510" d="M132.581,75.492,181.5,47.251a.99.99,0,0,1,1.486.858l9.1,36.864a2.154,2.154,0,0,1-1.078,1.866L142.09,115.081c-.661.381-1.175.062-1.487-.859l-9.1-36.864A2.154,2.154,0,0,1,132.581,75.492Z" fill="url(#linear-gradient)"/>
        <path id="Trazado_3511" data-name="Trazado 3511" d="M133.213,75.913l48.916-28.241a.991.991,0,0,1,1.487.859l9.1,36.864a2.157,2.157,0,0,1-1.077,1.866L142.722,115.5c-.661.382-1.271-.359-1.487-.858l-9.1-36.865A2.157,2.157,0,0,1,133.213,75.913Z" fill="#3c5185"/>
        <path id="Trazado_3512" data-name="Trazado 3512" d="M135.034,78.242l46.688-27.033,8.442,34.026-46.7,27.053Z" fill="#edf3fa"/>
        <path id="Trazado_3513" data-name="Trazado 3513" d="M194.7,89.037l31.325,16.523s.172,2.446-.5,2.832L177.534,136.1a3.977,3.977,0,0,1-3.963.009l-30.824-17.621c-1.275-.79-.5-2.837-.5-2.837l48.493-26.606A3.975,3.975,0,0,1,194.7,89.037Z" fill="url(#linear-gradient-2)"/>
        <path id="Trazado_3514" data-name="Trazado 3514" d="M194.7,87.14l30.825,17.621a1,1,0,0,1,0,1.735l-47.993,27.709a3.98,3.98,0,0,1-3.963.008l-30.824-17.621a1,1,0,0,1,0-1.734l47.993-27.709A3.978,3.978,0,0,1,194.7,87.14Z" fill="#fff"/>
        <path id="Trazado_3515" data-name="Trazado 3515" d="M197.431,109.957l8.125,4.644a.264.264,0,0,1,0,.457l-12.65,7.3a1.049,1.049,0,0,1-1.044,0l-8.125-4.644a.264.264,0,0,1,0-.458l12.65-7.3A1.049,1.049,0,0,1,197.431,109.957Z" fill="#d1e1f2"/>
        <path id="Trazado_3516" data-name="Trazado 3516" d="M191.3,89.832l-2.655,1.534a.158.158,0,0,0,0,.274l1.319.759a.345.345,0,0,0,.342,0l2.656-1.533a.158.158,0,0,0,0-.274l-1.319-.759A.342.342,0,0,0,191.3,89.832Z" fill="#d1e1f2"/>
        <path id="Trazado_3517" data-name="Trazado 3517" d="M187.408,92.151l-2.656,1.533a.158.158,0,0,0,0,.274l1.319.759a.34.34,0,0,0,.342,0l2.655-1.533a.158.158,0,0,0,0-.274l-1.319-.759A.345.345,0,0,0,187.408,92.151Z" fill="#d1e1f2"/>
        <path id="Trazado_3518" data-name="Trazado 3518" d="M183.5,94.345l-2.655,1.534a.158.158,0,0,0,0,.274l1.319.759a.345.345,0,0,0,.342,0l2.656-1.533a.159.159,0,0,0,0-.274l-1.32-.759A.342.342,0,0,0,183.5,94.345Z" fill="#d1e1f2"/>
        <path id="Trazado_3519" data-name="Trazado 3519" d="M179.479,96.612l-2.656,1.533a.159.159,0,0,0,0,.275l1.32.758a.342.342,0,0,0,.342,0l2.655-1.533a.159.159,0,0,0,0-.275l-1.319-.758A.342.342,0,0,0,179.479,96.612Z" fill="#d1e1f2"/>
        <path id="Trazado_3520" data-name="Trazado 3520" d="M175.614,98.766l-2.656,1.534a.158.158,0,0,0,0,.274l1.319.758a.342.342,0,0,0,.342,0l2.656-1.533a.159.159,0,0,0,0-.275l-1.319-.758A.342.342,0,0,0,175.614,98.766Z" fill="#d1e1f2"/>
        <path id="Trazado_3521" data-name="Trazado 3521" d="M171.856,101.084l-2.656,1.534a.158.158,0,0,0,0,.274l1.32.759a.345.345,0,0,0,.342,0l2.655-1.533a.159.159,0,0,0,0-.275l-1.319-.758A.342.342,0,0,0,171.856,101.084Z" fill="#d1e1f2"/>
        <path id="Trazado_3522" data-name="Trazado 3522" d="M167.922,103.253l-2.656,1.534a.158.158,0,0,0,0,.274l1.319.759a.34.34,0,0,0,.342,0l2.656-1.533a.158.158,0,0,0,0-.274l-1.32-.759A.346.346,0,0,0,167.922,103.253Z" fill="#d1e1f2"/>
        <path id="Trazado_3523" data-name="Trazado 3523" d="M164.046,105.561,161.39,107.1a.159.159,0,0,0,0,.274l1.32.758a.341.341,0,0,0,.341,0l2.656-1.533a.159.159,0,0,0,0-.275l-1.319-.758A.345.345,0,0,0,164.046,105.561Z" fill="#d1e1f2"/>
        <path id="Trazado_3524" data-name="Trazado 3524" d="M160.235,107.811l-2.656,1.533a.158.158,0,0,0,0,.274l1.319.759a.345.345,0,0,0,.342,0l2.656-1.533a.158.158,0,0,0,0-.274l-1.32-.759A.338.338,0,0,0,160.235,107.811Z" fill="#d1e1f2"/>
        <path id="Trazado_3525" data-name="Trazado 3525" d="M156.217,110.125l-2.656,1.534a.158.158,0,0,0,0,.274l1.319.758a.342.342,0,0,0,.342,0l2.656-1.533a.159.159,0,0,0,0-.275l-1.32-.758A.341.341,0,0,0,156.217,110.125Z" fill="#d1e1f2"/>
        <path id="Trazado_3526" data-name="Trazado 3526" d="M152.315,112.315l-2.656,1.533a.159.159,0,0,0,0,.275l1.319.758a.342.342,0,0,0,.342,0l2.656-1.534a.158.158,0,0,0,0-.274l-1.32-.758A.341.341,0,0,0,152.315,112.315Z" fill="#d1e1f2"/>
        <g id="Grupo_1614" data-name="Grupo 1614">
          <path id="Trazado_3527" data-name="Trazado 3527" d="M196.7,92.722l-1.8-1.054a.751.751,0,0,0-.757,0l-1.757,1.014a.374.374,0,0,0-.009.643l1.748,1.073a.75.75,0,0,0,.769.011l1.8-1.038A.374.374,0,0,0,196.7,92.722Z" fill="#d1e1f2"/>
          <path id="Trazado_3528" data-name="Trazado 3528" d="M192.673,95.04l-1.8-1.054a.754.754,0,0,0-.756,0L188.359,95a.374.374,0,0,0-.008.643l1.747,1.073a.754.754,0,0,0,.77.01l1.8-1.038A.374.374,0,0,0,192.673,95.04Z" fill="#d1e1f2"/>
          <path id="Trazado_3529" data-name="Trazado 3529" d="M188.761,97.235l-1.8-1.054a.749.749,0,0,0-.756,0l-1.758,1.014a.376.376,0,0,0-.009.644l1.748,1.072a.75.75,0,0,0,.769.011l1.8-1.038A.374.374,0,0,0,188.761,97.235Z" fill="#d1e1f2"/>
          <path id="Trazado_3530" data-name="Trazado 3530" d="M184.6,99.5l-1.8-1.053a.751.751,0,0,0-.756,0l-1.758,1.015a.374.374,0,0,0-.008.643l1.747,1.073a.756.756,0,0,0,.77.011l1.8-1.038A.375.375,0,0,0,184.6,99.5Z" fill="#d1e1f2"/>
          <path id="Trazado_3531" data-name="Trazado 3531" d="M180.935,101.655l-1.8-1.053a.749.749,0,0,0-.756,0l-1.758,1.014a.374.374,0,0,0-.008.643l1.747,1.073a.754.754,0,0,0,.77.011l1.8-1.038A.375.375,0,0,0,180.935,101.655Z" fill="#d1e1f2"/>
          <path id="Trazado_3532" data-name="Trazado 3532" d="M177.21,103.962l-1.8-1.054a.751.751,0,0,0-.757,0L172.9,103.92a.374.374,0,0,0-.009.643l1.748,1.073a.752.752,0,0,0,.769.011l1.8-1.038A.374.374,0,0,0,177.21,103.962Z" fill="#d1e1f2"/>
          <path id="Trazado_3533" data-name="Trazado 3533" d="M173.23,106.143l-1.8-1.054a.756.756,0,0,0-.757,0l-1.758,1.015a.374.374,0,0,0-.008.643l1.747,1.073a.754.754,0,0,0,.77.01l1.8-1.038A.374.374,0,0,0,173.23,106.143Z" fill="#d1e1f2"/>
          <path id="Trazado_3534" data-name="Trazado 3534" d="M169.335,108.351l-1.8-1.054a.754.754,0,0,0-.756,0l-1.758,1.015a.374.374,0,0,0-.008.643l1.747,1.073a.756.756,0,0,0,.77.011l1.8-1.039A.374.374,0,0,0,169.335,108.351Z" fill="#d1e1f2"/>
          <path id="Trazado_3535" data-name="Trazado 3535" d="M165.505,110.7l-1.8-1.054a.751.751,0,0,0-.757,0l-1.757,1.014a.375.375,0,0,0-.009.644l1.748,1.072a.75.75,0,0,0,.769.011l1.8-1.038A.374.374,0,0,0,165.505,110.7Z" fill="#d1e1f2"/>
          <path id="Trazado_3536" data-name="Trazado 3536" d="M161.333,113.157l-1.8-1.053a.751.751,0,0,0-.756,0l-1.758,1.015a.374.374,0,0,0-.008.643l1.747,1.073a.754.754,0,0,0,.77.01l1.8-1.038A.374.374,0,0,0,161.333,113.157Z" fill="#d1e1f2"/>
          <path id="Trazado_3537" data-name="Trazado 3537" d="M157.56,115.2l-1.8-1.054a.754.754,0,0,0-.756,0l-1.758,1.015a.375.375,0,0,0-.009.643l1.748,1.073a.756.756,0,0,0,.77.011l1.8-1.039A.374.374,0,0,0,157.56,115.2Z" fill="#d1e1f2"/>
        </g>
        <g id="Grupo_1615" data-name="Grupo 1615">
          <path id="Trazado_3538" data-name="Trazado 3538" d="M200.71,94.9l-1.8-1.053a.751.751,0,0,0-.757,0L196.4,94.86a.374.374,0,0,0-.009.643l1.748,1.073a.75.75,0,0,0,.769.011l1.8-1.038A.375.375,0,0,0,200.71,94.9Z" fill="#d1e1f2"/>
          <path id="Trazado_3539" data-name="Trazado 3539" d="M196.682,97.22l-1.8-1.054a.754.754,0,0,0-.756,0l-1.758,1.015a.374.374,0,0,0-.008.643l1.747,1.073a.754.754,0,0,0,.77.01l1.8-1.038A.374.374,0,0,0,196.682,97.22Z" fill="#d1e1f2"/>
          <path id="Trazado_3540" data-name="Trazado 3540" d="M192.77,99.415l-1.8-1.054a.753.753,0,0,0-.757,0l-1.757,1.014a.375.375,0,0,0-.009.644l1.748,1.072a.75.75,0,0,0,.769.011l1.8-1.038A.374.374,0,0,0,192.77,99.415Z" fill="#d1e1f2"/>
          <path id="Trazado_3541" data-name="Trazado 3541" d="M188.609,101.681l-1.8-1.053a.751.751,0,0,0-.756,0L184.3,101.64a.374.374,0,0,0-.009.643l1.748,1.073a.754.754,0,0,0,.769.011l1.8-1.039A.374.374,0,0,0,188.609,101.681Z" fill="#d1e1f2"/>
          <path id="Trazado_3542" data-name="Trazado 3542" d="M184.943,103.835l-1.8-1.053a.751.751,0,0,0-.756,0l-1.758,1.015a.374.374,0,0,0-.008.643l1.747,1.073a.756.756,0,0,0,.77.011l1.8-1.038A.375.375,0,0,0,184.943,103.835Z" fill="#d1e1f2"/>
          <path id="Trazado_3543" data-name="Trazado 3543" d="M181.219,106.141l-1.8-1.053a.751.751,0,0,0-.757,0L176.9,106.1a.374.374,0,0,0-.008.643l1.747,1.073a.754.754,0,0,0,.77.011l1.8-1.038A.374.374,0,0,0,181.219,106.141Z" fill="#d1e1f2"/>
          <path id="Trazado_3544" data-name="Trazado 3544" d="M177.239,108.323l-1.8-1.054a.751.751,0,0,0-.756,0l-1.758,1.015a.374.374,0,0,0-.008.643L174.664,110a.754.754,0,0,0,.77.01l1.8-1.038A.374.374,0,0,0,177.239,108.323Z" fill="#d1e1f2"/>
          <path id="Trazado_3545" data-name="Trazado 3545" d="M173.344,110.531l-1.8-1.054a.754.754,0,0,0-.756,0l-1.758,1.015a.374.374,0,0,0-.008.643l1.747,1.073a.756.756,0,0,0,.77.011l1.8-1.039A.374.374,0,0,0,173.344,110.531Z" fill="#d1e1f2"/>
          <path id="Trazado_3546" data-name="Trazado 3546" d="M169.514,112.88l-1.8-1.054a.753.753,0,0,0-.757,0l-1.758,1.014a.374.374,0,0,0-.008.643l1.747,1.074a.754.754,0,0,0,.77.01l1.8-1.038A.374.374,0,0,0,169.514,112.88Z" fill="#d1e1f2"/>
          <path id="Trazado_3547" data-name="Trazado 3547" d="M165.341,115.337l-1.8-1.054a.756.756,0,0,0-.757,0l-1.757,1.015a.374.374,0,0,0-.009.643l1.748,1.073a.754.754,0,0,0,.769.011l1.8-1.039A.374.374,0,0,0,165.341,115.337Z" fill="#d1e1f2"/>
          <path id="Trazado_3548" data-name="Trazado 3548" d="M161.569,117.384l-1.8-1.053a.751.751,0,0,0-.756,0l-1.758,1.015a.375.375,0,0,0-.009.643l1.748,1.073a.754.754,0,0,0,.77.01l1.8-1.038A.374.374,0,0,0,161.569,117.384Z" fill="#d1e1f2"/>
        </g>
        <g id="Grupo_1616" data-name="Grupo 1616">
          <path id="Trazado_3549" data-name="Trazado 3549" d="M204.719,97.082l-1.8-1.054a.753.753,0,0,0-.757,0l-1.757,1.014a.374.374,0,0,0-.009.643l1.748,1.073a.75.75,0,0,0,.769.011l1.8-1.038A.374.374,0,0,0,204.719,97.082Z" fill="#d1e1f2"/>
          <path id="Trazado_3550" data-name="Trazado 3550" d="M200.691,99.4l-1.8-1.054a.751.751,0,0,0-.756,0l-1.758,1.015a.374.374,0,0,0-.008.643l1.747,1.072a.751.751,0,0,0,.77.011l1.8-1.038A.374.374,0,0,0,200.691,99.4Z" fill="#d1e1f2"/>
          <path id="Trazado_3551" data-name="Trazado 3551" d="M196.779,101.6l-1.8-1.054a.753.753,0,0,0-.757,0l-1.757,1.014a.375.375,0,0,0-.009.644l1.748,1.072a.75.75,0,0,0,.769.011l1.8-1.038A.374.374,0,0,0,196.779,101.6Z" fill="#d1e1f2"/>
          <path id="Trazado_3552" data-name="Trazado 3552" d="M192.618,103.861l-1.8-1.053a.753.753,0,0,0-.757,0L188.3,103.82a.374.374,0,0,0-.009.643l1.748,1.073a.754.754,0,0,0,.769.011l1.8-1.038A.375.375,0,0,0,192.618,103.861Z" fill="#d1e1f2"/>
          <path id="Trazado_3553" data-name="Trazado 3553" d="M188.952,106.015l-1.8-1.053a.749.749,0,0,0-.756,0l-1.758,1.014a.374.374,0,0,0-.009.643l1.748,1.073a.754.754,0,0,0,.769.011l1.8-1.038A.375.375,0,0,0,188.952,106.015Z" fill="#d1e1f2"/>
          <path id="Trazado_3554" data-name="Trazado 3554" d="M185.228,108.322l-1.8-1.054a.749.749,0,0,0-.756,0l-1.758,1.014a.374.374,0,0,0-.008.643L182.653,110a.752.752,0,0,0,.77.011l1.8-1.038A.374.374,0,0,0,185.228,108.322Z" fill="#d1e1f2"/>
          <path id="Trazado_3555" data-name="Trazado 3555" d="M181.248,110.5l-1.8-1.054a.754.754,0,0,0-.756,0l-1.758,1.015a.374.374,0,0,0-.008.643l1.747,1.072a.751.751,0,0,0,.77.011l1.8-1.038A.374.374,0,0,0,181.248,110.5Z" fill="#d1e1f2"/>
          <path id="Trazado_3556" data-name="Trazado 3556" d="M177.353,112.711l-1.8-1.053a.751.751,0,0,0-.756,0l-1.758,1.015a.374.374,0,0,0-.008.643l1.747,1.073a.754.754,0,0,0,.77.01l1.8-1.038A.374.374,0,0,0,177.353,112.711Z" fill="#d1e1f2"/>
          <path id="Trazado_3557" data-name="Trazado 3557" d="M173.523,115.06l-1.8-1.054a.749.749,0,0,0-.756,0l-1.758,1.015a.374.374,0,0,0-.008.643l1.747,1.072a.752.752,0,0,0,.77.011l1.8-1.038A.374.374,0,0,0,173.523,115.06Z" fill="#d1e1f2"/>
          <path id="Trazado_3558" data-name="Trazado 3558" d="M169.35,117.517l-1.8-1.054a.756.756,0,0,0-.757,0l-1.757,1.015a.374.374,0,0,0-.009.643l1.748,1.073a.754.754,0,0,0,.769.011l1.8-1.039A.374.374,0,0,0,169.35,117.517Z" fill="#d1e1f2"/>
          <path id="Trazado_3559" data-name="Trazado 3559" d="M165.577,119.564l-1.8-1.053a.753.753,0,0,0-.757,0l-1.757,1.015a.374.374,0,0,0-.009.643L163,121.239a.752.752,0,0,0,.769.01l1.8-1.038A.374.374,0,0,0,165.577,119.564Z" fill="#d1e1f2"/>
        </g>
        <g id="Grupo_1617" data-name="Grupo 1617">
          <path id="Trazado_3560" data-name="Trazado 3560" d="M208.728,99.261l-1.8-1.053a.751.751,0,0,0-.757,0l-1.757,1.014a.374.374,0,0,0-.009.643l1.748,1.073a.75.75,0,0,0,.769.011l1.8-1.038A.375.375,0,0,0,208.728,99.261Z" fill="#d1e1f2"/>
          <path id="Trazado_3561" data-name="Trazado 3561" d="M204.7,101.58l-1.8-1.054a.756.756,0,0,0-.757,0l-1.757,1.015a.374.374,0,0,0-.009.643l1.748,1.073a.752.752,0,0,0,.769.01l1.8-1.038A.374.374,0,0,0,204.7,101.58Z" fill="#d1e1f2"/>
          <path id="Trazado_3562" data-name="Trazado 3562" d="M200.788,103.775l-1.8-1.054a.751.751,0,0,0-.757,0l-1.757,1.014a.375.375,0,0,0-.009.644l1.748,1.072a.75.75,0,0,0,.769.011l1.8-1.038A.374.374,0,0,0,200.788,103.775Z" fill="#d1e1f2"/>
          <path id="Trazado_3563" data-name="Trazado 3563" d="M196.627,106.041l-1.8-1.053a.753.753,0,0,0-.757,0L192.314,106a.374.374,0,0,0-.009.643l1.748,1.073a.754.754,0,0,0,.769.011l1.8-1.038A.375.375,0,0,0,196.627,106.041Z" fill="#d1e1f2"/>
          <path id="Trazado_3564" data-name="Trazado 3564" d="M192.618,108.434l-1.8-1.053a.753.753,0,0,0-.757,0l-9.148,5.284a.374.374,0,0,0-.008.643l1.747,1.073a.756.756,0,0,0,.77.011l9.193-5.308A.374.374,0,0,0,192.618,108.434Z" fill="#d1e1f2"/>
          <path id="Trazado_3565" data-name="Trazado 3565" d="M181.361,114.891l-1.8-1.054a.756.756,0,0,0-.757,0l-1.757,1.015a.374.374,0,0,0-.009.643l1.748,1.073a.754.754,0,0,0,.769.011l1.8-1.039A.374.374,0,0,0,181.361,114.891Z" fill="#d1e1f2"/>
          <path id="Trazado_3566" data-name="Trazado 3566" d="M177.532,117.24l-1.8-1.054a.749.749,0,0,0-.756,0l-1.758,1.014a.375.375,0,0,0-.008.644l1.747,1.072a.752.752,0,0,0,.77.011l1.8-1.038A.374.374,0,0,0,177.532,117.24Z" fill="#d1e1f2"/>
          <path id="Trazado_3567" data-name="Trazado 3567" d="M173.359,119.7l-1.8-1.053a.753.753,0,0,0-.757,0l-1.757,1.015a.374.374,0,0,0-.009.643l1.748,1.073a.754.754,0,0,0,.769.011l1.8-1.039A.374.374,0,0,0,173.359,119.7Z" fill="#d1e1f2"/>
          <path id="Trazado_3568" data-name="Trazado 3568" d="M169.586,121.744l-1.8-1.054a.756.756,0,0,0-.757,0l-1.757,1.015a.374.374,0,0,0-.009.643l1.748,1.073a.752.752,0,0,0,.769.01l1.8-1.038A.374.374,0,0,0,169.586,121.744Z" fill="#d1e1f2"/>
        </g>
      </g>
      <path id="Trazado_3587" data-name="Trazado 3587" d="M181.2,90.143c.171,0,.344,0,.515-.013l7.142-.234a1.592,1.592,0,0,0,1.568-1.3,4.034,4.034,0,0,0-1.268-.072,2.148,2.148,0,0,0,.4-1.248l-.173-.7a2.2,2.2,0,0,0-1.24-.331l-1.872.061.339-.656a.731.731,0,0,0-.369-.944.7.7,0,0,0-.969.218l-.744,1.439L181,86.481a10.246,10.246,0,0,1-9.006-4.821l-2.478-3.989-.817-2.837a5.386,5.386,0,0,0-2.3-3.012l.066-.474a3.621,3.621,0,0,1,.131-.634l.061-.036a.5.5,0,0,0,.236-.473,3.749,3.749,0,0,0,.3-.37,2.571,2.571,0,0,0,.26-1.545,40.118,40.118,0,0,1-.2-4.661c.077-1.1.753-2.455.442-3.586a3.791,3.791,0,0,0-1.323-1.916l-.033-.218a4.194,4.194,0,0,0-.559-1.524l-13.43,7.754a11.293,11.293,0,0,1,.25,1.541,15.683,15.683,0,0,1-.543,4.681,26.551,26.551,0,0,1-.948,3.059c-.28.731-.638,1.426-.92,2.156a12.558,12.558,0,0,0,.566,9.812,3.5,3.5,0,0,0,.953,1.331,2.667,2.667,0,0,0,1.487.5,2.939,2.939,0,0,0,.338.008c.577,7.2,2.045,16.193,2.33,17.9l1.272-.766,3.4-2.046h0l11.91-7.176c-.212-.733-.437-1.452-.671-2.112-.733-2.074-.45-4.459-.243-6.558A14.768,14.768,0,0,0,181.2,90.143Z" fill="#3c5185" opacity="0.3"/>
      <g id="Grupo_1632" data-name="Grupo 1632">
        <g id="Grupo_1625" data-name="Grupo 1625">
          <path id="Trazado_3588" data-name="Trazado 3588" d="M173.006,56.853h-1.254v-.244a2.753,2.753,0,0,0-4.093-2.4l-.61-1.1a4.005,4.005,0,0,1,5.957,3.5Z" fill="#3c5185"/>
        </g>
        <path id="Trazado_3589" data-name="Trazado 3589" d="M165.533,61.271a15.283,15.283,0,0,1,.794-1.814,11.058,11.058,0,0,1,1.728-2.783c1.9-2.021,5.634-.6,5.953,2.139.135,1.164-.721,2.556-.958,3.686a43.975,43.975,0,0,0-.494,4.8,3.039,3.039,0,0,1-.481,1.588c-.163.213-.379.383-.537.6a2.893,2.893,0,0,0-.39.953q-.372,1.352-.745,2.705a6.412,6.412,0,0,1-1.543,3.154,2.212,2.212,0,0,1-3.154,0,2.937,2.937,0,0,1-.414-.986,19.48,19.48,0,0,1-.526-7.515C165.024,65.732,164.873,63.223,165.533,61.271Z" fill="url(#linear-gradient-3)"/>
        <g id="Grupo_1626" data-name="Grupo 1626">
          <path id="Trazado_3590" data-name="Trazado 3590" d="M182.68,89.854A12.1,12.1,0,0,1,171.554,82.6l-2.692-6.1a1.881,1.881,0,1,1,3.441-1.52l2.692,6.1a8.355,8.355,0,0,0,8.036,5.01l6.97-.2a1.881,1.881,0,0,1,.152,3.758l-6.971.2C183.014,89.85,182.846,89.854,182.68,89.854Z" fill="#f2b1b5"/>
        </g>
        <path id="Trazado_3591" data-name="Trazado 3591" d="M173.1,92.777c-.5-2.637.575-5.762,1.057-8.21a4.257,4.257,0,0,0,.41-3.971l-1.348-3.328-.415-3.233a4.668,4.668,0,0,0-7.4-3.163L158.991,75.6c-1.505,1.11-1.712,2.964-2.051,4.8-1.272,6.911-1.109,22.4-1.077,24.734l17.575-10.182C173.34,94.2,173.228,93.457,173.1,92.777Z" fill="url(#linear-gradient-4)"/>
        <path id="Trazado_3592" data-name="Trazado 3592" d="M168.192,82.731s3-4.5,0-12.331c-.4-1.056-2-4.055-2-4.055l-4.459.575.773,5.989C162.662,74.141,164.511,82.542,168.192,82.731Z" fill="#f2b1b5"/>
        <path id="Trazado_3593" data-name="Trazado 3593" d="M164.734,89.531c5.26-2.641,3.661-3.711,4.3-3.816,1.385-.227,1.331.407,3.977-.9a3.257,3.257,0,0,0,1.716-2.952v.963a3.4,3.4,0,0,1-1.716,2.951l-2.171.948a15.628,15.628,0,0,0-2.394,1.3l-3.709,2.46a2.056,2.056,0,0,1-3.074-1.787v-.962A2.073,2.073,0,0,0,164.734,89.531Z" fill="#2d3d64" opacity="0.3"/>
        <path id="Trazado_3594" data-name="Trazado 3594" d="M162.3,71.311l.38-4.513,3.512-.453s1.6,3,2,4.055c.158.412.594,1.76.72,2.154l-.018,0a6.392,6.392,0,0,1-2.816-.185l-3.78-1.061Z" fill="#ef9ea3"/>
        <path id="Trazado_3595" data-name="Trazado 3595" d="M160.6,99.742a44.5,44.5,0,0,1-.029-7.06l.718-9.476a1.881,1.881,0,1,0-3.751-.284L156.82,92.4a48.345,48.345,0,0,0,.031,7.658l.361,4.3,3.6-2.086Z" fill="#f2b1b5"/>
        <path id="Trazado_3596" data-name="Trazado 3596" d="M162.3,71.311l4.388-.565c4.838-.624,6.054-4.768,5.43-9.606h0a3.462,3.462,0,0,0-3.876-2.991l-7.515.969Z" fill="#f2b1b5"/>
        <g id="Grupo_1627" data-name="Grupo 1627">
          <path id="Trazado_3597" data-name="Trazado 3597" d="M159.341,91.015A2.281,2.281,0,0,0,161.406,89l.667-6.058a2.278,2.278,0,1,0-4.527-.521l-.668,6.058a2.282,2.282,0,0,0,2.463,2.531Z" fill="url(#linear-gradient-4)"/>
        </g>
        <path id="Trazado_3598" data-name="Trazado 3598" d="M157.3,69.339a18.3,18.3,0,0,0,1.218-4.812c.185-2.728-1.037-5.43,1.245-7.633,1.642-1.585,4.154-1.745,6.436-1.767,1.529-.016,5.366-.741,6.18,1.175a1.8,1.8,0,0,1,.086.82,6.232,6.232,0,0,1-1.5,3.932c-.65.684-1.568,1.106-2.171,1.831-.713.858-.485,2.1-1.107,3.048A13.779,13.779,0,0,1,165,69.146c-2.355,1.921-2,3.307-1.982,6.272.018,2.634-.13,5.642-2.164,7.315a5.32,5.32,0,0,0-.726.629,5.882,5.882,0,0,0-.643,1.247,3.845,3.845,0,0,1-3.221,2.1,2.359,2.359,0,0,1-1.716-.538,3.026,3.026,0,0,1-.729-1.374,13.727,13.727,0,0,1,.9-10.1c.382-.75.832-1.462,1.211-2.213A32.724,32.724,0,0,0,157.3,69.339Z" fill="url(#linear-gradient-6)"/>
        <path id="Trazado_3599" data-name="Trazado 3599" d="M172.377,56.3c-.536-1.262-2.383-1.377-4.019-1.3,1.285.047,2.494.334,2.91,1.314a1.8,1.8,0,0,1,.086.82,6.229,6.229,0,0,1-1.5,3.933c-.65.684-1.568,1.1-2.171,1.831-.713.857-.485,2.1-1.107,3.047a13.739,13.739,0,0,1-2.69,3.213c-2.355,1.922-2,3.307-1.982,6.272.018,2.635-.129,5.642-2.164,7.316a5.312,5.312,0,0,0-.726.628,5.881,5.881,0,0,0-.643,1.247,3.856,3.856,0,0,1-2.738,2.041,3.064,3.064,0,0,0,.626.045,3.845,3.845,0,0,0,3.221-2.1,5.882,5.882,0,0,1,.643-1.247,5.32,5.32,0,0,1,.726-.629c2.035-1.673,2.182-4.681,2.164-7.315-.02-2.965-.373-4.351,1.982-6.272a13.779,13.779,0,0,0,2.69-3.213c.622-.947.394-2.19,1.107-3.048.6-.725,1.521-1.147,2.171-1.831a6.232,6.232,0,0,0,1.5-3.932A1.813,1.813,0,0,0,172.377,56.3Z" fill="#ffcd39"/>
        <g id="Grupo_1628" data-name="Grupo 1628">
          <path id="Trazado_3600" data-name="Trazado 3600" d="M163.551,66.855H162.3V61.2a9.264,9.264,0,0,1,4.751-8.088l.61,1.1a8.01,8.01,0,0,0-4.108,6.993Z" fill="#3c5185"/>
        </g>
        <g id="Grupo_1629" data-name="Grupo 1629">
          <path id="Trazado_3601" data-name="Trazado 3601" d="M168.608,70.538a1.958,1.958,0,0,1-.978-.261l-3.178-1.835.235-.407,3.178,1.835a1.491,1.491,0,0,0,1.485,0l1.31-.757.235.407-1.309.757A1.958,1.958,0,0,1,168.608,70.538Z" fill="#3c5185"/>
        </g>
        <g id="Grupo_1630" data-name="Grupo 1630">
          <path id="Trazado_3602" data-name="Trazado 3602" d="M162.924,62.148c-1.42-.82-2.583-.149-2.583,1.492a5.734,5.734,0,0,0,2.583,4.474c1.421.82,2.584.149,2.584-1.492A5.731,5.731,0,0,0,162.924,62.148Z" fill="#3c5185"/>
          <path id="Trazado_3603" data-name="Trazado 3603" d="M162.924,62.148a1.655,1.655,0,0,0-2.061.018,2.115,2.115,0,0,1,1.378.324,5.733,5.733,0,0,1,2.583,4.474,1.984,1.984,0,0,1-.522,1.474c.721-.114,1.206-.761,1.206-1.816A5.731,5.731,0,0,0,162.924,62.148Z" fill="url(#linear-gradient-7)"/>
          <path id="Trazado_3604" data-name="Trazado 3604" d="M162.583,63.83c-.783-.452-1.423-.082-1.423.821a3.156,3.156,0,0,0,1.423,2.465c.782.452,1.423.082,1.423-.822A3.159,3.159,0,0,0,162.583,63.83Z" fill="#4a65a3"/>
          <path id="Trazado_3605" data-name="Trazado 3605" d="M162.583,63.83a.911.911,0,0,0-1.136.009,1.173,1.173,0,0,1,.759.179,3.156,3.156,0,0,1,1.423,2.465,1.1,1.1,0,0,1-.287.812c.4-.063.664-.419.664-1A3.159,3.159,0,0,0,162.583,63.83Z" fill="url(#linear-gradient-8)"/>
        </g>
        <g id="Grupo_1631" data-name="Grupo 1631">
          <path id="Trazado_3606" data-name="Trazado 3606" d="M170.334,70.285a.627.627,0,0,1-.314-1.17l.787-.454a.627.627,0,0,1,.627,1.086l-.787.455A.625.625,0,0,1,170.334,70.285Z" fill="#3c5185"/>
        </g>
        <path id="Trazado_3607" data-name="Trazado 3607" d="M186.317,87.552h0a.706.706,0,0,1-.219-.973l1.311-2.069a.706.706,0,0,1,.973-.219h0a.7.7,0,0,1,.218.973l-1.31,2.07A.7.7,0,0,1,186.317,87.552Z" fill="#f2b1b5"/>
      </g>
      <g id="Grupo_1634" data-name="Grupo 1634">
        <path id="Trazado_3608" data-name="Trazado 3608" d="M184.465,82.185a10.527,10.527,0,0,1,9.491,0c2.61,1.507,2.61,3.973,0,5.48a10.531,10.531,0,0,1-9.491,0C181.855,86.158,181.855,83.692,184.465,82.185Z" fill="url(#radial-gradient)" style="mix-blend-mode: multiply;isolation: isolate"/>
        <g id="Grupo_1633" data-name="Grupo 1633">
          <path id="Trazado_3609" data-name="Trazado 3609" d="M190.6,84.491l-.27.226H187.97l-.256-.236a3.67,3.67,0,0,1-1.186-2.7V80.751h5.391v.922A3.672,3.672,0,0,1,190.6,84.491Z" fill="#3c5185"/>
          <path id="Trazado_3610" data-name="Trazado 3610" d="M189.567,85.439h-.881a.784.784,0,0,1-.784-.784h2.449A.784.784,0,0,1,189.567,85.439Z" fill="#3c5185"/>
          <path id="Trazado_3611" data-name="Trazado 3611" d="M191.119,79.655a4.224,4.224,0,0,0-3.806,0,1.162,1.162,0,0,0,0,2.2,4.217,4.217,0,0,0,3.806,0A1.162,1.162,0,0,0,191.119,79.655Z" fill="#2842a2"/>
          <path id="Trazado_3612" data-name="Trazado 3612" d="M189.224,70.636a4.927,4.927,0,0,0-2.694,9.053V80.8h0a1.389,1.389,0,0,0,.8,1.061,4.23,4.23,0,0,0,3.794-.007A1.341,1.341,0,0,0,191.9,80.8h.018V79.689a4.927,4.927,0,0,0-2.7-9.053Z" opacity="0.83" fill="url(#linear-gradient-9)"/>
          <path id="Trazado_3613" data-name="Trazado 3613" d="M186.468,76.1a3.222,3.222,0,0,1,3.223-3.222c1.648,0,1.52-1.374-.58-1.374a3.8,3.8,0,0,0-3.8,3.8C185.308,76.641,186.468,77.232,186.468,76.1Z" fill="#fff"/>
          <path id="Trazado_3614" data-name="Trazado 3614" d="M191.126,82.288a4.23,4.23,0,0,1-3.794.007,1.391,1.391,0,0,1-.8-1.061V81.6a1.391,1.391,0,0,0,.8,1.061,4.23,4.23,0,0,0,3.794-.007A1.341,1.341,0,0,0,191.9,81.6h.018v-.369H191.9A1.341,1.341,0,0,1,191.126,82.288Z" fill="#6e84b5" opacity="0.49"/>
          <path id="Trazado_3615" data-name="Trazado 3615" d="M191.112,83.36a4.23,4.23,0,0,1-3.794.007,1.8,1.8,0,0,1-.648-.593,3.639,3.639,0,0,0,.273.691,2.219,2.219,0,0,0,.375.271,4.227,4.227,0,0,0,3.794-.007,2.225,2.225,0,0,0,.31-.217,3.636,3.636,0,0,0,.329-.754A1.692,1.692,0,0,1,191.112,83.36Z" fill="#6e84b5" opacity="0.49"/>
          <path id="Trazado_3616" data-name="Trazado 3616" d="M189.207,70.228h0a.4.4,0,0,1-.4-.4l.015-3.079a.4.4,0,0,1,.4-.4h0a.4.4,0,0,1,.4.4l-.015,3.079A.4.4,0,0,1,189.207,70.228Zm3.29.583,1.555-2.657a.4.4,0,1,0-.693-.406L191.8,70.406a.4.4,0,1,0,.693.4Zm2.008,2.3,2.677-1.521a.4.4,0,1,0-.4-.7l-2.677,1.521a.4.4,0,1,0,.4.7Zm-10-.182a.4.4,0,0,0-.138-.551l-2.643-1.58a.4.4,0,0,0-.413.689l2.643,1.581a.408.408,0,0,0,.206.057A.4.4,0,0,0,184.505,72.927Zm2.023-1.99a.4.4,0,0,0,.156-.546l-1.5-2.692a.4.4,0,0,0-.7.39l1.5,2.692a.4.4,0,0,0,.351.207A.406.406,0,0,0,186.528,70.937Z" fill="url(#linear-gradient-9)"/>
        </g>
      </g>
      <g id="Grupo_1640" data-name="Grupo 1640">
        <path id="Trazado_3620" data-name="Trazado 3620" d="M162.028,36.78l2.218,10.855a1.431,1.431,0,0,1-.664,1.594l-1.587,1.027-1.011,3.632c-.046.54-.64.786-1.227.508l-2.418-1.449-13.81,7.87a1.4,1.4,0,0,1-1.89-.984L139.388,48.82a1.434,1.434,0,0,1,.666-1.6l20.093-11.434A1.4,1.4,0,0,1,162.028,36.78Z" fill="#7ea7df"/>
        <g id="Grupo_1639" data-name="Grupo 1639">
          <path id="Trazado_3621" data-name="Trazado 3621" d="M142.542,60.254l-2.25-11.013a1.432,1.432,0,0,1,.665-1.6L161.05,36.212a1.007,1.007,0,0,1,.575-.117,1.3,1.3,0,0,0-1.478-.3L140.054,47.225a1.434,1.434,0,0,0-.666,1.6l2.251,11.013a1.485,1.485,0,0,0,1.3,1.106A1.325,1.325,0,0,1,142.542,60.254Z" fill="url(#linear-gradient-11)"/>
        </g>
        <path id="Trazado_3622" data-name="Trazado 3622" d="M142.082,49.525l18.833-10.671.261,1.276L142.343,50.8Z" fill="#fff"/>
        <path id="Trazado_3623" data-name="Trazado 3623" d="M142.759,52.841,161.592,42.17l.261,1.276L143.02,54.117Z" fill="#fff"/>
        <path id="Trazado_3624" data-name="Trazado 3624" d="M143.437,56.156,154.19,50l.261,1.277L143.7,57.433Z" fill="#fff"/>
      </g>
    </g>
  </g>
</svg>
