<svg xmlns="http://www.w3.org/2000/svg" xmlns:xlink="http://www.w3.org/1999/xlink" width="209" height="233" viewBox="0 0 209 233">
  <defs>
    <linearGradient id="linear-gradient" x1="-2.216" y1="0.823" x2="-3.212" y2="0.092" gradientUnits="objectBoundingBox">
      <stop offset="0.038" stop-color="#a5cbef"/>
      <stop offset="0.223" stop-color="#b9d6f2"/>
      <stop offset="0.525" stop-color="#d3e6f7"/>
      <stop offset="0.794" stop-color="#e4eff9"/>
      <stop offset="1" stop-color="#eaf3fb"/>
    </linearGradient>
    <linearGradient id="linear-gradient-2" x1="0.06" y1="-0.118" x2="1.017" y2="0.728" gradientUnits="objectBoundingBox">
      <stop offset="0" stop-color="#5d7dbe"/>
      <stop offset="1" stop-color="#7ea7df"/>
    </linearGradient>
    <linearGradient id="linear-gradient-3" y1="0.5" x2="1" y2="0.5" gradientUnits="objectBoundingBox">
      <stop offset="0.15" stop-color="#ff9800"/>
      <stop offset="1" stop-color="#ffc107"/>
    </linearGradient>
    <linearGradient id="linear-gradient-4" x1="-44.503" y1="0.5" x2="-43.503" y2="0.5" gradientUnits="objectBoundingBox">
      <stop offset="0" stop-color="#7ea7df"/>
      <stop offset="0.358" stop-color="#a0bfe6"/>
      <stop offset="0.775" stop-color="#c3d7ee"/>
      <stop offset="1" stop-color="#d1e1f2"/>
    </linearGradient>
    <linearGradient id="linear-gradient-5" y1="0.5" x2="1" y2="0.5" gradientUnits="objectBoundingBox">
      <stop offset="0" stop-color="#3c5185"/>
      <stop offset="1" stop-color="#4a65a3"/>
    </linearGradient>
    <linearGradient id="linear-gradient-8" x1="0" y1="0.5" x2="1" y2="0.5" xlink:href="#linear-gradient-5"/>
    <linearGradient id="linear-gradient-12" x1="0.894" y1="1.011" x2="0.047" y2="-0.088" xlink:href="#linear-gradient-5"/>
    <linearGradient id="linear-gradient-13" x1="0" y1="0.5" x2="1" y2="0.5" xlink:href="#linear-gradient-4"/>
    <linearGradient id="linear-gradient-15" y1="0.5" x2="1" y2="0.5" gradientUnits="objectBoundingBox">
      <stop offset="0" stop-color="#5d7dbe"/>
      <stop offset="0.996" stop-color="#3c5185"/>
    </linearGradient>
    <linearGradient id="linear-gradient-17" y1="0.5" x2="1" y2="0.5" gradientUnits="objectBoundingBox">
      <stop offset="0" stop-color="#a5cbef"/>
      <stop offset="0.996" stop-color="#5d7dbe"/>
    </linearGradient>
    <linearGradient id="linear-gradient-18" x1="-29.627" y1="0.5" x2="-28.627" y2="0.5" xlink:href="#linear-gradient-3"/>
    <radialGradient id="radial-gradient" cx="0.5" cy="0.5" r="0.875" gradientTransform="matrix(-0.577, 0, 0, 0.517, -67.049, 395.888)" gradientUnits="objectBoundingBox">
      <stop offset="0.091" stop-color="#3c5185"/>
      <stop offset="0.156" stop-color="#4f6291"/>
      <stop offset="0.379" stop-color="#8d99b7"/>
      <stop offset="0.583" stop-color="#bec5d6"/>
      <stop offset="0.761" stop-color="#e1e4ec"/>
      <stop offset="0.906" stop-color="#f7f8fa"/>
      <stop offset="1" stop-color="#fff"/>
    </radialGradient>
    <linearGradient id="linear-gradient-19" x1="4.891" y1="0.5" x2="5.891" y2="0.5" gradientUnits="objectBoundingBox">
      <stop offset="0.004" stop-color="#a5cbef"/>
      <stop offset="0.442" stop-color="#cee2f6"/>
      <stop offset="1" stop-color="#fff"/>
    </linearGradient>
    <linearGradient id="linear-gradient-20" x1="-250.537" y1="0.639" x2="-248.638" y2="0.02" xlink:href="#linear-gradient-3"/>
    <linearGradient id="linear-gradient-21" x1="-109.924" y1="0.5" x2="-108.924" y2="0.5" xlink:href="#linear-gradient-3"/>
    <linearGradient id="linear-gradient-22" x1="-155.688" y1="0.5" x2="-154.688" y2="0.5" xlink:href="#linear-gradient-3"/>
    <radialGradient id="radial-gradient-2" cx="0.5" cy="0.5" r="0.875" gradientTransform="matrix(-0.577, 0, 0, 0.517, -90.307, 531.081)" xlink:href="#radial-gradient"/>
    <linearGradient id="linear-gradient-23" y1="0.5" x2="1" y2="0.5" gradientUnits="objectBoundingBox">
      <stop offset="0" stop-color="#fff"/>
      <stop offset="1" stop-color="#7ea7df"/>
    </linearGradient>
    <clipPath id="clip-basic_operaciones">
      <rect width="209" height="233"/>
    </clipPath>
  </defs>
  <g id="basic_operaciones" clip-path="url(#clip-basic_operaciones)">
    <rect width="209" height="233" fill="rgba(255,255,255,0)"/>
    <g id="Grupo_2051" data-name="Grupo 2051" transform="translate(-322.109 29.631)">
      <g id="Grupo_1990" data-name="Grupo 1990">
        <g id="Grupo_1986" data-name="Grupo 1986" opacity="0.3">
          <path id="Trazado_5254" data-name="Trazado 5254" d="M370.954,84.151l.2-.423a2,2,0,0,1,.579-.684c.044-.041.1-.078.147-.117.031-.02.053-.049.085-.068l.054-.031c.061-.041.11-.086.178-.125l36.143-20.868a5.308,5.308,0,0,1,4.783,0l68.886,39.771c.807.467,1.114,1.115.93,1.722l.056.032v1.314a3.853,3.853,0,0,1-1.931,3.339l-35.2,20.26a5.308,5.308,0,0,1-4.783,0L372.313,88.581A3.4,3.4,0,0,1,370.954,84.151Z" fill="#3c5185" opacity="0"/>
          <path id="Trazado_5255" data-name="Trazado 5255" d="M371.2,84.122l.205-.42a1.978,1.978,0,0,1,.575-.681c.044-.041.1-.078.147-.117.03-.019.052-.048.084-.067l.054-.03a2.123,2.123,0,0,1,.176-.125L408.4,61.925a5.281,5.281,0,0,1,4.758,0l68.638,39.638c.8.464,1.108,1.109.925,1.712l.056.033v1.306a3.833,3.833,0,0,1-1.92,3.322l-35.013,20.152a5.281,5.281,0,0,1-4.758,0L372.557,88.529A3.382,3.382,0,0,1,371.2,84.122Z" fill="#3c5185" opacity="0.024"/>
          <path id="Trazado_5256" data-name="Trazado 5256" d="M371.457,84.093l.2-.418a1.978,1.978,0,0,1,.572-.677c.044-.04.1-.077.146-.116.03-.019.053-.049.084-.067l.053-.03c.061-.041.109-.086.176-.125l35.76-20.645a5.245,5.245,0,0,1,4.732,0l68.391,39.5c.8.461,1.1,1.1.921,1.7l.055.033v1.3a3.813,3.813,0,0,1-1.91,3.3L445.814,127.9a5.251,5.251,0,0,1-4.732,0L372.8,88.476A3.364,3.364,0,0,1,371.457,84.093Z" fill="#3c5185" opacity="0.049"/>
          <path id="Trazado_5257" data-name="Trazado 5257" d="M371.708,84.064l.2-.416a1.968,1.968,0,0,1,.57-.673c.043-.04.1-.077.145-.115.03-.02.052-.049.083-.067l.053-.03c.06-.041.108-.085.175-.124L408.5,62.1a5.221,5.221,0,0,1,4.706,0l68.145,39.373c.794.459,1.1,1.1.915,1.694l.055.032V104.5a3.79,3.79,0,0,1-1.9,3.285l-34.639,19.938a5.223,5.223,0,0,1-4.707,0L373.045,88.424A3.346,3.346,0,0,1,371.708,84.064Z" fill="#3c5185" opacity="0.073"/>
          <path id="Trazado_5258" data-name="Trazado 5258" d="M371.96,84.035l.2-.413a1.947,1.947,0,0,1,.566-.67c.043-.04.1-.077.144-.115.03-.019.052-.048.083-.066l.053-.03c.059-.041.108-.085.174-.123l35.375-20.424a5.19,5.19,0,0,1,4.682,0l67.9,39.24c.79.456,1.091,1.09.911,1.684l.054.033v1.285a3.77,3.77,0,0,1-1.889,3.268l-34.452,19.83a5.2,5.2,0,0,1-4.682,0L373.289,88.372A3.328,3.328,0,0,1,371.96,84.035Z" fill="#3c5185" opacity="0.098"/>
          <path id="Trazado_5259" data-name="Trazado 5259" d="M372.211,84.006l.2-.411a1.945,1.945,0,0,1,.563-.666c.043-.04.1-.076.143-.114.03-.019.052-.048.083-.066l.053-.03c.059-.04.107-.084.172-.122l35.184-20.314a5.166,5.166,0,0,1,4.656,0l67.65,39.107c.786.454,1.085,1.085.906,1.676l.055.032v1.279a3.75,3.75,0,0,1-1.88,3.25l-34.265,19.722a5.166,5.166,0,0,1-4.656,0l-67.541-39.03A3.31,3.31,0,0,1,372.211,84.006Z" fill="#3c5185" opacity="0.122"/>
          <path id="Trazado_5260" data-name="Trazado 5260" d="M372.462,83.977l.2-.409a1.943,1.943,0,0,1,.56-.662c.043-.04.1-.076.143-.114.029-.019.051-.047.082-.065l.052-.03c.059-.04.107-.084.172-.121l34.992-20.2a5.139,5.139,0,0,1,4.631,0l67.4,38.974c.781.452,1.078,1.079.9,1.667l.055.032v1.271a3.732,3.732,0,0,1-1.869,3.233L445.7,127.164a5.139,5.139,0,0,1-4.631,0l-67.295-38.9A3.293,3.293,0,0,1,372.462,83.977Z" fill="#3c5185" opacity="0.146"/>
          <path id="Trazado_5261" data-name="Trazado 5261" d="M372.714,83.949l.2-.407a1.928,1.928,0,0,1,.558-.659c.042-.039.093-.075.141-.113.03-.019.051-.047.082-.065l.052-.03c.059-.039.106-.083.171-.121l34.8-20.091a5.1,5.1,0,0,1,4.605,0L480.476,101.3c.778.449,1.073,1.073.9,1.657l.054.032v1.265a3.711,3.711,0,0,1-1.859,3.215L445.676,126.98a5.111,5.111,0,0,1-4.606,0L374.022,88.214A3.273,3.273,0,0,1,372.714,83.949Z" fill="#3c5185" opacity="0.171"/>
          <path id="Trazado_5262" data-name="Trazado 5262" d="M372.965,83.92l.2-.4a1.927,1.927,0,0,1,.554-.656c.042-.038.093-.074.141-.111.029-.019.051-.047.081-.065l.052-.029c.058-.04.105-.083.17-.121l34.608-19.981a5.082,5.082,0,0,1,4.58,0l66.908,38.709c.774.446,1.067,1.067.891,1.648l.054.031V104.2a3.688,3.688,0,0,1-1.849,3.2l-33.7,19.4a5.082,5.082,0,0,1-4.58,0l-66.8-38.633A3.256,3.256,0,0,1,372.965,83.92Z" fill="#3c5185" opacity="0.195"/>
          <path id="Trazado_5263" data-name="Trazado 5263" d="M373.217,83.891l.195-.4a1.9,1.9,0,0,1,.551-.652c.042-.039.093-.075.14-.112.029-.018.051-.046.081-.064l.052-.029a2.025,2.025,0,0,1,.169-.12l34.416-19.87a5.052,5.052,0,0,1,4.554,0l66.662,38.576c.769.444,1.061,1.061.886,1.639l.053.031v1.251a3.669,3.669,0,0,1-1.838,3.179L445.621,126.61a5.054,5.054,0,0,1-4.555,0l-66.556-38.5A3.236,3.236,0,0,1,373.217,83.891Z" fill="#3c5185" opacity="0.22"/>
          <path id="Trazado_5264" data-name="Trazado 5264" d="M373.468,83.862l.194-.4a1.893,1.893,0,0,1,.548-.648c.042-.039.093-.074.14-.111.029-.019.05-.046.08-.064l.051-.029c.058-.039.1-.082.168-.119l34.224-19.76a5.027,5.027,0,0,1,4.53,0l66.414,38.444c.765.441,1.055,1.055.881,1.629l.053.032v1.243a3.649,3.649,0,0,1-1.828,3.162l-33.33,19.184a5.024,5.024,0,0,1-4.529,0L374.755,88.057A3.22,3.22,0,0,1,373.468,83.862Z" fill="#3c5185" opacity="0.244"/>
          <path id="Trazado_5265" data-name="Trazado 5265" d="M373.719,83.833l.194-.4a1.87,1.87,0,0,1,.545-.644,1.705,1.705,0,0,1,.138-.11c.029-.019.05-.047.08-.064l.051-.029c.057-.039.1-.082.167-.118l34.032-19.649a5,5,0,0,1,4.5,0l66.167,38.31c.761.439,1.05,1.05.876,1.621l.053.031v1.237a3.629,3.629,0,0,1-1.818,3.144L445.565,126.24a5,5,0,0,1-4.5,0L375,88A3.2,3.2,0,0,1,373.719,83.833Z" fill="#3c5185" opacity="0.268"/>
          <path id="Trazado_5266" data-name="Trazado 5266" d="M373.971,83.8l.192-.4a1.879,1.879,0,0,1,.542-.64c.041-.038.091-.073.138-.11.028-.018.049-.046.079-.063l.051-.029c.057-.039.1-.081.166-.117l33.84-19.538a4.967,4.967,0,0,1,4.478,0l65.921,38.177c.756.437,1.043,1.043.871,1.612l.052.03v1.23a3.608,3.608,0,0,1-1.807,3.127l-32.957,18.969a4.973,4.973,0,0,1-4.478,0l-65.816-38.1A3.183,3.183,0,0,1,373.971,83.8Z" fill="#3c5185" opacity="0.293"/>
          <path id="Trazado_5267" data-name="Trazado 5267" d="M374.222,83.775l.191-.393a1.875,1.875,0,0,1,.539-.638c.041-.037.091-.072.137-.108.028-.019.05-.046.079-.063l.05-.029c.057-.038.1-.08.166-.117L409.032,63a4.94,4.94,0,0,1,4.453,0l65.673,38.045c.752.434,1.038,1.037.866,1.6l.052.031V103.9a3.586,3.586,0,0,1-1.8,3.108L445.51,125.871a4.94,4.94,0,0,1-4.453,0L375.487,87.9A3.167,3.167,0,0,1,374.222,83.775Z" fill="#3c5185" opacity="0.317"/>
          <path id="Trazado_5268" data-name="Trazado 5268" d="M374.474,83.746l.19-.391a1.846,1.846,0,0,1,.535-.633c.041-.038.09-.072.137-.109.028-.018.049-.045.078-.062l.05-.029c.056-.038.1-.08.164-.116L409.085,63.09a4.91,4.91,0,0,1,4.427,0L478.938,101c.748.431,1.032,1.031.862,1.593l.052.031v1.215a3.567,3.567,0,0,1-1.787,3.091l-32.583,18.754a4.912,4.912,0,0,1-4.428,0L375.731,87.847A3.146,3.146,0,0,1,374.474,83.746Z" fill="#3c5185" opacity="0.341"/>
          <path id="Trazado_5269" data-name="Trazado 5269" d="M374.725,83.717l.189-.388a1.839,1.839,0,0,1,.532-.63c.041-.038.09-.072.136-.108.028-.018.049-.045.078-.062l.05-.028c.056-.039.1-.08.163-.116L409.138,63.18a4.882,4.882,0,0,1,4.4,0l65.179,37.779c.743.429,1.025,1.025.856,1.584l.052.03v1.209a3.547,3.547,0,0,1-1.777,3.073l-32.4,18.646a4.882,4.882,0,0,1-4.4,0L375.976,87.795A3.13,3.13,0,0,1,374.725,83.717Z" fill="#3c5185" opacity="0.366"/>
          <path id="Trazado_5270" data-name="Trazado 5270" d="M374.976,83.689l.188-.387a1.829,1.829,0,0,1,.53-.626,1.625,1.625,0,0,1,.135-.107c.027-.018.048-.045.077-.062l.05-.028c.055-.038.1-.08.162-.115L409.19,63.269a4.855,4.855,0,0,1,4.377,0L478.5,100.915c.739.427,1.02,1.02.851,1.575l.052.03v1.2a3.527,3.527,0,0,1-1.767,3.056l-32.208,18.538a4.855,4.855,0,0,1-4.377,0L376.22,87.743A3.111,3.111,0,0,1,374.976,83.689Z" fill="#3c5185" opacity="0.39"/>
          <path id="Trazado_5271" data-name="Trazado 5271" d="M375.228,83.66l.187-.385a1.813,1.813,0,0,1,.526-.622c.04-.037.089-.071.134-.107.028-.018.048-.044.077-.061l.049-.028c.055-.038.1-.079.162-.115l32.88-18.983a4.827,4.827,0,0,1,4.352,0l64.684,37.513c.735.424,1.014,1.014.847,1.566l.051.03v1.195a3.5,3.5,0,0,1-1.756,3.037L445.4,125.132a4.834,4.834,0,0,1-4.352,0L376.464,87.69A3.092,3.092,0,0,1,375.228,83.66Z" fill="#3c5185" opacity="0.415"/>
          <path id="Trazado_5272" data-name="Trazado 5272" d="M375.479,83.631l.186-.382a1.808,1.808,0,0,1,.523-.619c.04-.037.088-.071.133-.106.028-.018.048-.044.077-.061l.049-.028c.055-.038.1-.079.161-.114L409.3,63.449a4.8,4.8,0,0,1,4.326,0l64.438,37.38c.73.422,1.008,1.008.841,1.557l.051.03V103.6a3.484,3.484,0,0,1-1.746,3.019l-31.835,18.324a4.8,4.8,0,0,1-4.326,0L376.708,87.638A3.076,3.076,0,0,1,375.479,83.631Z" fill="#3c5185" opacity="0.439"/>
          <path id="Trazado_5273" data-name="Trazado 5273" d="M375.731,83.6l.184-.38a1.807,1.807,0,0,1,.52-.616c.04-.036.088-.069.133-.1.027-.018.048-.045.076-.061l.049-.028c.054-.037.1-.078.159-.113l32.5-18.762a4.768,4.768,0,0,1,4.3,0l64.191,37.248c.726.419,1,1,.837,1.547l.05.03v1.181a3.464,3.464,0,0,1-1.736,3l-31.648,18.216a4.768,4.768,0,0,1-4.3,0L376.952,87.585A3.056,3.056,0,0,1,375.731,83.6Z" fill="#3c5185" opacity="0.463"/>
          <path id="Trazado_5274" data-name="Trazado 5274" d="M375.982,83.573l.184-.378a1.784,1.784,0,0,1,.517-.612c.039-.036.087-.069.131-.1.027-.018.048-.044.076-.06l.048-.028c.055-.037.1-.077.159-.112L409.4,63.628a4.741,4.741,0,0,1,4.275,0l63.944,37.115c.721.416,1,1,.831,1.538l.05.03v1.173a3.446,3.446,0,0,1-1.725,2.985l-31.461,18.108a4.741,4.741,0,0,1-4.275,0L377.2,87.533A3.04,3.04,0,0,1,375.982,83.573Z" fill="#3c5185" opacity="0.488"/>
          <path id="Trazado_5275" data-name="Trazado 5275" d="M376.233,83.544l.183-.375a1.776,1.776,0,0,1,.514-.609c.039-.035.087-.069.131-.1.027-.018.047-.044.075-.06l.048-.028c.054-.036.1-.077.158-.111l32.113-18.541a4.717,4.717,0,0,1,4.249,0L477.4,100.7c.717.415.99.991.826,1.53l.05.029v1.167a3.425,3.425,0,0,1-1.715,2.967l-31.274,18a4.713,4.713,0,0,1-4.25,0l-63.6-36.912A3.021,3.021,0,0,1,376.233,83.544Z" fill="#3c5185" opacity="0.512"/>
          <path id="Trazado_5276" data-name="Trazado 5276" d="M376.485,83.515l.181-.373a1.775,1.775,0,0,1,.511-.6c.039-.035.086-.068.13-.1.027-.017.047-.043.075-.059l.048-.028c.053-.036.1-.076.157-.111l31.921-18.429a4.683,4.683,0,0,1,4.224,0l63.449,36.849c.714.412.984.984.822,1.52l.05.03v1.159a3.406,3.406,0,0,1-1.705,2.95L445.26,124.208a4.69,4.69,0,0,1-4.224,0l-63.351-36.78A3,3,0,0,1,376.485,83.515Z" fill="#3c5185" opacity="0.537"/>
          <path id="Trazado_5277" data-name="Trazado 5277" d="M376.736,83.486l.18-.371a1.762,1.762,0,0,1,.508-.6c.039-.036.086-.069.13-.1.026-.017.046-.043.074-.059l.048-.027c.053-.037.1-.077.155-.111L409.56,63.9a4.656,4.656,0,0,1,4.2,0l63.2,36.716c.709.409.978.978.816,1.511l.05.029v1.153a3.382,3.382,0,0,1-1.7,2.931l-30.9,17.786a4.662,4.662,0,0,1-4.2,0L377.929,87.376A2.986,2.986,0,0,1,376.736,83.486Z" fill="#3c5185" opacity="0.561"/>
          <path id="Trazado_5278" data-name="Trazado 5278" d="M376.988,83.458l.179-.369a1.732,1.732,0,0,1,.505-.6c.038-.036.085-.068.128-.1.027-.018.046-.043.074-.059l.047-.027c.053-.036.1-.076.155-.11l31.537-18.208a4.634,4.634,0,0,1,4.174,0l62.955,36.584c.7.407.972.972.812,1.5l.049.029v1.146a3.363,3.363,0,0,1-1.685,2.913L445.2,123.838a4.634,4.634,0,0,1-4.174,0L378.173,87.323A2.965,2.965,0,0,1,376.988,83.458Z" fill="#3c5185" opacity="0.585"/>
          <path id="Trazado_5279" data-name="Trazado 5279" d="M377.239,83.429l.178-.367a1.743,1.743,0,0,1,.5-.594c.038-.035.084-.067.128-.1.026-.017.046-.042.073-.058l.047-.027c.053-.036.1-.075.154-.109l31.345-18.1a4.6,4.6,0,0,1,4.148,0l62.708,36.451c.7.4.967.966.807,1.493l.049.028v1.139a3.344,3.344,0,0,1-1.674,2.9l-30.527,17.57a4.6,4.6,0,0,1-4.148,0L378.417,87.271A2.949,2.949,0,0,1,377.239,83.429Z" fill="#3c5185" opacity="0.61"/>
          <path id="Trazado_5280" data-name="Trazado 5280" d="M377.49,83.4l.177-.365a1.742,1.742,0,0,1,.5-.59c.038-.035.084-.067.127-.1.026-.017.046-.043.073-.058l.047-.027a1.8,1.8,0,0,1,.153-.108l31.153-17.987a4.575,4.575,0,0,1,4.122,0L476.3,100.484c.7.4.96.96.8,1.483l.048.029v1.132a3.323,3.323,0,0,1-1.664,2.878l-30.34,17.462a4.569,4.569,0,0,1-4.122,0l-62.365-36.25A2.93,2.93,0,0,1,377.49,83.4Z" fill="#3c5185" opacity="0.634"/>
          <path id="Trazado_5281" data-name="Trazado 5281" d="M377.742,83.371l.176-.362a1.72,1.72,0,0,1,.495-.587c.038-.034.084-.066.126-.1.027-.016.046-.042.073-.057l.047-.027c.052-.035.094-.074.152-.107l30.961-17.876a4.548,4.548,0,0,1,4.1,0l62.214,36.185c.692.4.955.955.8,1.475l.048.028v1.125a3.3,3.3,0,0,1-1.654,2.86l-30.152,17.356a4.55,4.55,0,0,1-4.1,0L378.906,87.166A2.912,2.912,0,0,1,377.742,83.371Z" fill="#3c5185" opacity="0.659"/>
          <path id="Trazado_5282" data-name="Trazado 5282" d="M377.993,83.342l.175-.36a1.708,1.708,0,0,1,.493-.582c.037-.035.083-.067.125-.1.026-.017.045-.042.072-.057l.046-.027c.052-.035.094-.074.151-.107l30.77-17.764a4.512,4.512,0,0,1,4.071,0L475.863,100.4c.688.4.949.949.792,1.466l.048.028v1.118a3.28,3.28,0,0,1-1.643,2.842L445.094,123.1a4.52,4.52,0,0,1-4.072,0L379.15,87.114A2.9,2.9,0,0,1,377.993,83.342Z" fill="#3c5185" opacity="0.683"/>
          <path id="Trazado_5283" data-name="Trazado 5283" d="M378.245,83.313l.173-.357a1.681,1.681,0,0,1,.49-.579c.037-.035.082-.066.124-.1.026-.017.045-.042.072-.057l.046-.027c.051-.035.093-.073.15-.106l30.577-17.654a4.493,4.493,0,0,1,4.047,0l61.72,35.92c.683.394.942.943.787,1.456l.047.028v1.111a3.261,3.261,0,0,1-1.633,2.825l-29.779,17.14a4.491,4.491,0,0,1-4.046,0L379.394,87.061A2.875,2.875,0,0,1,378.245,83.313Z" fill="#3c5185" opacity="0.707"/>
          <path id="Trazado_5284" data-name="Trazado 5284" d="M378.5,83.284l.173-.355a1.688,1.688,0,0,1,.486-.576c.037-.034.082-.065.124-.1.025-.016.044-.041.071-.056l.046-.027c.051-.034.092-.072.149-.1L409.93,64.524a4.463,4.463,0,0,1,4.021,0l61.473,35.787c.679.392.937.937.782,1.447l.047.028v1.1a3.24,3.24,0,0,1-1.623,2.807l-29.591,17.032a4.463,4.463,0,0,1-4.021,0l-61.38-35.72A2.86,2.86,0,0,1,378.5,83.284Z" fill="#3c5185" opacity="0.732"/>
          <path id="Trazado_5285" data-name="Trazado 5285" d="M378.747,83.255l.172-.353a1.675,1.675,0,0,1,.483-.572c.037-.033.082-.065.123-.1s.045-.041.071-.056l.045-.026c.051-.035.092-.073.149-.105l30.193-17.432a4.429,4.429,0,0,1,4,0L475.2,100.268c.675.389.931.931.778,1.438l.047.027v1.1a3.223,3.223,0,0,1-1.613,2.79l-29.4,16.924a4.429,4.429,0,0,1-4,0L379.882,86.956A2.841,2.841,0,0,1,378.747,83.255Z" fill="#3c5185" opacity="0.756"/>
          <path id="Trazado_5286" data-name="Trazado 5286" d="M379,83.226l.17-.35a1.66,1.66,0,0,1,.481-.569c.036-.033.08-.064.122-.1.025-.016.044-.04.07-.055l.045-.026c.05-.035.091-.072.147-.1l30-17.322a4.406,4.406,0,0,1,3.97,0l60.979,35.522c.67.386.925.924.772,1.428l.047.028v1.09a3.2,3.2,0,0,1-1.6,2.771L444.983,122.36a4.406,4.406,0,0,1-3.97,0L380.127,86.9A2.822,2.822,0,0,1,379,83.226Z" fill="#3c5185" opacity="0.78"/>
          <path id="Trazado_5287" data-name="Trazado 5287" d="M379.25,83.2l.17-.349a1.655,1.655,0,0,1,.477-.565c.036-.033.08-.064.121-.1.025-.016.044-.04.07-.055l.045-.026c.05-.034.09-.072.146-.1l29.81-17.21a4.376,4.376,0,0,1,3.944,0l60.732,35.388c.666.385.919.919.767,1.42l.047.027v1.083a3.176,3.176,0,0,1-1.593,2.754l-29.03,16.71a4.378,4.378,0,0,1-3.945,0l-60.64-35.323A2.8,2.8,0,0,1,379.25,83.2Z" fill="#3c5185" opacity="0.805"/>
          <path id="Trazado_5288" data-name="Trazado 5288" d="M379.5,83.169l.168-.347a1.644,1.644,0,0,1,.474-.561c.036-.033.08-.063.121-.1.025-.016.043-.04.069-.055l.045-.026c.049-.034.09-.071.145-.1l29.618-17.1a4.349,4.349,0,0,1,3.919,0l60.485,35.256c.661.382.913.913.762,1.41l.046.028v1.076a3.157,3.157,0,0,1-1.582,2.736l-28.844,16.6a4.351,4.351,0,0,1-3.92,0L380.615,86.8A2.785,2.785,0,0,1,379.5,83.169Z" fill="#3c5185" opacity="0.829"/>
          <path id="Trazado_5289" data-name="Trazado 5289" d="M379.753,83.14l.167-.344a1.636,1.636,0,0,1,.471-.558c.036-.033.08-.063.12-.1.025-.016.043-.04.069-.054l.044-.026c.05-.034.09-.07.145-.1l29.425-16.989a4.321,4.321,0,0,1,3.894,0L474.326,100.1c.657.379.907.907.757,1.4l.046.027v1.069a3.137,3.137,0,0,1-1.572,2.719L444.9,121.805a4.321,4.321,0,0,1-3.894,0L380.859,86.747A2.769,2.769,0,0,1,379.753,83.14Z" fill="#3c5185" opacity="0.854"/>
          <path id="Trazado_5290" data-name="Trazado 5290" d="M380,83.111l.167-.342a1.621,1.621,0,0,1,.467-.554c.036-.032.079-.063.12-.094.024-.016.043-.04.068-.055l.044-.025c.049-.033.089-.07.144-.1l29.233-16.878a4.287,4.287,0,0,1,3.869,0l59.99,34.99c.653.377.9.9.753,1.392l.045.027v1.062a3.117,3.117,0,0,1-1.561,2.7L444.872,121.62a4.291,4.291,0,0,1-3.868,0L381.1,86.694A2.75,2.75,0,0,1,380,83.111Z" fill="#3c5185" opacity="0.878"/>
          <path id="Trazado_5291" data-name="Trazado 5291" d="M380.256,83.082l.165-.34a1.612,1.612,0,0,1,.465-.55c.035-.032.078-.062.118-.093.025-.016.043-.04.068-.055l.044-.024a1.713,1.713,0,0,1,.142-.1L410.3,65.151a4.264,4.264,0,0,1,3.843,0l59.744,34.858c.648.374.9.895.747,1.383l.045.026v1.056a3.093,3.093,0,0,1-1.551,2.682l-28.283,16.28a4.266,4.266,0,0,1-3.844,0L381.348,86.642A2.731,2.731,0,0,1,380.256,83.082Z" fill="#3c5185" opacity="0.902"/>
          <path id="Trazado_5292" data-name="Trazado 5292" d="M380.507,83.053l.164-.337a1.615,1.615,0,0,1,.462-.547c.035-.032.078-.062.118-.093.024-.016.042-.039.067-.053l.043-.025c.049-.033.088-.07.142-.1l28.85-16.656a4.236,4.236,0,0,1,3.818,0l59.5,34.724c.645.372.889.89.742,1.374l.045.027v1.048a3.074,3.074,0,0,1-1.541,2.665l-28.1,16.172a4.236,4.236,0,0,1-3.818,0L381.592,86.589A2.714,2.714,0,0,1,380.507,83.053Z" fill="#3c5185" opacity="0.927"/>
          <path id="Trazado_5293" data-name="Trazado 5293" d="M380.759,83.024l.162-.335a1.592,1.592,0,0,1,.459-.543c.035-.032.077-.061.117-.092.024-.016.042-.039.067-.053l.043-.025c.048-.033.087-.069.141-.1L410.406,65.33a4.207,4.207,0,0,1,3.792,0l59.249,34.592c.641.37.884.884.738,1.365l.044.026v1.042A3.054,3.054,0,0,1,472.7,105l-27.91,16.064a4.207,4.207,0,0,1-3.792,0L381.836,86.537A2.7,2.7,0,0,1,380.759,83.024Z" fill="#3c5185" opacity="0.951"/>
          <path id="Trazado_5294" data-name="Trazado 5294" d="M381.01,83l.162-.332a1.582,1.582,0,0,1,.455-.54c.035-.032.077-.061.116-.092.024-.015.042-.038.067-.053l.043-.024c.048-.033.086-.068.14-.1L410.458,65.42a4.179,4.179,0,0,1,3.767,0l59,34.459c.636.367.877.878.732,1.356l.045.026v1.034a3.036,3.036,0,0,1-1.521,2.63l-27.722,15.956a4.179,4.179,0,0,1-3.767,0l-58.915-34.4A2.678,2.678,0,0,1,381.01,83Z" fill="#3c5185" opacity="0.976"/>
          <path id="Trazado_5295" data-name="Trazado 5295" d="M381.262,82.967l.16-.331a1.561,1.561,0,0,1,.453-.536c.034-.031.076-.061.115-.091s.041-.038.066-.053l.043-.024c.047-.032.086-.068.138-.1L410.511,65.51a4.152,4.152,0,0,1,3.742,0l58.755,34.326c.632.364.872.872.728,1.346l.044.026v1.028a3.014,3.014,0,0,1-1.511,2.612L444.734,120.7a4.152,4.152,0,0,1-3.742,0L382.324,86.432A2.659,2.659,0,0,1,381.262,82.967Z" fill="#3c5185"/>
        </g>
        <g id="Grupo_1989" data-name="Grupo 1989">
          <g id="Grupo_1988" data-name="Grupo 1988">
            <path id="Trazado_5296" data-name="Trazado 5296" d="M480.344,101.158V99.879l-68.217-40.07c-1.281-.739-2.787-1.191-4.068-.451L372.245,79.919a1.974,1.974,0,0,0-.79.846l-.2.411a3.31,3.31,0,0,0,1.322,4.314l66.959,38.644a5.168,5.168,0,0,0,4.657,0l34.27-19.725A3.753,3.753,0,0,0,480.344,101.158Z" fill="url(#linear-gradient)"/>
            <path id="Trazado_5297" data-name="Trazado 5297" d="M479.384,100.86a1.422,1.422,0,0,0,0-2.689L412.317,59.45a5.162,5.162,0,0,0-4.657,0L372.47,79.766a1.421,1.421,0,0,0,0,2.689l67.067,38.721a5.162,5.162,0,0,0,4.657,0Z" fill="#f3f8fe"/>
            <path id="Trazado_5298" data-name="Trazado 5298" d="M477.9,100.758a1.368,1.368,0,0,0,0-2.588L412.31,60.31a4.971,4.971,0,0,0-4.483,0l-6.152,3.644a.6.6,0,0,0-.041,1.005l.679.476a.681.681,0,0,1,0,1.179l-16.74,9.606a1.479,1.479,0,0,1-1.443.021l-1.454-.783a1.089,1.089,0,0,0-1.064.016l-7.661,4.394a1.368,1.368,0,0,0,0,2.588l65.593,37.86a4.971,4.971,0,0,0,4.483,0Z" fill="#a5cbef"/>
            <g id="Grupo_1987" data-name="Grupo 1987">
              <path id="Trazado_5299" data-name="Trazado 5299" d="M389.35,72.467a.2.2,0,0,0,.1-.028l7.382-4.251a.207.207,0,1,0-.207-.359l-7.382,4.251a.207.207,0,0,0,.1.387Z" fill="#a5cbef"/>
            </g>
          </g>
        </g>
      </g>
      <path id="Trazado_5300" data-name="Trazado 5300" d="M402.553,63.531l58.615,33.842c-4.246-5.308-4.976-10.274-4.895-13.356A13.025,13.025,0,0,0,448.1,71.325a13.935,13.935,0,0,0-11.48.738h0a7.544,7.544,0,0,1-10.771-4.547h0c-.048-.161-.1-.32-.161-.475a5.851,5.851,0,0,0-7.113-3.333C416.143,64.4,410.661,65.387,402.553,63.531Z" fill="url(#linear-gradient-2)"/>
      <path id="Trazado_5301" data-name="Trazado 5301" d="M424,71.181a25.7,25.7,0,0,1-6.668.884l43.834,25.308c-4.246-5.308-4.976-10.274-4.895-13.356a13.959,13.959,0,0,0-.5-4.086,12.036,12.036,0,0,0-2.247-1.133,13.935,13.935,0,0,0-11.48.738h0a7.544,7.544,0,0,1-10.771-4.547h0c-.048-.161-.1-.32-.161-.475A5.851,5.851,0,0,0,424,71.181Z" fill="#3c5185" opacity="0.3"/>
      <path id="Trazado_5302" data-name="Trazado 5302" d="M408.7,72.785l58.616,33.842c-4.246-5.308-4.977-10.274-4.9-13.357a13.026,13.026,0,0,0-8.177-12.692,13.939,13.939,0,0,0-11.48.739h0a7.545,7.545,0,0,1-10.771-4.547h0q-.07-.243-.161-.475a5.85,5.85,0,0,0-7.113-3.333C422.286,73.655,416.8,74.641,408.7,72.785Z" fill="url(#linear-gradient-3)"/>
      <g id="Grupo_2002" data-name="Grupo 2002">
        <g id="Grupo_1991" data-name="Grupo 1991">
          <path id="Trazado_5303" data-name="Trazado 5303" d="M452.564,97.862a.355.355,0,0,1-.356-.356V95.575a.356.356,0,0,1,.712,0v1.931A.356.356,0,0,1,452.564,97.862Z" fill="#3c5185"/>
        </g>
        <g id="Grupo_1992" data-name="Grupo 1992">
          <path id="Trazado_5304" data-name="Trazado 5304" d="M452.564,94.362a.355.355,0,0,1-.356-.356v-1.93a.356.356,0,0,1,.712,0v1.93A.356.356,0,0,1,452.564,94.362Z" fill="#3c5185"/>
        </g>
        <g id="Grupo_1993" data-name="Grupo 1993">
          <path id="Trazado_5305" data-name="Trazado 5305" d="M452.564,90.863a.356.356,0,0,1-.356-.357v-1.93a.356.356,0,0,1,.712,0v1.93A.356.356,0,0,1,452.564,90.863Z" fill="#3c5185"/>
        </g>
        <g id="Grupo_1994" data-name="Grupo 1994">
          <path id="Trazado_5306" data-name="Trazado 5306" d="M452.564,87.363a.355.355,0,0,1-.356-.356V85.076a.356.356,0,0,1,.712,0v1.931A.356.356,0,0,1,452.564,87.363Z" fill="#3c5185"/>
        </g>
        <g id="Grupo_1995" data-name="Grupo 1995">
          <path id="Trazado_5307" data-name="Trazado 5307" d="M452.564,83.863a.355.355,0,0,1-.356-.356v-1.93a.356.356,0,1,1,.712,0v1.93A.356.356,0,0,1,452.564,83.863Z" fill="#3c5185"/>
        </g>
        <g id="Grupo_1996" data-name="Grupo 1996">
          <path id="Trazado_5308" data-name="Trazado 5308" d="M452.564,80.364a.356.356,0,0,1-.356-.356V78.077a.356.356,0,1,1,.712,0v1.931A.356.356,0,0,1,452.564,80.364Z" fill="#3c5185"/>
        </g>
        <g id="Grupo_1997" data-name="Grupo 1997">
          <path id="Trazado_5309" data-name="Trazado 5309" d="M452.564,76.864a.355.355,0,0,1-.356-.356V74.577a.356.356,0,1,1,.712,0v1.931A.356.356,0,0,1,452.564,76.864Z" fill="#3c5185"/>
        </g>
        <g id="Grupo_1998" data-name="Grupo 1998">
          <path id="Trazado_5310" data-name="Trazado 5310" d="M452.564,73.364a.355.355,0,0,1-.356-.356v-1.93a.356.356,0,1,1,.712,0v1.93A.356.356,0,0,1,452.564,73.364Z" fill="#3c5185"/>
        </g>
        <g id="Grupo_1999" data-name="Grupo 1999">
          <path id="Trazado_5311" data-name="Trazado 5311" d="M452.564,69.865a.356.356,0,0,1-.356-.357v-1.93a.356.356,0,1,1,.712,0v1.93A.356.356,0,0,1,452.564,69.865Z" fill="#3c5185"/>
        </g>
        <g id="Grupo_2000" data-name="Grupo 2000">
          <path id="Trazado_5312" data-name="Trazado 5312" d="M452.564,66.365a.355.355,0,0,1-.356-.356V64.078a.356.356,0,1,1,.712,0v1.931A.356.356,0,0,1,452.564,66.365Z" fill="#3c5185"/>
        </g>
        <g id="Grupo_2001" data-name="Grupo 2001">
          <path id="Trazado_5313" data-name="Trazado 5313" d="M452.564,62.865a.356.356,0,0,1-.356-.356v-1.93a.356.356,0,1,1,.712,0v1.93A.356.356,0,0,1,452.564,62.865Z" fill="#3c5185"/>
        </g>
      </g>
      <g id="Grupo_2011" data-name="Grupo 2011">
        <g id="Grupo_2003" data-name="Grupo 2003">
          <path id="Trazado_5314" data-name="Trazado 5314" d="M428.942,84.318a.356.356,0,0,1-.356-.356v-1.93a.356.356,0,0,1,.712,0v1.93A.356.356,0,0,1,428.942,84.318Z" fill="#3c5185"/>
        </g>
        <g id="Grupo_2004" data-name="Grupo 2004">
          <path id="Trazado_5315" data-name="Trazado 5315" d="M428.942,80.819a.357.357,0,0,1-.356-.357v-1.93a.356.356,0,0,1,.712,0v1.93A.356.356,0,0,1,428.942,80.819Z" fill="#3c5185"/>
        </g>
        <g id="Grupo_2005" data-name="Grupo 2005">
          <path id="Trazado_5316" data-name="Trazado 5316" d="M428.942,77.319a.356.356,0,0,1-.356-.356v-1.93a.356.356,0,1,1,.712,0v1.93A.356.356,0,0,1,428.942,77.319Z" fill="#3c5185"/>
        </g>
        <g id="Grupo_2006" data-name="Grupo 2006">
          <path id="Trazado_5317" data-name="Trazado 5317" d="M428.942,73.819a.356.356,0,0,1-.356-.356v-1.93a.356.356,0,1,1,.712,0v1.93A.356.356,0,0,1,428.942,73.819Z" fill="#3c5185"/>
        </g>
        <g id="Grupo_2007" data-name="Grupo 2007">
          <path id="Trazado_5318" data-name="Trazado 5318" d="M428.942,70.32a.357.357,0,0,1-.356-.357v-1.93a.356.356,0,0,1,.712,0v1.93A.356.356,0,0,1,428.942,70.32Z" fill="#3c5185"/>
        </g>
        <g id="Grupo_2008" data-name="Grupo 2008">
          <path id="Trazado_5319" data-name="Trazado 5319" d="M428.942,66.82a.357.357,0,0,1-.356-.356V64.533a.356.356,0,0,1,.712,0v1.931A.356.356,0,0,1,428.942,66.82Z" fill="#3c5185"/>
        </g>
        <g id="Grupo_2009" data-name="Grupo 2009">
          <path id="Trazado_5320" data-name="Trazado 5320" d="M428.942,63.32a.356.356,0,0,1-.356-.356v-1.93a.356.356,0,1,1,.712,0v1.93A.356.356,0,0,1,428.942,63.32Z" fill="#3c5185"/>
        </g>
        <g id="Grupo_2010" data-name="Grupo 2010">
          <path id="Trazado_5321" data-name="Trazado 5321" d="M428.942,59.82a.356.356,0,0,1-.356-.356v-1.93a.356.356,0,0,1,.712,0v1.93A.356.356,0,0,1,428.942,59.82Z" fill="#3c5185"/>
        </g>
      </g>
      <g id="Grupo_2013" data-name="Grupo 2013">
        <path id="Trazado_5322" data-name="Trazado 5322" d="M449.315,46.964v7.483a1.3,1.3,0,0,0,.65,1.126l1.178.757,1.15,2.552a.615.615,0,0,0,.873.386l1.392-.941,10.113,5.846a.734.734,0,0,0,1.108-.632V55.948a1.3,1.3,0,0,0-.65-1.126l-14.713-8.494A.734.734,0,0,0,449.315,46.964Z" fill="#7ea7df"/>
        <g id="Grupo_2012" data-name="Grupo 2012">
          <path id="Trazado_5323" data-name="Trazado 5323" d="M465.243,63.809V56.216a1.3,1.3,0,0,0-.65-1.126L449.881,46.6a.726.726,0,0,0-.393-.1.727.727,0,0,1,.928-.171l14.713,8.494a1.3,1.3,0,0,1,.65,1.126v7.593a.732.732,0,0,1-.708.732A.719.719,0,0,0,465.243,63.809Z" fill="url(#linear-gradient-4)"/>
        </g>
        <path id="Trazado_5324" data-name="Trazado 5324" d="M464.107,56.365l-13.783-7.929v.88l13.783,7.929Z" fill="#fff"/>
        <path id="Trazado_5325" data-name="Trazado 5325" d="M464.107,58.651l-13.783-7.929v.88l13.783,7.929Z" fill="#fff"/>
        <path id="Trazado_5326" data-name="Trazado 5326" d="M458.2,57.6l-7.878-4.572v.88L458.2,58.48Z" fill="#fff"/>
      </g>
      <g id="Grupo_2015" data-name="Grupo 2015">
        <g id="Grupo_2014" data-name="Grupo 2014" opacity="0.3">
          <path id="Trazado_5327" data-name="Trazado 5327" d="M443.441,111.676c4.461-2.307,4.461-6.083,0-8.39s-11.738-2.308-16.173,0-4.435,6.083,0,8.39S438.981,113.984,443.441,111.676Z" fill="#3c5185" opacity="0"/>
          <path id="Trazado_5328" data-name="Trazado 5328" d="M443.361,111.618c4.414-2.283,4.414-6.02,0-8.3s-11.616-2.284-16.005,0-4.389,6.02,0,8.3S438.947,113.9,443.361,111.618Z" fill="#3c5185" opacity="0.024"/>
          <path id="Trazado_5329" data-name="Trazado 5329" d="M443.281,111.56c4.367-2.26,4.367-5.957,0-8.217s-11.495-2.259-15.838,0-4.343,5.957,0,8.217S438.913,113.82,443.281,111.56Z" fill="#3c5185" opacity="0.049"/>
          <path id="Trazado_5330" data-name="Trazado 5330" d="M443.2,111.5c4.321-2.236,4.321-5.894,0-8.13s-11.373-2.235-15.669,0-4.3,5.894,0,8.13S438.879,113.738,443.2,111.5Z" fill="#3c5185" opacity="0.073"/>
          <path id="Trazado_5331" data-name="Trazado 5331" d="M443.12,111.444c4.275-2.212,4.275-5.831,0-8.043s-11.251-2.212-15.5,0-4.251,5.831,0,8.043S438.845,113.655,443.12,111.444Z" fill="#3c5185" opacity="0.098"/>
          <path id="Trazado_5332" data-name="Trazado 5332" d="M443.039,111.386c4.229-2.188,4.229-5.768,0-7.956a18.731,18.731,0,0,0-15.334,0c-4.2,2.188-4.2,5.768,0,7.956A18.739,18.739,0,0,0,443.039,111.386Z" fill="#3c5185" opacity="0.122"/>
          <path id="Trazado_5333" data-name="Trazado 5333" d="M442.959,111.327c4.182-2.164,4.182-5.7,0-7.868a18.526,18.526,0,0,0-15.166,0c-4.159,2.164-4.159,5.7,0,7.868A18.526,18.526,0,0,0,442.959,111.327Z" fill="#3c5185" opacity="0.146"/>
          <path id="Trazado_5334" data-name="Trazado 5334" d="M442.878,111.269c4.136-2.14,4.136-5.641,0-7.781a18.321,18.321,0,0,0-15,0c-4.113,2.14-4.113,5.641,0,7.781A18.321,18.321,0,0,0,442.878,111.269Z" fill="#3c5185" opacity="0.171"/>
          <path id="Trazado_5335" data-name="Trazado 5335" d="M442.8,111.211c4.09-2.116,4.09-5.578,0-7.694a18.119,18.119,0,0,0-14.831,0c-4.067,2.116-4.067,5.578,0,7.694A18.118,18.118,0,0,0,442.8,111.211Z" fill="#3c5185" opacity="0.195"/>
          <path id="Trazado_5336" data-name="Trazado 5336" d="M442.717,111.153c4.044-2.092,4.044-5.515,0-7.607a17.911,17.911,0,0,0-14.662,0c-4.021,2.092-4.021,5.515,0,7.607A17.911,17.911,0,0,0,442.717,111.153Z" fill="#3c5185" opacity="0.22"/>
          <path id="Trazado_5337" data-name="Trazado 5337" d="M442.637,111.1c4-2.068,4-5.452,0-7.52a17.709,17.709,0,0,0-14.495,0c-3.975,2.068-3.975,5.452,0,7.52A17.708,17.708,0,0,0,442.637,111.1Z" fill="#3c5185" opacity="0.244"/>
          <path id="Trazado_5338" data-name="Trazado 5338" d="M442.556,111.037c3.951-2.045,3.951-5.389,0-7.433a17.5,17.5,0,0,0-14.327,0c-3.928,2.044-3.928,5.388,0,7.433A17.5,17.5,0,0,0,442.556,111.037Z" fill="#3c5185" opacity="0.268"/>
          <path id="Trazado_5339" data-name="Trazado 5339" d="M442.476,110.978c3.9-2.02,3.9-5.325,0-7.346a17.3,17.3,0,0,0-14.159,0c-3.883,2.021-3.883,5.326,0,7.346A17.3,17.3,0,0,0,442.476,110.978Z" fill="#3c5185" opacity="0.293"/>
          <path id="Trazado_5340" data-name="Trazado 5340" d="M442.4,110.92c3.858-2,3.858-5.262,0-7.259a17.1,17.1,0,0,0-13.992,0c-3.837,2-3.837,5.263,0,7.259A17.1,17.1,0,0,0,442.4,110.92Z" fill="#3c5185" opacity="0.317"/>
          <path id="Trazado_5341" data-name="Trazado 5341" d="M442.315,110.862c3.812-1.972,3.812-5.2,0-7.172a16.889,16.889,0,0,0-13.823,0c-3.791,1.972-3.791,5.2,0,7.172A16.889,16.889,0,0,0,442.315,110.862Z" fill="#3c5185" opacity="0.341"/>
          <path id="Trazado_5342" data-name="Trazado 5342" d="M442.235,110.8c3.766-1.949,3.766-5.137,0-7.085a16.686,16.686,0,0,0-13.656,0c-3.745,1.948-3.745,5.136,0,7.085A16.686,16.686,0,0,0,442.235,110.8Z" fill="#3c5185" opacity="0.366"/>
          <path id="Trazado_5343" data-name="Trazado 5343" d="M442.154,110.746c3.72-1.925,3.72-5.074,0-7a16.481,16.481,0,0,0-13.488,0c-3.7,1.924-3.7,5.073,0,7A16.481,16.481,0,0,0,442.154,110.746Z" fill="#3c5185" opacity="0.39"/>
          <path id="Trazado_5344" data-name="Trazado 5344" d="M442.074,110.688c3.673-1.9,3.673-5.011,0-6.911a16.268,16.268,0,0,0-13.32,0c-3.653,1.9-3.653,5.01,0,6.911A16.276,16.276,0,0,0,442.074,110.688Z" fill="#3c5185" opacity="0.415"/>
          <path id="Trazado_5345" data-name="Trazado 5345" d="M441.993,110.629c3.627-1.876,3.627-4.947,0-6.823a16.063,16.063,0,0,0-13.152,0c-3.607,1.876-3.607,4.947,0,6.823A16.063,16.063,0,0,0,441.993,110.629Z" fill="#3c5185" opacity="0.439"/>
          <path id="Trazado_5346" data-name="Trazado 5346" d="M441.913,110.571c3.581-1.852,3.581-4.884,0-6.736a15.86,15.86,0,0,0-12.985,0c-3.56,1.852-3.56,4.884,0,6.736A15.86,15.86,0,0,0,441.913,110.571Z" fill="#3c5185" opacity="0.463"/>
          <path id="Trazado_5347" data-name="Trazado 5347" d="M441.832,110.513c3.535-1.829,3.535-4.821,0-6.649a15.653,15.653,0,0,0-12.816,0c-3.515,1.828-3.515,4.82,0,6.649A15.653,15.653,0,0,0,441.832,110.513Z" fill="#3c5185" opacity="0.488"/>
          <path id="Trazado_5348" data-name="Trazado 5348" d="M441.752,110.455c3.488-1.805,3.488-4.758,0-6.563a15.458,15.458,0,0,0-12.649,0c-3.469,1.805-3.469,4.758,0,6.563A15.45,15.45,0,0,0,441.752,110.455Z" fill="#3c5185" opacity="0.512"/>
          <path id="Trazado_5349" data-name="Trazado 5349" d="M441.671,110.4c3.442-1.781,3.442-4.695,0-6.475a15.245,15.245,0,0,0-12.481,0c-3.422,1.78-3.422,4.694,0,6.475A15.253,15.253,0,0,0,441.671,110.4Z" fill="#3c5185" opacity="0.537"/>
          <path id="Trazado_5350" data-name="Trazado 5350" d="M441.591,110.339c3.4-1.757,3.4-4.632,0-6.389a15.048,15.048,0,0,0-12.313,0c-3.377,1.757-3.377,4.632,0,6.389A15.048,15.048,0,0,0,441.591,110.339Z" fill="#3c5185" opacity="0.561"/>
          <path id="Trazado_5351" data-name="Trazado 5351" d="M441.511,110.28c3.349-1.732,3.349-4.568,0-6.3a14.838,14.838,0,0,0-12.146,0c-3.33,1.733-3.33,4.569,0,6.3A14.838,14.838,0,0,0,441.511,110.28Z" fill="#3c5185" opacity="0.585"/>
          <path id="Trazado_5352" data-name="Trazado 5352" d="M441.43,110.222c3.3-1.709,3.3-4.5,0-6.214a14.63,14.63,0,0,0-11.977,0c-3.285,1.709-3.285,4.5,0,6.214A14.63,14.63,0,0,0,441.43,110.222Z" fill="#3c5185" opacity="0.61"/>
          <path id="Trazado_5353" data-name="Trazado 5353" d="M441.35,110.164c3.256-1.685,3.256-4.442,0-6.127a14.428,14.428,0,0,0-11.81,0c-3.239,1.685-3.239,4.442,0,6.127A14.428,14.428,0,0,0,441.35,110.164Z" fill="#3c5185" opacity="0.634"/>
          <path id="Trazado_5354" data-name="Trazado 5354" d="M441.269,110.106c3.211-1.661,3.211-4.379,0-6.04a14.223,14.223,0,0,0-11.642,0c-3.192,1.661-3.192,4.379,0,6.04A14.223,14.223,0,0,0,441.269,110.106Z" fill="#3c5185" opacity="0.659"/>
          <path id="Trazado_5355" data-name="Trazado 5355" d="M441.189,110.048c3.164-1.637,3.164-4.316,0-5.953a14.018,14.018,0,0,0-11.474,0c-3.147,1.637-3.147,4.316,0,5.953A14.018,14.018,0,0,0,441.189,110.048Z" fill="#3c5185" opacity="0.683"/>
          <path id="Trazado_5356" data-name="Trazado 5356" d="M441.108,109.99c3.118-1.614,3.118-4.253,0-5.866a13.813,13.813,0,0,0-11.306,0c-3.1,1.613-3.1,4.252,0,5.866A13.813,13.813,0,0,0,441.108,109.99Z" fill="#3c5185" opacity="0.707"/>
          <path id="Trazado_5357" data-name="Trazado 5357" d="M441.028,109.931c3.072-1.589,3.072-4.189,0-5.778a13.6,13.6,0,0,0-11.139,0c-3.054,1.589-3.054,4.189,0,5.778A13.6,13.6,0,0,0,441.028,109.931Z" fill="#3c5185" opacity="0.732"/>
          <path id="Trazado_5358" data-name="Trazado 5358" d="M440.947,109.873c3.026-1.565,3.026-4.126,0-5.691a13.4,13.4,0,0,0-10.97,0c-3.009,1.565-3.009,4.126,0,5.691A13.4,13.4,0,0,0,440.947,109.873Z" fill="#3c5185" opacity="0.756"/>
          <path id="Trazado_5359" data-name="Trazado 5359" d="M440.867,109.815c2.979-1.541,2.979-4.063,0-5.6a13.192,13.192,0,0,0-10.8,0c-2.962,1.541-2.962,4.063,0,5.6A13.2,13.2,0,0,0,440.867,109.815Z" fill="#3c5185" opacity="0.78"/>
          <path id="Trazado_5360" data-name="Trazado 5360" d="M440.786,109.757c2.933-1.518,2.933-4,0-5.518a13,13,0,0,0-10.635,0c-2.916,1.518-2.916,4,0,5.518A13,13,0,0,0,440.786,109.757Z" fill="#3c5185" opacity="0.805"/>
          <path id="Trazado_5361" data-name="Trazado 5361" d="M440.706,109.7c2.887-1.494,2.887-3.937,0-5.431a12.79,12.79,0,0,0-10.467,0c-2.871,1.494-2.871,3.937,0,5.431A12.79,12.79,0,0,0,440.706,109.7Z" fill="#3c5185" opacity="0.829"/>
          <path id="Trazado_5362" data-name="Trazado 5362" d="M440.626,109.641c2.84-1.47,2.84-3.874,0-5.344a12.587,12.587,0,0,0-10.3,0c-2.824,1.47-2.824,3.874,0,5.344A12.587,12.587,0,0,0,440.626,109.641Z" fill="#3c5185" opacity="0.854"/>
          <path id="Trazado_5363" data-name="Trazado 5363" d="M440.545,109.583c2.794-1.446,2.794-3.811,0-5.257a12.38,12.38,0,0,0-10.131,0c-2.779,1.446-2.779,3.811,0,5.257A12.38,12.38,0,0,0,440.545,109.583Z" fill="#3c5185" opacity="0.878"/>
          <path id="Trazado_5364" data-name="Trazado 5364" d="M440.465,109.524c2.747-1.421,2.747-3.748,0-5.169a12.17,12.17,0,0,0-9.964,0c-2.732,1.421-2.732,3.748,0,5.169A12.17,12.17,0,0,0,440.465,109.524Z" fill="#3c5185" opacity="0.902"/>
          <path id="Trazado_5365" data-name="Trazado 5365" d="M440.384,109.466c2.7-1.4,2.7-3.684,0-5.082a11.965,11.965,0,0,0-9.8,0c-2.686,1.4-2.686,3.685,0,5.082A11.965,11.965,0,0,0,440.384,109.466Z" fill="#3c5185" opacity="0.927"/>
          <path id="Trazado_5366" data-name="Trazado 5366" d="M440.3,109.408c2.655-1.374,2.655-3.622,0-4.995a11.76,11.76,0,0,0-9.628,0c-2.641,1.373-2.641,3.621,0,4.995A11.76,11.76,0,0,0,440.3,109.408Z" fill="#3c5185" opacity="0.951"/>
          <path id="Trazado_5367" data-name="Trazado 5367" d="M440.223,109.35c2.609-1.35,2.609-3.559,0-4.908a11.555,11.555,0,0,0-9.46,0c-2.594,1.349-2.594,3.558,0,4.908A11.562,11.562,0,0,0,440.223,109.35Z" fill="#3c5185" opacity="0.976"/>
          <path id="Trazado_5368" data-name="Trazado 5368" d="M440.143,109.292c2.562-1.326,2.562-3.5,0-4.821a11.352,11.352,0,0,0-9.293,0c-2.548,1.325-2.548,3.5,0,4.821A11.36,11.36,0,0,0,440.143,109.292Z" fill="#3c5185"/>
        </g>
        <path id="Trazado_5369" data-name="Trazado 5369" d="M441.325,109.9c3.19-1.832,3.19-4.83,0-6.662a12.874,12.874,0,0,0-11.571,0c-3.173,1.832-3.173,4.83,0,6.662A12.868,12.868,0,0,0,441.325,109.9Z" fill="#2d3d64"/>
        <path id="Trazado_5370" data-name="Trazado 5370" d="M441.325,108.886c3.19-1.832,3.19-4.83,0-6.662a12.868,12.868,0,0,0-11.571,0c-3.173,1.832-3.173,4.83,0,6.662A12.874,12.874,0,0,0,441.325,108.886Z" fill="url(#linear-gradient-5)"/>
        <path id="Trazado_5371" data-name="Trazado 5371" d="M439.632,106.136c2.257-1.3,2.257-3.416,0-4.711a9.1,9.1,0,0,0-8.182,0c-2.243,1.295-2.243,3.415,0,4.711A9.1,9.1,0,0,0,439.632,106.136Z" fill="#2d3d64"/>
        <path id="Trazado_5372" data-name="Trazado 5372" d="M439.632,105.248a3.057,3.057,0,0,0,0-5.471c-1.125-.646-2.606-2.491-4.086-2.493s-2.971,1.844-4.1,2.493a3.065,3.065,0,0,0,0,5.471A9.1,9.1,0,0,0,439.632,105.248Z" fill="url(#linear-gradient-5)"/>
        <path id="Trazado_5373" data-name="Trazado 5373" d="M438.341,100.059c1.544-.886,1.544-2.336,0-3.222a6.223,6.223,0,0,0-5.6,0c-1.535.886-1.535,2.336,0,3.222A6.223,6.223,0,0,0,438.341,100.059Z" fill="#2d3d64"/>
        <path id="Trazado_5374" data-name="Trazado 5374" d="M438.341,99.569c1.544-.887,1.544-2.337,0-3.223a6.223,6.223,0,0,0-5.6,0c-1.535.886-1.535,2.336,0,3.223A6.223,6.223,0,0,0,438.341,99.569Z" fill="url(#linear-gradient-5)"/>
        <path id="Trazado_5375" data-name="Trazado 5375" d="M437.978,97.735c1.343-.77,1.343-2.032,0-2.8a5.416,5.416,0,0,0-4.87,0c-1.335.771-1.335,2.033,0,2.8A5.416,5.416,0,0,0,437.978,97.735Z" fill="#2d3d64"/>
        <path id="Trazado_5376" data-name="Trazado 5376" d="M437.978,96.954c1.343-.771-.7-8.723-.634-11.623.017-.772-.917-.6-1.8-.6s-1.821-.176-1.8.6c.053,2.393-1.969,10.852-.634,11.623A5.416,5.416,0,0,0,437.978,96.954Z" fill="url(#linear-gradient-8)"/>
        <path id="Trazado_5377" data-name="Trazado 5377" d="M437.59,86.631a1.243,1.243,0,0,0,0-2.357,4.552,4.552,0,0,0-4.093,0,1.246,1.246,0,0,0,0,2.357A4.552,4.552,0,0,0,437.59,86.631Z" fill="#3c5185"/>
        <path id="Trazado_5378" data-name="Trazado 5378" d="M437.59,86.272a1.243,1.243,0,0,0,0-2.357,4.552,4.552,0,0,0-4.093,0,1.246,1.246,0,0,0,0,2.357A4.552,4.552,0,0,0,437.59,86.272Z" fill="url(#linear-gradient-5)"/>
        <path id="Trazado_5379" data-name="Trazado 5379" d="M437.216,85.657a1.016,1.016,0,0,0,0-1.925,3.719,3.719,0,0,0-3.343,0,1.017,1.017,0,0,0,0,1.925A3.719,3.719,0,0,0,437.216,85.657Z" fill="#2d3d64"/>
        <path id="Trazado_5380" data-name="Trazado 5380" d="M437.216,85.084c.922-.529,3.212-5.212,2.29-5.742s-7.007-.529-7.924,0,1.374,5.213,2.291,5.742A3.713,3.713,0,0,0,437.216,85.084Z" fill="url(#linear-gradient-5)"/>
        <path id="Trazado_5381" data-name="Trazado 5381" d="M438.624,81.06c1.7-.976,1.7-2.572,0-3.548a6.852,6.852,0,0,0-6.163,0c-1.69.976-1.69,2.572,0,3.548A6.852,6.852,0,0,0,438.624,81.06Z" fill="#2d3d64"/>
        <path id="Trazado_5382" data-name="Trazado 5382" d="M438.624,80.52c1.7-.976,1.7-2.572,0-3.548a6.852,6.852,0,0,0-6.163,0c-1.69.976-1.69,2.572,0,3.548A6.852,6.852,0,0,0,438.624,80.52Z" fill="url(#linear-gradient-5)"/>
        <path id="Trazado_5383" data-name="Trazado 5383" d="M438.027,76.24a2.481,2.481,0,1,1-2.481-2.481A2.481,2.481,0,0,1,438.027,76.24Z" fill="url(#linear-gradient-12)"/>
      </g>
      <g id="Grupo_2019" data-name="Grupo 2019">
        <path id="Trazado_5384" data-name="Trazado 5384" d="M397.161,39.884c0-.82.581-1.156,1.291-.746L418.822,50.9a1.313,1.313,0,0,1,.591,1.024v2.109l1.123,2.121a.493.493,0,0,1-.232.68l-.891.4v3.5c0,.376-.266.529-.591.342l-21.07-12.165a1.313,1.313,0,0,1-.591-1.024V39.884Z" fill="#7ea7df"/>
        <path id="Trazado_5385" data-name="Trazado 5385" d="M420.3,56.833l-.3.135a.486.486,0,0,0-.026-.4l-1.123-2.121V52.339a1.311,1.311,0,0,0-.591-1.024L397.549,39.353a1.019,1.019,0,0,0-.229-.1c.216-.332.631-.408,1.112-.13L418.822,50.9a1.313,1.313,0,0,1,.591,1.024v2.109l1.123,2.121A.493.493,0,0,1,420.3,56.833Zm-1.445.658V61.1c.309.155.555,0,.555-.359v-3.5Z" fill="url(#linear-gradient-13)"/>
        <g id="Grupo_2016" data-name="Grupo 2016">
          <path id="Trazado_5386" data-name="Trazado 5386" d="M417.327,52.844,405.139,45.83v-.79l12.189,7Z" fill="#f8fbfe"/>
        </g>
        <g id="Grupo_2017" data-name="Grupo 2017">
          <path id="Trazado_5387" data-name="Trazado 5387" d="M417.327,55.526l-12.189-6.993v-.789l12.189,7Z" fill="#f8fbfe"/>
        </g>
        <g id="Grupo_2018" data-name="Grupo 2018">
          <path id="Trazado_5388" data-name="Trazado 5388" d="M411.918,55.28l-6.78-3.879v-.789l6.78,3.888Z" fill="#f8fbfe"/>
        </g>
        <path id="Trazado_5389" data-name="Trazado 5389" d="M401.3,43.278c-1.473-.85-2.678-.154-2.678,1.547a5.941,5.941,0,0,0,2.678,4.638c1.473.851,2.678.155,2.678-1.546A5.943,5.943,0,0,0,401.3,43.278Z" fill="#fff"/>
      </g>
      <g id="Grupo_2020" data-name="Grupo 2020">
        <path id="Trazado_5390" data-name="Trazado 5390" d="M475.075,86.046c0,.72-.507,1.009-1.127.642L460.807,78.9a2.594,2.594,0,0,1-1.141-1.977l-.118-10.833c-.008-.72.494-1.011,1.115-.646l13.283,7.8a2.539,2.539,0,0,1,1.129,1.972Z" fill="#3c5185"/>
        <path id="Trazado_5391" data-name="Trazado 5391" d="M475.075,85.951V78.413a1.116,1.116,0,0,0-.212-.377,1.318,1.318,0,0,0-1.235-.323,4.827,4.827,0,0,0-1.225.519,5.031,5.031,0,0,1-1.806.6,2.283,2.283,0,0,1-1.78-.536c-.472-.448-.713-1.166-1.316-1.413a2.541,2.541,0,0,0-1.685.2,3.559,3.559,0,0,1-3.59-.562c-.521-.533-.845-1.354-1.568-1.535a1,1,0,0,0-.133-.024,1.446,1.446,0,0,0-.878.206l.019,1.757a2.594,2.594,0,0,0,1.141,1.977l1.114.66c.745.417,1.48.851,2.213,1.288l6.2,3.7,3.609,2.139a1.079,1.079,0,0,0,.437.155.508.508,0,0,0,.15-.012c.3-.081.436-.426.509-.729C475.057,86.052,475.064,86,475.075,85.951Z" fill="url(#linear-gradient-3)"/>
        <path id="Trazado_5392" data-name="Trazado 5392" d="M474.682,86.307V75.48a2.542,2.542,0,0,0-1.129-1.973l-13.283-7.8a.931.931,0,0,0-.6-.149c.186-.3.559-.365.99-.112l13.283,7.8a2.539,2.539,0,0,1,1.129,1.972V86.046c0,.462-.209.745-.523.793A1,1,0,0,0,474.682,86.307Z" fill="url(#linear-gradient-15)"/>
      </g>
      <g id="Grupo_2022" data-name="Grupo 2022">
        <path id="Trazado_5393" data-name="Trazado 5393" d="M436.8,59.126c0,.72-.507,1.009-1.126.641l-13.141-7.784a2.591,2.591,0,0,1-1.141-1.977l-.119-10.833c-.008-.72.494-1.011,1.115-.647l13.283,7.8A2.542,2.542,0,0,1,436.8,48.3Z" fill="#3c5185"/>
        <path id="Trazado_5394" data-name="Trazado 5394" d="M436.413,59.387V48.56a2.543,2.543,0,0,0-1.13-1.973L422,38.788a.929.929,0,0,0-.6-.149c.185-.3.558-.366.989-.113l13.283,7.8A2.542,2.542,0,0,1,436.8,48.3V59.126c0,.462-.209.745-.523.793A1,1,0,0,0,436.413,59.387Z" fill="url(#linear-gradient-15)"/>
        <g id="Grupo_2021" data-name="Grupo 2021">
          <path id="Trazado_5395" data-name="Trazado 5395" d="M424.94,47.356a8.287,8.287,0,0,0,2.41,5.46,6.472,6.472,0,0,0,1.357,1.065l.031.017a3.779,3.779,0,0,0,1.851.546,2.5,2.5,0,0,0,1.262-.33,2.466,2.466,0,0,0,.72-.629,3.583,3.583,0,0,0,.661-2.214,8.251,8.251,0,0,0-2.409-5.464,6.481,6.481,0,0,0-1.36-1.064l-.03-.016a3.079,3.079,0,0,0-3.122-.21,2.43,2.43,0,0,0-.712.623A3.555,3.555,0,0,0,424.94,47.356Zm1.495,0a2.549,2.549,0,0,1,.179-1,1.116,1.116,0,0,1,.446-.544,1.028,1.028,0,0,1,.522-.128,2.354,2.354,0,0,1,1.136.357,4.38,4.38,0,0,1,.585.4,5.978,5.978,0,0,1,.807.8,6.723,6.723,0,0,1,1.626,4.021,2.576,2.576,0,0,1-.181,1,1.119,1.119,0,0,1-.45.548,1.714,1.714,0,0,1-1.65-.232,4.417,4.417,0,0,1-.586-.408,5.976,5.976,0,0,1-.8-.8A6.757,6.757,0,0,1,426.435,47.356Z" fill="#2d3d64" opacity="0.52"/>
          <path id="Trazado_5396" data-name="Trazado 5396" d="M422.749,48.451a8.292,8.292,0,0,0,2.411,5.461,6.5,6.5,0,0,0,1.357,1.064l.031.017a3.772,3.772,0,0,0,1.85.546,2.494,2.494,0,0,0,1.263-.33,2.448,2.448,0,0,0,.719-.629,3.57,3.57,0,0,0,.661-2.214,8.247,8.247,0,0,0-2.408-5.464,6.461,6.461,0,0,0-1.361-1.064l-.029-.016a3.083,3.083,0,0,0-3.123-.21,2.47,2.47,0,0,0-.712.623A3.561,3.561,0,0,0,422.749,48.451Zm1.5,0a2.553,2.553,0,0,1,.179-1,1.12,1.12,0,0,1,.445-.544,1.031,1.031,0,0,1,.522-.128,2.368,2.368,0,0,1,1.137.357,4.468,4.468,0,0,1,.584.405,5.98,5.98,0,0,1,.807.8,6.72,6.72,0,0,1,1.627,4.021,2.576,2.576,0,0,1-.181,1,1.12,1.12,0,0,1-.45.548,1.716,1.716,0,0,1-1.651-.232,4.406,4.406,0,0,1-.586-.407,6.044,6.044,0,0,1-.805-.8A6.759,6.759,0,0,1,424.245,48.451Z" fill="url(#linear-gradient-17)"/>
          <path id="Trazado_5397" data-name="Trazado 5397" d="M425.855,47.434a2.368,2.368,0,0,0-1.137-.357,1.03,1.03,0,0,0-.522.128,1.118,1.118,0,0,0-.445.545l-1.016-1.216a2.471,2.471,0,0,1,.712-.623,3.083,3.083,0,0,1,3.123.21l-.13,1.718A4.546,4.546,0,0,0,425.855,47.434Z" fill="url(#linear-gradient-18)"/>
          <path id="Trazado_5398" data-name="Trazado 5398" d="M426.44,47.839l.13-1.718.029.016A6.461,6.461,0,0,1,427.96,47.2l-.713,1.44A6.048,6.048,0,0,0,426.44,47.839Z" fill="#f9f7f9"/>
          <path id="Trazado_5399" data-name="Trazado 5399" d="M428.873,52.662a6.72,6.72,0,0,0-1.626-4.021l.713-1.44a8.248,8.248,0,0,1,2.408,5.464,3.573,3.573,0,0,1-.661,2.215l-1.015-1.216A2.57,2.57,0,0,0,428.873,52.662Z" fill="#7ea7df"/>
          <path id="Trazado_5400" data-name="Trazado 5400" d="M422.735,46.534l1.016,1.216a2.546,2.546,0,0,0-.179,1A6.756,6.756,0,0,0,425.2,52.77a6.041,6.041,0,0,0,.8.8,4.511,4.511,0,0,0,.586.408,1.716,1.716,0,0,0,1.651.231,1.12,1.12,0,0,0,.45-.548l1.015,1.216a2.446,2.446,0,0,1-.719.628,2.493,2.493,0,0,1-1.262.33,3.781,3.781,0,0,1-1.851-.545l-.031-.017a6.538,6.538,0,0,1-1.357-1.065,8.288,8.288,0,0,1-2.411-5.46A3.562,3.562,0,0,1,422.735,46.534Z" fill="#4a65a3"/>
        </g>
      </g>
      <g id="Grupo_2023" data-name="Grupo 2023">
        <path id="Trazado_5401" data-name="Trazado 5401" d="M422.281,90.176a12.593,12.593,0,0,0-11.351,0c-3.122,1.8-3.122,4.752,0,6.554a12.593,12.593,0,0,0,11.351,0C425.4,94.928,425.4,91.979,422.281,90.176Z" fill="url(#radial-gradient)" style="mix-blend-mode: multiply;isolation: isolate"/>
        <path id="Trazado_5402" data-name="Trazado 5402" d="M410.389,91.111h.7a4.52,4.52,0,0,1,1.12-.884,9.765,9.765,0,0,1,8.8,0,4.543,4.543,0,0,1,1.12.884h.7v1.644h0a3.079,3.079,0,0,1-1.815,2.554,9.765,9.765,0,0,1-8.8,0,3.079,3.079,0,0,1-1.815-2.554h0Z" fill="url(#linear-gradient-19)"/>
        <path id="Trazado_5403" data-name="Trazado 5403" d="M421.006,88.57a9.759,9.759,0,0,0-8.8,0c-2.421,1.4-2.421,3.684,0,5.081a9.759,9.759,0,0,0,8.8,0C423.427,92.254,423.427,89.967,421.006,88.57Z" fill="#fff"/>
        <path id="Trazado_5404" data-name="Trazado 5404" d="M410.391,91.144q0-.033,0-.066V89.717h.482A4.214,4.214,0,0,1,412.2,88.57c1.71-.987.562,2.783,0,5.081v1.657a3.115,3.115,0,0,1-1.813-2.484Z" fill="url(#linear-gradient-20)"/>
        <path id="Trazado_5405" data-name="Trazado 5405" d="M412.2,87.176c-2.421,1.4-2.421,3.684,0,5.081l4.4-2.076Z" fill="url(#linear-gradient-21)"/>
        <path id="Trazado_5406" data-name="Trazado 5406" d="M416.606,90.181v1.394l-4.4,2.076V92.257Z" fill="url(#linear-gradient-22)"/>
        <path id="Trazado_5407" data-name="Trazado 5407" d="M420.832,84.6a9.377,9.377,0,0,0-8.453,0c-2.325,1.342-2.325,3.539,0,4.881a9.377,9.377,0,0,0,8.453,0C423.157,88.141,423.157,85.944,420.832,84.6Z" fill="url(#radial-gradient-2)" style="mix-blend-mode: multiply;isolation: isolate"/>
        <path id="Trazado_5408" data-name="Trazado 5408" d="M412.2,82.932a9.765,9.765,0,0,1,8.8,0l-4.4,3.006Z" fill="#63749d"/>
        <path id="Trazado_5409" data-name="Trazado 5409" d="M421.007,82.933v2.788l-4.4,3.005V85.938Z" fill="#4f6291"/>
        <path id="Trazado_5410" data-name="Trazado 5410" d="M416.606,85.938l-4.4-3.006v2.788l4.4,3.005Z" fill="#3c5185"/>
      </g>
      <g id="Grupo_2026" data-name="Grupo 2026" transform="translate(-2 -2)">
        <g id="Grupo_2024" data-name="Grupo 2024" opacity="0.3">
          <path id="Trazado_5411" data-name="Trazado 5411" d="M402.728,127.108c4.677-2.7,12.331-2.7,17.008,0s4.678,7.12,0,9.82-12.331,2.7-17.008,0S398.05,129.809,402.728,127.108Z" fill="#3c5185" opacity="0"/>
          <path id="Trazado_5412" data-name="Trazado 5412" d="M402.8,127.15c4.637-2.677,12.225-2.677,16.862,0s4.637,7.058,0,9.736-12.225,2.677-16.862,0S398.164,129.828,402.8,127.15Z" fill="#3c5185" opacity="0.024"/>
          <path id="Trazado_5413" data-name="Trazado 5413" d="M402.874,127.193c4.6-2.655,12.119-2.655,16.716,0s4.6,7,0,9.65-12.119,2.655-16.716,0S398.277,129.847,402.874,127.193Z" fill="#3c5185" opacity="0.049"/>
          <path id="Trazado_5414" data-name="Trazado 5414" d="M402.947,127.235c4.557-2.631,12.013-2.631,16.57,0s4.557,6.936,0,9.566-12.013,2.631-16.57,0S398.391,129.866,402.947,127.235Z" fill="#3c5185" opacity="0.073"/>
          <path id="Trazado_5415" data-name="Trazado 5415" d="M403.02,127.277c4.517-2.608,11.907-2.608,16.424,0s4.516,6.874,0,9.482-11.907,2.608-16.424,0S398.5,129.885,403.02,127.277Z" fill="#3c5185" opacity="0.098"/>
          <path id="Trazado_5416" data-name="Trazado 5416" d="M403.094,127.319c4.476-2.584,11.8-2.584,16.277,0s4.476,6.813,0,9.4-11.8,2.584-16.277,0S398.617,129.9,403.094,127.319Z" fill="#3c5185" opacity="0.122"/>
          <path id="Trazado_5417" data-name="Trazado 5417" d="M403.167,127.361c4.436-2.561,11.7-2.561,16.131,0s4.436,6.753,0,9.314-11.7,2.561-16.131,0S398.731,129.923,403.167,127.361Z" fill="#3c5185" opacity="0.146"/>
          <ellipse id="Elipse_113" data-name="Elipse 113" cx="11.303" cy="6.526" rx="11.303" ry="6.526" transform="translate(399.929 125.492)" fill="#3c5185" opacity="0.171"/>
          <ellipse id="Elipse_114" data-name="Elipse 114" cx="11.199" cy="6.466" rx="11.199" ry="6.466" transform="translate(400.033 125.552)" fill="#3c5185" opacity="0.195"/>
          <path id="Trazado_5418" data-name="Trazado 5418" d="M403.386,127.488c4.315-2.491,11.377-2.491,15.692,0s4.315,6.568,0,9.06-11.377,2.491-15.692,0S399.071,129.98,403.386,127.488Z" fill="#3c5185" opacity="0.22"/>
          <path id="Trazado_5419" data-name="Trazado 5419" d="M403.459,127.53a17.246,17.246,0,0,1,15.546,0c4.275,2.469,4.275,6.508,0,8.976a17.246,17.246,0,0,1-15.546,0C399.184,134.038,399.184,130,403.459,127.53Z" fill="#3c5185" opacity="0.244"/>
          <path id="Trazado_5420" data-name="Trazado 5420" d="M403.532,127.573a17.077,17.077,0,0,1,15.4,0c4.235,2.445,4.235,6.446,0,8.89a17.083,17.083,0,0,1-15.4,0C399.3,134.019,399.3,130.018,403.532,127.573Z" fill="#3c5185" opacity="0.268"/>
          <path id="Trazado_5421" data-name="Trazado 5421" d="M403.605,127.615a16.92,16.92,0,0,1,15.254,0c4.194,2.422,4.194,6.385,0,8.806a16.92,16.92,0,0,1-15.254,0C399.411,134,399.411,130.037,403.605,127.615Z" fill="#3c5185" opacity="0.293"/>
          <path id="Trazado_5422" data-name="Trazado 5422" d="M403.679,127.657a16.755,16.755,0,0,1,15.107,0c4.154,2.4,4.154,6.323,0,8.722a16.755,16.755,0,0,1-15.107,0C399.524,133.98,399.524,130.056,403.679,127.657Z" fill="#3c5185" opacity="0.317"/>
          <path id="Trazado_5423" data-name="Trazado 5423" d="M403.752,127.7a16.6,16.6,0,0,1,14.96,0c4.115,2.376,4.115,6.263,0,8.638a16.6,16.6,0,0,1-14.96,0C399.638,133.962,399.638,130.075,403.752,127.7Z" fill="#3c5185" opacity="0.341"/>
          <path id="Trazado_5424" data-name="Trazado 5424" d="M403.825,127.741a16.433,16.433,0,0,1,14.814,0c4.074,2.353,4.074,6.2,0,8.554a16.433,16.433,0,0,1-14.814,0C399.751,133.943,399.751,130.094,403.825,127.741Z" fill="#3c5185" opacity="0.366"/>
          <path id="Trazado_5425" data-name="Trazado 5425" d="M403.9,127.784a16.27,16.27,0,0,1,14.668,0c4.034,2.329,4.034,6.139,0,8.468a16.27,16.27,0,0,1-14.668,0C399.864,133.923,399.864,130.113,403.9,127.784Z" fill="#3c5185" opacity="0.39"/>
          <path id="Trazado_5426" data-name="Trazado 5426" d="M403.971,127.826a16.107,16.107,0,0,1,14.522,0c3.994,2.306,3.994,6.078,0,8.384a16.107,16.107,0,0,1-14.522,0C399.978,133.9,399.978,130.132,403.971,127.826Z" fill="#3c5185" opacity="0.415"/>
          <path id="Trazado_5427" data-name="Trazado 5427" d="M404.044,127.868a15.95,15.95,0,0,1,14.376,0c3.953,2.283,3.953,6.018,0,8.3a15.95,15.95,0,0,1-14.376,0C400.091,133.886,400.091,130.151,404.044,127.868Z" fill="#3c5185" opacity="0.439"/>
          <path id="Trazado_5428" data-name="Trazado 5428" d="M404.117,127.91a15.787,15.787,0,0,1,14.23,0c3.913,2.26,3.913,5.957,0,8.216a15.787,15.787,0,0,1-14.23,0C400.2,133.867,400.2,130.17,404.117,127.91Z" fill="#3c5185" opacity="0.463"/>
          <path id="Trazado_5429" data-name="Trazado 5429" d="M404.191,127.953a15.622,15.622,0,0,1,14.083,0c3.873,2.236,3.873,5.894,0,8.13a15.622,15.622,0,0,1-14.083,0C400.318,133.847,400.318,130.189,404.191,127.953Z" fill="#3c5185" opacity="0.488"/>
          <ellipse id="Elipse_115" data-name="Elipse 115" cx="9.855" cy="5.69" rx="9.855" ry="5.69" transform="translate(401.377 126.328)" fill="#3c5185" opacity="0.512"/>
          <path id="Trazado_5430" data-name="Trazado 5430" d="M404.337,128.037a15.293,15.293,0,0,1,13.79,0c3.793,2.19,3.793,5.773,0,7.962a15.293,15.293,0,0,1-13.79,0C400.544,133.81,400.544,130.227,404.337,128.037Z" fill="#3c5185" opacity="0.537"/>
          <path id="Trazado_5431" data-name="Trazado 5431" d="M404.41,128.079a15.137,15.137,0,0,1,13.644,0c3.752,2.167,3.752,5.712,0,7.878a15.137,15.137,0,0,1-13.644,0C400.658,133.791,400.658,130.246,404.41,128.079Z" fill="#3c5185" opacity="0.561"/>
          <path id="Trazado_5432" data-name="Trazado 5432" d="M404.483,128.122a14.967,14.967,0,0,1,13.5,0c3.712,2.143,3.712,5.649,0,7.792a14.967,14.967,0,0,1-13.5,0C400.771,133.771,400.771,130.265,404.483,128.122Z" fill="#3c5185" opacity="0.585"/>
          <path id="Trazado_5433" data-name="Trazado 5433" d="M404.556,128.164a14.81,14.81,0,0,1,13.352,0c3.672,2.12,3.672,5.588,0,7.708a14.81,14.81,0,0,1-13.352,0C400.884,133.752,400.884,130.284,404.556,128.164Z" fill="#3c5185" opacity="0.61"/>
          <ellipse id="Elipse_116" data-name="Elipse 116" cx="9.338" cy="5.391" rx="9.338" ry="5.391" transform="translate(401.894 126.627)" fill="#3c5185" opacity="0.634"/>
          <path id="Trazado_5434" data-name="Trazado 5434" d="M404.7,128.248a14.488,14.488,0,0,1,13.059,0c3.591,2.074,3.591,5.467,0,7.54a14.488,14.488,0,0,1-13.059,0C401.111,133.715,401.111,130.322,404.7,128.248Z" fill="#3c5185" opacity="0.659"/>
          <path id="Trazado_5435" data-name="Trazado 5435" d="M404.776,128.29a14.325,14.325,0,0,1,12.913,0c3.551,2.051,3.551,5.405,0,7.456a14.325,14.325,0,0,1-12.913,0C401.225,133.7,401.225,130.341,404.776,128.29Z" fill="#3c5185" opacity="0.683"/>
          <ellipse id="Elipse_117" data-name="Elipse 117" cx="9.027" cy="5.212" rx="9.027" ry="5.212" transform="translate(402.205 126.806)" fill="#3c5185" opacity="0.707"/>
          <path id="Trazado_5436" data-name="Trazado 5436" d="M404.922,128.375a14,14,0,0,1,12.62,0c3.471,2,3.471,5.283,0,7.286a14,14,0,0,1-12.62,0C401.451,133.658,401.451,130.379,404.922,128.375Z" fill="#3c5185" opacity="0.732"/>
          <path id="Trazado_5437" data-name="Trazado 5437" d="M404.995,128.417a13.834,13.834,0,0,1,12.474,0c3.431,1.981,3.431,5.222,0,7.2a13.834,13.834,0,0,1-12.474,0C401.565,133.639,401.565,130.4,404.995,128.417Z" fill="#3c5185" opacity="0.756"/>
          <path id="Trazado_5438" data-name="Trazado 5438" d="M405.068,128.459a13.677,13.677,0,0,1,12.328,0c3.39,1.958,3.39,5.16,0,7.118a13.677,13.677,0,0,1-12.328,0C401.678,133.619,401.678,130.417,405.068,128.459Z" fill="#3c5185" opacity="0.78"/>
          <path id="Trazado_5439" data-name="Trazado 5439" d="M405.141,128.5a13.508,13.508,0,0,1,12.182,0c3.35,1.933,3.35,5.1,0,7.032a13.508,13.508,0,0,1-12.182,0C401.791,133.6,401.791,130.435,405.141,128.5Z" fill="#3c5185" opacity="0.805"/>
          <path id="Trazado_5440" data-name="Trazado 5440" d="M405.214,128.544a13.351,13.351,0,0,1,12.036,0c3.31,1.911,3.31,5.038,0,6.948a13.351,13.351,0,0,1-12.036,0C401.9,133.582,401.9,130.455,405.214,128.544Z" fill="#3c5185" opacity="0.829"/>
          <path id="Trazado_5441" data-name="Trazado 5441" d="M405.288,128.586a13.186,13.186,0,0,1,11.889,0c3.269,1.888,3.269,4.977,0,6.864a13.186,13.186,0,0,1-11.889,0C402.018,133.563,402.018,130.474,405.288,128.586Z" fill="#3c5185" opacity="0.854"/>
          <path id="Trazado_5442" data-name="Trazado 5442" d="M405.361,128.628a13.029,13.029,0,0,1,11.743,0c3.229,1.865,3.229,4.915,0,6.78a13.029,13.029,0,0,1-11.743,0C402.131,133.543,402.131,130.493,405.361,128.628Z" fill="#3c5185" opacity="0.878"/>
          <path id="Trazado_5443" data-name="Trazado 5443" d="M405.434,128.67a12.864,12.864,0,0,1,11.6,0c3.189,1.842,3.189,4.855,0,6.7a12.864,12.864,0,0,1-11.6,0C402.245,133.525,402.245,130.512,405.434,128.67Z" fill="#3c5185" opacity="0.902"/>
          <path id="Trazado_5444" data-name="Trazado 5444" d="M405.507,128.713a12.7,12.7,0,0,1,11.45,0c3.149,1.818,3.149,4.793,0,6.61a12.7,12.7,0,0,1-11.45,0C402.358,133.506,402.358,130.531,405.507,128.713Z" fill="#3c5185" opacity="0.927"/>
          <path id="Trazado_5445" data-name="Trazado 5445" d="M405.58,128.755a12.538,12.538,0,0,1,11.3,0c3.109,1.795,3.109,4.731,0,6.526a12.538,12.538,0,0,1-11.3,0C402.471,133.486,402.471,130.55,405.58,128.755Z" fill="#3c5185" opacity="0.951"/>
          <path id="Trazado_5446" data-name="Trazado 5446" d="M405.653,128.8a12.375,12.375,0,0,1,11.158,0c3.068,1.772,3.068,4.67,0,6.442a12.374,12.374,0,0,1-11.158,0C402.585,133.467,402.585,130.569,405.653,128.8Z" fill="#3c5185" opacity="0.976"/>
          <ellipse id="Elipse_118" data-name="Elipse 118" cx="7.786" cy="4.495" rx="7.786" ry="4.495" transform="translate(403.446 127.523)" fill="#3c5185"/>
        </g>
        <path id="Trazado_5447" data-name="Trazado 5447" d="M420.626,130.831l-1.059.193a6.905,6.905,0,0,0-1.7-1.345,14.859,14.859,0,0,0-13.4,0,6.886,6.886,0,0,0-1.7,1.345l-1.059-.193v1.151h0c-.008,1.408.912,2.819,2.763,3.887a14.859,14.859,0,0,0,13.4,0c1.851-1.068,2.771-2.479,2.762-3.887h0Z" fill="url(#linear-gradient-23)"/>
        <ellipse id="Elipse_119" data-name="Elipse 119" cx="9.473" cy="5.469" rx="9.473" ry="5.469" transform="translate(401.692 125.265)" fill="#fafbfd"/>
        <path id="Trazado_5448" data-name="Trazado 5448" d="M405.383,127.4a12.826,12.826,0,0,1,11.563,0c3.18,1.836,3.18,4.84,0,6.676a12.826,12.826,0,0,1-11.563,0C402.2,132.236,402.2,129.232,405.383,127.4Z" fill="#a5cbef"/>
        <path id="Trazado_5449" data-name="Trazado 5449" d="M406.311,128A10.952,10.952,0,0,1,416,128c2.665,1.506,2.665,3.97,0,5.476a10.952,10.952,0,0,1-9.688,0C403.647,131.966,403.647,129.5,406.311,128Z" fill="#fafbfd"/>
        <path id="Trazado_5450" data-name="Trazado 5450" d="M407.2,128.5a8.935,8.935,0,0,1,7.9,0c2.173,1.228,2.173,3.238,0,4.466a8.935,8.935,0,0,1-7.9,0C405.031,131.739,405.031,129.729,407.2,128.5Z" fill="#a5cbef"/>
        <path id="Trazado_5451" data-name="Trazado 5451" d="M408.076,129.163a7.435,7.435,0,0,1,6.075,0c1.671.864,1.671,2.278,0,3.143a7.443,7.443,0,0,1-6.075,0C406.4,131.441,406.4,130.027,408.076,129.163Z" fill="#fafbfd"/>
        <path id="Trazado_5452" data-name="Trazado 5452" d="M409.256,129.773a4.552,4.552,0,0,1,3.714,0c1.022.529,1.022,1.394,0,1.922a4.544,4.544,0,0,1-3.714,0C408.235,131.167,408.235,130.3,409.256,129.773Z" fill="#a5cbef"/>
        <g id="Grupo_2025" data-name="Grupo 2025">
          <path id="Trazado_5453" data-name="Trazado 5453" d="M411.15,130.968a.431.431,0,0,1-.432-.432V110.794a.433.433,0,1,1,.865,0v19.742A.432.432,0,0,1,411.15,130.968Z" fill="#3c5185"/>
        </g>
        <path id="Trazado_5454" data-name="Trazado 5454" d="M411.232,111.521c4.8,2.468,9.528,4.4,9.528,4.4-1.757,3.67-9.528,4.818-9.528,4.818Z" fill="url(#linear-gradient-3)"/>
      </g>
      <g id="Grupo_2033" data-name="Grupo 2033">
        <g id="Grupo_2027" data-name="Grupo 2027" opacity="0.3">
          <ellipse id="Elipse_120" data-name="Elipse 120" cx="10.231" cy="5.907" rx="10.231" ry="5.907" transform="translate(386.25 76.401)" fill="#3c5185" opacity="0"/>
          <path id="Trazado_5455" data-name="Trazado 5455" d="M403.6,78.2a15.793,15.793,0,0,0-14.239,0c-3.916,2.26-3.916,5.96,0,8.221a15.8,15.8,0,0,0,14.239,0C407.516,84.158,407.516,80.458,403.6,78.2Z" fill="#3c5185" opacity="0.02"/>
          <path id="Trazado_5456" data-name="Trazado 5456" d="M403.485,78.264a15.541,15.541,0,0,0-14.009,0c-3.853,2.224-3.853,5.864,0,8.088a15.535,15.535,0,0,0,14.009,0C407.338,84.128,407.338,80.488,403.485,78.264Z" fill="#3c5185" opacity="0.039"/>
          <path id="Trazado_5457" data-name="Trazado 5457" d="M403.371,78.33a15.287,15.287,0,0,0-13.781,0c-3.789,2.188-3.789,5.768,0,7.956a15.287,15.287,0,0,0,13.781,0C407.16,84.1,407.16,80.518,403.371,78.33Z" fill="#3c5185" opacity="0.059"/>
          <path id="Trazado_5458" data-name="Trazado 5458" d="M403.256,78.4a15.035,15.035,0,0,0-13.551,0c-3.726,2.152-3.726,5.672,0,7.824a15.035,15.035,0,0,0,13.551,0C406.982,84.068,406.982,80.548,403.256,78.4Z" fill="#3c5185" opacity="0.078"/>
          <path id="Trazado_5459" data-name="Trazado 5459" d="M403.141,78.462a14.776,14.776,0,0,0-13.321,0c-3.664,2.116-3.664,5.577,0,7.692a14.776,14.776,0,0,0,13.321,0C406.8,84.039,406.8,80.578,403.141,78.462Z" fill="#3c5185" opacity="0.098"/>
          <path id="Trazado_5460" data-name="Trazado 5460" d="M403.027,78.529a14.522,14.522,0,0,0-13.093,0c-3.6,2.078-3.6,5.48,0,7.558a14.522,14.522,0,0,0,13.093,0C406.627,84.009,406.627,80.607,403.027,78.529Z" fill="#3c5185" opacity="0.118"/>
          <path id="Trazado_5461" data-name="Trazado 5461" d="M402.912,78.6a14.27,14.27,0,0,0-12.863,0c-3.537,2.042-3.537,5.384,0,7.426a14.264,14.264,0,0,0,12.863,0C406.449,83.979,406.449,80.637,402.912,78.6Z" fill="#3c5185" opacity="0.137"/>
          <path id="Trazado_5462" data-name="Trazado 5462" d="M402.8,78.661a14.012,14.012,0,0,0-12.633,0c-3.474,2.006-3.474,5.288,0,7.294a14.012,14.012,0,0,0,12.633,0C406.271,83.949,406.271,80.667,402.8,78.661Z" fill="#3c5185" opacity="0.157"/>
          <ellipse id="Elipse_121" data-name="Elipse 121" cx="8.771" cy="5.064" rx="8.771" ry="5.064" transform="translate(387.71 77.244)" fill="#3c5185" opacity="0.176"/>
          <path id="Trazado_5463" data-name="Trazado 5463" d="M402.568,78.794a13.506,13.506,0,0,0-12.175,0c-3.348,1.933-3.348,5.1,0,7.029a13.506,13.506,0,0,0,12.175,0C405.916,83.89,405.916,80.727,402.568,78.794Z" fill="#3c5185" opacity="0.196"/>
          <ellipse id="Elipse_122" data-name="Elipse 122" cx="8.447" cy="4.877" rx="8.447" ry="4.877" transform="translate(388.034 77.432)" fill="#3c5185" opacity="0.216"/>
          <path id="Trazado_5464" data-name="Trazado 5464" d="M402.338,78.926a13,13,0,0,0-11.715,0c-3.222,1.86-3.222,4.9,0,6.764a13,13,0,0,0,11.715,0C405.56,83.83,405.56,80.786,402.338,78.926Z" fill="#3c5185" opacity="0.235"/>
          <ellipse id="Elipse_123" data-name="Elipse 123" cx="8.122" cy="4.689" rx="8.122" ry="4.689" transform="translate(388.358 77.619)" fill="#3c5185" opacity="0.255"/>
          <path id="Trazado_5465" data-name="Trazado 5465" d="M402.109,79.059a12.483,12.483,0,0,0-11.257,0c-3.1,1.787-3.1,4.711,0,6.5a12.489,12.489,0,0,0,11.257,0C405.2,83.77,405.2,80.846,402.109,79.059Z" fill="#3c5185" opacity="0.275"/>
          <path id="Trazado_5466" data-name="Trazado 5466" d="M401.994,79.125a12.23,12.23,0,0,0-11.027,0c-3.033,1.751-3.033,4.616,0,6.367a12.237,12.237,0,0,0,11.027,0C405.027,83.741,405.027,80.876,401.994,79.125Z" fill="#3c5185" opacity="0.294"/>
          <path id="Trazado_5467" data-name="Trazado 5467" d="M401.88,79.191a11.976,11.976,0,0,0-10.8,0c-2.969,1.714-2.969,4.52,0,6.234a11.976,11.976,0,0,0,10.8,0C404.849,83.711,404.849,80.9,401.88,79.191Z" fill="#3c5185" opacity="0.314"/>
          <ellipse id="Elipse_124" data-name="Elipse 124" cx="7.473" cy="4.315" rx="7.473" ry="4.315" transform="translate(389.007 77.993)" fill="#3c5185" opacity="0.333"/>
          <path id="Trazado_5468" data-name="Trazado 5468" d="M401.65,79.323a11.472,11.472,0,0,0-10.339,0c-2.844,1.642-2.844,4.328,0,5.97a11.466,11.466,0,0,0,10.339,0C404.494,83.651,404.494,80.965,401.65,79.323Z" fill="#3c5185" opacity="0.353"/>
          <path id="Trazado_5469" data-name="Trazado 5469" d="M401.536,79.39a11.212,11.212,0,0,0-10.111,0c-2.78,1.605-2.78,4.232,0,5.837a11.218,11.218,0,0,0,10.111,0C404.316,83.622,404.316,81,401.536,79.39Z" fill="#3c5185" opacity="0.373"/>
          <path id="Trazado_5470" data-name="Trazado 5470" d="M401.421,79.456a10.96,10.96,0,0,0-9.881,0c-2.717,1.569-2.717,4.136,0,5.7a10.96,10.96,0,0,0,9.881,0C404.138,83.592,404.138,81.025,401.421,79.456Z" fill="#3c5185" opacity="0.392"/>
          <ellipse id="Elipse_125" data-name="Elipse 125" cx="6.825" cy="3.94" rx="6.825" ry="3.94" transform="translate(389.656 78.368)" fill="#3c5185" opacity="0.412"/>
          <path id="Trazado_5471" data-name="Trazado 5471" d="M401.191,79.588a10.449,10.449,0,0,0-9.421,0c-2.592,1.5-2.592,3.944,0,5.44a10.449,10.449,0,0,0,9.421,0C403.783,83.532,403.783,81.084,401.191,79.588Z" fill="#3c5185" opacity="0.431"/>
          <path id="Trazado_5472" data-name="Trazado 5472" d="M401.077,79.654a10.2,10.2,0,0,0-9.193,0c-2.528,1.46-2.528,3.848,0,5.308a10.2,10.2,0,0,0,9.193,0C403.605,83.5,403.605,81.114,401.077,79.654Z" fill="#3c5185" opacity="0.451"/>
          <path id="Trazado_5473" data-name="Trazado 5473" d="M400.962,79.721a9.943,9.943,0,0,0-8.963,0c-2.465,1.423-2.465,3.751,0,5.175a9.943,9.943,0,0,0,8.963,0C403.427,83.472,403.427,81.144,400.962,79.721Z" fill="#3c5185" opacity="0.471"/>
          <ellipse id="Elipse_126" data-name="Elipse 126" cx="6.176" cy="3.566" rx="6.176" ry="3.566" transform="translate(390.305 78.743)" fill="#3c5185" opacity="0.49"/>
          <path id="Trazado_5474" data-name="Trazado 5474" d="M400.733,79.853a9.437,9.437,0,0,0-8.505,0c-2.339,1.35-2.339,3.56,0,4.91a9.437,9.437,0,0,0,8.505,0C403.071,83.413,403.071,81.2,400.733,79.853Z" fill="#3c5185" opacity="0.51"/>
          <path id="Trazado_5475" data-name="Trazado 5475" d="M400.618,79.919a9.178,9.178,0,0,0-8.275,0c-2.276,1.314-2.276,3.464,0,4.778a9.178,9.178,0,0,0,8.275,0C402.894,83.383,402.894,81.233,400.618,79.919Z" fill="#3c5185" opacity="0.529"/>
          <path id="Trazado_5476" data-name="Trazado 5476" d="M400.5,79.985a8.926,8.926,0,0,0-8.045,0c-2.213,1.278-2.213,3.368,0,4.646a8.926,8.926,0,0,0,8.045,0C402.716,83.353,402.716,81.263,400.5,79.985Z" fill="#3c5185" opacity="0.549"/>
          <ellipse id="Elipse_127" data-name="Elipse 127" cx="5.527" cy="3.191" rx="5.527" ry="3.191" transform="translate(390.954 79.117)" fill="#3c5185" opacity="0.569"/>
          <path id="Trazado_5477" data-name="Trazado 5477" d="M400.274,80.118a8.413,8.413,0,0,0-7.587,0c-2.086,1.205-2.086,3.176,0,4.38a8.413,8.413,0,0,0,7.587,0C402.36,83.294,402.36,81.323,400.274,80.118Z" fill="#3c5185" opacity="0.588"/>
          <path id="Trazado_5478" data-name="Trazado 5478" d="M400.159,80.184a8.161,8.161,0,0,0-7.357,0c-2.024,1.168-2.024,3.08,0,4.248a8.161,8.161,0,0,0,7.357,0C402.183,83.264,402.183,81.352,400.159,80.184Z" fill="#3c5185" opacity="0.608"/>
          <path id="Trazado_5479" data-name="Trazado 5479" d="M400.045,80.25a7.914,7.914,0,0,0-7.129,0c-1.96,1.132-1.96,2.984,0,4.116a7.907,7.907,0,0,0,7.129,0C402.005,83.234,402.005,81.382,400.045,80.25Z" fill="#3c5185" opacity="0.627"/>
          <path id="Trazado_5480" data-name="Trazado 5480" d="M399.93,80.317a7.649,7.649,0,0,0-6.9,0c-1.9,1.1-1.9,2.887,0,3.983a7.655,7.655,0,0,0,6.9,0C401.827,83.2,401.827,81.412,399.93,80.317Z" fill="#3c5185" opacity="0.647"/>
          <ellipse id="Elipse_128" data-name="Elipse 128" cx="4.716" cy="2.723" rx="4.716" ry="2.723" transform="translate(391.764 79.585)" fill="#3c5185" opacity="0.667"/>
          <ellipse id="Elipse_129" data-name="Elipse 129" cx="4.554" cy="2.629" rx="4.554" ry="2.629" transform="translate(391.927 79.679)" fill="#3c5185" opacity="0.686"/>
          <path id="Trazado_5481" data-name="Trazado 5481" d="M399.586,80.515a6.89,6.89,0,0,0-6.211,0c-1.708.986-1.708,2.6,0,3.586a6.89,6.89,0,0,0,6.211,0C401.294,83.115,401.294,81.5,399.586,80.515Z" fill="#3c5185" opacity="0.706"/>
          <ellipse id="Elipse_130" data-name="Elipse 130" cx="4.229" cy="2.442" rx="4.229" ry="2.442" transform="translate(392.251 79.866)" fill="#3c5185" opacity="0.725"/>
          <ellipse id="Elipse_131" data-name="Elipse 131" cx="4.067" cy="2.348" rx="4.067" ry="2.348" transform="translate(392.413 79.96)" fill="#3c5185" opacity="0.745"/>
          <ellipse id="Elipse_132" data-name="Elipse 132" cx="3.905" cy="2.255" rx="3.905" ry="2.255" transform="translate(392.576 80.054)" fill="#3c5185" opacity="0.765"/>
          <path id="Trazado_5482" data-name="Trazado 5482" d="M399.127,80.78a5.874,5.874,0,0,0-5.293,0c-1.456.841-1.456,2.216,0,3.056a5.871,5.871,0,0,0,5.293,0C400.583,83,400.583,81.621,399.127,80.78Z" fill="#3c5185" opacity="0.784"/>
          <ellipse id="Elipse_133" data-name="Elipse 133" cx="3.581" cy="2.067" rx="3.581" ry="2.067" transform="translate(392.9 80.241)" fill="#3c5185" opacity="0.804"/>
          <path id="Trazado_5483" data-name="Trazado 5483" d="M398.9,80.913a5.361,5.361,0,0,0-4.835,0c-1.329.767-1.329,2.023,0,2.791a5.367,5.367,0,0,0,4.835,0C400.227,82.936,400.227,81.68,398.9,80.913Z" fill="#3c5185" opacity="0.824"/>
          <path id="Trazado_5484" data-name="Trazado 5484" d="M398.783,80.979a5.109,5.109,0,0,0-4.6,0,1.4,1.4,0,0,0,0,2.658,5.1,5.1,0,0,0,4.6,0A1.4,1.4,0,0,0,398.783,80.979Z" fill="#3c5185" opacity="0.843"/>
          <path id="Trazado_5485" data-name="Trazado 5485" d="M398.668,81.045a4.851,4.851,0,0,0-4.375,0,1.335,1.335,0,0,0,0,2.526,4.851,4.851,0,0,0,4.375,0A1.335,1.335,0,0,0,398.668,81.045Z" fill="#3c5185" opacity="0.863"/>
          <path id="Trazado_5486" data-name="Trazado 5486" d="M398.554,81.111a4.6,4.6,0,0,0-4.147,0,1.265,1.265,0,0,0,0,2.394,4.6,4.6,0,0,0,4.147,0A1.265,1.265,0,0,0,398.554,81.111Z" fill="#3c5185" opacity="0.882"/>
          <ellipse id="Elipse_134" data-name="Elipse 134" cx="2.77" cy="1.599" rx="2.77" ry="1.599" transform="translate(393.711 80.709)" fill="#3c5185" opacity="0.902"/>
          <path id="Trazado_5487" data-name="Trazado 5487" d="M398.324,81.244a4.086,4.086,0,0,0-3.687,0,1.125,1.125,0,0,0,0,2.129,4.092,4.092,0,0,0,3.687,0A1.125,1.125,0,0,0,398.324,81.244Z" fill="#3c5185" opacity="0.922"/>
          <path id="Trazado_5488" data-name="Trazado 5488" d="M398.21,81.31a3.838,3.838,0,0,0-3.459,0,1.055,1.055,0,0,0,0,2,3.838,3.838,0,0,0,3.459,0A1.055,1.055,0,0,0,398.21,81.31Z" fill="#3c5185" opacity="0.941"/>
          <path id="Trazado_5489" data-name="Trazado 5489" d="M398.1,81.376a3.58,3.58,0,0,0-3.229,0,.985.985,0,0,0,0,1.864,3.58,3.58,0,0,0,3.229,0A.985.985,0,0,0,398.1,81.376Z" fill="#3c5185" opacity="0.961"/>
          <ellipse id="Elipse_135" data-name="Elipse 135" cx="2.121" cy="1.224" rx="2.121" ry="1.224" transform="translate(394.36 81.084)" fill="#3c5185" opacity="0.98"/>
          <path id="Trazado_5490" data-name="Trazado 5490" d="M397.865,81.508a3.078,3.078,0,0,0-2.77,0,.846.846,0,0,0,0,1.6,3.078,3.078,0,0,0,2.77,0A.846.846,0,0,0,397.865,81.508Z" fill="#3c5185"/>
        </g>
        <g id="Grupo_2032" data-name="Grupo 2032">
          <path id="Trazado_5491" data-name="Trazado 5491" d="M403.587,80.388h-.662a4.532,4.532,0,0,0-1.207-.98,10.051,10.051,0,0,0-9.062,0,4.554,4.554,0,0,0-1.208.98H390.8v1.385h.005a3.04,3.04,0,0,0,1.848,2.867,10.057,10.057,0,0,0,9.062,0,3.04,3.04,0,0,0,1.848-2.867h.021Z" fill="#ffc107"/>
          <g id="Grupo_2028" data-name="Grupo 2028">
            <path id="Trazado_5492" data-name="Trazado 5492" d="M393.953,78.836q-.326.109-.632.243v5.89q.306.133.632.243Z" fill="#ffad33"/>
            <path id="Trazado_5493" data-name="Trazado 5493" d="M392.057,79.813v4.419a5.266,5.266,0,0,0,.6.408l.033.017V79.391l-.033.017A5.255,5.255,0,0,0,392.057,79.813Z" fill="#ffad33"/>
            <path id="Trazado_5494" data-name="Trazado 5494" d="M395.217,78.51c-.215.039-.425.086-.632.139V85.4c.207.053.417.1.632.139Z" fill="#ffad33"/>
            <path id="Trazado_5495" data-name="Trazado 5495" d="M402.168,79.7v4.647a4.231,4.231,0,0,0,.632-.554V80.253A4.38,4.38,0,0,0,402.168,79.7Z" fill="#ffad33"/>
            <path id="Trazado_5496" data-name="Trazado 5496" d="M403.432,82.806a2.231,2.231,0,0,0,.134-1.033h.021V80.388h-.155Z" fill="#ffad33"/>
            <path id="Trazado_5497" data-name="Trazado 5497" d="M400.272,78.785c-.206-.065-.416-.125-.632-.176v6.83c.216-.052.426-.111.632-.177Z" fill="#ffad33"/>
            <path id="Trazado_5498" data-name="Trazado 5498" d="M391.425,83.635V80.388H390.8v1.385h.005A2.444,2.444,0,0,0,391.425,83.635Z" fill="#ffad33"/>
            <path id="Trazado_5499" data-name="Trazado 5499" d="M401.536,79.313a6.916,6.916,0,0,0-.632-.3v6.016a6.914,6.914,0,0,0,.632-.3Z" fill="#ffad33"/>
            <path id="Trazado_5500" data-name="Trazado 5500" d="M396.48,78.353c-.211.014-.422.034-.631.059v7.224c.209.025.42.045.631.058Z" fill="#ffad33"/>
            <path id="Trazado_5501" data-name="Trazado 5501" d="M397.744,85.7V78.344c-.21-.01-.421-.015-.632-.013v7.386C397.323,85.718,397.534,85.714,397.744,85.7Z" fill="#ffad33"/>
            <path id="Trazado_5502" data-name="Trazado 5502" d="M399.008,78.48c-.208-.036-.419-.064-.632-.087v7.261q.319-.033.632-.086Z" fill="#ffad33"/>
          </g>
          <ellipse id="Elipse_136" data-name="Elipse 136" cx="6.408" cy="3.699" rx="6.408" ry="3.699" transform="translate(390.779 76.49)" fill="#ffcd39"/>
          <path id="Trazado_5503" data-name="Trazado 5503" d="M401.266,77.717a9.051,9.051,0,0,0-8.158,0c-2.244,1.295-2.244,3.415,0,4.71a9.045,9.045,0,0,0,8.158,0C403.51,81.132,403.51,79.012,401.266,77.717Z" fill="#ffad33"/>
          <path id="Trazado_5504" data-name="Trazado 5504" d="M400.766,77.991a8.07,8.07,0,0,0-7.158,0c-1.968,1.116-1.968,2.942,0,4.058a8.07,8.07,0,0,0,7.158,0C402.734,80.933,402.734,79.107,400.766,77.991Z" fill="#ffcd39"/>
          <g id="Grupo_2031" data-name="Grupo 2031">
            <g id="Grupo_2029" data-name="Grupo 2029">
              <path id="Trazado_5505" data-name="Trazado 5505" d="M397.664,81.445h-1.78c-.409,0-.742-.194-.742-.432v-.221H396.2v.038h1.465c.282,0,.511-.133.511-.3,0-.107-.149-.193-.332-.193h-1.312c-.766,0-1.389-.363-1.389-.808v-.111c0-.5.7-.912,1.568-.912h1.78c.409,0,.742.194.742.432v.251h-1.057v-.069H396.71c-.282,0-.511.134-.511.3v.111c0,.106.149.193.332.193h1.312c.766,0,1.389.363,1.389.808C399.232,81.036,398.529,81.445,397.664,81.445Z" fill="#ff9800"/>
            </g>
            <g id="Grupo_2030" data-name="Grupo 2030">
              <rect id="Rectngulo_13469" data-name="Rectngulo 13469" width="1.057" height="3.619" transform="translate(396.658 78.21)" fill="#ff9800"/>
            </g>
          </g>
        </g>
      </g>
    </g>
  </g>
</svg>
