<svg xmlns="http://www.w3.org/2000/svg" xmlns:xlink="http://www.w3.org/1999/xlink" width="209" height="233" viewBox="0 0 209 233">
  <defs>
    <linearGradient id="linear-gradient" y1="0.5" x2="1" y2="0.5" gradientUnits="objectBoundingBox">
      <stop offset="0.004" stop-color="#3c5185"/>
      <stop offset="0.193" stop-color="#465f97"/>
      <stop offset="0.472" stop-color="#536fac"/>
      <stop offset="0.744" stop-color="#5a79b9"/>
      <stop offset="1" stop-color="#5d7dbe"/>
    </linearGradient>
    <linearGradient id="linear-gradient-2" x1="-0.001" y1="0.499" x2="0.999" y2="0.499" xlink:href="#linear-gradient"/>
    <linearGradient id="linear-gradient-3" y1="0.5" x2="1" y2="0.5" gradientUnits="objectBoundingBox">
      <stop offset="0" stop-color="#fff"/>
      <stop offset="0.205" stop-color="#fafdfe"/>
      <stop offset="0.425" stop-color="#edf7fe"/>
      <stop offset="0.65" stop-color="#d8eefd"/>
      <stop offset="0.879" stop-color="#bae1fb"/>
      <stop offset="1" stop-color="#a8d9fb"/>
    </linearGradient>
    <linearGradient id="linear-gradient-4" x1="0" y1="0.5" x2="1.001" y2="0.5" xlink:href="#linear-gradient-3"/>
    <linearGradient id="linear-gradient-6" x1="0.002" y1="0.501" x2="0.999" y2="0.501" xlink:href="#linear-gradient"/>
    <linearGradient id="linear-gradient-8" x1="-0.001" y1="0.501" x2="1" y2="0.501" xlink:href="#linear-gradient-3"/>
    <linearGradient id="linear-gradient-9" x1="0.001" y1="0.5" x2="1.001" y2="0.5" xlink:href="#linear-gradient-3"/>
    <linearGradient id="linear-gradient-10" x1="0.847" y1="0.929" x2="0.098" y2="-0.013" gradientUnits="objectBoundingBox">
      <stop offset="0" stop-color="#4a65a3"/>
      <stop offset="0.238" stop-color="#4d69a6"/>
      <stop offset="0.491" stop-color="#5776b2"/>
      <stop offset="0.751" stop-color="#688bc5"/>
      <stop offset="1" stop-color="#7ea7df"/>
    </linearGradient>
    <linearGradient id="linear-gradient-11" y1="0.5" x2="1" y2="0.5" gradientUnits="objectBoundingBox">
      <stop offset="0.15" stop-color="#ff9800"/>
      <stop offset="1" stop-color="#ffc107"/>
    </linearGradient>
    <linearGradient id="linear-gradient-12" y1="0.5" x2="1" y2="0.5" gradientUnits="objectBoundingBox">
      <stop offset="0" stop-color="#ffc107"/>
      <stop offset="0.85" stop-color="#ff9800"/>
    </linearGradient>
    <linearGradient id="linear-gradient-13" x1="0" y1="0.5" x2="1" y2="0.5" xlink:href="#linear-gradient-11"/>
    <linearGradient id="linear-gradient-14" x1="-7.379" y1="0.823" x2="-8.375" y2="0.092" gradientUnits="objectBoundingBox">
      <stop offset="0.038" stop-color="#a5cbef"/>
      <stop offset="0.223" stop-color="#b9d6f2"/>
      <stop offset="0.525" stop-color="#d3e6f7"/>
      <stop offset="0.794" stop-color="#e4eff9"/>
      <stop offset="1" stop-color="#eaf3fb"/>
    </linearGradient>
    <linearGradient id="linear-gradient-15" y1="0.5" x2="1" y2="0.5" gradientUnits="objectBoundingBox">
      <stop offset="0.004" stop-color="#a5cbef"/>
      <stop offset="0.259" stop-color="#c1daf2"/>
      <stop offset="0.515" stop-color="#d6e6f5"/>
      <stop offset="0.765" stop-color="#e3edf7"/>
      <stop offset="1" stop-color="#e8f0f8"/>
    </linearGradient>
    <radialGradient id="radial-gradient" cx="0.5" cy="0.5" r="0.875" gradientTransform="matrix(-0.577, 0, 0, 0.517, -40.514, 233.102)" gradientUnits="objectBoundingBox">
      <stop offset="0.091" stop-color="#3c5185"/>
      <stop offset="0.156" stop-color="#4f6291"/>
      <stop offset="0.379" stop-color="#8d99b7"/>
      <stop offset="0.583" stop-color="#bec5d6"/>
      <stop offset="0.761" stop-color="#e1e4ec"/>
      <stop offset="0.906" stop-color="#f7f8fa"/>
      <stop offset="1" stop-color="#fff"/>
    </radialGradient>
    <linearGradient id="linear-gradient-17" y1="0.5" x2="1" y2="0.5" gradientUnits="objectBoundingBox">
      <stop offset="0.004" stop-color="#a5cbef"/>
      <stop offset="0.442" stop-color="#cee2f6"/>
      <stop offset="1" stop-color="#fff"/>
    </linearGradient>
    <linearGradient id="linear-gradient-18" x1="-148.638" y1="0.5" x2="-147.638" y2="0.5" xlink:href="#linear-gradient-11"/>
    <linearGradient id="linear-gradient-19" x1="-74.216" y1="0.5" x2="-73.216" y2="0.5" xlink:href="#linear-gradient-11"/>
    <clipPath id="clip-lizentia">
      <rect width="209" height="233"/>
    </clipPath>
  </defs>
  <g id="lizentia" clip-path="url(#clip-lizentia)">
    <rect width="209" height="233" fill="rgba(255,255,255,0)"/>
    <g id="Grupo_2257" data-name="Grupo 2257" transform="translate(-328.189 -125.166)">
      <g id="Grupo_2198" data-name="Grupo 2198">
        <g id="Grupo_2192" data-name="Grupo 2192">
          <path id="Trazado_6503" data-name="Trazado 6503" d="M463.721,238.11l-.08-38.941a1.8,1.8,0,0,0-.094-.521,3.559,3.559,0,0,0-1.717-2.03l-16.453-8.982v39.016a3.765,3.765,0,0,0,1.861,3.249l17.6,10.32A2.557,2.557,0,0,1,463.721,238.11Z" fill="url(#linear-gradient)"/>
          <path id="Trazado_6504" data-name="Trazado 6504" d="M464.846,240.226l-.008-.005a2.531,2.531,0,0,0,.3.178Z" fill="url(#linear-gradient-2)"/>
        </g>
        <g id="Grupo_2193" data-name="Grupo 2193">
          <path id="Trazado_6505" data-name="Trazado 6505" d="M442.3,185.944a6.173,6.173,0,0,0-2.471-.762,3.45,3.45,0,0,0-1.984.356,10.43,10.43,0,0,0-4.7,8.144v44.937l1.785,1.016L430.1,250.21l14.793,8.674.295.173a2.539,2.539,0,0,0,1.242.266l1.058-.042a10,10,0,0,0,6.021-9.071h0V250.2c0-.032,0-.063,0-.094V203.482a10.071,10.071,0,0,1,4.647-6.759,3.444,3.444,0,0,1,3.091-.434Z" fill="url(#linear-gradient-3)"/>
          <path id="Trazado_6506" data-name="Trazado 6506" d="M461.248,196.289l.385.21A2.275,2.275,0,0,0,461.248,196.289Z" fill="url(#linear-gradient-4)"/>
        </g>
        <g id="Grupo_2194" data-name="Grupo 2194">
          <path id="Trazado_6507" data-name="Trazado 6507" d="M436.481,190.063l14.925,8.617v1.287l-14.925-8.617Z" fill="#c9e0f5"/>
          <path id="Trazado_6508" data-name="Trazado 6508" d="M436.481,194.12l14.925,8.617v1.287l-14.925-8.617Z" fill="#c9e0f5"/>
          <path id="Trazado_6509" data-name="Trazado 6509" d="M436.481,198.177l14.925,8.617v1.287l-14.925-8.617Z" fill="#c9e0f5"/>
          <path id="Trazado_6510" data-name="Trazado 6510" d="M436.481,202.234l14.925,8.617v1.287l-14.925-8.617Z" fill="#c9e0f5"/>
          <path id="Trazado_6511" data-name="Trazado 6511" d="M436.481,206.291l14.925,8.617v1.287l-14.925-8.617Z" fill="#c9e0f5"/>
          <path id="Trazado_6512" data-name="Trazado 6512" d="M436.481,210.348l14.925,8.617v1.287l-14.925-8.617Z" fill="#c9e0f5"/>
          <path id="Trazado_6513" data-name="Trazado 6513" d="M436.481,214.4l14.925,8.617v1.287l-14.925-8.617Z" fill="#c9e0f5"/>
          <path id="Trazado_6514" data-name="Trazado 6514" d="M436.481,218.462l14.925,8.617v1.287l-14.925-8.617Z" fill="#c9e0f5"/>
          <path id="Trazado_6515" data-name="Trazado 6515" d="M436.481,222.518l14.925,8.617v1.287l-14.925-8.617Z" fill="#c9e0f5"/>
          <path id="Trazado_6516" data-name="Trazado 6516" d="M436.481,226.575l14.925,8.617v1.287l-14.925-8.617Z" fill="#c9e0f5"/>
          <path id="Trazado_6517" data-name="Trazado 6517" d="M436.481,230.632l14.925,8.617v1.287l-14.925-8.617Z" fill="#c9e0f5"/>
          <path id="Trazado_6518" data-name="Trazado 6518" d="M436.481,235.268l14.925,8.617v1.287l-14.925-8.617Z" fill="#c9e0f5"/>
          <path id="Trazado_6519" data-name="Trazado 6519" d="M436.481,239.9l14.925,8.617v1.287l-14.925-8.617Z" fill="#c9e0f5"/>
          <path id="Trazado_6520" data-name="Trazado 6520" d="M436.481,244.541l14.925,8.617v1.287l-14.925-8.617Z" fill="#c9e0f5"/>
        </g>
        <g id="Grupo_2195" data-name="Grupo 2195">
          <path id="Trazado_6521" data-name="Trazado 6521" d="M443.765,256.769l-.08-47.056a1.819,1.819,0,0,0-.094-.52,3.556,3.556,0,0,0-1.717-2.03l-16.453-8.982v47.13a3.767,3.767,0,0,0,1.861,3.249l17.6,10.319A2.555,2.555,0,0,1,443.765,256.769Z" fill="url(#linear-gradient)"/>
          <path id="Trazado_6522" data-name="Trazado 6522" d="M444.89,258.884l-.009-.005a2.489,2.489,0,0,0,.3.178Z" fill="url(#linear-gradient-6)"/>
        </g>
        <g id="Grupo_2196" data-name="Grupo 2196">
          <path id="Trazado_6523" data-name="Trazado 6523" d="M422.991,196.817a6.185,6.185,0,0,0-2.3-.746,3.588,3.588,0,0,0-2.154.339,10.434,10.434,0,0,0-4.7,8.145v41.877a2.861,2.861,0,0,0,1.446,2.487l18.689,10.637,1.319.774a2.559,2.559,0,0,1-1.089-1.752V214.373a10.07,10.07,0,0,1,4.65-6.777,3.449,3.449,0,0,1,3.092-.434Z" fill="url(#linear-gradient-3)"/>
          <path id="Trazado_6524" data-name="Trazado 6524" d="M441.942,207.162l.385.21A2.354,2.354,0,0,0,441.942,207.162Z" fill="url(#linear-gradient-8)"/>
          <path id="Trazado_6525" data-name="Trazado 6525" d="M435.3,260.335l-.008-.005a2.553,2.553,0,0,0,.3.178Z" fill="url(#linear-gradient-9)"/>
        </g>
        <g id="Grupo_2197" data-name="Grupo 2197">
          <path id="Trazado_6526" data-name="Trazado 6526" d="M416.644,204.024l14.925,8.617v1.287l-14.925-8.617Z" fill="#c9e0f5"/>
          <path id="Trazado_6527" data-name="Trazado 6527" d="M416.644,208.081l14.925,8.617v1.287l-14.925-8.617Z" fill="#c9e0f5"/>
          <path id="Trazado_6528" data-name="Trazado 6528" d="M416.644,212.138l14.925,8.617v1.287l-14.925-8.617Z" fill="#c9e0f5"/>
          <path id="Trazado_6529" data-name="Trazado 6529" d="M416.644,216.195l14.925,8.617V226.1l-14.925-8.617Z" fill="#c9e0f5"/>
          <path id="Trazado_6530" data-name="Trazado 6530" d="M416.644,220.252l14.925,8.617v1.287l-14.925-8.617Z" fill="#c9e0f5"/>
          <path id="Trazado_6531" data-name="Trazado 6531" d="M416.644,224.309l14.925,8.617v1.287L416.644,225.6Z" fill="#c9e0f5"/>
          <path id="Trazado_6532" data-name="Trazado 6532" d="M416.644,228.366l14.925,8.617v1.287l-14.925-8.617Z" fill="#c9e0f5"/>
          <path id="Trazado_6533" data-name="Trazado 6533" d="M416.644,232.423l14.925,8.617v1.287l-14.925-8.617Z" fill="#c9e0f5"/>
          <path id="Trazado_6534" data-name="Trazado 6534" d="M416.644,236.48l14.925,8.617v1.287l-14.925-8.617Z" fill="#c9e0f5"/>
          <path id="Trazado_6535" data-name="Trazado 6535" d="M416.644,240.537l14.925,8.617v1.287l-14.925-8.617Z" fill="#c9e0f5"/>
          <path id="Trazado_6536" data-name="Trazado 6536" d="M416.644,244.594l14.925,8.617V254.5l-14.925-8.617Z" fill="#c9e0f5"/>
        </g>
      </g>
      <g id="Grupo_2218" data-name="Grupo 2218">
        <g id="Grupo_2199" data-name="Grupo 2199" opacity="0.2" style="mix-blend-mode: multiply;isolation: isolate">
          <path id="Trazado_6537" data-name="Trazado 6537" d="M412.145,260.611l-14.707,8.268,22.324,12.889,14.71-8.266Z" fill="#3c5185" opacity="0"/>
          <path id="Trazado_6538" data-name="Trazado 6538" d="M412.145,260.611l-14.431,8.113,22.324,12.889,14.433-8.111Z" fill="#3c5185" opacity="0.02"/>
          <path id="Trazado_6539" data-name="Trazado 6539" d="M412.145,260.611l-14.154,7.958,22.324,12.889,14.157-7.956Z" fill="#3c5185" opacity="0.039"/>
          <path id="Trazado_6540" data-name="Trazado 6540" d="M412.145,260.611l-13.878,7.8L420.591,281.3l13.88-7.8Z" fill="#3c5185" opacity="0.059"/>
          <path id="Trazado_6541" data-name="Trazado 6541" d="M412.145,260.611l-13.6,7.648,22.324,12.889,13.6-7.646Z" fill="#3c5185" opacity="0.078"/>
          <path id="Trazado_6542" data-name="Trazado 6542" d="M412.145,260.611,398.821,268.1l22.324,12.889,13.327-7.491Z" fill="#3c5185" opacity="0.098"/>
          <path id="Trazado_6543" data-name="Trazado 6543" d="M412.145,260.611,399.1,267.949l22.324,12.889,13.05-7.337Z" fill="#3c5185" opacity="0.118"/>
          <path id="Trazado_6544" data-name="Trazado 6544" d="M412.145,260.611l-12.771,7.183L421.7,280.683l12.774-7.182Z" fill="#3c5185" opacity="0.137"/>
          <path id="Trazado_6545" data-name="Trazado 6545" d="M412.145,260.611l-12.495,7.028,22.324,12.889,12.5-7.027Z" fill="#3c5185" opacity="0.157"/>
          <path id="Trazado_6546" data-name="Trazado 6546" d="M412.145,260.611l-12.218,6.873,22.324,12.889,12.221-6.872Z" fill="#3c5185" opacity="0.176"/>
          <path id="Trazado_6547" data-name="Trazado 6547" d="M412.145,260.611,400.2,267.33l22.324,12.889,11.944-6.717Z" fill="#3c5185" opacity="0.196"/>
          <path id="Trazado_6548" data-name="Trazado 6548" d="M412.145,260.611l-11.665,6.563L422.8,280.063l11.668-6.562Z" fill="#3c5185" opacity="0.216"/>
          <path id="Trazado_6549" data-name="Trazado 6549" d="M412.145,260.611l-11.388,6.408,22.324,12.889,11.391-6.407Z" fill="#3c5185" opacity="0.235"/>
          <path id="Trazado_6550" data-name="Trazado 6550" d="M412.145,260.611l-11.112,6.254,22.324,12.889,11.115-6.252Z" fill="#3c5185" opacity="0.255"/>
          <path id="Trazado_6551" data-name="Trazado 6551" d="M412.145,260.611l-10.835,6.1L423.633,279.6l10.838-6.1Z" fill="#3c5185" opacity="0.275"/>
          <path id="Trazado_6552" data-name="Trazado 6552" d="M412.145,260.611l-10.559,5.944,22.324,12.889,10.561-5.942Z" fill="#3c5185" opacity="0.294"/>
          <path id="Trazado_6553" data-name="Trazado 6553" d="M412.145,260.611,401.863,266.4l22.324,12.889,10.285-5.787Z" fill="#3c5185" opacity="0.314"/>
          <path id="Trazado_6554" data-name="Trazado 6554" d="M412.145,260.611l-10.006,5.634,22.324,12.889,10.008-5.632Z" fill="#3c5185" opacity="0.333"/>
          <path id="Trazado_6555" data-name="Trazado 6555" d="M412.145,260.611l-9.729,5.479,22.324,12.888,9.732-5.477Z" fill="#3c5185" opacity="0.353"/>
          <path id="Trazado_6556" data-name="Trazado 6556" d="M412.145,260.611l-9.453,5.324,22.324,12.889,9.455-5.322Z" fill="#3c5185" opacity="0.373"/>
          <path id="Trazado_6557" data-name="Trazado 6557" d="M412.145,260.611l-9.176,5.169,22.324,12.889,9.179-5.168Z" fill="#3c5185" opacity="0.392"/>
          <path id="Trazado_6558" data-name="Trazado 6558" d="M412.145,260.611l-8.9,5.014,22.324,12.889,8.9-5.013Z" fill="#3c5185" opacity="0.412"/>
          <path id="Trazado_6559" data-name="Trazado 6559" d="M412.145,260.611l-8.623,4.859,22.324,12.889,8.625-4.858Z" fill="#3c5185" opacity="0.431"/>
          <path id="Trazado_6560" data-name="Trazado 6560" d="M412.145,260.611l-8.346,4.7L426.122,278.2l8.349-4.7Z" fill="#3c5185" opacity="0.451"/>
          <path id="Trazado_6561" data-name="Trazado 6561" d="M412.145,260.611l-8.07,4.549L426.4,278.049l8.072-4.548Z" fill="#3c5185" opacity="0.471"/>
          <path id="Trazado_6562" data-name="Trazado 6562" d="M412.145,260.611l-7.793,4.394,22.324,12.889,7.8-4.393Z" fill="#3c5185" opacity="0.49"/>
          <path id="Trazado_6563" data-name="Trazado 6563" d="M412.145,260.611l-7.517,4.239,22.324,12.889,7.519-4.238Z" fill="#3c5185" opacity="0.51"/>
          <path id="Trazado_6564" data-name="Trazado 6564" d="M412.145,260.611,404.9,264.7l22.324,12.889,7.243-4.083Z" fill="#3c5185" opacity="0.529"/>
          <path id="Trazado_6565" data-name="Trazado 6565" d="M412.145,260.611l-6.964,3.93,22.324,12.889,6.966-3.928Z" fill="#3c5185" opacity="0.549"/>
          <path id="Trazado_6566" data-name="Trazado 6566" d="M412.145,260.611l-6.687,3.775,22.324,12.889,6.69-3.773Z" fill="#3c5185" opacity="0.569"/>
          <path id="Trazado_6567" data-name="Trazado 6567" d="M412.145,260.611l-6.41,3.62,22.324,12.889,6.413-3.618Z" fill="#3c5185" opacity="0.588"/>
          <path id="Trazado_6568" data-name="Trazado 6568" d="M412.145,260.611l-6.134,3.465,22.324,12.889,6.136-3.463Z" fill="#3c5185" opacity="0.608"/>
          <path id="Trazado_6569" data-name="Trazado 6569" d="M412.145,260.611l-5.857,3.31,22.324,12.888,5.86-3.308Z" fill="#3c5185" opacity="0.627"/>
          <path id="Trazado_6570" data-name="Trazado 6570" d="M412.145,260.611l-5.581,3.155,22.324,12.889,5.583-3.154Z" fill="#3c5185" opacity="0.647"/>
          <path id="Trazado_6571" data-name="Trazado 6571" d="M412.145,260.611l-5.3,3L429.165,276.5l5.307-3Z" fill="#3c5185" opacity="0.667"/>
          <path id="Trazado_6572" data-name="Trazado 6572" d="M412.145,260.611l-5.028,2.845,22.324,12.889,5.03-2.844Z" fill="#3c5185" opacity="0.686"/>
          <path id="Trazado_6573" data-name="Trazado 6573" d="M412.145,260.611l-4.751,2.69,22.324,12.889,4.754-2.689Z" fill="#3c5185" opacity="0.706"/>
          <path id="Trazado_6574" data-name="Trazado 6574" d="M412.145,260.611l-4.474,2.535,22.324,12.889,4.477-2.534Z" fill="#3c5185" opacity="0.725"/>
          <path id="Trazado_6575" data-name="Trazado 6575" d="M412.145,260.611l-4.2,2.38,22.324,12.889,4.2-2.379Z" fill="#3c5185" opacity="0.745"/>
          <path id="Trazado_6576" data-name="Trazado 6576" d="M412.145,260.611l-3.921,2.225,22.324,12.889,3.924-2.224Z" fill="#3c5185" opacity="0.765"/>
          <path id="Trazado_6577" data-name="Trazado 6577" d="M412.145,260.611l-3.645,2.07,22.324,12.889,3.647-2.069Z" fill="#3c5185" opacity="0.784"/>
          <path id="Trazado_6578" data-name="Trazado 6578" d="M412.145,260.611l-3.368,1.915L431.1,275.415l3.371-1.914Z" fill="#3c5185" opacity="0.804"/>
          <path id="Trazado_6579" data-name="Trazado 6579" d="M412.145,260.611l-3.092,1.761,22.324,12.889,3.094-1.759Z" fill="#3c5185" opacity="0.824"/>
          <path id="Trazado_6580" data-name="Trazado 6580" d="M412.145,260.611l-2.815,1.606,22.324,12.888,2.818-1.6Z" fill="#3c5185" opacity="0.843"/>
          <path id="Trazado_6581" data-name="Trazado 6581" d="M412.145,260.611l-2.538,1.451,22.324,12.889,2.541-1.449Z" fill="#3c5185" opacity="0.863"/>
          <path id="Trazado_6582" data-name="Trazado 6582" d="M412.145,260.611l-2.262,1.3L432.207,274.8l2.264-1.294Z" fill="#3c5185" opacity="0.882"/>
          <path id="Trazado_6583" data-name="Trazado 6583" d="M412.145,260.611l-1.985,1.141,22.324,12.888,1.988-1.139Z" fill="#3c5185" opacity="0.902"/>
          <path id="Trazado_6584" data-name="Trazado 6584" d="M412.145,260.611l-1.709.986,22.324,12.889,1.711-.984Z" fill="#3c5185" opacity="0.922"/>
          <path id="Trazado_6585" data-name="Trazado 6585" d="M412.145,260.611l-1.432.831,22.324,12.889,1.435-.829Z" fill="#3c5185" opacity="0.941"/>
          <path id="Trazado_6586" data-name="Trazado 6586" d="M412.145,260.611l-1.156.676,22.324,12.889,1.158-.675Z" fill="#3c5185" opacity="0.961"/>
          <path id="Trazado_6587" data-name="Trazado 6587" d="M412.145,260.611l-.879.521,22.324,12.889.882-.52Z" fill="#3c5185" opacity="0.98"/>
          <path id="Trazado_6588" data-name="Trazado 6588" d="M412.145,260.611l-.6.366,22.324,12.889.605-.365Z" fill="#3c5185"/>
        </g>
        <g id="Grupo_2217" data-name="Grupo 2217">
          <path id="Trazado_6589" data-name="Trazado 6589" d="M411.28,209.154l-.245,1.216c-.3.207-.323,1.537-.323,1.9l.387,46.115a5.54,5.54,0,0,0,3.091,4.959l16.488,9.725c.273.157.6.877.9.773l1.567.325a4.1,4.1,0,0,0,2.743-3.869V224.4a7.77,7.77,0,0,0-3.5-6.064l-15.636-9.015C414.807,208.2,413.127,207.874,411.28,209.154Z" fill="url(#linear-gradient-10)"/>
          <path id="Trazado_6590" data-name="Trazado 6590" d="M413.79,209.37c-1.925-1.112-3.5-.2-3.5,2.021v46.765a7.767,7.767,0,0,0,3.5,6.064l16.963,9.793c1.925,1.112,3.5.2,3.5-2.021V225.228a7.767,7.767,0,0,0-3.5-6.064Z" fill="#3c5185"/>
          <path id="Trazado_6591" data-name="Trazado 6591" d="M414.605,212.2c-1.687-.975-3.068-.177-3.068,1.771v11.1a6.808,6.808,0,0,0,3.068,5.314l14.867,8.583c1.688.975,3.068.177,3.068-1.771V226.1a6.805,6.805,0,0,0-3.068-5.314Z" fill="url(#linear-gradient-11)"/>
          <g id="Grupo_2200" data-name="Grupo 2200">
            <path id="Trazado_6592" data-name="Trazado 6592" d="M421.315,246.037a.661.661,0,0,0-.33-.573l-2.381-1.375a.351.351,0,0,0-.308-.02h0a.345.345,0,0,0-.066.034l-.512.262.351.338v2.444a.661.661,0,0,0,.331.573L420.625,249l-.034.34.408-.207a.359.359,0,0,0,.221-.111h0a.346.346,0,0,0,.1-.24Z" fill="#d1e1f2"/>
            <path id="Trazado_6593" data-name="Trazado 6593" d="M417.444,244.711v2.749a.661.661,0,0,0,.33.572l2.381,1.375a.357.357,0,0,0,.535-.308v-2.75a.66.66,0,0,0-.331-.572l-2.381-1.375A.356.356,0,0,0,417.444,244.711Z" fill="#edf3fa"/>
          </g>
          <g id="Grupo_2201" data-name="Grupo 2201">
            <path id="Trazado_6594" data-name="Trazado 6594" d="M426.613,249.064a.663.663,0,0,0-.33-.573l-2.381-1.374a.348.348,0,0,0-.308-.021h0a.516.516,0,0,0-.066.034l-.512.263.351.337v2.444a.66.66,0,0,0,.331.573l2.225,1.284-.034.34.408-.206a.355.355,0,0,0,.221-.112h0a.346.346,0,0,0,.1-.24Z" fill="#d1e1f2"/>
            <path id="Trazado_6595" data-name="Trazado 6595" d="M422.742,247.738v2.749a.661.661,0,0,0,.33.573l2.381,1.374a.356.356,0,0,0,.535-.308v-2.749a.66.66,0,0,0-.331-.573l-2.381-1.374A.356.356,0,0,0,422.742,247.738Z" fill="#edf3fa"/>
          </g>
          <g id="Grupo_2202" data-name="Grupo 2202">
            <path id="Trazado_6596" data-name="Trazado 6596" d="M431.911,252.091a.661.661,0,0,0-.33-.572l-2.381-1.375a.347.347,0,0,0-.308-.02h0a.343.343,0,0,0-.066.034l-.512.262.351.338V253.2a.66.66,0,0,0,.331.572l2.225,1.285-.034.339.408-.206a.359.359,0,0,0,.221-.111h0a.346.346,0,0,0,.1-.24Z" fill="#d1e1f2"/>
            <path id="Trazado_6597" data-name="Trazado 6597" d="M428.04,250.765v2.75a.661.661,0,0,0,.33.572l2.381,1.375a.357.357,0,0,0,.535-.309V252.4a.66.66,0,0,0-.331-.572l-2.381-1.375A.356.356,0,0,0,428.04,250.765Z" fill="#edf3fa"/>
          </g>
          <g id="Grupo_2203" data-name="Grupo 2203">
            <path id="Trazado_6598" data-name="Trazado 6598" d="M421.315,239.475a.663.663,0,0,0-.33-.573l-2.381-1.374a.348.348,0,0,0-.308-.021h0a.514.514,0,0,0-.066.034l-.512.263.351.337v2.444a.66.66,0,0,0,.331.573l2.225,1.284-.034.34.408-.206a.355.355,0,0,0,.221-.112h0a.346.346,0,0,0,.1-.24Z" fill="#d1e1f2"/>
            <path id="Trazado_6599" data-name="Trazado 6599" d="M417.444,238.149V240.9a.661.661,0,0,0,.33.573l2.381,1.374a.356.356,0,0,0,.535-.308v-2.749a.66.66,0,0,0-.331-.573l-2.381-1.374A.356.356,0,0,0,417.444,238.149Z" fill="#edf3fa"/>
          </g>
          <g id="Grupo_2204" data-name="Grupo 2204">
            <path id="Trazado_6600" data-name="Trazado 6600" d="M426.613,242.5a.661.661,0,0,0-.33-.572l-2.381-1.375a.347.347,0,0,0-.308-.02h0a.344.344,0,0,0-.066.034l-.512.262.351.338v2.444a.66.66,0,0,0,.331.572l2.225,1.285-.034.339.408-.206a.359.359,0,0,0,.221-.111h0a.347.347,0,0,0,.1-.24Z" fill="#d1e1f2"/>
            <path id="Trazado_6601" data-name="Trazado 6601" d="M422.742,241.176v2.75a.661.661,0,0,0,.33.572l2.381,1.375a.357.357,0,0,0,.535-.309v-2.749a.66.66,0,0,0-.331-.572l-2.381-1.375A.356.356,0,0,0,422.742,241.176Z" fill="#edf3fa"/>
          </g>
          <g id="Grupo_2205" data-name="Grupo 2205">
            <path id="Trazado_6602" data-name="Trazado 6602" d="M431.911,245.53a.661.661,0,0,0-.33-.573l-2.381-1.374a.348.348,0,0,0-.308-.021h0a.413.413,0,0,0-.066.034l-.512.263.351.337v2.444a.66.66,0,0,0,.331.573l2.225,1.284-.034.34.408-.206a.36.36,0,0,0,.221-.112h0a.346.346,0,0,0,.1-.24Z" fill="#d1e1f2"/>
            <path id="Trazado_6603" data-name="Trazado 6603" d="M428.04,244.2v2.749a.663.663,0,0,0,.33.573l2.381,1.374a.356.356,0,0,0,.535-.308v-2.749a.66.66,0,0,0-.331-.573l-2.381-1.375A.356.356,0,0,0,428.04,244.2Z" fill="#edf3fa"/>
          </g>
          <g id="Grupo_2206" data-name="Grupo 2206">
            <path id="Trazado_6604" data-name="Trazado 6604" d="M421.315,252.678a.661.661,0,0,0-.33-.572l-2.381-1.375a.351.351,0,0,0-.308-.02h0a.345.345,0,0,0-.066.034l-.512.262.351.338v2.444a.661.661,0,0,0,.331.573l2.225,1.284-.034.34.408-.207a.359.359,0,0,0,.221-.111h0a.346.346,0,0,0,.1-.24Z" fill="#d1e1f2"/>
            <path id="Trazado_6605" data-name="Trazado 6605" d="M417.444,251.353V254.1a.661.661,0,0,0,.33.572l2.381,1.375a.357.357,0,0,0,.535-.309v-2.749a.66.66,0,0,0-.331-.572l-2.381-1.375A.356.356,0,0,0,417.444,251.353Z" fill="#edf3fa"/>
          </g>
          <g id="Grupo_2207" data-name="Grupo 2207">
            <path id="Trazado_6606" data-name="Trazado 6606" d="M426.613,255.706a.663.663,0,0,0-.33-.573l-2.381-1.374a.348.348,0,0,0-.308-.021h0a.343.343,0,0,0-.066.034l-.512.262.351.338v2.445a.66.66,0,0,0,.331.572l2.225,1.284-.034.34.408-.206a.36.36,0,0,0,.221-.112h0a.347.347,0,0,0,.1-.24Z" fill="#d1e1f2"/>
            <path id="Trazado_6607" data-name="Trazado 6607" d="M422.742,254.38v2.749a.663.663,0,0,0,.33.573l2.381,1.374a.356.356,0,0,0,.535-.308v-2.749a.66.66,0,0,0-.331-.573l-2.381-1.374A.356.356,0,0,0,422.742,254.38Z" fill="#edf3fa"/>
          </g>
          <g id="Grupo_2208" data-name="Grupo 2208">
            <path id="Trazado_6608" data-name="Trazado 6608" d="M421.315,259.32a.661.661,0,0,0-.33-.572l-2.381-1.375a.351.351,0,0,0-.308-.02h0a.344.344,0,0,0-.066.034l-.512.262.351.338v2.444a.661.661,0,0,0,.331.573l2.225,1.284-.034.34.408-.207a.359.359,0,0,0,.221-.111h0a.346.346,0,0,0,.1-.24Z" fill="#d1e1f2"/>
            <path id="Trazado_6609" data-name="Trazado 6609" d="M417.444,257.995v2.749a.661.661,0,0,0,.33.572l2.381,1.375a.357.357,0,0,0,.535-.309v-2.749a.66.66,0,0,0-.331-.572l-2.381-1.375A.356.356,0,0,0,417.444,257.995Z" fill="#edf3fa"/>
          </g>
          <g id="Grupo_2209" data-name="Grupo 2209">
            <path id="Trazado_6610" data-name="Trazado 6610" d="M415.955,243.458a.66.66,0,0,0-.331-.573l-2.381-1.375a.35.35,0,0,0-.308-.02h0a.343.343,0,0,0-.066.034l-.512.262.352.338v2.444a.663.663,0,0,0,.33.573l2.225,1.284-.034.34.408-.207a.352.352,0,0,0,.221-.111h0a.347.347,0,0,0,.1-.24Z" fill="#d1e1f2"/>
            <path id="Trazado_6611" data-name="Trazado 6611" d="M412.083,242.132v2.749a.664.664,0,0,0,.33.573l2.381,1.374a.357.357,0,0,0,.535-.308v-2.75A.66.66,0,0,0,415,243.2l-2.381-1.375A.356.356,0,0,0,412.083,242.132Z" fill="#edf3fa"/>
          </g>
          <g id="Grupo_2210" data-name="Grupo 2210">
            <path id="Trazado_6612" data-name="Trazado 6612" d="M415.955,236.9a.663.663,0,0,0-.331-.573l-2.381-1.374a.347.347,0,0,0-.308-.021h0a.516.516,0,0,0-.066.034l-.512.263.352.337v2.445a.661.661,0,0,0,.33.572l2.225,1.284-.034.34.408-.206a.353.353,0,0,0,.221-.112h0a.347.347,0,0,0,.1-.24Z" fill="#d1e1f2"/>
            <path id="Trazado_6613" data-name="Trazado 6613" d="M412.083,235.57v2.749a.661.661,0,0,0,.33.573l2.381,1.375a.357.357,0,0,0,.535-.309v-2.749a.661.661,0,0,0-.331-.573l-2.381-1.374A.356.356,0,0,0,412.083,235.57Z" fill="#edf3fa"/>
          </g>
          <g id="Grupo_2211" data-name="Grupo 2211">
            <path id="Trazado_6614" data-name="Trazado 6614" d="M415.955,250.1a.66.66,0,0,0-.331-.573l-2.381-1.375a.35.35,0,0,0-.308-.02h0a.344.344,0,0,0-.066.034l-.512.262.352.338v2.444a.663.663,0,0,0,.33.573l2.225,1.284-.034.34.408-.207a.356.356,0,0,0,.221-.111h0a.347.347,0,0,0,.1-.24Z" fill="#d1e1f2"/>
            <path id="Trazado_6615" data-name="Trazado 6615" d="M412.083,248.774v2.749a.661.661,0,0,0,.33.572l2.381,1.375a.357.357,0,0,0,.535-.308v-2.75a.66.66,0,0,0-.331-.572l-2.381-1.375A.356.356,0,0,0,412.083,248.774Z" fill="#edf3fa"/>
          </g>
          <g id="Grupo_2212" data-name="Grupo 2212">
            <path id="Trazado_6616" data-name="Trazado 6616" d="M415.955,256.742a.66.66,0,0,0-.331-.573l-2.381-1.375a.35.35,0,0,0-.308-.02h0a.345.345,0,0,0-.066.034l-.512.262.352.338v2.444a.663.663,0,0,0,.33.573l2.225,1.284-.034.34.408-.207a.356.356,0,0,0,.221-.111h0a.347.347,0,0,0,.1-.24Z" fill="#d1e1f2"/>
            <path id="Trazado_6617" data-name="Trazado 6617" d="M412.083,255.416v2.749a.661.661,0,0,0,.33.572l2.381,1.375a.357.357,0,0,0,.535-.308v-2.75a.66.66,0,0,0-.331-.572l-2.381-1.375A.356.356,0,0,0,412.083,255.416Z" fill="#edf3fa"/>
          </g>
          <g id="Grupo_2213" data-name="Grupo 2213">
            <path id="Trazado_6618" data-name="Trazado 6618" d="M426.613,262.348a.663.663,0,0,0-.33-.573L423.9,260.4a.348.348,0,0,0-.308-.021h0a.344.344,0,0,0-.066.034l-.512.262.351.338v2.444a.66.66,0,0,0,.331.573l2.225,1.284-.034.34.408-.206a.36.36,0,0,0,.221-.112h0a.347.347,0,0,0,.1-.24Z" fill="#d1e1f2"/>
            <path id="Trazado_6619" data-name="Trazado 6619" d="M422.742,261.022v2.749a.663.663,0,0,0,.33.573l2.381,1.375a.357.357,0,0,0,.535-.309v-2.749a.66.66,0,0,0-.331-.573l-2.381-1.375A.356.356,0,0,0,422.742,261.022Z" fill="#edf3fa"/>
          </g>
          <g id="Grupo_2214" data-name="Grupo 2214">
            <path id="Trazado_6620" data-name="Trazado 6620" d="M431.911,265.375a.661.661,0,0,0-.33-.572l-2.381-1.375a.347.347,0,0,0-.308-.02h0a.345.345,0,0,0-.066.034l-.512.262.351.338v2.444a.66.66,0,0,0,.331.572l2.225,1.285-.034.34.408-.207a.359.359,0,0,0,.221-.111h0a.349.349,0,0,0,.1-.241Z" fill="#d1e1f2"/>
            <path id="Trazado_6621" data-name="Trazado 6621" d="M428.04,264.049v2.75a.661.661,0,0,0,.33.572l2.381,1.375a.357.357,0,0,0,.535-.309v-2.749a.663.663,0,0,0-.331-.573l-2.381-1.374A.356.356,0,0,0,428.04,264.049Z" fill="#edf3fa"/>
          </g>
          <g id="Grupo_2215" data-name="Grupo 2215">
            <path id="Trazado_6622" data-name="Trazado 6622" d="M431.911,258.747a.664.664,0,0,0-.33-.573L429.2,256.8a.347.347,0,0,0-.308-.02h0a.406.406,0,0,0-.066.033l-.512.263.351.338v9.072a.66.66,0,0,0,.331.572l2.225,1.285-.034.34.408-.207a.359.359,0,0,0,.221-.111h0a.349.349,0,0,0,.1-.241Z" fill="url(#linear-gradient-12)"/>
            <path id="Trazado_6623" data-name="Trazado 6623" d="M428.04,257.421V266.8a.661.661,0,0,0,.33.572l2.381,1.375a.357.357,0,0,0,.535-.309V259.06a.661.661,0,0,0-.331-.573l-2.381-1.374A.356.356,0,0,0,428.04,257.421Z" fill="url(#linear-gradient-13)"/>
          </g>
          <g id="Grupo_2216" data-name="Grupo 2216">
            <path id="Trazado_6624" data-name="Trazado 6624" d="M416.653,213.38l15.813,24.541a3.448,3.448,0,0,0,.074-.723v-9.984l-4.783-7.423Z" fill="#fff" opacity="0.3"/>
            <path id="Trazado_6625" data-name="Trazado 6625" d="M413.872,211.882a1.63,1.63,0,0,0-2.1.866l16.42,25.483,1.278.738a2.236,2.236,0,0,0,2.031.275Z" fill="#fff" opacity="0.3"/>
          </g>
        </g>
      </g>
      <g id="Grupo_2228" data-name="Grupo 2228">
        <g id="Grupo_2223" data-name="Grupo 2223">
          <g id="Grupo_2219" data-name="Grupo 2219" opacity="0.3">
            <path id="Trazado_6626" data-name="Trazado 6626" d="M476.75,277.156l-.1-.206a.983.983,0,0,0-.283-.335c-.021-.019-.047-.038-.071-.057s-.026-.024-.042-.032l-.026-.015c-.03-.021-.054-.043-.087-.062L458.493,266.26a2.588,2.588,0,0,0-2.335,0l-33.635,19.419c-.394.228-.544.544-.454.841l-.027.016v.641a1.881,1.881,0,0,0,.942,1.63l17.187,9.893a2.6,2.6,0,0,0,2.336,0l33.58-19.381A1.659,1.659,0,0,0,476.75,277.156Z" fill="#3c5185" opacity="0"/>
            <path id="Trazado_6627" data-name="Trazado 6627" d="M476.627,277.142l-.1-.2a.981.981,0,0,0-.281-.333c-.022-.019-.048-.037-.072-.056s-.026-.024-.041-.033l-.026-.015c-.03-.02-.054-.042-.086-.061L458.468,266.3a2.578,2.578,0,0,0-2.324,0l-33.513,19.354c-.393.226-.542.541-.452.836l-.027.016v.638a1.872,1.872,0,0,0,.937,1.622l17.1,9.839a2.576,2.576,0,0,0,2.323,0l33.46-19.315A1.651,1.651,0,0,0,476.627,277.142Z" fill="#3c5185" opacity="0.024"/>
            <path id="Trazado_6628" data-name="Trazado 6628" d="M476.505,277.128l-.1-.2a.972.972,0,0,0-.28-.331c-.021-.019-.047-.038-.071-.056s-.026-.024-.041-.033l-.026-.015c-.03-.02-.053-.042-.086-.061l-17.46-10.08a2.563,2.563,0,0,0-2.311,0l-33.393,19.289c-.39.225-.538.538-.45.831l-.027.016v.635a1.861,1.861,0,0,0,.933,1.613l17,9.787a2.563,2.563,0,0,0,2.311,0l33.339-19.251A1.642,1.642,0,0,0,476.505,277.128Z" fill="#3c5185" opacity="0.049"/>
            <path id="Trazado_6629" data-name="Trazado 6629" d="M476.382,277.114l-.1-.2a.959.959,0,0,0-.278-.329c-.021-.02-.047-.037-.07-.056s-.026-.024-.041-.033l-.026-.015c-.029-.019-.053-.041-.085-.06l-17.367-10.027a2.555,2.555,0,0,0-2.3,0l-33.273,19.225c-.388.224-.535.535-.447.827l-.027.016v.631a1.851,1.851,0,0,0,.928,1.6l16.913,9.735a2.548,2.548,0,0,0,2.3,0l33.219-19.186A1.635,1.635,0,0,0,476.382,277.114Z" fill="#3c5185" opacity="0.073"/>
            <path id="Trazado_6630" data-name="Trazado 6630" d="M476.259,277.1l-.1-.2a.958.958,0,0,0-.276-.327.785.785,0,0,0-.071-.056.4.4,0,0,0-.04-.032l-.026-.015c-.029-.02-.053-.042-.085-.06l-17.273-9.973a2.535,2.535,0,0,0-2.286,0L422.952,285.6c-.386.222-.532.532-.444.822l-.027.016v.628a1.84,1.84,0,0,0,.923,1.6l16.821,9.683a2.535,2.535,0,0,0,2.286,0l33.1-19.122A1.624,1.624,0,0,0,476.259,277.1Z" fill="#3c5185" opacity="0.098"/>
            <path id="Trazado_6631" data-name="Trazado 6631" d="M476.136,277.086l-.1-.2a.961.961,0,0,0-.275-.326c-.021-.019-.046-.037-.07-.055s-.025-.024-.04-.032l-.026-.015c-.029-.02-.052-.041-.085-.06l-17.179-9.918a2.521,2.521,0,0,0-2.273,0l-33.031,19.1c-.384.221-.53.529-.443.818l-.026.015v.625a1.832,1.832,0,0,0,.917,1.587l16.731,9.629a2.52,2.52,0,0,0,2.273,0l32.979-19.057A1.615,1.615,0,0,0,476.136,277.086Z" fill="#3c5185" opacity="0.122"/>
            <path id="Trazado_6632" data-name="Trazado 6632" d="M476.014,277.072l-.1-.2a.951.951,0,0,0-.274-.324c-.021-.019-.046-.037-.069-.055s-.026-.023-.041-.032l-.025-.015c-.029-.019-.052-.04-.084-.059l-17.085-9.864a2.508,2.508,0,0,0-2.261,0l-32.911,19.03c-.382.22-.527.526-.44.813l-.027.016V287a1.823,1.823,0,0,0,.913,1.578l16.639,9.577a2.508,2.508,0,0,0,2.261,0l32.858-18.992A1.607,1.607,0,0,0,476.014,277.072Z" fill="#3c5185" opacity="0.146"/>
            <path id="Trazado_6633" data-name="Trazado 6633" d="M475.891,277.057l-.1-.2a.928.928,0,0,0-.272-.322.8.8,0,0,0-.069-.055c-.014-.009-.025-.023-.04-.032l-.025-.014c-.029-.02-.052-.041-.084-.059l-16.991-9.811a2.5,2.5,0,0,0-2.249,0l-32.79,18.965c-.38.22-.524.524-.437.81l-.027.015v.618a1.81,1.81,0,0,0,.908,1.569l16.548,9.525a2.5,2.5,0,0,0,2.249,0l32.737-18.928A1.6,1.6,0,0,0,475.891,277.057Z" fill="#3c5185" opacity="0.171"/>
            <path id="Trazado_6634" data-name="Trazado 6634" d="M475.768,277.043l-.1-.2a.918.918,0,0,0-.27-.32c-.021-.019-.046-.037-.069-.055s-.025-.023-.04-.031l-.025-.015c-.028-.019-.051-.04-.083-.059l-16.9-9.756a2.481,2.481,0,0,0-2.236,0l-32.67,18.9c-.377.218-.521.521-.435.8l-.026.016v.614a1.8,1.8,0,0,0,.9,1.561l16.456,9.472a2.482,2.482,0,0,0,2.237,0l32.617-18.863A1.59,1.59,0,0,0,475.768,277.043Z" fill="#3c5185" opacity="0.195"/>
            <path id="Trazado_6635" data-name="Trazado 6635" d="M475.645,277.029l-.1-.2a.94.94,0,0,0-.269-.319c-.021-.018-.045-.036-.068-.054s-.025-.023-.04-.031l-.025-.015c-.028-.019-.051-.04-.083-.058l-16.8-9.7a2.468,2.468,0,0,0-2.224,0l-32.548,18.835c-.376.217-.519.518-.433.8l-.026.015v.611a1.791,1.791,0,0,0,.9,1.552l16.365,9.42a2.468,2.468,0,0,0,2.224,0l32.5-18.8A1.581,1.581,0,0,0,475.645,277.029Z" fill="#3c5185" opacity="0.22"/>
            <path id="Trazado_6636" data-name="Trazado 6636" d="M475.523,277.015l-.1-.2a.931.931,0,0,0-.268-.317c-.02-.018-.045-.036-.068-.054s-.024-.023-.039-.031l-.025-.014c-.028-.019-.051-.04-.082-.058L458.235,266.7a2.453,2.453,0,0,0-2.211,0L423.6,285.468c-.374.216-.515.515-.43.8l-.026.015v.608a1.78,1.78,0,0,0,.892,1.543l16.274,9.367a2.455,2.455,0,0,0,2.212,0l32.377-18.734A1.572,1.572,0,0,0,475.523,277.015Z" fill="#3c5185" opacity="0.244"/>
            <path id="Trazado_6637" data-name="Trazado 6637" d="M475.4,277l-.094-.194a.93.93,0,0,0-.266-.315c-.021-.019-.045-.036-.068-.054s-.025-.022-.039-.031l-.025-.014c-.028-.019-.05-.04-.082-.058l-16.617-9.593a2.432,2.432,0,0,0-2.2,0l-32.308,18.7c-.371.215-.512.512-.428.791l-.025.016v.6a1.773,1.773,0,0,0,.887,1.535l16.183,9.314a2.44,2.44,0,0,0,2.2,0l32.256-18.669A1.564,1.564,0,0,0,475.4,277Z" fill="#3c5185" opacity="0.268"/>
            <path id="Trazado_6638" data-name="Trazado 6638" d="M475.277,276.987l-.094-.193a.917.917,0,0,0-.264-.313c-.02-.019-.045-.036-.067-.054s-.025-.022-.039-.03l-.025-.015c-.028-.019-.05-.039-.081-.057l-16.523-9.54a2.427,2.427,0,0,0-2.187,0L423.81,285.426c-.369.213-.509.509-.425.787l-.026.015v.6a1.762,1.762,0,0,0,.883,1.527l16.091,9.262a2.427,2.427,0,0,0,2.187,0l32.136-18.605A1.553,1.553,0,0,0,475.277,276.987Z" fill="#3c5185" opacity="0.293"/>
            <path id="Trazado_6639" data-name="Trazado 6639" d="M475.154,276.973l-.093-.192a.92.92,0,0,0-.263-.312c-.02-.018-.044-.035-.067-.053s-.024-.022-.038-.03l-.025-.014a.966.966,0,0,0-.081-.057l-16.429-9.486a2.413,2.413,0,0,0-2.174,0L423.918,285.4c-.368.212-.507.507-.423.782l-.026.015v.6a1.751,1.751,0,0,0,.878,1.518l16,9.21a2.413,2.413,0,0,0,2.174,0l32.016-18.54A1.545,1.545,0,0,0,475.154,276.973Z" fill="#3c5185" opacity="0.317"/>
            <path id="Trazado_6640" data-name="Trazado 6640" d="M475.032,276.959l-.093-.191a.9.9,0,0,0-.262-.31c-.02-.018-.044-.035-.066-.052s-.024-.023-.038-.031l-.025-.014c-.027-.019-.05-.039-.08-.057l-16.336-9.431a2.4,2.4,0,0,0-2.162,0l-31.945,18.511c-.365.211-.5.5-.421.778l-.025.015v.593a1.743,1.743,0,0,0,.873,1.51l15.909,9.156a2.392,2.392,0,0,0,2.161,0l31.9-18.475A1.537,1.537,0,0,0,475.032,276.959Z" fill="#3c5185" opacity="0.341"/>
            <path id="Trazado_6641" data-name="Trazado 6641" d="M474.909,276.945l-.092-.19a.9.9,0,0,0-.26-.308c-.02-.018-.044-.035-.066-.052s-.024-.023-.039-.031l-.024-.014c-.027-.018-.049-.039-.08-.056l-16.242-9.378a2.385,2.385,0,0,0-2.149,0l-31.825,18.447c-.363.209-.5.5-.418.773l-.025.015v.59a1.732,1.732,0,0,0,.867,1.5l15.818,9.1a2.387,2.387,0,0,0,2.15,0L474.3,278.935A1.526,1.526,0,0,0,474.909,276.945Z" fill="#3c5185" opacity="0.366"/>
            <path id="Trazado_6642" data-name="Trazado 6642" d="M474.786,276.93l-.092-.188a.886.886,0,0,0-.258-.306c-.02-.018-.044-.035-.066-.052s-.024-.022-.038-.031l-.024-.013c-.027-.019-.049-.039-.079-.057l-16.148-9.323a2.372,2.372,0,0,0-2.137,0l-31.7,18.382c-.361.208-.5.5-.415.769l-.025.015v.586a1.722,1.722,0,0,0,.862,1.492l15.727,9.052a2.372,2.372,0,0,0,2.137,0l31.654-18.346A1.52,1.52,0,0,0,474.786,276.93Z" fill="#3c5185" opacity="0.39"/>
            <path id="Trazado_6643" data-name="Trazado 6643" d="M474.663,276.916l-.091-.187a.889.889,0,0,0-.257-.3c-.019-.017-.043-.034-.065-.051s-.024-.022-.038-.03l-.024-.014c-.027-.018-.049-.039-.079-.056L458.055,267a2.36,2.36,0,0,0-2.125,0l-31.583,18.317c-.359.207-.495.495-.414.764l-.025.015v.583a1.71,1.71,0,0,0,.858,1.483l15.635,9a2.36,2.36,0,0,0,2.125,0l31.534-18.282A1.51,1.51,0,0,0,474.663,276.916Z" fill="#3c5185" opacity="0.415"/>
            <path id="Trazado_6644" data-name="Trazado 6644" d="M474.541,276.9l-.091-.186a.889.889,0,0,0-.255-.3c-.02-.018-.044-.034-.065-.051s-.024-.022-.038-.03l-.024-.014c-.027-.018-.048-.038-.078-.055l-15.961-9.215a2.339,2.339,0,0,0-2.112,0L424.454,285.3c-.357.205-.492.492-.411.76l-.025.014v.58a1.7,1.7,0,0,0,.853,1.475l15.544,8.947a2.345,2.345,0,0,0,2.112,0l31.414-18.217A1.5,1.5,0,0,0,474.541,276.9Z" fill="#3c5185" opacity="0.439"/>
            <path id="Trazado_6645" data-name="Trazado 6645" d="M474.418,276.888l-.09-.185a.889.889,0,0,0-.254-.3c-.02-.018-.043-.034-.065-.051s-.023-.022-.037-.03l-.024-.013a.769.769,0,0,0-.078-.055L458,267.092a2.326,2.326,0,0,0-2.1,0l-31.342,18.187c-.355.2-.489.489-.408.755l-.025.015v.576a1.691,1.691,0,0,0,.848,1.466l15.452,8.894a2.326,2.326,0,0,0,2.1,0l31.293-18.152A1.492,1.492,0,0,0,474.418,276.888Z" fill="#3c5185" opacity="0.463"/>
            <path id="Trazado_6646" data-name="Trazado 6646" d="M474.3,276.874l-.089-.184a.879.879,0,0,0-.253-.3c-.019-.018-.042-.034-.064-.051a.334.334,0,0,0-.037-.029l-.024-.014c-.026-.018-.048-.038-.077-.055l-15.774-9.107a2.317,2.317,0,0,0-2.087,0l-31.222,18.122c-.352.2-.486.487-.406.752l-.024.014v.573a1.68,1.68,0,0,0,.842,1.457l15.362,8.842a2.317,2.317,0,0,0,2.087,0L473.7,278.808A1.485,1.485,0,0,0,474.3,276.874Z" fill="#3c5185" opacity="0.488"/>
            <path id="Trazado_6647" data-name="Trazado 6647" d="M474.172,276.86l-.089-.183a.856.856,0,0,0-.251-.3c-.019-.018-.042-.034-.064-.051s-.023-.021-.036-.029l-.024-.014c-.026-.018-.047-.037-.077-.054l-15.679-9.053a2.3,2.3,0,0,0-2.075,0l-31.1,18.057c-.351.2-.484.484-.4.747l-.024.014v.57a1.673,1.673,0,0,0,.837,1.449l15.27,8.789a2.3,2.3,0,0,0,2.075,0l31.053-18.023A1.474,1.474,0,0,0,474.172,276.86Z" fill="#3c5185" opacity="0.512"/>
            <path id="Trazado_6648" data-name="Trazado 6648" d="M474.05,276.846l-.089-.182a.858.858,0,0,0-.249-.3c-.019-.017-.042-.033-.064-.05s-.023-.021-.036-.029l-.024-.013c-.026-.018-.047-.038-.076-.055l-15.586-9a2.286,2.286,0,0,0-2.063,0l-30.98,17.992c-.349.2-.481.481-.4.743l-.025.014v.566a1.662,1.662,0,0,0,.833,1.44l15.179,8.737a2.29,2.29,0,0,0,2.062,0l30.933-17.959A1.466,1.466,0,0,0,474.05,276.846Z" fill="#3c5185" opacity="0.537"/>
            <path id="Trazado_6649" data-name="Trazado 6649" d="M473.927,276.832l-.088-.181a.857.857,0,0,0-.248-.294c-.019-.017-.042-.033-.063-.05s-.023-.021-.037-.029l-.023-.013c-.026-.018-.047-.037-.076-.054L457.9,267.267a2.271,2.271,0,0,0-2.05,0l-30.86,17.927c-.346.2-.478.478-.4.738l-.024.014v.563a1.65,1.65,0,0,0,.828,1.431l15.087,8.684a2.273,2.273,0,0,0,2.051,0l30.812-17.893A1.457,1.457,0,0,0,473.927,276.832Z" fill="#3c5185" opacity="0.561"/>
            <path id="Trazado_6650" data-name="Trazado 6650" d="M473.8,276.818l-.087-.18a.859.859,0,0,0-.247-.292c-.019-.017-.041-.033-.063-.05s-.022-.021-.036-.029l-.023-.013c-.026-.017-.046-.037-.075-.053l-15.4-8.891a2.264,2.264,0,0,0-2.038,0L425.1,285.173c-.344.2-.475.475-.4.733l-.024.014v.56a1.643,1.643,0,0,0,.823,1.423l15,8.631a2.258,2.258,0,0,0,2.038,0L473.225,278.7A1.448,1.448,0,0,0,473.8,276.818Z" fill="#3c5185" opacity="0.585"/>
            <path id="Trazado_6651" data-name="Trazado 6651" d="M473.681,276.8l-.087-.179a.834.834,0,0,0-.244-.29c-.019-.018-.042-.033-.063-.05s-.022-.021-.036-.028l-.023-.013a.91.91,0,0,0-.075-.054l-15.305-8.836a2.249,2.249,0,0,0-2.025,0l-30.618,17.8c-.342.2-.472.472-.394.729l-.024.014v.556a1.633,1.633,0,0,0,.817,1.414l14.9,8.579a2.251,2.251,0,0,0,2.026,0l30.571-17.764A1.44,1.44,0,0,0,473.681,276.8Z" fill="#3c5185" opacity="0.61"/>
            <path id="Trazado_6652" data-name="Trazado 6652" d="M473.559,276.789l-.087-.177a.837.837,0,0,0-.243-.289c-.019-.017-.041-.032-.062-.049s-.023-.02-.036-.028l-.023-.013c-.025-.018-.046-.036-.074-.053L457.823,267.4a2.23,2.23,0,0,0-2.013,0l-30.5,17.733c-.34.2-.469.469-.392.724l-.023.014v.553a1.619,1.619,0,0,0,.812,1.4l14.814,8.527a2.237,2.237,0,0,0,2.013,0l30.451-17.7A1.431,1.431,0,0,0,473.559,276.789Z" fill="#3c5185" opacity="0.634"/>
            <path id="Trazado_6653" data-name="Trazado 6653" d="M473.436,276.775l-.086-.176a.848.848,0,0,0-.242-.287c-.018-.017-.041-.032-.062-.049s-.022-.02-.035-.028l-.023-.013c-.025-.017-.046-.036-.074-.052L457.8,267.442a2.218,2.218,0,0,0-2,0L425.419,285.11c-.338.2-.466.466-.389.72l-.024.014v.549a1.613,1.613,0,0,0,.808,1.4l14.722,8.473a2.218,2.218,0,0,0,2,0l30.331-17.635A1.422,1.422,0,0,0,473.436,276.775Z" fill="#3c5185" opacity="0.659"/>
            <path id="Trazado_6654" data-name="Trazado 6654" d="M473.313,276.761l-.085-.176a.835.835,0,0,0-.241-.284c-.018-.017-.04-.032-.061-.049s-.022-.02-.035-.027l-.023-.014c-.025-.017-.045-.036-.073-.052l-15.024-8.674a2.209,2.209,0,0,0-1.988,0l-30.257,17.6c-.335.193-.463.463-.386.715l-.024.014v.546a1.6,1.6,0,0,0,.8,1.388l14.631,8.421a2.2,2.2,0,0,0,1.988,0l30.21-17.57A1.413,1.413,0,0,0,473.313,276.761Z" fill="#3c5185" opacity="0.683"/>
            <path id="Trazado_6655" data-name="Trazado 6655" d="M473.19,276.747l-.084-.174a.828.828,0,0,0-.239-.283c-.019-.017-.041-.032-.061-.048a.433.433,0,0,0-.035-.028l-.023-.013c-.025-.017-.045-.036-.073-.052l-14.93-8.62a2.2,2.2,0,0,0-1.976,0l-30.136,17.539c-.333.192-.46.46-.384.711l-.023.013v.543a1.592,1.592,0,0,0,.8,1.379l14.54,8.369a2.19,2.19,0,0,0,1.976,0l30.09-17.506A1.4,1.4,0,0,0,473.19,276.747Z" fill="#3c5185" opacity="0.707"/>
            <path id="Trazado_6656" data-name="Trazado 6656" d="M473.068,276.733l-.085-.174a.82.82,0,0,0-.237-.28.768.768,0,0,0-.061-.048.3.3,0,0,0-.034-.028l-.023-.013c-.024-.017-.045-.035-.072-.051l-14.837-8.566a2.175,2.175,0,0,0-1.963,0l-30.015,17.474c-.332.191-.458.457-.382.706l-.023.014v.539a1.581,1.581,0,0,0,.792,1.37l14.449,8.317a2.182,2.182,0,0,0,1.963,0l29.97-17.441A1.4,1.4,0,0,0,473.068,276.733Z" fill="#3c5185" opacity="0.732"/>
            <path id="Trazado_6657" data-name="Trazado 6657" d="M472.945,276.719l-.084-.172a.817.817,0,0,0-.236-.28c-.018-.016-.04-.031-.06-.047s-.022-.02-.034-.028l-.023-.012a.839.839,0,0,0-.072-.052l-14.742-8.511a2.163,2.163,0,0,0-1.951,0l-29.9,17.408c-.329.191-.455.455-.379.7l-.023.013v.536a1.572,1.572,0,0,0,.787,1.362l14.358,8.264a2.169,2.169,0,0,0,1.951,0l29.849-17.377A1.387,1.387,0,0,0,472.945,276.719Z" fill="#3c5185" opacity="0.756"/>
            <path id="Trazado_6658" data-name="Trazado 6658" d="M472.822,276.7l-.083-.172a.812.812,0,0,0-.234-.277c-.018-.016-.04-.031-.06-.047s-.022-.02-.035-.027l-.021-.013c-.025-.017-.045-.035-.072-.051l-14.649-8.458a2.156,2.156,0,0,0-1.939,0L425.955,285c-.327.189-.451.452-.377.7l-.023.013v.533a1.563,1.563,0,0,0,.783,1.353l14.266,8.211a2.15,2.15,0,0,0,1.939,0L472.271,278.5A1.376,1.376,0,0,0,472.822,276.7Z" fill="#3c5185" opacity="0.78"/>
            <path id="Trazado_6659" data-name="Trazado 6659" d="M472.7,276.691l-.082-.17a.808.808,0,0,0-.233-.276.569.569,0,0,0-.06-.047c-.012-.008-.021-.02-.034-.027l-.021-.013c-.025-.017-.045-.035-.072-.05l-14.555-8.4a2.135,2.135,0,0,0-1.926,0l-29.654,17.279c-.325.188-.448.449-.374.693l-.023.014v.529a1.551,1.551,0,0,0,.778,1.344l14.175,8.159a2.135,2.135,0,0,0,1.926,0l29.608-17.247A1.369,1.369,0,0,0,472.7,276.691Z" fill="#3c5185" opacity="0.805"/>
            <path id="Trazado_6660" data-name="Trazado 6660" d="M472.577,276.677l-.082-.17a.813.813,0,0,0-.232-.273.675.675,0,0,0-.059-.047c-.012-.008-.021-.02-.034-.027l-.021-.013c-.025-.016-.044-.034-.071-.05l-14.462-8.349a2.123,2.123,0,0,0-1.914,0L426.17,284.962c-.323.187-.446.446-.372.689l-.023.013v.526a1.543,1.543,0,0,0,.772,1.336l14.084,8.106a2.122,2.122,0,0,0,1.914,0l29.488-17.183A1.36,1.36,0,0,0,472.577,276.677Z" fill="#3c5185" opacity="0.829"/>
            <path id="Trazado_6661" data-name="Trazado 6661" d="M472.454,276.663l-.082-.168a.788.788,0,0,0-.23-.273.7.7,0,0,0-.058-.046c-.012-.008-.021-.02-.034-.027l-.021-.012c-.025-.017-.044-.035-.071-.05l-14.368-8.3a2.108,2.108,0,0,0-1.9,0l-29.412,17.149c-.321.185-.443.443-.37.684l-.022.013v.523a1.533,1.533,0,0,0,.767,1.327l13.993,8.054a2.114,2.114,0,0,0,1.9,0l29.368-17.118A1.352,1.352,0,0,0,472.454,276.663Z" fill="#3c5185" opacity="0.854"/>
            <path id="Trazado_6662" data-name="Trazado 6662" d="M472.331,276.648l-.081-.167a.8.8,0,0,0-.228-.27c-.018-.016-.039-.031-.059-.046s-.021-.019-.033-.027l-.021-.012c-.024-.016-.044-.034-.071-.05l-14.273-8.241a2.1,2.1,0,0,0-1.889,0L426.384,284.92c-.319.184-.44.44-.367.68l-.022.013v.518a1.52,1.52,0,0,0,.762,1.319l13.9,8a2.1,2.1,0,0,0,1.889,0L471.8,278.4A1.343,1.343,0,0,0,472.331,276.648Z" fill="#3c5185" opacity="0.878"/>
            <path id="Trazado_6663" data-name="Trazado 6663" d="M472.208,276.634l-.08-.165a.787.787,0,0,0-.227-.269.686.686,0,0,0-.058-.046c-.012-.008-.021-.019-.033-.026l-.021-.013c-.024-.016-.044-.033-.07-.049l-14.18-8.187a2.082,2.082,0,0,0-1.877,0l-29.17,17.02c-.317.183-.438.437-.366.675l-.022.013v.516a1.512,1.512,0,0,0,.758,1.31l13.81,7.948a2.08,2.08,0,0,0,1.876,0l29.127-16.989A1.333,1.333,0,0,0,472.208,276.634Z" fill="#3c5185" opacity="0.902"/>
            <path id="Trazado_6664" data-name="Trazado 6664" d="M472.086,276.62l-.08-.165a.782.782,0,0,0-.226-.266c-.017-.016-.038-.031-.057-.046s-.021-.019-.033-.026l-.021-.012c-.024-.016-.043-.034-.07-.049l-14.086-8.133a2.067,2.067,0,0,0-1.864,0L426.6,284.878c-.315.182-.435.434-.363.671l-.022.012v.513a1.5,1.5,0,0,0,.753,1.3l13.718,7.9a2.067,2.067,0,0,0,1.864,0l29.007-16.924A1.327,1.327,0,0,0,472.086,276.62Z" fill="#3c5185" opacity="0.927"/>
            <path id="Trazado_6665" data-name="Trazado 6665" d="M471.963,276.606l-.08-.164a.773.773,0,0,0-.224-.265c-.017-.015-.037-.03-.057-.045a.407.407,0,0,0-.032-.026l-.021-.012c-.024-.016-.043-.033-.069-.048l-13.993-8.079a2.055,2.055,0,0,0-1.852,0l-28.929,16.89c-.313.18-.431.431-.36.666l-.022.013v.508a1.492,1.492,0,0,0,.747,1.293l13.628,7.844a2.055,2.055,0,0,0,1.852,0l28.886-16.86A1.316,1.316,0,0,0,471.963,276.606Z" fill="#3c5185" opacity="0.951"/>
            <path id="Trazado_6666" data-name="Trazado 6666" d="M471.84,276.592l-.079-.163a.771.771,0,0,0-.222-.263c-.017-.015-.038-.03-.057-.045s-.02-.019-.033-.026l-.02-.012c-.024-.016-.043-.033-.069-.048l-13.9-8.024a2.04,2.04,0,0,0-1.839,0l-28.809,16.825c-.31.179-.428.428-.358.662l-.021.012v.505a1.481,1.481,0,0,0,.742,1.284l13.536,7.791a2.042,2.042,0,0,0,1.84,0L471.318,278.3A1.308,1.308,0,0,0,471.84,276.592Z" fill="#3c5185" opacity="0.976"/>
            <path id="Trazado_6667" data-name="Trazado 6667" d="M471.717,276.578l-.078-.162a.771.771,0,0,0-.221-.261c-.017-.016-.037-.03-.056-.045s-.021-.018-.033-.025l-.02-.012c-.023-.016-.042-.033-.068-.048l-13.8-7.971a2.027,2.027,0,0,0-1.827,0l-28.688,16.761c-.309.178-.426.425-.356.657l-.021.013v.5a1.472,1.472,0,0,0,.737,1.276L440.726,295a2.027,2.027,0,0,0,1.827,0L471.2,278.27A1.3,1.3,0,0,0,471.717,276.578Z" fill="#3c5185"/>
          </g>
          <g id="Grupo_2222" data-name="Grupo 2222">
            <g id="Grupo_2221" data-name="Grupo 2221">
              <path id="Trazado_6668" data-name="Trazado 6668" d="M423.338,285.46v-.624l33.309-19.565a1.99,1.99,0,0,1,1.986-.221l17.487,10.04a.96.96,0,0,1,.385.413l.1.2a1.615,1.615,0,0,1-.646,2.106l-32.694,18.869a2.523,2.523,0,0,1-2.274,0l-16.733-9.632A1.831,1.831,0,0,1,423.338,285.46Z" fill="url(#linear-gradient-14)"/>
              <path id="Trazado_6669" data-name="Trazado 6669" d="M423.807,285.315a.694.694,0,0,1,0-1.313L456.554,265.1a2.523,2.523,0,0,1,2.274,0l17.182,9.92a.694.694,0,0,1,0,1.313l-32.747,18.907a2.523,2.523,0,0,1-2.274,0Z" fill="#f3f8fe"/>
              <path id="Trazado_6670" data-name="Trazado 6670" d="M424.53,285.265a.668.668,0,0,1,0-1.264l32.028-18.486a2.432,2.432,0,0,1,2.189,0l3,1.78a.291.291,0,0,1,.02.49l-.331.233a.331.331,0,0,0,0,.575l8.173,4.69a.722.722,0,0,0,.7.011l.71-.382a.533.533,0,0,1,.519.007l3.741,2.146a.668.668,0,0,1,0,1.264L443.26,294.815a2.432,2.432,0,0,1-2.189,0Z" fill="#a5cbef"/>
              <g id="Grupo_2220" data-name="Grupo 2220">
                <path id="Trazado_6671" data-name="Trazado 6671" d="M467.768,271.451a.1.1,0,0,1-.05-.013l-3.6-2.076a.1.1,0,0,1,.1-.176l3.605,2.077a.1.1,0,0,1,.037.138A.1.1,0,0,1,467.768,271.451Z" fill="#a5cbef"/>
              </g>
            </g>
          </g>
        </g>
        <path id="Trazado_6672" data-name="Trazado 6672" d="M459.338,277.9a8.312,8.312,0,0,0-2.71-2.387,13.829,13.829,0,0,0-3.771-1.447,18.861,18.861,0,0,0-8.342,0,13.785,13.785,0,0,0-3.77,1.447,8.316,8.316,0,0,0-2.711,2.387h0a5.194,5.194,0,0,0,0,6.177,8.3,8.3,0,0,0,2.712,2.387,13.823,13.823,0,0,0,3.77,1.447,18.855,18.855,0,0,0,8.341,0,13.867,13.867,0,0,0,3.771-1.447,8.321,8.321,0,0,0,2.71-2.386h0a5.194,5.194,0,0,0,0-6.177Zm-2.526,4.411a5.268,5.268,0,0,1-1.725,1.482,10.73,10.73,0,0,1-2.929,1.116,15.854,15.854,0,0,1-6.943,0,10.736,10.736,0,0,1-2.929-1.115,5.286,5.286,0,0,1-1.726-1.483,2.125,2.125,0,0,1,0-2.646h0a5.287,5.287,0,0,1,1.726-1.483,10.777,10.777,0,0,1,2.929-1.115,15.8,15.8,0,0,1,6.942,0,10.8,10.8,0,0,1,2.93,1.115,5.282,5.282,0,0,1,1.725,1.483,2.125,2.125,0,0,1,0,2.646Z" fill="#3c5185" opacity="0.3"/>
        <path id="Trazado_6673" data-name="Trazado 6673" d="M459.338,273.495a8.321,8.321,0,0,0-2.71-2.386,13.8,13.8,0,0,0-3.771-1.447,18.821,18.821,0,0,0-8.342,0,13.785,13.785,0,0,0-3.77,1.447,8.314,8.314,0,0,0-2.711,2.386h0a5.194,5.194,0,0,0,0,6.177,8.309,8.309,0,0,0,2.712,2.386,13.759,13.759,0,0,0,3.77,1.447,18.856,18.856,0,0,0,8.341,0,13.8,13.8,0,0,0,3.771-1.447,8.322,8.322,0,0,0,2.71-2.386h0a5.194,5.194,0,0,0,0-6.177Zm-2.526,4.412a5.292,5.292,0,0,1-1.725,1.482,10.762,10.762,0,0,1-2.929,1.115,15.854,15.854,0,0,1-6.943,0,10.737,10.737,0,0,1-2.929-1.115,5.286,5.286,0,0,1-1.726-1.483,2.124,2.124,0,0,1,0-2.645h0a5.272,5.272,0,0,1,1.726-1.482,10.711,10.711,0,0,1,2.929-1.115,15.76,15.76,0,0,1,6.942,0,10.731,10.731,0,0,1,2.93,1.115,5.258,5.258,0,0,1,1.725,1.483,2.124,2.124,0,0,1,0,2.645Z" fill="url(#linear-gradient-15)"/>
        <g id="Grupo_2224" data-name="Grupo 2224">
          <path id="Trazado_6674" data-name="Trazado 6674" d="M440.56,273.411l-2.526-1.765a8.292,8.292,0,0,1,2.711-2.386,13.785,13.785,0,0,1,3.77-1.447l.7,3a10.743,10.743,0,0,0-2.929,1.114A5.286,5.286,0,0,0,440.56,273.411Z" fill="url(#linear-gradient-11)"/>
        </g>
        <g id="Grupo_2225" data-name="Grupo 2225">
          <path id="Trazado_6675" data-name="Trazado 6675" d="M445.215,270.814l-.7-3a18.388,18.388,0,0,1,4.171-.468v3.082A15.285,15.285,0,0,0,445.215,270.814Z" fill="#fff"/>
        </g>
        <g id="Grupo_2226" data-name="Grupo 2226">
          <path id="Trazado_6676" data-name="Trazado 6676" d="M459.338,277.823l-2.526-1.766a2.124,2.124,0,0,0,0-2.645,5.272,5.272,0,0,0-1.725-1.484,10.763,10.763,0,0,0-2.93-1.114,15.285,15.285,0,0,0-3.471-.387v-3.082a18.388,18.388,0,0,1,4.171.468,13.8,13.8,0,0,1,3.771,1.447,8.3,8.3,0,0,1,2.71,2.386,5.194,5.194,0,0,1,0,6.177Z" fill="#4a65a3"/>
        </g>
        <g id="Grupo_2227" data-name="Grupo 2227">
          <path id="Trazado_6677" data-name="Trazado 6677" d="M448.686,282.123a18.412,18.412,0,0,1-4.17-.467,13.759,13.759,0,0,1-3.77-1.447,8.3,8.3,0,0,1-2.712-2.387,5.193,5.193,0,0,1,0-6.176l2.526,1.766a2.124,2.124,0,0,0,0,2.645,5.287,5.287,0,0,0,1.726,1.483,10.737,10.737,0,0,0,2.929,1.115,15.854,15.854,0,0,0,6.943,0,10.762,10.762,0,0,0,2.929-1.115,5.292,5.292,0,0,0,1.725-1.482l2.526,1.764a8.312,8.312,0,0,1-2.71,2.387,13.8,13.8,0,0,1-3.771,1.447A18.427,18.427,0,0,1,448.686,282.123Z" fill="#3c5185"/>
        </g>
      </g>
      <g id="Grupo_2229" data-name="Grupo 2229">
        <path id="Trazado_6678" data-name="Trazado 6678" d="M475.8,249.607c-5.409-3.123-14.261-3.123-19.67,0s-5.409,8.234,0,11.357,14.261,3.123,19.67,0S481.21,252.73,475.8,249.607Z" fill="url(#radial-gradient)" style="mix-blend-mode: multiply;isolation: isolate"/>
        <path id="Trazado_6679" data-name="Trazado 6679" d="M456.207,252.217h1.113a7.251,7.251,0,0,1,1.791-1.413,15.613,15.613,0,0,1,14.076,0,7.264,7.264,0,0,1,1.79,1.413h1.113v2.629h0c.009,1.48-.957,2.962-2.9,4.085a15.619,15.619,0,0,1-14.076,0c-1.945-1.123-2.912-2.605-2.9-4.085h0Z" fill="url(#linear-gradient-17)"/>
        <path id="Trazado_6680" data-name="Trazado 6680" d="M473.187,250.8a7.264,7.264,0,0,1,1.79,1.413h1.113v2.629h0c.009,1.48-.957,2.962-2.9,4.085-.06.034-.122.066-.183.1V256.38l-1.911-6.5A11.155,11.155,0,0,1,473.187,250.8Z" fill="url(#linear-gradient-18)"/>
        <path id="Trazado_6681" data-name="Trazado 6681" d="M473.187,248.153a15.613,15.613,0,0,0-14.076,0c-3.872,2.235-3.872,5.892,0,8.127a15.613,15.613,0,0,0,14.076,0C477.058,254.045,477.058,250.388,473.187,248.153Z" fill="#fff"/>
        <path id="Trazado_6682" data-name="Trazado 6682" d="M466.149,246.477a14.409,14.409,0,0,1,7.038,1.676c3.871,2.235,3.871,5.892,0,8.127-.06.035-.122.067-.183.1l-6.855-3.262Z" fill="url(#linear-gradient-19)"/>
        <path id="Trazado_6683" data-name="Trazado 6683" d="M475.958,253.118h-9.809v-6.641a14.409,14.409,0,0,1,7.038,1.676C475.519,249.5,476.435,251.361,475.958,253.118Z" fill="#3c5185"/>
      </g>
      <g id="Grupo_4463" data-name="Grupo 4463" transform="translate(-66 -12.423)">
        <path id="Trazado_6678-2" data-name="Trazado 6678" d="M472.168,249.248c-4.581-2.645-12.077-2.645-16.658,0s-4.581,6.973,0,9.618,12.077,2.645,16.658,0S476.748,251.893,472.168,249.248Z" transform="translate(0 -0.121)" fill="url(#radial-gradient)" style="mix-blend-mode: multiply;isolation: isolate"/>
        <path id="Trazado_6679-2" data-name="Trazado 6679" d="M456.207,251.744h.943a6.141,6.141,0,0,1,1.517-1.2,13.222,13.222,0,0,1,11.92,0,6.151,6.151,0,0,1,1.516,1.2h.943v2.226h0c.008,1.253-.81,2.508-2.458,3.459a13.227,13.227,0,0,1-11.92,0c-1.647-.951-2.466-2.206-2.458-3.459h0Z" transform="translate(-0.633 -0.406)" fill="url(#linear-gradient-17)"/>
        <path id="Trazado_6680-2" data-name="Trazado 6680" d="M472.866,250.663a6.151,6.151,0,0,1,1.516,1.2h.943v2.226h0c.008,1.253-.81,2.508-2.458,3.459-.051.029-.1.056-.155.085v-2.245l-1.618-5.5A9.448,9.448,0,0,1,472.866,250.663Z" transform="translate(-2.912 -0.521)" fill="url(#linear-gradient-18)"/>
        <path id="Trazado_6681-2" data-name="Trazado 6681" d="M470.587,247.9a13.222,13.222,0,0,0-11.92,0c-3.279,1.893-3.279,4.99,0,6.882a13.222,13.222,0,0,0,11.92,0C473.865,252.886,473.865,249.789,470.587,247.9Z" transform="translate(-0.633)" fill="#fff"/>
        <path id="Trazado_6682-2" data-name="Trazado 6682" d="M466.149,246.477a12.2,12.2,0,0,1,5.96,1.419c3.278,1.893,3.278,4.99,0,6.882-.051.03-.1.057-.155.085l-5.805-2.762Z" transform="translate(-2.155 0)" fill="url(#linear-gradient-19)"/>
        <path id="Trazado_6683-2" data-name="Trazado 6683" d="M474.456,252.1h-8.307v-5.624a12.2,12.2,0,0,1,5.96,1.419C474.084,249.036,474.86,250.613,474.456,252.1Z" transform="translate(-2.155 0)" fill="#3c5185"/>
      </g>
    </g>
  </g>
</svg>
