<svg xmlns="http://www.w3.org/2000/svg" xmlns:xlink="http://www.w3.org/1999/xlink" width="209" height="233" viewBox="0 0 209 233">
  <defs>
    <linearGradient id="linear-gradient" x1="-9.287" y1="0.5" x2="-8.287" y2="0.5" gradientUnits="objectBoundingBox">
      <stop offset="0" stop-color="#fff"/>
      <stop offset="0.396" stop-color="#d5e6f7"/>
      <stop offset="0.786" stop-color="#b2d2f1"/>
      <stop offset="0.996" stop-color="#a5cbef"/>
    </linearGradient>
    <linearGradient id="linear-gradient-2" x1="-7.225" y1="0.5" x2="-6.225" y2="0.5" gradientUnits="objectBoundingBox">
      <stop offset="0.004" stop-color="#a5cbef"/>
      <stop offset="0.214" stop-color="#b2d2f1"/>
      <stop offset="0.604" stop-color="#d5e6f7"/>
      <stop offset="1" stop-color="#fff"/>
    </linearGradient>
    <linearGradient id="linear-gradient-3" y1="0.5" x2="1" y2="0.5" gradientUnits="objectBoundingBox">
      <stop offset="0" stop-color="#fff"/>
      <stop offset="1" stop-color="#a8d9fb"/>
    </linearGradient>
    <linearGradient id="linear-gradient-4" x1="0" y1="0.5" x2="1" y2="0.5" xlink:href="#linear-gradient-3"/>
    <linearGradient id="linear-gradient-5" y1="0.5" x2="1" y2="0.5" gradientUnits="objectBoundingBox">
      <stop offset="0" stop-color="#5d7dbe"/>
      <stop offset="1" stop-color="#3c5185"/>
    </linearGradient>
    <linearGradient id="linear-gradient-6" x1="-0.668" y1="0.94" x2="1.86" y2="0.107" gradientUnits="objectBoundingBox">
      <stop offset="0" stop-color="#3c5185"/>
      <stop offset="0.136" stop-color="#425a91"/>
      <stop offset="0.428" stop-color="#4e6aa5"/>
      <stop offset="0.717" stop-color="#5573b1"/>
      <stop offset="1" stop-color="#5877b6"/>
    </linearGradient>
    <linearGradient id="linear-gradient-7" x1="-10.128" y1="1.133" x2="-8.966" y2="1.133" gradientUnits="objectBoundingBox">
      <stop offset="0.15" stop-color="#ff9800"/>
      <stop offset="1" stop-color="#ffc107"/>
    </linearGradient>
    <linearGradient id="linear-gradient-8" y1="0.5" x2="1" y2="0.5" gradientUnits="objectBoundingBox">
      <stop offset="0" stop-color="#3c5185"/>
      <stop offset="0.128" stop-color="#41578d"/>
      <stop offset="0.695" stop-color="#5572b0"/>
      <stop offset="1" stop-color="#5d7dbe"/>
    </linearGradient>
    <linearGradient id="linear-gradient-10" x1="-4.708" y1="0.467" x2="-3.697" y2="0.467" xlink:href="#linear-gradient-7"/>
    <linearGradient id="linear-gradient-11" x1="1.021" y1="0.953" x2="0.212" y2="-0.026" xlink:href="#linear-gradient-8"/>
    <linearGradient id="linear-gradient-12" x1="1.021" y1="0.953" x2="0.211" y2="-0.026" xlink:href="#linear-gradient-8"/>
    <radialGradient id="radial-gradient" cx="0.5" cy="0.5" r="0.875" gradientTransform="translate(0.211 473.063) scale(0.577 0.517)" gradientUnits="objectBoundingBox">
      <stop offset="0" stop-color="#3c5185"/>
      <stop offset="0.052" stop-color="#596b97"/>
      <stop offset="0.141" stop-color="#8492b2"/>
      <stop offset="0.235" stop-color="#aab3ca"/>
      <stop offset="0.331" stop-color="#c9cfdd"/>
      <stop offset="0.432" stop-color="#e0e4ec"/>
      <stop offset="0.539" stop-color="#f1f3f6"/>
      <stop offset="0.656" stop-color="#fbfcfd"/>
      <stop offset="0.802" stop-color="#fff"/>
    </radialGradient>
    <linearGradient id="linear-gradient-13" y1="0.5" x2="1" y2="0.5" gradientUnits="objectBoundingBox">
      <stop offset="0.021" stop-color="#ffc107"/>
      <stop offset="0.143" stop-color="#ffbb06"/>
      <stop offset="1" stop-color="#ff9800"/>
    </linearGradient>
    <linearGradient id="linear-gradient-15" x1="0.939" y1="0.942" x2="0.17" y2="0.246" gradientUnits="objectBoundingBox">
      <stop offset="0" stop-color="#5d7dbe"/>
      <stop offset="0.391" stop-color="#678ac8"/>
      <stop offset="1" stop-color="#7ea7df"/>
    </linearGradient>
    <linearGradient id="linear-gradient-16" x1="0.828" y1="-0.093" x2="-0.263" y2="1.18" gradientUnits="objectBoundingBox">
      <stop offset="0" stop-color="#7ea7df"/>
      <stop offset="0.609" stop-color="#678ac8"/>
      <stop offset="1" stop-color="#5d7dbe"/>
    </linearGradient>
    <linearGradient id="linear-gradient-17" x1="0.194" y1="0.518" x2="1.281" y2="0.518" gradientUnits="objectBoundingBox">
      <stop offset="0" stop-color="#7ea7df"/>
      <stop offset="0.358" stop-color="#a0bfe6"/>
      <stop offset="0.775" stop-color="#c3d7ee"/>
      <stop offset="1" stop-color="#d1e1f2"/>
    </linearGradient>
    <radialGradient id="radial-gradient-2" cx="0.5" cy="0.5" r="0.876" gradientTransform="translate(0.211 361.488) scale(0.577 0.517)" gradientUnits="objectBoundingBox">
      <stop offset="0" stop-color="#3c5185"/>
      <stop offset="0.057" stop-color="#4f6291"/>
      <stop offset="0.254" stop-color="#8d99b7"/>
      <stop offset="0.434" stop-color="#bec5d6"/>
      <stop offset="0.591" stop-color="#e1e4ec"/>
      <stop offset="0.719" stop-color="#f7f8fa"/>
      <stop offset="0.802" stop-color="#fff"/>
    </radialGradient>
    <radialGradient id="radial-gradient-3" cx="0.5" cy="0.5" r="0.875" gradientTransform="translate(0.211 381.678) scale(0.577 0.517)" gradientUnits="objectBoundingBox">
      <stop offset="0.091" stop-color="#48486a"/>
      <stop offset="0.118" stop-color="#4f4f70"/>
      <stop offset="0.351" stop-color="#8d8da2"/>
      <stop offset="0.564" stop-color="#bebeca"/>
      <stop offset="0.75" stop-color="#e1e1e7"/>
      <stop offset="0.901" stop-color="#f7f7f8"/>
      <stop offset="1" stop-color="#fff"/>
    </radialGradient>
    <linearGradient id="linear-gradient-18" y1="0.5" x2="1" y2="0.5" gradientUnits="objectBoundingBox">
      <stop offset="0.004" stop-color="#a5cbef"/>
      <stop offset="0.442" stop-color="#cee2f6"/>
      <stop offset="1" stop-color="#fff"/>
    </linearGradient>
    <linearGradient id="linear-gradient-19" x1="0.665" y1="-0.202" x2="0.326" y2="0.744" xlink:href="#linear-gradient-5"/>
    <linearGradient id="linear-gradient-20" x1="0.345" y1="0.637" x2="0.674" y2="0.346" gradientUnits="objectBoundingBox">
      <stop offset="0" stop-color="#3c5185"/>
      <stop offset="1" stop-color="#5d7dbe"/>
    </linearGradient>
    <linearGradient id="linear-gradient-21" x1="0" y1="0.5" x2="1" y2="0.5" xlink:href="#linear-gradient-7"/>
    <radialGradient id="radial-gradient-4" cx="0.5" cy="0.5" r="0.875" gradientTransform="translate(0.211 355.891) scale(0.577 0.517)" gradientUnits="objectBoundingBox">
      <stop offset="0.091" stop-color="#3c5185"/>
      <stop offset="0.254" stop-color="#6f7ea5"/>
      <stop offset="0.437" stop-color="#a2acc4"/>
      <stop offset="0.609" stop-color="#cad0de"/>
      <stop offset="0.765" stop-color="#e7e9f0"/>
      <stop offset="0.901" stop-color="#f8f9fb"/>
      <stop offset="1" stop-color="#fff"/>
    </radialGradient>
    <linearGradient id="linear-gradient-23" y1="0.5" x2="1" y2="0.5" gradientUnits="objectBoundingBox">
      <stop offset="0" stop-color="#d1e1f2"/>
      <stop offset="0.193" stop-color="#c8daef"/>
      <stop offset="0.507" stop-color="#b0caea"/>
      <stop offset="0.899" stop-color="#89aee1"/>
      <stop offset="1" stop-color="#7ea7df"/>
    </linearGradient>
    <clipPath id="clip-telegestion">
      <rect width="209" height="233"/>
    </clipPath>
  </defs>
  <g id="telegestion" clip-path="url(#clip-telegestion)">
    <rect width="209" height="233" fill="rgba(255,255,255,0)"/>
    <g id="Grupo_1652" data-name="Grupo 1652" transform="translate(-70.573 24.332)">
      <g id="Grupo_1618" data-name="Grupo 1618">
        <g id="Grupo_1613" data-name="Grupo 1613" opacity="0.7">
          <path id="Trazado_3468" data-name="Trazado 3468" d="M195.495,89.03l32.387,18.514a1.052,1.052,0,0,1,0,1.823L177.459,138.48a4.176,4.176,0,0,1-4.163.009l-32.387-18.514a1.051,1.051,0,0,1,0-1.822l50.427-29.114A4.178,4.178,0,0,1,195.495,89.03Z" fill="#3c5185" opacity="0"/>
          <path id="Trazado_3469" data-name="Trazado 3469" d="M195.461,89.06l32.289,18.458a1.048,1.048,0,0,1,0,1.817L177.481,138.36a4.168,4.168,0,0,1-4.151.009l-32.289-18.458a1.048,1.048,0,0,1,0-1.817L191.31,89.069A4.166,4.166,0,0,1,195.461,89.06Z" fill="#3c5185" opacity="0.024"/>
          <path id="Trazado_3470" data-name="Trazado 3470" d="M195.427,89.09l32.19,18.4a1.045,1.045,0,0,1,0,1.812L177.5,138.24a4.154,4.154,0,0,1-4.138.008l-32.19-18.4a1.045,1.045,0,0,1,0-1.812L191.289,89.1A4.154,4.154,0,0,1,195.427,89.09Z" fill="#3c5185" opacity="0.049"/>
          <path id="Trazado_3471" data-name="Trazado 3471" d="M195.393,89.12l32.092,18.345a1.041,1.041,0,0,1,0,1.806l-49.966,28.848a4.139,4.139,0,0,1-4.125.009l-32.092-18.345a1.041,1.041,0,0,1,0-1.806l49.966-28.848A4.139,4.139,0,0,1,195.393,89.12Z" fill="#3c5185" opacity="0.073"/>
          <path id="Trazado_3472" data-name="Trazado 3472" d="M195.359,89.15l31.994,18.289a1.038,1.038,0,0,1,0,1.8L177.544,138a4.129,4.129,0,0,1-4.112.009l-31.994-18.289a1.038,1.038,0,0,1,0-1.8l49.813-28.759A4.127,4.127,0,0,1,195.359,89.15Z" fill="#3c5185" opacity="0.098"/>
          <path id="Trazado_3473" data-name="Trazado 3473" d="M195.326,89.18l31.895,18.232a1.035,1.035,0,0,1,0,1.795l-49.659,28.671a4.114,4.114,0,0,1-4.1.009L141.57,119.655a1.036,1.036,0,0,1,0-1.795l49.66-28.671A4.114,4.114,0,0,1,195.326,89.18Z" fill="#3c5185" opacity="0.122"/>
          <path id="Trazado_3474" data-name="Trazado 3474" d="M195.292,89.21l31.8,18.176a1.032,1.032,0,0,1,0,1.79l-49.506,28.582a4.1,4.1,0,0,1-4.087.009l-31.8-18.176a1.032,1.032,0,0,1,0-1.79l49.506-28.582A4.1,4.1,0,0,1,195.292,89.21Z" fill="#3c5185" opacity="0.146"/>
          <path id="Trazado_3475" data-name="Trazado 3475" d="M195.258,89.24l31.7,18.12a1.029,1.029,0,0,1,0,1.784l-49.353,28.493a4.087,4.087,0,0,1-4.074.009l-31.7-18.12a1.028,1.028,0,0,1,0-1.783l49.353-28.494A4.087,4.087,0,0,1,195.258,89.24Z" fill="#3c5185" opacity="0.171"/>
          <path id="Trazado_3476" data-name="Trazado 3476" d="M195.224,89.27l31.6,18.063a1.026,1.026,0,0,1,0,1.779l-49.2,28.4a4.075,4.075,0,0,1-4.061.009l-31.6-18.064a1.025,1.025,0,0,1,0-1.778l49.2-28.4A4.073,4.073,0,0,1,195.224,89.27Z" fill="#3c5185" opacity="0.195"/>
          <path id="Trazado_3477" data-name="Trazado 3477" d="M195.191,89.3l31.5,18.007a1.022,1.022,0,0,1,0,1.773L177.649,137.4a4.065,4.065,0,0,1-4.049.008L142.1,119.4a1.021,1.021,0,0,1,0-1.772l49.046-28.317A4.065,4.065,0,0,1,195.191,89.3Z" fill="#3c5185" opacity="0.22"/>
          <path id="Trazado_3478" data-name="Trazado 3478" d="M195.157,89.33l31.4,17.951a1.019,1.019,0,0,1,0,1.767L177.67,137.276a4.05,4.05,0,0,1-4.036.009l-31.4-17.951a1.019,1.019,0,0,1,0-1.767L191.12,89.339A4.052,4.052,0,0,1,195.157,89.33Z" fill="#3c5185" opacity="0.244"/>
          <path id="Trazado_3479" data-name="Trazado 3479" d="M195.123,89.36l31.3,17.895a1.015,1.015,0,0,1,0,1.761l-48.739,28.14a4.04,4.04,0,0,1-4.024.009l-31.3-17.895a1.016,1.016,0,0,1,0-1.762L191.1,89.369A4.038,4.038,0,0,1,195.123,89.36Z" fill="#3c5185" opacity="0.268"/>
          <path id="Trazado_3480" data-name="Trazado 3480" d="M195.089,89.39l31.206,17.838a1.013,1.013,0,0,1,0,1.756l-48.585,28.051a4.023,4.023,0,0,1-4.011.009L142.5,119.206a1.013,1.013,0,0,1,0-1.756L191.078,89.4A4.023,4.023,0,0,1,195.089,89.39Z" fill="#3c5185" opacity="0.293"/>
          <path id="Trazado_3481" data-name="Trazado 3481" d="M195.056,89.42,226.162,107.2a1.009,1.009,0,0,1,0,1.751l-48.432,27.962a4.015,4.015,0,0,1-4,.009l-31.106-17.782a1.009,1.009,0,0,1,0-1.751l48.432-27.962A4.015,4.015,0,0,1,195.056,89.42Z" fill="#3c5185" opacity="0.317"/>
          <path id="Trazado_3482" data-name="Trazado 3482" d="M195.022,89.45l31.008,17.726a1.006,1.006,0,0,1,0,1.745l-48.279,27.874a4,4,0,0,1-3.986.008l-31.008-17.725a1.006,1.006,0,0,1,0-1.745l48.279-27.874A4,4,0,0,1,195.022,89.45Z" fill="#3c5185" opacity="0.341"/>
          <path id="Trazado_3483" data-name="Trazado 3483" d="M194.988,89.48l30.91,17.67a1,1,0,0,1,0,1.739l-48.126,27.785a3.986,3.986,0,0,1-3.973.009l-30.91-17.669a1,1,0,0,1,0-1.74l48.126-27.785A3.986,3.986,0,0,1,194.988,89.48Z" fill="#3c5185" opacity="0.366"/>
          <path id="Trazado_3484" data-name="Trazado 3484" d="M194.954,89.51l30.811,17.613a1,1,0,0,1,0,1.734l-47.972,27.7a3.976,3.976,0,0,1-3.96.009l-30.812-17.614a1,1,0,0,1,0-1.733l47.972-27.7A3.974,3.974,0,0,1,194.954,89.51Z" fill="#3c5185" opacity="0.39"/>
          <path id="Trazado_3485" data-name="Trazado 3485" d="M194.921,89.54,225.633,107.1a1,1,0,0,1,0,1.728l-47.819,27.609a3.966,3.966,0,0,1-3.948.008l-30.712-17.557a1,1,0,0,1,0-1.728l47.819-27.608A3.964,3.964,0,0,1,194.921,89.54Z" fill="#3c5185" opacity="0.415"/>
          <path id="Trazado_3486" data-name="Trazado 3486" d="M194.887,89.57l30.614,17.5a.993.993,0,0,1,0,1.723l-47.666,27.52a3.949,3.949,0,0,1-3.935.009l-30.614-17.5a.993.993,0,0,1,0-1.723l47.666-27.519A3.949,3.949,0,0,1,194.887,89.57Z" fill="#3c5185" opacity="0.439"/>
          <path id="Trazado_3487" data-name="Trazado 3487" d="M194.853,89.6l30.516,17.444a.991.991,0,0,1,0,1.718L177.86,136.193a3.937,3.937,0,0,1-3.922.008l-30.516-17.444a.99.99,0,0,1,0-1.717l47.512-27.431A3.935,3.935,0,0,1,194.853,89.6Z" fill="#3c5185" opacity="0.463"/>
          <path id="Trazado_3488" data-name="Trazado 3488" d="M194.819,89.63l30.417,17.388a.987.987,0,0,1,0,1.712l-47.359,27.342a3.923,3.923,0,0,1-3.909.009l-30.417-17.388a.987.987,0,0,1,0-1.712L190.91,89.639A3.925,3.925,0,0,1,194.819,89.63Z" fill="#3c5185" opacity="0.488"/>
          <path id="Trazado_3489" data-name="Trazado 3489" d="M194.786,89.66,225.1,106.992a.984.984,0,0,1,0,1.706L177.9,135.952a3.91,3.91,0,0,1-3.9.008l-30.318-17.331a.984.984,0,0,1,0-1.706l47.205-27.254A3.914,3.914,0,0,1,194.786,89.66Z" fill="#3c5185" opacity="0.512"/>
          <path id="Trazado_3490" data-name="Trazado 3490" d="M194.752,89.69l30.22,17.275a.981.981,0,0,1,0,1.7l-47.052,27.165a3.9,3.9,0,0,1-3.885.009l-30.22-17.275a.981.981,0,0,1,0-1.7L190.867,89.7A3.9,3.9,0,0,1,194.752,89.69Z" fill="#3c5185" opacity="0.537"/>
          <path id="Trazado_3491" data-name="Trazado 3491" d="M194.718,89.72l30.121,17.219a.977.977,0,0,1,0,1.695l-46.9,27.077a3.887,3.887,0,0,1-3.872.008L143.951,118.5a.977.977,0,0,1,0-1.695l46.9-27.077A3.885,3.885,0,0,1,194.718,89.72Z" fill="#3c5185" opacity="0.561"/>
          <path id="Trazado_3492" data-name="Trazado 3492" d="M194.684,89.75l30.023,17.163a.974.974,0,0,1,0,1.689l-46.745,26.989a3.875,3.875,0,0,1-3.859.008l-30.023-17.162a.975.975,0,0,1,0-1.69l46.745-26.988A3.873,3.873,0,0,1,194.684,89.75Z" fill="#3c5185" opacity="0.585"/>
          <path id="Trazado_3493" data-name="Trazado 3493" d="M194.651,89.78l29.924,17.106a.971.971,0,0,1,0,1.684l-46.592,26.9a3.861,3.861,0,0,1-3.846.009l-29.925-17.106a.972.972,0,0,1,0-1.685l46.592-26.9A3.865,3.865,0,0,1,194.651,89.78Z" fill="#3c5185" opacity="0.61"/>
          <path id="Trazado_3494" data-name="Trazado 3494" d="M194.617,89.81l29.826,17.05a.968.968,0,0,1,0,1.679L178.008,135.35a3.85,3.85,0,0,1-3.834.008l-29.826-17.05a.968.968,0,0,1,0-1.678l46.438-26.811A3.848,3.848,0,0,1,194.617,89.81Z" fill="#3c5185" opacity="0.634"/>
          <path id="Trazado_3495" data-name="Trazado 3495" d="M194.583,89.84l29.727,16.994a.964.964,0,0,1,0,1.673l-46.285,26.722a3.834,3.834,0,0,1-3.821.009l-29.727-16.994a.964.964,0,0,1,0-1.673l46.285-26.722A3.833,3.833,0,0,1,194.583,89.84Z" fill="#3c5185" opacity="0.659"/>
          <path id="Trazado_3496" data-name="Trazado 3496" d="M194.549,89.87l29.629,16.937a.962.962,0,0,1,0,1.668L178.05,135.109a3.821,3.821,0,0,1-3.808.008L144.613,118.18a.961.961,0,0,1,0-1.667l46.132-26.634A3.821,3.821,0,0,1,194.549,89.87Z" fill="#3c5185" opacity="0.683"/>
          <path id="Trazado_3497" data-name="Trazado 3497" d="M194.515,89.9l29.531,16.881a.958.958,0,0,1,0,1.662l-45.978,26.546a3.812,3.812,0,0,1-3.795.008l-29.531-16.881a.959.959,0,0,1,0-1.662L190.72,89.908A3.812,3.812,0,0,1,194.515,89.9Z" fill="#3c5185" opacity="0.707"/>
          <path id="Trazado_3498" data-name="Trazado 3498" d="M194.482,89.931l29.432,16.824a.955.955,0,0,1,0,1.656l-45.825,26.457a3.794,3.794,0,0,1-3.783.008l-29.432-16.824a.956.956,0,0,1,0-1.657L190.7,89.939A3.794,3.794,0,0,1,194.482,89.931Z" fill="#3c5185" opacity="0.732"/>
          <path id="Trazado_3499" data-name="Trazado 3499" d="M194.448,89.96l29.333,16.769a.951.951,0,0,1,0,1.65l-45.672,26.369a3.784,3.784,0,0,1-3.77.008L145.01,117.988a.952.952,0,0,1,0-1.651l45.672-26.369A3.784,3.784,0,0,1,194.448,89.96Z" fill="#3c5185" opacity="0.756"/>
          <path id="Trazado_3500" data-name="Trazado 3500" d="M194.414,89.99,223.649,106.7a.948.948,0,0,1,0,1.645l-45.518,26.28a3.774,3.774,0,0,1-3.758.009l-29.235-16.712a.949.949,0,0,1,0-1.646L190.656,90A3.774,3.774,0,0,1,194.414,89.99Z" fill="#3c5185" opacity="0.78"/>
          <path id="Trazado_3501" data-name="Trazado 3501" d="M194.38,90.02l29.137,16.656a.946.946,0,0,1,0,1.64l-45.364,26.191a3.757,3.757,0,0,1-3.745.008l-29.137-16.656a.945.945,0,0,1,0-1.639l45.364-26.192A3.762,3.762,0,0,1,194.38,90.02Z" fill="#3c5185" opacity="0.805"/>
          <path id="Trazado_3502" data-name="Trazado 3502" d="M194.347,90.051l29.037,16.6a.942.942,0,0,1,0,1.634l-45.211,26.1a3.749,3.749,0,0,1-3.733.008l-29.037-16.6a.942.942,0,0,1,0-1.634l45.211-26.1A3.744,3.744,0,0,1,194.347,90.051Z" fill="#3c5185" opacity="0.829"/>
          <path id="Trazado_3503" data-name="Trazado 3503" d="M194.313,90.081l28.939,16.542a.94.94,0,0,1,0,1.629L178.2,134.266a3.735,3.735,0,0,1-3.72.008l-28.939-16.543a.939.939,0,0,1,0-1.628l45.058-26.014A3.732,3.732,0,0,1,194.313,90.081Z" fill="#3c5185" opacity="0.854"/>
          <path id="Trazado_3504" data-name="Trazado 3504" d="M194.279,90.111,223.12,106.6a.936.936,0,0,1,0,1.623l-44.9,25.926a3.72,3.72,0,0,1-3.707.008l-28.841-16.487a.936.936,0,0,1,0-1.623l44.9-25.926A3.723,3.723,0,0,1,194.279,90.111Z" fill="#3c5185" opacity="0.878"/>
          <path id="Trazado_3505" data-name="Trazado 3505" d="M194.245,90.141l28.743,16.43a.932.932,0,0,1,0,1.617L178.24,134.025a3.706,3.706,0,0,1-3.694.008L145.8,117.6a.933.933,0,0,1,0-1.618l44.751-25.836A3.706,3.706,0,0,1,194.245,90.141Z" fill="#3c5185" opacity="0.902"/>
          <path id="Trazado_3506" data-name="Trazado 3506" d="M194.212,90.171l28.643,16.374a.929.929,0,0,1,0,1.611l-44.6,25.749a3.7,3.7,0,0,1-3.682.008l-28.643-16.374a.93.93,0,0,1,0-1.612l44.6-25.749A3.7,3.7,0,0,1,194.212,90.171Z" fill="#3c5185" opacity="0.927"/>
          <path id="Trazado_3507" data-name="Trazado 3507" d="M194.178,90.2l28.545,16.317a.926.926,0,0,1,0,1.607l-44.444,25.66a3.681,3.681,0,0,1-3.669.007l-28.545-16.317a.927.927,0,0,1,0-1.607l44.445-25.66A3.683,3.683,0,0,1,194.178,90.2Z" fill="#3c5185" opacity="0.951"/>
          <path id="Trazado_3508" data-name="Trazado 3508" d="M194.144,90.231l28.447,16.261a.923.923,0,0,1,0,1.6L178.3,133.664a3.669,3.669,0,0,1-3.656.008L146.2,117.411a.923.923,0,0,1,0-1.6l44.291-25.571A3.669,3.669,0,0,1,194.144,90.231Z" fill="#3c5185" opacity="0.976"/>
          <path id="Trazado_3509" data-name="Trazado 3509" d="M194.11,90.261l28.348,16.205a.919.919,0,0,1,0,1.595l-44.138,25.483a3.659,3.659,0,0,1-3.643.008l-28.348-16.205a.92.92,0,0,1,0-1.6l44.137-25.483A3.658,3.658,0,0,1,194.11,90.261Z" fill="#3c5185"/>
        </g>
        <path id="Trazado_3510" data-name="Trazado 3510" d="M132.581,75.492,181.5,47.251a.99.99,0,0,1,1.486.858l9.1,36.864a2.154,2.154,0,0,1-1.078,1.866L142.09,115.081c-.661.381-1.175.062-1.487-.859l-9.1-36.864A2.154,2.154,0,0,1,132.581,75.492Z" fill="url(#linear-gradient)"/>
        <path id="Trazado_3511" data-name="Trazado 3511" d="M133.213,75.913l48.916-28.241a.991.991,0,0,1,1.487.859l9.1,36.864a2.157,2.157,0,0,1-1.077,1.866L142.722,115.5c-.661.382-1.271-.359-1.487-.858l-9.1-36.865A2.157,2.157,0,0,1,133.213,75.913Z" fill="#3c5185"/>
        <path id="Trazado_3512" data-name="Trazado 3512" d="M135.034,78.242l46.688-27.033,8.442,34.026-46.7,27.053Z" fill="#edf3fa"/>
        <path id="Trazado_3513" data-name="Trazado 3513" d="M194.7,89.037l31.325,16.523s.172,2.446-.5,2.832L177.534,136.1a3.977,3.977,0,0,1-3.963.009l-30.824-17.621c-1.275-.79-.5-2.837-.5-2.837l48.493-26.606A3.975,3.975,0,0,1,194.7,89.037Z" fill="url(#linear-gradient-2)"/>
        <path id="Trazado_3514" data-name="Trazado 3514" d="M194.7,87.14l30.825,17.621a1,1,0,0,1,0,1.735l-47.993,27.709a3.98,3.98,0,0,1-3.963.008l-30.824-17.621a1,1,0,0,1,0-1.734l47.993-27.709A3.978,3.978,0,0,1,194.7,87.14Z" fill="#fff"/>
        <path id="Trazado_3515" data-name="Trazado 3515" d="M197.431,109.957l8.125,4.644a.264.264,0,0,1,0,.457l-12.65,7.3a1.049,1.049,0,0,1-1.044,0l-8.125-4.644a.264.264,0,0,1,0-.458l12.65-7.3A1.049,1.049,0,0,1,197.431,109.957Z" fill="#d1e1f2"/>
        <path id="Trazado_3516" data-name="Trazado 3516" d="M191.3,89.832l-2.655,1.534a.158.158,0,0,0,0,.274l1.319.759a.345.345,0,0,0,.342,0l2.656-1.533a.158.158,0,0,0,0-.274l-1.319-.759A.342.342,0,0,0,191.3,89.832Z" fill="#d1e1f2"/>
        <path id="Trazado_3517" data-name="Trazado 3517" d="M187.408,92.151l-2.656,1.533a.158.158,0,0,0,0,.274l1.319.759a.34.34,0,0,0,.342,0l2.655-1.533a.158.158,0,0,0,0-.274l-1.319-.759A.345.345,0,0,0,187.408,92.151Z" fill="#d1e1f2"/>
        <path id="Trazado_3518" data-name="Trazado 3518" d="M183.5,94.345l-2.655,1.534a.158.158,0,0,0,0,.274l1.319.759a.345.345,0,0,0,.342,0l2.656-1.533a.159.159,0,0,0,0-.274l-1.32-.759A.342.342,0,0,0,183.5,94.345Z" fill="#d1e1f2"/>
        <path id="Trazado_3519" data-name="Trazado 3519" d="M179.479,96.612l-2.656,1.533a.159.159,0,0,0,0,.275l1.32.758a.342.342,0,0,0,.342,0l2.655-1.533a.159.159,0,0,0,0-.275l-1.319-.758A.342.342,0,0,0,179.479,96.612Z" fill="#d1e1f2"/>
        <path id="Trazado_3520" data-name="Trazado 3520" d="M175.614,98.766l-2.656,1.534a.158.158,0,0,0,0,.274l1.319.758a.342.342,0,0,0,.342,0l2.656-1.533a.159.159,0,0,0,0-.275l-1.319-.758A.342.342,0,0,0,175.614,98.766Z" fill="#d1e1f2"/>
        <path id="Trazado_3521" data-name="Trazado 3521" d="M171.856,101.084l-2.656,1.534a.158.158,0,0,0,0,.274l1.32.759a.345.345,0,0,0,.342,0l2.655-1.533a.159.159,0,0,0,0-.275l-1.319-.758A.342.342,0,0,0,171.856,101.084Z" fill="#d1e1f2"/>
        <path id="Trazado_3522" data-name="Trazado 3522" d="M167.922,103.253l-2.656,1.534a.158.158,0,0,0,0,.274l1.319.759a.34.34,0,0,0,.342,0l2.656-1.533a.158.158,0,0,0,0-.274l-1.32-.759A.346.346,0,0,0,167.922,103.253Z" fill="#d1e1f2"/>
        <path id="Trazado_3523" data-name="Trazado 3523" d="M164.046,105.561,161.39,107.1a.159.159,0,0,0,0,.274l1.32.758a.341.341,0,0,0,.341,0l2.656-1.533a.159.159,0,0,0,0-.275l-1.319-.758A.345.345,0,0,0,164.046,105.561Z" fill="#d1e1f2"/>
        <path id="Trazado_3524" data-name="Trazado 3524" d="M160.235,107.811l-2.656,1.533a.158.158,0,0,0,0,.274l1.319.759a.345.345,0,0,0,.342,0l2.656-1.533a.158.158,0,0,0,0-.274l-1.32-.759A.338.338,0,0,0,160.235,107.811Z" fill="#d1e1f2"/>
        <path id="Trazado_3525" data-name="Trazado 3525" d="M156.217,110.125l-2.656,1.534a.158.158,0,0,0,0,.274l1.319.758a.342.342,0,0,0,.342,0l2.656-1.533a.159.159,0,0,0,0-.275l-1.32-.758A.341.341,0,0,0,156.217,110.125Z" fill="#d1e1f2"/>
        <path id="Trazado_3526" data-name="Trazado 3526" d="M152.315,112.315l-2.656,1.533a.159.159,0,0,0,0,.275l1.319.758a.342.342,0,0,0,.342,0l2.656-1.534a.158.158,0,0,0,0-.274l-1.32-.758A.341.341,0,0,0,152.315,112.315Z" fill="#d1e1f2"/>
        <g id="Grupo_1614" data-name="Grupo 1614">
          <path id="Trazado_3527" data-name="Trazado 3527" d="M196.7,92.722l-1.8-1.054a.751.751,0,0,0-.757,0l-1.757,1.014a.374.374,0,0,0-.009.643l1.748,1.073a.75.75,0,0,0,.769.011l1.8-1.038A.374.374,0,0,0,196.7,92.722Z" fill="#d1e1f2"/>
          <path id="Trazado_3528" data-name="Trazado 3528" d="M192.673,95.04l-1.8-1.054a.754.754,0,0,0-.756,0L188.359,95a.374.374,0,0,0-.008.643l1.747,1.073a.754.754,0,0,0,.77.01l1.8-1.038A.374.374,0,0,0,192.673,95.04Z" fill="#d1e1f2"/>
          <path id="Trazado_3529" data-name="Trazado 3529" d="M188.761,97.235l-1.8-1.054a.749.749,0,0,0-.756,0l-1.758,1.014a.376.376,0,0,0-.009.644l1.748,1.072a.75.75,0,0,0,.769.011l1.8-1.038A.374.374,0,0,0,188.761,97.235Z" fill="#d1e1f2"/>
          <path id="Trazado_3530" data-name="Trazado 3530" d="M184.6,99.5l-1.8-1.053a.751.751,0,0,0-.756,0l-1.758,1.015a.374.374,0,0,0-.008.643l1.747,1.073a.756.756,0,0,0,.77.011l1.8-1.038A.375.375,0,0,0,184.6,99.5Z" fill="#d1e1f2"/>
          <path id="Trazado_3531" data-name="Trazado 3531" d="M180.935,101.655l-1.8-1.053a.749.749,0,0,0-.756,0l-1.758,1.014a.374.374,0,0,0-.008.643l1.747,1.073a.754.754,0,0,0,.77.011l1.8-1.038A.375.375,0,0,0,180.935,101.655Z" fill="#d1e1f2"/>
          <path id="Trazado_3532" data-name="Trazado 3532" d="M177.21,103.962l-1.8-1.054a.751.751,0,0,0-.757,0L172.9,103.92a.374.374,0,0,0-.009.643l1.748,1.073a.752.752,0,0,0,.769.011l1.8-1.038A.374.374,0,0,0,177.21,103.962Z" fill="#d1e1f2"/>
          <path id="Trazado_3533" data-name="Trazado 3533" d="M173.23,106.143l-1.8-1.054a.756.756,0,0,0-.757,0l-1.758,1.015a.374.374,0,0,0-.008.643l1.747,1.073a.754.754,0,0,0,.77.01l1.8-1.038A.374.374,0,0,0,173.23,106.143Z" fill="#d1e1f2"/>
          <path id="Trazado_3534" data-name="Trazado 3534" d="M169.335,108.351l-1.8-1.054a.754.754,0,0,0-.756,0l-1.758,1.015a.374.374,0,0,0-.008.643l1.747,1.073a.756.756,0,0,0,.77.011l1.8-1.039A.374.374,0,0,0,169.335,108.351Z" fill="#d1e1f2"/>
          <path id="Trazado_3535" data-name="Trazado 3535" d="M165.505,110.7l-1.8-1.054a.751.751,0,0,0-.757,0l-1.757,1.014a.375.375,0,0,0-.009.644l1.748,1.072a.75.75,0,0,0,.769.011l1.8-1.038A.374.374,0,0,0,165.505,110.7Z" fill="#d1e1f2"/>
          <path id="Trazado_3536" data-name="Trazado 3536" d="M161.333,113.157l-1.8-1.053a.751.751,0,0,0-.756,0l-1.758,1.015a.374.374,0,0,0-.008.643l1.747,1.073a.754.754,0,0,0,.77.01l1.8-1.038A.374.374,0,0,0,161.333,113.157Z" fill="#d1e1f2"/>
          <path id="Trazado_3537" data-name="Trazado 3537" d="M157.56,115.2l-1.8-1.054a.754.754,0,0,0-.756,0l-1.758,1.015a.375.375,0,0,0-.009.643l1.748,1.073a.756.756,0,0,0,.77.011l1.8-1.039A.374.374,0,0,0,157.56,115.2Z" fill="#d1e1f2"/>
        </g>
        <g id="Grupo_1615" data-name="Grupo 1615">
          <path id="Trazado_3538" data-name="Trazado 3538" d="M200.71,94.9l-1.8-1.053a.751.751,0,0,0-.757,0L196.4,94.86a.374.374,0,0,0-.009.643l1.748,1.073a.75.75,0,0,0,.769.011l1.8-1.038A.375.375,0,0,0,200.71,94.9Z" fill="#d1e1f2"/>
          <path id="Trazado_3539" data-name="Trazado 3539" d="M196.682,97.22l-1.8-1.054a.754.754,0,0,0-.756,0l-1.758,1.015a.374.374,0,0,0-.008.643l1.747,1.073a.754.754,0,0,0,.77.01l1.8-1.038A.374.374,0,0,0,196.682,97.22Z" fill="#d1e1f2"/>
          <path id="Trazado_3540" data-name="Trazado 3540" d="M192.77,99.415l-1.8-1.054a.753.753,0,0,0-.757,0l-1.757,1.014a.375.375,0,0,0-.009.644l1.748,1.072a.75.75,0,0,0,.769.011l1.8-1.038A.374.374,0,0,0,192.77,99.415Z" fill="#d1e1f2"/>
          <path id="Trazado_3541" data-name="Trazado 3541" d="M188.609,101.681l-1.8-1.053a.751.751,0,0,0-.756,0L184.3,101.64a.374.374,0,0,0-.009.643l1.748,1.073a.754.754,0,0,0,.769.011l1.8-1.039A.374.374,0,0,0,188.609,101.681Z" fill="#d1e1f2"/>
          <path id="Trazado_3542" data-name="Trazado 3542" d="M184.943,103.835l-1.8-1.053a.751.751,0,0,0-.756,0l-1.758,1.015a.374.374,0,0,0-.008.643l1.747,1.073a.756.756,0,0,0,.77.011l1.8-1.038A.375.375,0,0,0,184.943,103.835Z" fill="#d1e1f2"/>
          <path id="Trazado_3543" data-name="Trazado 3543" d="M181.219,106.141l-1.8-1.053a.751.751,0,0,0-.757,0L176.9,106.1a.374.374,0,0,0-.008.643l1.747,1.073a.754.754,0,0,0,.77.011l1.8-1.038A.374.374,0,0,0,181.219,106.141Z" fill="#d1e1f2"/>
          <path id="Trazado_3544" data-name="Trazado 3544" d="M177.239,108.323l-1.8-1.054a.751.751,0,0,0-.756,0l-1.758,1.015a.374.374,0,0,0-.008.643L174.664,110a.754.754,0,0,0,.77.01l1.8-1.038A.374.374,0,0,0,177.239,108.323Z" fill="#d1e1f2"/>
          <path id="Trazado_3545" data-name="Trazado 3545" d="M173.344,110.531l-1.8-1.054a.754.754,0,0,0-.756,0l-1.758,1.015a.374.374,0,0,0-.008.643l1.747,1.073a.756.756,0,0,0,.77.011l1.8-1.039A.374.374,0,0,0,173.344,110.531Z" fill="#d1e1f2"/>
          <path id="Trazado_3546" data-name="Trazado 3546" d="M169.514,112.88l-1.8-1.054a.753.753,0,0,0-.757,0l-1.758,1.014a.374.374,0,0,0-.008.643l1.747,1.074a.754.754,0,0,0,.77.01l1.8-1.038A.374.374,0,0,0,169.514,112.88Z" fill="#d1e1f2"/>
          <path id="Trazado_3547" data-name="Trazado 3547" d="M165.341,115.337l-1.8-1.054a.756.756,0,0,0-.757,0l-1.757,1.015a.374.374,0,0,0-.009.643l1.748,1.073a.754.754,0,0,0,.769.011l1.8-1.039A.374.374,0,0,0,165.341,115.337Z" fill="#d1e1f2"/>
          <path id="Trazado_3548" data-name="Trazado 3548" d="M161.569,117.384l-1.8-1.053a.751.751,0,0,0-.756,0l-1.758,1.015a.375.375,0,0,0-.009.643l1.748,1.073a.754.754,0,0,0,.77.01l1.8-1.038A.374.374,0,0,0,161.569,117.384Z" fill="#d1e1f2"/>
        </g>
        <g id="Grupo_1616" data-name="Grupo 1616">
          <path id="Trazado_3549" data-name="Trazado 3549" d="M204.719,97.082l-1.8-1.054a.753.753,0,0,0-.757,0l-1.757,1.014a.374.374,0,0,0-.009.643l1.748,1.073a.75.75,0,0,0,.769.011l1.8-1.038A.374.374,0,0,0,204.719,97.082Z" fill="#d1e1f2"/>
          <path id="Trazado_3550" data-name="Trazado 3550" d="M200.691,99.4l-1.8-1.054a.751.751,0,0,0-.756,0l-1.758,1.015a.374.374,0,0,0-.008.643l1.747,1.072a.751.751,0,0,0,.77.011l1.8-1.038A.374.374,0,0,0,200.691,99.4Z" fill="#d1e1f2"/>
          <path id="Trazado_3551" data-name="Trazado 3551" d="M196.779,101.6l-1.8-1.054a.753.753,0,0,0-.757,0l-1.757,1.014a.375.375,0,0,0-.009.644l1.748,1.072a.75.75,0,0,0,.769.011l1.8-1.038A.374.374,0,0,0,196.779,101.6Z" fill="#d1e1f2"/>
          <path id="Trazado_3552" data-name="Trazado 3552" d="M192.618,103.861l-1.8-1.053a.753.753,0,0,0-.757,0L188.3,103.82a.374.374,0,0,0-.009.643l1.748,1.073a.754.754,0,0,0,.769.011l1.8-1.038A.375.375,0,0,0,192.618,103.861Z" fill="#d1e1f2"/>
          <path id="Trazado_3553" data-name="Trazado 3553" d="M188.952,106.015l-1.8-1.053a.749.749,0,0,0-.756,0l-1.758,1.014a.374.374,0,0,0-.009.643l1.748,1.073a.754.754,0,0,0,.769.011l1.8-1.038A.375.375,0,0,0,188.952,106.015Z" fill="#d1e1f2"/>
          <path id="Trazado_3554" data-name="Trazado 3554" d="M185.228,108.322l-1.8-1.054a.749.749,0,0,0-.756,0l-1.758,1.014a.374.374,0,0,0-.008.643L182.653,110a.752.752,0,0,0,.77.011l1.8-1.038A.374.374,0,0,0,185.228,108.322Z" fill="#d1e1f2"/>
          <path id="Trazado_3555" data-name="Trazado 3555" d="M181.248,110.5l-1.8-1.054a.754.754,0,0,0-.756,0l-1.758,1.015a.374.374,0,0,0-.008.643l1.747,1.072a.751.751,0,0,0,.77.011l1.8-1.038A.374.374,0,0,0,181.248,110.5Z" fill="#d1e1f2"/>
          <path id="Trazado_3556" data-name="Trazado 3556" d="M177.353,112.711l-1.8-1.053a.751.751,0,0,0-.756,0l-1.758,1.015a.374.374,0,0,0-.008.643l1.747,1.073a.754.754,0,0,0,.77.01l1.8-1.038A.374.374,0,0,0,177.353,112.711Z" fill="#d1e1f2"/>
          <path id="Trazado_3557" data-name="Trazado 3557" d="M173.523,115.06l-1.8-1.054a.749.749,0,0,0-.756,0l-1.758,1.015a.374.374,0,0,0-.008.643l1.747,1.072a.752.752,0,0,0,.77.011l1.8-1.038A.374.374,0,0,0,173.523,115.06Z" fill="#d1e1f2"/>
          <path id="Trazado_3558" data-name="Trazado 3558" d="M169.35,117.517l-1.8-1.054a.756.756,0,0,0-.757,0l-1.757,1.015a.374.374,0,0,0-.009.643l1.748,1.073a.754.754,0,0,0,.769.011l1.8-1.039A.374.374,0,0,0,169.35,117.517Z" fill="#d1e1f2"/>
          <path id="Trazado_3559" data-name="Trazado 3559" d="M165.577,119.564l-1.8-1.053a.753.753,0,0,0-.757,0l-1.757,1.015a.374.374,0,0,0-.009.643L163,121.239a.752.752,0,0,0,.769.01l1.8-1.038A.374.374,0,0,0,165.577,119.564Z" fill="#d1e1f2"/>
        </g>
        <g id="Grupo_1617" data-name="Grupo 1617">
          <path id="Trazado_3560" data-name="Trazado 3560" d="M208.728,99.261l-1.8-1.053a.751.751,0,0,0-.757,0l-1.757,1.014a.374.374,0,0,0-.009.643l1.748,1.073a.75.75,0,0,0,.769.011l1.8-1.038A.375.375,0,0,0,208.728,99.261Z" fill="#d1e1f2"/>
          <path id="Trazado_3561" data-name="Trazado 3561" d="M204.7,101.58l-1.8-1.054a.756.756,0,0,0-.757,0l-1.757,1.015a.374.374,0,0,0-.009.643l1.748,1.073a.752.752,0,0,0,.769.01l1.8-1.038A.374.374,0,0,0,204.7,101.58Z" fill="#d1e1f2"/>
          <path id="Trazado_3562" data-name="Trazado 3562" d="M200.788,103.775l-1.8-1.054a.751.751,0,0,0-.757,0l-1.757,1.014a.375.375,0,0,0-.009.644l1.748,1.072a.75.75,0,0,0,.769.011l1.8-1.038A.374.374,0,0,0,200.788,103.775Z" fill="#d1e1f2"/>
          <path id="Trazado_3563" data-name="Trazado 3563" d="M196.627,106.041l-1.8-1.053a.753.753,0,0,0-.757,0L192.314,106a.374.374,0,0,0-.009.643l1.748,1.073a.754.754,0,0,0,.769.011l1.8-1.038A.375.375,0,0,0,196.627,106.041Z" fill="#d1e1f2"/>
          <path id="Trazado_3564" data-name="Trazado 3564" d="M192.618,108.434l-1.8-1.053a.753.753,0,0,0-.757,0l-9.148,5.284a.374.374,0,0,0-.008.643l1.747,1.073a.756.756,0,0,0,.77.011l9.193-5.308A.374.374,0,0,0,192.618,108.434Z" fill="#d1e1f2"/>
          <path id="Trazado_3565" data-name="Trazado 3565" d="M181.361,114.891l-1.8-1.054a.756.756,0,0,0-.757,0l-1.757,1.015a.374.374,0,0,0-.009.643l1.748,1.073a.754.754,0,0,0,.769.011l1.8-1.039A.374.374,0,0,0,181.361,114.891Z" fill="#d1e1f2"/>
          <path id="Trazado_3566" data-name="Trazado 3566" d="M177.532,117.24l-1.8-1.054a.749.749,0,0,0-.756,0l-1.758,1.014a.375.375,0,0,0-.008.644l1.747,1.072a.752.752,0,0,0,.77.011l1.8-1.038A.374.374,0,0,0,177.532,117.24Z" fill="#d1e1f2"/>
          <path id="Trazado_3567" data-name="Trazado 3567" d="M173.359,119.7l-1.8-1.053a.753.753,0,0,0-.757,0l-1.757,1.015a.374.374,0,0,0-.009.643l1.748,1.073a.754.754,0,0,0,.769.011l1.8-1.039A.374.374,0,0,0,173.359,119.7Z" fill="#d1e1f2"/>
          <path id="Trazado_3568" data-name="Trazado 3568" d="M169.586,121.744l-1.8-1.054a.756.756,0,0,0-.757,0l-1.757,1.015a.374.374,0,0,0-.009.643l1.748,1.073a.752.752,0,0,0,.769.01l1.8-1.038A.374.374,0,0,0,169.586,121.744Z" fill="#d1e1f2"/>
        </g>
      </g>
      <g id="Grupo_1624" data-name="Grupo 1624">
        <g id="Grupo_1619" data-name="Grupo 1619">
          <path id="Trazado_3569" data-name="Trazado 3569" d="M209.186,110.271a.928.928,0,0,0,.869-.6l2.033-5.465a3.85,3.85,0,0,0-.6-3.738l-2.064-2.569a.927.927,0,0,0-1.445,1.163l2.063,2.567a1.987,1.987,0,0,1,.313,1.93l-2.033,5.465a.928.928,0,0,0,.546,1.193A.915.915,0,0,0,209.186,110.271Z" fill="#3c5185"/>
        </g>
        <path id="Trazado_3570" data-name="Trazado 3570" d="M204.056,136.541l-1.1-.645V135.4l-1.144-.165-2.585-1.5a.879.879,0,0,1,.14-1.587h0a1.941,1.941,0,0,1,1.515.079l1.989.967,2.755,1.013-.057,1a1.406,1.406,0,0,1-1.4,1.326Z" fill="#3c5185"/>
        <path id="Trazado_3571" data-name="Trazado 3571" d="M204.486,136.22h-.108l-1.1-.646v-.5l-1.144-.165-2.585-1.5a.872.872,0,0,1-.318-1.191.873.873,0,0,0,0,1.513l2.585,1.5,1.144.165v.495l1.1.645h.109a1.4,1.4,0,0,0,1.147-.6A1.4,1.4,0,0,1,204.486,136.22Z" fill="#48486a"/>
        <path id="Trazado_3572" data-name="Trazado 3572" d="M208.275,133.656l-1.1-.645v-.495l-1.144-.165-2.585-1.5a.879.879,0,0,1,.14-1.587h0a1.941,1.941,0,0,1,1.515.079l1.989.967,2.755,1.013-.057,1.005a1.406,1.406,0,0,1-1.4,1.326Z" fill="#3c5185"/>
        <path id="Trazado_3573" data-name="Trazado 3573" d="M208.705,133.334H208.6l-1.1-.645v-.495l-1.144-.165-2.585-1.5a.872.872,0,0,1-.318-1.191.873.873,0,0,0,0,1.513l2.585,1.5,1.144.165v.495l1.1.645h.108a1.405,1.405,0,0,0,1.148-.6A1.4,1.4,0,0,1,208.705,133.334Z" fill="#48486a"/>
        <g id="Grupo_1620" data-name="Grupo 1620">
          <path id="Trazado_3574" data-name="Trazado 3574" d="M208.4,132.341c-.8,0-1.448-.326-1.448-1.126l-.8-21.45c0-.8,1.452-1.448,2.252-1.448a1.448,1.448,0,0,1,1.448,1.448v21.45C209.844,132.015,209.2,132.341,208.4,132.341Z" fill="url(#linear-gradient-3)"/>
        </g>
        <g id="Grupo_1621" data-name="Grupo 1621">
          <path id="Trazado_3575" data-name="Trazado 3575" d="M204.276,134.808c-.747,0-1.381-.092-1.442-.85l-1.277-12.548.008-.108,1.268-11.755a1.443,1.443,0,0,1,1.543-1.346c.8.055,3.41.766,3.356,1.564L205.3,121.41l.42,12.317c.064.8-.531,1.012-1.328,1.076C204.354,134.806,204.315,134.808,204.276,134.808Z" fill="url(#linear-gradient-4)"/>
        </g>
        <g id="Grupo_1622" data-name="Grupo 1622">
          <path id="Trazado_3576" data-name="Trazado 3576" d="M210.037,101.625l-2.063-2.567a.927.927,0,0,1,1.445-1.163l1.11,1.383a25.12,25.12,0,0,1-.122,3.135A1.969,1.969,0,0,0,210.037,101.625Z" fill="#48486a" opacity="0.3"/>
          <path id="Trazado_3577" data-name="Trazado 3577" d="M210.055,109.667a.928.928,0,0,1-.869.6.915.915,0,0,1-.323-.058.928.928,0,0,1-.546-1.193l1.929-5.185c-.029.213-.048.338-.048.338l.06,4.95Z" fill="#48486a" opacity="0.3"/>
        </g>
        <path id="Trazado_3578" data-name="Trazado 3578" d="M209.975,98.172a1.878,1.878,0,0,0-2.7-1.611h0c-.131.076-.261.155-.388.236-3.5,2.233-4.3,5.138-4.3,8.276l.065,2.655-.483,9.5c.247.164,2.791-.639,4.385-.994.267-.059.807-2.513.807-2.513s.506,2.181.753,2.106c1.4-.425,1.547-.331,1.858-.948l-.241-10.7A26.451,26.451,0,0,0,209.975,98.172Z" fill="url(#linear-gradient-5)"/>
        <path id="Trazado_3579" data-name="Trazado 3579" d="M207.023,98.477h0a.708.708,0,0,1-.708-.708V94.494h1.417v3.275A.709.709,0,0,1,207.023,98.477Z" fill="#f2b1b5"/>
        <path id="Trazado_3580" data-name="Trazado 3580" d="M208.7,97.118h0c-2.363,0-4.279-.988-4.279-3.352v-2.76H208.7Z" fill="#f2b1b5"/>
        <path id="Trazado_3581" data-name="Trazado 3581" d="M210.1,94.15c-.007-.159-.011-.318-.008-.477a11.4,11.4,0,0,0-.031-1.857,2.386,2.386,0,0,0-1.215-1.882,3.261,3.261,0,0,0-1.377-.19l-2.849.018a2.2,2.2,0,0,0-1.233.258c-.672.454-.341,1.321.062,1.839a2.361,2.361,0,0,0,.812.691c.309.148.833.024,1.033.337.276.432-.246,1.809.356,1.976.465.13.4-.353.477-.621a.429.429,0,0,1,.348-.346c.22-.01.365.231.406.446a4.2,4.2,0,0,1-.1,1.293,1.367,1.367,0,0,0,.316,1.211,1.275,1.275,0,0,0,.408.222c.431.157,1.219.347,1.616.035a2.207,2.207,0,0,0,.988-1.631A10.416,10.416,0,0,0,210.1,94.15Z" fill="#3c5185"/>
        <path id="Trazado_3582" data-name="Trazado 3582" d="M202.655,107.728l-.065-2.655a10.864,10.864,0,0,1,.75-4.271l.891-1.214a.928.928,0,0,1,1.3-.2c.413.3.348.558.045.971l-2.046,3.322a3.408,3.408,0,0,0-.349,3.46c.375.808.8,1.594,1.1,2.432l.7,1.92c.332.39-1.053-.114-1.269-.367l-1.1-1.526Z" fill="#48486a" opacity="0.3"/>
        <path id="Trazado_3583" data-name="Trazado 3583" d="M202.8,111.745a1.088,1.088,0,1,0,1.088-1.088A1.088,1.088,0,0,0,202.8,111.745Z" fill="#f2b1b5"/>
        <path id="Trazado_3584" data-name="Trazado 3584" d="M202.524,111.836a.473.473,0,1,0,.473-.474A.473.473,0,0,0,202.524,111.836Z" fill="#f2b1b5"/>
        <g id="Grupo_1623" data-name="Grupo 1623">
          <path id="Trazado_3585" data-name="Trazado 3585" d="M203.5,111.836a.89.89,0,0,0,.753-1.363l-1.886-3.011a3.275,3.275,0,0,1,.445-4.052l2.506-2.54a.89.89,0,1,0-1.267-1.25l-2.506,2.541a5.047,5.047,0,0,0-.686,6.247l1.886,3.011A.891.891,0,0,0,203.5,111.836Z" fill="#f2b1b5"/>
        </g>
        <path id="Trazado_3586" data-name="Trazado 3586" d="M202.021,110.739l-1.131-2.185a5.259,5.259,0,0,1,.716-6.509l2.61-2.647a.927.927,0,0,1,1.321,1.3l-2.611,2.647a3.411,3.411,0,0,0-.464,4.222l1.682,2.393C204.416,110.4,202.2,111.02,202.021,110.739Z" fill="url(#linear-gradient-6)"/>
      </g>
      <path id="Trazado_3587" data-name="Trazado 3587" d="M181.2,90.143c.171,0,.344,0,.515-.013l7.142-.234a1.592,1.592,0,0,0,1.568-1.3,4.034,4.034,0,0,0-1.268-.072,2.148,2.148,0,0,0,.4-1.248l-.173-.7a2.2,2.2,0,0,0-1.24-.331l-1.872.061.339-.656a.731.731,0,0,0-.369-.944.7.7,0,0,0-.969.218l-.744,1.439L181,86.481a10.246,10.246,0,0,1-9.006-4.821l-2.478-3.989-.817-2.837a5.386,5.386,0,0,0-2.3-3.012l.066-.474a3.621,3.621,0,0,1,.131-.634l.061-.036a.5.5,0,0,0,.236-.473,3.749,3.749,0,0,0,.3-.37,2.571,2.571,0,0,0,.26-1.545,40.118,40.118,0,0,1-.2-4.661c.077-1.1.753-2.455.442-3.586a3.791,3.791,0,0,0-1.323-1.916l-.033-.218a4.194,4.194,0,0,0-.559-1.524l-13.43,7.754a11.293,11.293,0,0,1,.25,1.541,15.683,15.683,0,0,1-.543,4.681,26.551,26.551,0,0,1-.948,3.059c-.28.731-.638,1.426-.92,2.156a12.558,12.558,0,0,0,.566,9.812,3.5,3.5,0,0,0,.953,1.331,2.667,2.667,0,0,0,1.487.5,2.939,2.939,0,0,0,.338.008c.577,7.2,2.045,16.193,2.33,17.9l1.272-.766,3.4-2.046h0l11.91-7.176c-.212-.733-.437-1.452-.671-2.112-.733-2.074-.45-4.459-.243-6.558A14.768,14.768,0,0,0,181.2,90.143Z" fill="#3c5185" opacity="0.3"/>
      <g id="Grupo_1632" data-name="Grupo 1632">
        <g id="Grupo_1625" data-name="Grupo 1625">
          <path id="Trazado_3588" data-name="Trazado 3588" d="M173.006,56.853h-1.254v-.244a2.753,2.753,0,0,0-4.093-2.4l-.61-1.1a4.005,4.005,0,0,1,5.957,3.5Z" fill="#3c5185"/>
        </g>
        <path id="Trazado_3589" data-name="Trazado 3589" d="M165.533,61.271a15.283,15.283,0,0,1,.794-1.814,11.058,11.058,0,0,1,1.728-2.783c1.9-2.021,5.634-.6,5.953,2.139.135,1.164-.721,2.556-.958,3.686a43.975,43.975,0,0,0-.494,4.8,3.039,3.039,0,0,1-.481,1.588c-.163.213-.379.383-.537.6a2.893,2.893,0,0,0-.39.953q-.372,1.352-.745,2.705a6.412,6.412,0,0,1-1.543,3.154,2.212,2.212,0,0,1-3.154,0,2.937,2.937,0,0,1-.414-.986,19.48,19.48,0,0,1-.526-7.515C165.024,65.732,164.873,63.223,165.533,61.271Z" fill="url(#linear-gradient-7)"/>
        <g id="Grupo_1626" data-name="Grupo 1626">
          <path id="Trazado_3590" data-name="Trazado 3590" d="M182.68,89.854A12.1,12.1,0,0,1,171.554,82.6l-2.692-6.1a1.881,1.881,0,1,1,3.441-1.52l2.692,6.1a8.355,8.355,0,0,0,8.036,5.01l6.97-.2a1.881,1.881,0,0,1,.152,3.758l-6.971.2C183.014,89.85,182.846,89.854,182.68,89.854Z" fill="#f2b1b5"/>
        </g>
        <path id="Trazado_3591" data-name="Trazado 3591" d="M173.1,92.777c-.5-2.637.575-5.762,1.057-8.21a4.257,4.257,0,0,0,.41-3.971l-1.348-3.328-.415-3.233a4.668,4.668,0,0,0-7.4-3.163L158.991,75.6c-1.505,1.11-1.712,2.964-2.051,4.8-1.272,6.911-1.109,22.4-1.077,24.734l17.575-10.182C173.34,94.2,173.228,93.457,173.1,92.777Z" fill="url(#linear-gradient-8)"/>
        <path id="Trazado_3592" data-name="Trazado 3592" d="M168.192,82.731s3-4.5,0-12.331c-.4-1.056-2-4.055-2-4.055l-4.459.575.773,5.989C162.662,74.141,164.511,82.542,168.192,82.731Z" fill="#f2b1b5"/>
        <path id="Trazado_3593" data-name="Trazado 3593" d="M164.734,89.531c5.26-2.641,3.661-3.711,4.3-3.816,1.385-.227,1.331.407,3.977-.9a3.257,3.257,0,0,0,1.716-2.952v.963a3.4,3.4,0,0,1-1.716,2.951l-2.171.948a15.628,15.628,0,0,0-2.394,1.3l-3.709,2.46a2.056,2.056,0,0,1-3.074-1.787v-.962A2.073,2.073,0,0,0,164.734,89.531Z" fill="#2d3d64" opacity="0.3"/>
        <path id="Trazado_3594" data-name="Trazado 3594" d="M162.3,71.311l.38-4.513,3.512-.453s1.6,3,2,4.055c.158.412.594,1.76.72,2.154l-.018,0a6.392,6.392,0,0,1-2.816-.185l-3.78-1.061Z" fill="#ef9ea3"/>
        <path id="Trazado_3595" data-name="Trazado 3595" d="M160.6,99.742a44.5,44.5,0,0,1-.029-7.06l.718-9.476a1.881,1.881,0,1,0-3.751-.284L156.82,92.4a48.345,48.345,0,0,0,.031,7.658l.361,4.3,3.6-2.086Z" fill="#f2b1b5"/>
        <path id="Trazado_3596" data-name="Trazado 3596" d="M162.3,71.311l4.388-.565c4.838-.624,6.054-4.768,5.43-9.606h0a3.462,3.462,0,0,0-3.876-2.991l-7.515.969Z" fill="#f2b1b5"/>
        <g id="Grupo_1627" data-name="Grupo 1627">
          <path id="Trazado_3597" data-name="Trazado 3597" d="M159.341,91.015A2.281,2.281,0,0,0,161.406,89l.667-6.058a2.278,2.278,0,1,0-4.527-.521l-.668,6.058a2.282,2.282,0,0,0,2.463,2.531Z" fill="url(#linear-gradient-8)"/>
        </g>
        <path id="Trazado_3598" data-name="Trazado 3598" d="M157.3,69.339a18.3,18.3,0,0,0,1.218-4.812c.185-2.728-1.037-5.43,1.245-7.633,1.642-1.585,4.154-1.745,6.436-1.767,1.529-.016,5.366-.741,6.18,1.175a1.8,1.8,0,0,1,.086.82,6.232,6.232,0,0,1-1.5,3.932c-.65.684-1.568,1.106-2.171,1.831-.713.858-.485,2.1-1.107,3.048A13.779,13.779,0,0,1,165,69.146c-2.355,1.921-2,3.307-1.982,6.272.018,2.634-.13,5.642-2.164,7.315a5.32,5.32,0,0,0-.726.629,5.882,5.882,0,0,0-.643,1.247,3.845,3.845,0,0,1-3.221,2.1,2.359,2.359,0,0,1-1.716-.538,3.026,3.026,0,0,1-.729-1.374,13.727,13.727,0,0,1,.9-10.1c.382-.75.832-1.462,1.211-2.213A32.724,32.724,0,0,0,157.3,69.339Z" fill="url(#linear-gradient-10)"/>
        <path id="Trazado_3599" data-name="Trazado 3599" d="M172.377,56.3c-.536-1.262-2.383-1.377-4.019-1.3,1.285.047,2.494.334,2.91,1.314a1.8,1.8,0,0,1,.086.82,6.229,6.229,0,0,1-1.5,3.933c-.65.684-1.568,1.1-2.171,1.831-.713.857-.485,2.1-1.107,3.047a13.739,13.739,0,0,1-2.69,3.213c-2.355,1.922-2,3.307-1.982,6.272.018,2.635-.129,5.642-2.164,7.316a5.312,5.312,0,0,0-.726.628,5.881,5.881,0,0,0-.643,1.247,3.856,3.856,0,0,1-2.738,2.041,3.064,3.064,0,0,0,.626.045,3.845,3.845,0,0,0,3.221-2.1,5.882,5.882,0,0,1,.643-1.247,5.32,5.32,0,0,1,.726-.629c2.035-1.673,2.182-4.681,2.164-7.315-.02-2.965-.373-4.351,1.982-6.272a13.779,13.779,0,0,0,2.69-3.213c.622-.947.394-2.19,1.107-3.048.6-.725,1.521-1.147,2.171-1.831a6.232,6.232,0,0,0,1.5-3.932A1.813,1.813,0,0,0,172.377,56.3Z" fill="#ffcd39"/>
        <g id="Grupo_1628" data-name="Grupo 1628">
          <path id="Trazado_3600" data-name="Trazado 3600" d="M163.551,66.855H162.3V61.2a9.264,9.264,0,0,1,4.751-8.088l.61,1.1a8.01,8.01,0,0,0-4.108,6.993Z" fill="#3c5185"/>
        </g>
        <g id="Grupo_1629" data-name="Grupo 1629">
          <path id="Trazado_3601" data-name="Trazado 3601" d="M168.608,70.538a1.958,1.958,0,0,1-.978-.261l-3.178-1.835.235-.407,3.178,1.835a1.491,1.491,0,0,0,1.485,0l1.31-.757.235.407-1.309.757A1.958,1.958,0,0,1,168.608,70.538Z" fill="#3c5185"/>
        </g>
        <g id="Grupo_1630" data-name="Grupo 1630">
          <path id="Trazado_3602" data-name="Trazado 3602" d="M162.924,62.148c-1.42-.82-2.583-.149-2.583,1.492a5.734,5.734,0,0,0,2.583,4.474c1.421.82,2.584.149,2.584-1.492A5.731,5.731,0,0,0,162.924,62.148Z" fill="#3c5185"/>
          <path id="Trazado_3603" data-name="Trazado 3603" d="M162.924,62.148a1.655,1.655,0,0,0-2.061.018,2.115,2.115,0,0,1,1.378.324,5.733,5.733,0,0,1,2.583,4.474,1.984,1.984,0,0,1-.522,1.474c.721-.114,1.206-.761,1.206-1.816A5.731,5.731,0,0,0,162.924,62.148Z" fill="url(#linear-gradient-11)"/>
          <path id="Trazado_3604" data-name="Trazado 3604" d="M162.583,63.83c-.783-.452-1.423-.082-1.423.821a3.156,3.156,0,0,0,1.423,2.465c.782.452,1.423.082,1.423-.822A3.159,3.159,0,0,0,162.583,63.83Z" fill="#4a65a3"/>
          <path id="Trazado_3605" data-name="Trazado 3605" d="M162.583,63.83a.911.911,0,0,0-1.136.009,1.173,1.173,0,0,1,.759.179,3.156,3.156,0,0,1,1.423,2.465,1.1,1.1,0,0,1-.287.812c.4-.063.664-.419.664-1A3.159,3.159,0,0,0,162.583,63.83Z" fill="url(#linear-gradient-12)"/>
        </g>
        <g id="Grupo_1631" data-name="Grupo 1631">
          <path id="Trazado_3606" data-name="Trazado 3606" d="M170.334,70.285a.627.627,0,0,1-.314-1.17l.787-.454a.627.627,0,0,1,.627,1.086l-.787.455A.625.625,0,0,1,170.334,70.285Z" fill="#3c5185"/>
        </g>
        <path id="Trazado_3607" data-name="Trazado 3607" d="M186.317,87.552h0a.706.706,0,0,1-.219-.973l1.311-2.069a.706.706,0,0,1,.973-.219h0a.7.7,0,0,1,.218.973l-1.31,2.07A.7.7,0,0,1,186.317,87.552Z" fill="#f2b1b5"/>
      </g>
      <g id="Grupo_1634" data-name="Grupo 1634">
        <path id="Trazado_3608" data-name="Trazado 3608" d="M184.465,82.185a10.527,10.527,0,0,1,9.491,0c2.61,1.507,2.61,3.973,0,5.48a10.531,10.531,0,0,1-9.491,0C181.855,86.158,181.855,83.692,184.465,82.185Z" fill="url(#radial-gradient)" style="mix-blend-mode: multiply;isolation: isolate"/>
        <g id="Grupo_1633" data-name="Grupo 1633">
          <path id="Trazado_3609" data-name="Trazado 3609" d="M190.6,84.491l-.27.226H187.97l-.256-.236a3.67,3.67,0,0,1-1.186-2.7V80.751h5.391v.922A3.672,3.672,0,0,1,190.6,84.491Z" fill="#3c5185"/>
          <path id="Trazado_3610" data-name="Trazado 3610" d="M189.567,85.439h-.881a.784.784,0,0,1-.784-.784h2.449A.784.784,0,0,1,189.567,85.439Z" fill="#3c5185"/>
          <path id="Trazado_3611" data-name="Trazado 3611" d="M191.119,79.655a4.224,4.224,0,0,0-3.806,0,1.162,1.162,0,0,0,0,2.2,4.217,4.217,0,0,0,3.806,0A1.162,1.162,0,0,0,191.119,79.655Z" fill="#2842a2"/>
          <path id="Trazado_3612" data-name="Trazado 3612" d="M189.224,70.636a4.927,4.927,0,0,0-2.694,9.053V80.8h0a1.389,1.389,0,0,0,.8,1.061,4.23,4.23,0,0,0,3.794-.007A1.341,1.341,0,0,0,191.9,80.8h.018V79.689a4.927,4.927,0,0,0-2.7-9.053Z" opacity="0.83" fill="url(#linear-gradient-13)"/>
          <path id="Trazado_3613" data-name="Trazado 3613" d="M186.468,76.1a3.222,3.222,0,0,1,3.223-3.222c1.648,0,1.52-1.374-.58-1.374a3.8,3.8,0,0,0-3.8,3.8C185.308,76.641,186.468,77.232,186.468,76.1Z" fill="#fff"/>
          <path id="Trazado_3614" data-name="Trazado 3614" d="M191.126,82.288a4.23,4.23,0,0,1-3.794.007,1.391,1.391,0,0,1-.8-1.061V81.6a1.391,1.391,0,0,0,.8,1.061,4.23,4.23,0,0,0,3.794-.007A1.341,1.341,0,0,0,191.9,81.6h.018v-.369H191.9A1.341,1.341,0,0,1,191.126,82.288Z" fill="#6e84b5" opacity="0.49"/>
          <path id="Trazado_3615" data-name="Trazado 3615" d="M191.112,83.36a4.23,4.23,0,0,1-3.794.007,1.8,1.8,0,0,1-.648-.593,3.639,3.639,0,0,0,.273.691,2.219,2.219,0,0,0,.375.271,4.227,4.227,0,0,0,3.794-.007,2.225,2.225,0,0,0,.31-.217,3.636,3.636,0,0,0,.329-.754A1.692,1.692,0,0,1,191.112,83.36Z" fill="#6e84b5" opacity="0.49"/>
          <path id="Trazado_3616" data-name="Trazado 3616" d="M189.207,70.228h0a.4.4,0,0,1-.4-.4l.015-3.079a.4.4,0,0,1,.4-.4h0a.4.4,0,0,1,.4.4l-.015,3.079A.4.4,0,0,1,189.207,70.228Zm3.29.583,1.555-2.657a.4.4,0,1,0-.693-.406L191.8,70.406a.4.4,0,1,0,.693.4Zm2.008,2.3,2.677-1.521a.4.4,0,1,0-.4-.7l-2.677,1.521a.4.4,0,1,0,.4.7Zm-10-.182a.4.4,0,0,0-.138-.551l-2.643-1.58a.4.4,0,0,0-.413.689l2.643,1.581a.408.408,0,0,0,.206.057A.4.4,0,0,0,184.505,72.927Zm2.023-1.99a.4.4,0,0,0,.156-.546l-1.5-2.692a.4.4,0,0,0-.7.39l1.5,2.692a.4.4,0,0,0,.351.207A.406.406,0,0,0,186.528,70.937Z" fill="url(#linear-gradient-13)"/>
        </g>
      </g>
      <g id="Grupo_1638" data-name="Grupo 1638">
        <g id="Grupo_1635" data-name="Grupo 1635">
          <path id="Trazado_3617" data-name="Trazado 3617" d="M222.844,76.112A15.23,15.23,0,0,1,215.979,88a5.228,5.228,0,0,1-4.227.74l-1.534.689a.375.375,0,0,1-.525-.4l.255-1.7a6,6,0,0,1-.834-3.292,15.233,15.233,0,0,1,6.865-11.891C219.755,69.968,222.844,71.752,222.844,76.112Z" fill="url(#linear-gradient-15)"/>
          <path id="Trazado_3618" data-name="Trazado 3618" d="M210.91,88.053a6,6,0,0,1-.833-3.293,15.228,15.228,0,0,1,6.865-11.89c1.8-1.042,3.446-1.17,4.674-.553-1.243-1.346-3.308-1.513-5.637-.169a15.233,15.233,0,0,0-6.865,11.891,6,6,0,0,0,.834,3.292l-.255,1.7a.375.375,0,0,0,.525.4l.52-.233Z" fill="url(#linear-gradient-16)"/>
        </g>
        <g id="Grupo_1637" data-name="Grupo 1637">
          <g id="Grupo_1636" data-name="Grupo 1636">
            <path id="Trazado_3619" data-name="Trazado 3619" d="M216.819,81.86l-.984.552.024-.782a2.786,2.786,0,0,1,.088-.681,5.918,5.918,0,0,1,.3-.741l.463-.978a1.485,1.485,0,0,0,.112-.54.73.73,0,0,0-.089-.438.178.178,0,0,0-.265-.046.746.746,0,0,0-.288.393,2.463,2.463,0,0,0-.159.7L215,79.876a5.234,5.234,0,0,1,.523-1.9,2.658,2.658,0,0,1,1.024-1.161q.6-.34.968-.019a1.6,1.6,0,0,1,.333,1.259,2.742,2.742,0,0,1-.083.657c-.048.16-.081.275-.1.344a3.038,3.038,0,0,1-.128.334c-.066.153-.111.254-.133.3l-.309.636a3.258,3.258,0,0,0-.195.463,1.75,1.75,0,0,0-.058.449Zm-.944,2.486a.79.79,0,0,1-.144-.561,1.826,1.826,0,0,1,.184-.745,1.074,1.074,0,0,1,.413-.493.29.29,0,0,1,.4.039.784.784,0,0,1,.145.56,1.8,1.8,0,0,1-.185.745,1.071,1.071,0,0,1-.412.494A.292.292,0,0,1,215.875,84.346Z" fill="#fff"/>
          </g>
        </g>
      </g>
      <g id="Grupo_1640" data-name="Grupo 1640">
        <path id="Trazado_3620" data-name="Trazado 3620" d="M162.028,36.78l2.218,10.855a1.431,1.431,0,0,1-.664,1.594l-1.587,1.027-1.011,3.632c-.046.54-.64.786-1.227.508l-2.418-1.449-13.81,7.87a1.4,1.4,0,0,1-1.89-.984L139.388,48.82a1.434,1.434,0,0,1,.666-1.6l20.093-11.434A1.4,1.4,0,0,1,162.028,36.78Z" fill="#7ea7df"/>
        <g id="Grupo_1639" data-name="Grupo 1639">
          <path id="Trazado_3621" data-name="Trazado 3621" d="M142.542,60.254l-2.25-11.013a1.432,1.432,0,0,1,.665-1.6L161.05,36.212a1.007,1.007,0,0,1,.575-.117,1.3,1.3,0,0,0-1.478-.3L140.054,47.225a1.434,1.434,0,0,0-.666,1.6l2.251,11.013a1.485,1.485,0,0,0,1.3,1.106A1.325,1.325,0,0,1,142.542,60.254Z" fill="url(#linear-gradient-17)"/>
        </g>
        <path id="Trazado_3622" data-name="Trazado 3622" d="M142.082,49.525l18.833-10.671.261,1.276L142.343,50.8Z" fill="#fff"/>
        <path id="Trazado_3623" data-name="Trazado 3623" d="M142.759,52.841,161.592,42.17l.261,1.276L143.02,54.117Z" fill="#fff"/>
        <path id="Trazado_3624" data-name="Trazado 3624" d="M143.437,56.156,154.19,50l.261,1.277L143.7,57.433Z" fill="#fff"/>
      </g>
      <g id="Grupo_1643" data-name="Grupo 1643">
        <path id="Trazado_3625" data-name="Trazado 3625" d="M181.875,140.618a13.885,13.885,0,0,1,12.513,0c3.441,1.987,3.441,5.238,0,7.225a13.878,13.878,0,0,1-12.513,0C178.433,145.856,178.433,142.6,181.875,140.618Z" fill="url(#radial-gradient-2)" style="mix-blend-mode: multiply;isolation: isolate"/>
        <g id="Grupo_1642" data-name="Grupo 1642">
          <path id="Trazado_3626" data-name="Trazado 3626" d="M196.681,141.227c0-.181-.257-.328-.572-.328h-1.22c-.2,0-.537.212-.587.148-.084-.105-.054-.229.089-.312l.863-.5c.223-.129-1.2-.069-1.419-.2l.012-1.076a.9.9,0,0,0-.808,0l-.869.5a.751.751,0,0,1-.521.057c-.124-.031-.258-.061-.373-.087-.181-.041-.3-.141-.3-.253v-.709c0-.182-.256-.329-.572-.329h-1.988c-.315,0-.571.147-.571.329v.7c0,.116-.13.216-.319.257-.12.026-.238.054-.354.085a.76.76,0,0,1-.542-.051l-.866-.495a.9.9,0,0,0-.808,0l-.1,1.171c-.222.129-1.52-.022-1.3.106l.872.5c.137.078.176.2.1.3-.053.071-.4-.139-.589-.139l-1.233,0c-.316,0-.571.148-.57.329l0,1.671c0,.181.257.328.573.328h.715l-.017,1.379a.194.194,0,0,0,0,.072h0a.3.3,0,0,0,.163.2l1.409.807a.859.859,0,0,0,.5.085l.009.005v-.006a.779.779,0,0,0,.3-.085l.868-.5a.742.742,0,0,1,.52-.058c.124.03.258.061.374.087.18.04.3.14.3.252l0,.709c0,.182.257.329.572.329l1.988,0c.316,0,.571-.148.571-.33l0-.7c0-.116.13-.216.319-.257.114-.025.226-.052.337-.081a.765.765,0,0,1,.542.051l.864.5a.778.778,0,0,0,.3.084v.01l.015-.008a.857.857,0,0,0,.5-.086l1.4-.81a.307.307,0,0,0,.159-.19l.007,0v-.048l-.018-1.411h.7c.316,0,.572-.147.571-.329Zm-4.5,1.394c-.331,1.012-2.151,1.583-3.788,1.22-1.244-.276-2-1.05-1.755-1.8.331-1.012,2.151-1.583,3.788-1.22C191.672,141.094,192.429,141.868,192.183,142.621Z" fill="#2d3d64"/>
          <path id="Trazado_3627" data-name="Trazado 3627" d="M195.427,139.326l-.006-.9h-1.288l-.286-.164a.9.9,0,0,0-.808,0l-.286.164h-1.776v-.655c0-.182-.256-.329-.572-.329h-1.988c-.315,0-.571.147-.571.329v.655H186.04l-.275-.157a.9.9,0,0,0-.808,0l-.27.156h-1.3v.878a.273.273,0,0,0,.167.242l.872.5,9.961-.013.863-.5a.291.291,0,0,0,.163-.212Z" fill="#2d3d64"/>
          <g id="Grupo_1641" data-name="Grupo 1641">
            <path id="Trazado_3628" data-name="Trazado 3628" d="M194.552,141.648h1.559c.316,0,.572-.147.571-.329v-1.144c0-.181-.257-.328-.572-.328h-1.22a.541.541,0,0,1-.447-.183c-.043-.066-.09-.131-.14-.194-.084-.106-.054-.23.089-.312l.863-.5a.245.245,0,0,0,0-.465l-1.406-.809a.9.9,0,0,0-.808,0l-.869.5a.745.745,0,0,1-.521.057c-.124-.03-.258-.061-.373-.087-.181-.041-.3-.141-.3-.252v-.71c0-.181-.256-.329-.572-.329h-1.988c-.315,0-.571.148-.571.329v.7c0,.117-.13.216-.319.257-.12.026-.238.054-.354.085a.76.76,0,0,1-.542-.05l-.866-.5a.9.9,0,0,0-.808,0l-1.4.811a.245.245,0,0,0,0,.465l.872.5c.137.078.176.2.1.3-.053.072-.106.149-.151.215a.542.542,0,0,1-.438.173h-1.233c-.316,0-.571.148-.57.33l0,1.144c0,.182.257.328.573.328l1.22,0a.538.538,0,0,1,.447.184c.043.065.09.13.141.193.084.106.054.23-.088.312l-.862.5a.245.245,0,0,0,0,.465l1.409.807a.892.892,0,0,0,.808,0l.868-.5a.747.747,0,0,1,.52-.058c.124.03.258.061.373.087.181.041.3.141.3.252l0,.71c0,.181.257.328.572.328l1.988,0c.316,0,.571-.148.571-.329l0-.7c0-.117.13-.217.319-.258.114-.025.226-.051.337-.08a.76.76,0,0,1,.542.051l.864.5a.9.9,0,0,0,.808,0l1.4-.81a.245.245,0,0,0,0-.465l-.871-.5c-.137-.078-.176-.2-.1-.3C194.416,141.864,194.546,141.66,194.552,141.648Zm-7.912-1.19c.331-1.011,2.151-1.583,3.788-1.22,1.244.276,2,1.05,1.755,1.8-.331,1.011-2.151,1.582-3.788,1.219C187.151,141.986,186.394,141.211,186.64,140.458Z" fill="#3c5185"/>
          </g>
        </g>
      </g>
      <g id="Grupo_1646" data-name="Grupo 1646">
        <g id="Grupo_1644" data-name="Grupo 1644">
          <path id="Trazado_3629" data-name="Trazado 3629" d="M158.716,147.883l11.552-6.67v-.156l-16.627-9-8.74,7.8Z" fill="#63749d"/>
          <path id="Trazado_3630" data-name="Trazado 3630" d="M158.716,147.728l11.552-6.67L153.641,131.9l-8.74,7.8Z" fill="#3c5185"/>
          <path id="Trazado_3631" data-name="Trazado 3631" d="M158.249,147.572,169.8,140.9l.078-2.122-16.705-7.192-8.74,7.8Z" fill="#f1f2f2"/>
          <path id="Trazado_3632" data-name="Trazado 3632" d="M151.785,128.031l18.483,10.515v.156l-11.552,6.67L140.233,134.7Z" fill="#63749d"/>
          <path id="Trazado_3633" data-name="Trazado 3633" d="M151.785,127.875l18.483,10.671-11.552,6.67-18.483-10.671Z" fill="#3c5185"/>
          <path id="Trazado_3634" data-name="Trazado 3634" d="M154.193,130.369l5.192,2.987-9.292,5.365-5.192-2.987Z" fill="#fff"/>
          <path id="Trazado_3635" data-name="Trazado 3635" d="M140.389,134.622v2.6l18.327,10.666.156-.09v-2.5Z" fill="#63749d"/>
          <path id="Trazado_3636" data-name="Trazado 3636" d="M140.233,134.544v2.6l18.483,10.744v-2.668Z" fill="#3c5185"/>
        </g>
        <g id="Grupo_1645" data-name="Grupo 1645">
          <path id="Trazado_3637" data-name="Trazado 3637" d="M155.757,143.573l9.7-5.6v-.131l-13.965-7.561-7.341,6.548Z" fill="#e3edf7"/>
          <path id="Trazado_3638" data-name="Trazado 3638" d="M155.757,143.442l9.7-5.6-13.965-7.691-7.341,6.548Z" fill="#d1e1f2"/>
          <path id="Trazado_3639" data-name="Trazado 3639" d="M155.364,143.311l9.7-5.6.065-1.782-14.03-6.04-7.341,6.548Z" fill="#fff"/>
          <path id="Trazado_3640" data-name="Trazado 3640" d="M149.935,126.9l15.523,8.831v.131l-9.7,5.6L140.233,132.5Z" fill="#e3edf7"/>
          <path id="Trazado_3641" data-name="Trazado 3641" d="M149.935,126.768l15.523,8.962-9.7,5.6-15.523-8.962Z" fill="#d1e1f2"/>
          <path id="Trazado_3642" data-name="Trazado 3642" d="M151.958,128.863l4.361,2.508-7.8,4.506-4.361-2.509Z" fill="#fff"/>
          <path id="Trazado_3643" data-name="Trazado 3643" d="M140.364,132.435v2.18l15.392,8.958.131-.076v-2.1Z" fill="#e3edf7"/>
          <path id="Trazado_3644" data-name="Trazado 3644" d="M140.233,132.37v2.179l15.523,9.023v-2.24Z" fill="#dae7f5"/>
        </g>
      </g>
      <g id="Grupo_1647" data-name="Grupo 1647">
        <path id="Trazado_3645" data-name="Trazado 3645" d="M222.613,125.073a13.12,13.12,0,0,1,11.825,0c3.252,1.878,3.252,4.95,0,6.827a13.114,13.114,0,0,1-11.825,0C219.362,130.023,219.362,126.951,222.613,125.073Z" fill="url(#radial-gradient-3)" style="mix-blend-mode: multiply;isolation: isolate"/>
        <path id="Trazado_3646" data-name="Trazado 3646" d="M235,126.047h-.725a4.738,4.738,0,0,0-1.166-.921,10.176,10.176,0,0,0-9.169,0,4.757,4.757,0,0,0-1.166.921h-.725v1.713h0a3.208,3.208,0,0,0,1.89,2.66,10.169,10.169,0,0,0,9.169,0,3.206,3.206,0,0,0,1.89-2.66h0Z" fill="url(#linear-gradient-18)"/>
        <path id="Trazado_3647" data-name="Trazado 3647" d="M223.941,123.4a10.169,10.169,0,0,1,9.169,0c2.521,1.456,2.521,3.838,0,5.293a10.169,10.169,0,0,1-9.169,0C221.42,127.238,221.42,124.856,223.941,123.4Z" fill="#fff"/>
        <path id="Trazado_3648" data-name="Trazado 3648" d="M235,126.081v-1.487h-.5a4.4,4.4,0,0,0-1.387-1.194c-1.782-1.028-.585,2.9,0,5.293v1.726A3.249,3.249,0,0,0,235,127.831Z" fill="#ffda6a"/>
        <path id="Trazado_3649" data-name="Trazado 3649" d="M233.11,120.5a10.169,10.169,0,0,0-9.169,0l4.585,3.13Z" fill="url(#linear-gradient-19)"/>
        <path id="Trazado_3650" data-name="Trazado 3650" d="M223.941,120.5v2.9l4.584,3.131v-2.9Z" fill="url(#linear-gradient-20)"/>
        <path id="Trazado_3651" data-name="Trazado 3651" d="M228.526,123.626l4.584-3.131v2.9l-4.584,3.131Z" fill="#3c5185"/>
        <path id="Trazado_3652" data-name="Trazado 3652" d="M233.11,121.948c2.521,1.455,2.521,3.837,0,5.293l-4.584-2.163Z" fill="url(#linear-gradient-21)"/>
        <path id="Trazado_3653" data-name="Trazado 3653" d="M228.526,125.078v1.452l4.584,2.163v-1.452Z" fill="#ffcd39"/>
      </g>
      <g id="Grupo_1648" data-name="Grupo 1648">
        <path id="Trazado_3654" data-name="Trazado 3654" d="M221.645,89.579a14.005,14.005,0,0,1,12.627,0c3.473,2,3.473,5.285,0,7.291a14.012,14.012,0,0,1-12.627,0C218.172,94.864,218.172,91.584,221.645,89.579Z" fill="url(#radial-gradient-4)" style="mix-blend-mode: multiply;isolation: isolate"/>
        <path id="Trazado_3655" data-name="Trazado 3655" d="M234.223,91.254h-.714a4.656,4.656,0,0,0-1.149-.907,10.023,10.023,0,0,0-9.037,0,4.637,4.637,0,0,0-1.149.907h-.715v1.688h0a3.16,3.16,0,0,0,1.863,2.622,10.023,10.023,0,0,0,9.037,0,3.162,3.162,0,0,0,1.863-2.622h0Z" fill="url(#linear-gradient-8)"/>
        <path id="Trazado_3656" data-name="Trazado 3656" d="M223.323,88.645a10.03,10.03,0,0,1,9.037,0c2.485,1.435,2.485,3.783,0,5.218a10.03,10.03,0,0,1-9.037,0C220.838,92.428,220.838,90.08,223.323,88.645Z" fill="#4a65a3"/>
        <path id="Trazado_3657" data-name="Trazado 3657" d="M230.314,92.3c.089-.123.025-.263-.129-.33l-.1-.045a.514.514,0,0,0,.575-.133c.089-.123.025-.263-.129-.33l-.743-.327-.662-.291s.122-.069.277-.166l.1-.063.031-.02a2.981,2.981,0,0,0,.415-.311c.025-.024.074-.077.126-.134l.039-.044c.04-.044.078-.088.106-.123a.172.172,0,0,0,.026-.2.241.241,0,0,0-.111-.092.47.47,0,0,0-.441.052,3.024,3.024,0,0,1-.73.436c-.179.05-.846.225-.846.225l-.026-.011h0l-.27-.119.214-.21a.034.034,0,0,0-.012-.059l-.982-.432-1.326,1.3-.653.639.977.43.005,0a.088.088,0,0,0,.088-.015l0,0,.184-.18.17.074a.3.3,0,0,1,.047.027h0a.191.191,0,0,1,.036.033.154.154,0,0,1,.036.072l.07.366a.227.227,0,0,0,.143.158l1.324.582a.562.562,0,0,0,.514-.047.215.215,0,0,0-.03-.4l.3.134a.563.563,0,0,0,.515-.047.215.215,0,0,0-.031-.4l.323.142A.514.514,0,0,0,230.314,92.3Z" fill="#fff"/>
      </g>
      <g id="Grupo_1651" data-name="Grupo 1651">
        <g id="Grupo_1649" data-name="Grupo 1649" opacity="0.3">
          <path id="Trazado_3658" data-name="Trazado 3658" d="M128.788,137.218c3.367-1.933,3.367-5.1,0-7.028a13.575,13.575,0,0,0-12.208,0c-3.347,1.933-3.347,5.1,0,7.028A13.575,13.575,0,0,0,128.788,137.218Z" fill="#3c5185" opacity="0"/>
          <path id="Trazado_3659" data-name="Trazado 3659" d="M128.691,137.162c3.314-1.9,3.314-5.014,0-6.916a13.355,13.355,0,0,0-12.014,0c-3.294,1.9-3.294,5.014,0,6.916A13.355,13.355,0,0,0,128.691,137.162Z" fill="#3c5185" opacity="0.02"/>
          <path id="Trazado_3660" data-name="Trazado 3660" d="M128.6,137.107c3.259-1.872,3.259-4.934,0-6.806a13.149,13.149,0,0,0-11.821,0c-3.241,1.872-3.241,4.934,0,6.806A13.149,13.149,0,0,0,128.6,137.107Z" fill="#3c5185" opacity="0.039"/>
          <path id="Trazado_3661" data-name="Trazado 3661" d="M128.5,137.051c3.206-1.841,3.206-4.853,0-6.694a12.929,12.929,0,0,0-11.627,0c-3.188,1.841-3.188,4.853,0,6.694A12.929,12.929,0,0,0,128.5,137.051Z" fill="#3c5185" opacity="0.059"/>
          <path id="Trazado_3662" data-name="Trazado 3662" d="M128.4,136.995c3.153-1.81,3.153-4.772,0-6.582a12.715,12.715,0,0,0-11.433,0c-3.135,1.81-3.135,4.772,0,6.582A12.715,12.715,0,0,0,128.4,136.995Z" fill="#3c5185" opacity="0.078"/>
          <path id="Trazado_3663" data-name="Trazado 3663" d="M128.3,136.939c3.1-1.779,3.1-4.691,0-6.47a12.5,12.5,0,0,0-11.239,0c-3.082,1.779-3.082,4.691,0,6.47A12.5,12.5,0,0,0,128.3,136.939Z" fill="#3c5185" opacity="0.098"/>
          <path id="Trazado_3664" data-name="Trazado 3664" d="M128.208,136.884c3.046-1.749,3.046-4.611,0-6.36a12.289,12.289,0,0,0-11.046,0c-3.029,1.749-3.029,4.611,0,6.36A12.289,12.289,0,0,0,128.208,136.884Z" fill="#3c5185" opacity="0.118"/>
          <path id="Trazado_3665" data-name="Trazado 3665" d="M128.111,136.828c2.993-1.718,2.993-4.53,0-6.248a12.069,12.069,0,0,0-10.852,0c-2.976,1.718-2.976,4.53,0,6.248A12.069,12.069,0,0,0,128.111,136.828Z" fill="#3c5185" opacity="0.137"/>
          <path id="Trazado_3666" data-name="Trazado 3666" d="M128.014,136.772c2.94-1.687,2.94-4.449,0-6.136a11.849,11.849,0,0,0-10.658,0c-2.923,1.687-2.923,4.449,0,6.136A11.849,11.849,0,0,0,128.014,136.772Z" fill="#3c5185" opacity="0.157"/>
          <path id="Trazado_3667" data-name="Trazado 3667" d="M127.918,136.716c2.886-1.656,2.886-4.368,0-6.024a11.637,11.637,0,0,0-10.465,0c-2.87,1.656-2.87,4.368,0,6.024A11.637,11.637,0,0,0,127.918,136.716Z" fill="#3c5185" opacity="0.176"/>
          <path id="Trazado_3668" data-name="Trazado 3668" d="M127.821,136.661c2.832-1.627,2.832-4.288,0-5.914a11.423,11.423,0,0,0-10.271,0c-2.817,1.626-2.817,4.287,0,5.914A11.423,11.423,0,0,0,127.821,136.661Z" fill="#3c5185" opacity="0.196"/>
          <path id="Trazado_3669" data-name="Trazado 3669" d="M127.724,136.6c2.779-1.6,2.779-4.206,0-5.8a11.209,11.209,0,0,0-10.077,0c-2.764,1.6-2.764,4.206,0,5.8A11.209,11.209,0,0,0,127.724,136.6Z" fill="#3c5185" opacity="0.216"/>
          <path id="Trazado_3670" data-name="Trazado 3670" d="M127.627,136.549c2.726-1.565,2.726-4.125,0-5.69a10.989,10.989,0,0,0-9.883,0c-2.711,1.565-2.711,4.125,0,5.69A10.989,10.989,0,0,0,127.627,136.549Z" fill="#3c5185" opacity="0.235"/>
          <path id="Trazado_3671" data-name="Trazado 3671" d="M127.531,136.493c2.672-1.534,2.672-4.044,0-5.578a10.771,10.771,0,0,0-9.69,0c-2.658,1.534-2.658,4.044,0,5.578A10.771,10.771,0,0,0,127.531,136.493Z" fill="#3c5185" opacity="0.255"/>
          <path id="Trazado_3672" data-name="Trazado 3672" d="M127.434,136.438c2.619-1.5,2.619-3.964,0-5.468a10.563,10.563,0,0,0-9.5,0c-2.605,1.5-2.605,3.964,0,5.468A10.563,10.563,0,0,0,127.434,136.438Z" fill="#3c5185" opacity="0.275"/>
          <path id="Trazado_3673" data-name="Trazado 3673" d="M127.337,136.382c2.566-1.473,2.566-3.883,0-5.356a10.345,10.345,0,0,0-9.3,0c-2.551,1.473-2.551,3.883,0,5.356A10.345,10.345,0,0,0,127.337,136.382Z" fill="#3c5185" opacity="0.294"/>
          <path id="Trazado_3674" data-name="Trazado 3674" d="M127.241,136.326c2.512-1.442,2.512-3.8,0-5.244a10.133,10.133,0,0,0-9.11,0c-2.5,1.442-2.5,3.8,0,5.244A10.133,10.133,0,0,0,127.241,136.326Z" fill="#3c5185" opacity="0.314"/>
          <path id="Trazado_3675" data-name="Trazado 3675" d="M127.144,136.27c2.458-1.411,2.458-3.721,0-5.132a9.913,9.913,0,0,0-8.916,0c-2.444,1.411-2.444,3.721,0,5.132A9.913,9.913,0,0,0,127.144,136.27Z" fill="#3c5185" opacity="0.333"/>
          <path id="Trazado_3676" data-name="Trazado 3676" d="M127.047,136.215c2.4-1.381,2.4-3.641,0-5.022a9.705,9.705,0,0,0-8.722,0c-2.391,1.381-2.391,3.641,0,5.022A9.7,9.7,0,0,0,127.047,136.215Z" fill="#3c5185" opacity="0.353"/>
          <path id="Trazado_3677" data-name="Trazado 3677" d="M126.95,136.159c2.352-1.35,2.352-3.56,0-4.91a9.485,9.485,0,0,0-8.528,0c-2.338,1.35-2.338,3.56,0,4.91A9.485,9.485,0,0,0,126.95,136.159Z" fill="#3c5185" opacity="0.373"/>
          <path id="Trazado_3678" data-name="Trazado 3678" d="M126.854,136.1c2.3-1.319,2.3-3.479,0-4.8a9.267,9.267,0,0,0-8.335,0c-2.285,1.319-2.285,3.479,0,4.8A9.267,9.267,0,0,0,126.854,136.1Z" fill="#3c5185" opacity="0.392"/>
          <path id="Trazado_3679" data-name="Trazado 3679" d="M126.757,136.047c2.245-1.289,2.245-3.4,0-4.686a9.053,9.053,0,0,0-8.141,0c-2.232,1.289-2.232,3.4,0,4.686A9.053,9.053,0,0,0,126.757,136.047Z" fill="#3c5185" opacity="0.412"/>
          <path id="Trazado_3680" data-name="Trazado 3680" d="M126.66,135.992c2.192-1.259,2.192-3.317,0-4.576a8.839,8.839,0,0,0-7.947,0c-2.179,1.259-2.179,3.317,0,4.576A8.839,8.839,0,0,0,126.66,135.992Z" fill="#3c5185" opacity="0.431"/>
          <path id="Trazado_3681" data-name="Trazado 3681" d="M126.563,135.936c2.139-1.228,2.139-3.236,0-4.464a8.619,8.619,0,0,0-7.753,0c-2.126,1.228-2.126,3.236,0,4.464A8.625,8.625,0,0,0,126.563,135.936Z" fill="#3c5185" opacity="0.451"/>
          <path id="Trazado_3682" data-name="Trazado 3682" d="M126.467,135.88c2.085-1.2,2.085-3.155,0-4.352a8.407,8.407,0,0,0-7.56,0c-2.073,1.2-2.073,3.155,0,4.352A8.407,8.407,0,0,0,126.467,135.88Z" fill="#3c5185" opacity="0.471"/>
          <path id="Trazado_3683" data-name="Trazado 3683" d="M126.37,135.824c2.031-1.166,2.031-3.074,0-4.24a8.187,8.187,0,0,0-7.366,0c-2.02,1.166-2.02,3.074,0,4.24A8.187,8.187,0,0,0,126.37,135.824Z" fill="#3c5185" opacity="0.49"/>
          <path id="Trazado_3684" data-name="Trazado 3684" d="M126.273,135.769c1.978-1.136,1.978-2.994,0-4.13a7.979,7.979,0,0,0-7.172,0c-1.967,1.136-1.967,2.994,0,4.13A7.979,7.979,0,0,0,126.273,135.769Z" fill="#3c5185" opacity="0.51"/>
          <path id="Trazado_3685" data-name="Trazado 3685" d="M126.177,135.713c1.924-1.1,1.924-2.913,0-4.018a7.761,7.761,0,0,0-6.979,0c-1.914,1.1-1.914,2.913,0,4.018A7.761,7.761,0,0,0,126.177,135.713Z" fill="#3c5185" opacity="0.529"/>
          <path id="Trazado_3686" data-name="Trazado 3686" d="M126.08,135.657c1.871-1.074,1.871-2.832,0-3.906a7.547,7.547,0,0,0-6.785,0c-1.861,1.074-1.861,2.832,0,3.906A7.547,7.547,0,0,0,126.08,135.657Z" fill="#3c5185" opacity="0.549"/>
          <path id="Trazado_3687" data-name="Trazado 3687" d="M125.983,135.6c1.818-1.043,1.818-2.751,0-3.794a7.327,7.327,0,0,0-6.591,0c-1.808,1.043-1.808,2.751,0,3.794A7.327,7.327,0,0,0,125.983,135.6Z" fill="#3c5185" opacity="0.569"/>
          <path id="Trazado_3688" data-name="Trazado 3688" d="M125.886,135.546c1.765-1.013,1.765-2.671,0-3.684a7.113,7.113,0,0,0-6.4,0c-1.755,1.013-1.755,2.671,0,3.684A7.113,7.113,0,0,0,125.886,135.546Z" fill="#3c5185" opacity="0.588"/>
          <path id="Trazado_3689" data-name="Trazado 3689" d="M125.79,135.49c1.711-.982,1.711-2.59,0-3.572a6.9,6.9,0,0,0-6.2,0c-1.7.982-1.7,2.59,0,3.572A6.9,6.9,0,0,0,125.79,135.49Z" fill="#3c5185" opacity="0.608"/>
          <path id="Trazado_3690" data-name="Trazado 3690" d="M125.693,135.434c1.657-.951,1.657-2.509,0-3.46a6.681,6.681,0,0,0-6.01,0c-1.649.951-1.649,2.509,0,3.46A6.681,6.681,0,0,0,125.693,135.434Z" fill="#3c5185" opacity="0.627"/>
          <path id="Trazado_3691" data-name="Trazado 3691" d="M125.6,135.378c1.6-.921,1.6-2.428,0-3.348a6.467,6.467,0,0,0-5.816,0c-1.6.92-1.6,2.427,0,3.348A6.467,6.467,0,0,0,125.6,135.378Z" fill="#3c5185" opacity="0.647"/>
          <path id="Trazado_3692" data-name="Trazado 3692" d="M125.5,135.323c1.55-.891,1.55-2.347,0-3.238a6.257,6.257,0,0,0-5.624,0c-1.542.891-1.542,2.347,0,3.238A6.257,6.257,0,0,0,125.5,135.323Z" fill="#3c5185" opacity="0.667"/>
          <path id="Trazado_3693" data-name="Trazado 3693" d="M125.4,135.267c1.5-.86,1.5-2.266,0-3.126a6.043,6.043,0,0,0-5.43,0c-1.488.86-1.488,2.266,0,3.126A6.037,6.037,0,0,0,125.4,135.267Z" fill="#3c5185" opacity="0.686"/>
          <path id="Trazado_3694" data-name="Trazado 3694" d="M125.306,135.211c1.444-.829,1.444-2.185,0-3.014a5.823,5.823,0,0,0-5.236,0c-1.435.829-1.435,2.185,0,3.014A5.823,5.823,0,0,0,125.306,135.211Z" fill="#3c5185" opacity="0.706"/>
          <path id="Trazado_3695" data-name="Trazado 3695" d="M125.209,135.155c1.391-.8,1.391-2.1,0-2.9a5.6,5.6,0,0,0-5.042,0c-1.382.8-1.382,2.1,0,2.9A5.6,5.6,0,0,0,125.209,135.155Z" fill="#3c5185" opacity="0.725"/>
          <path id="Trazado_3696" data-name="Trazado 3696" d="M125.113,135.1c1.337-.768,1.337-2.024,0-2.792a5.4,5.4,0,0,0-4.849,0c-1.329.768-1.329,2.024,0,2.792A5.4,5.4,0,0,0,125.113,135.1Z" fill="#3c5185" opacity="0.745"/>
          <path id="Trazado_3697" data-name="Trazado 3697" d="M125.016,135.044c1.284-.737,1.284-1.943,0-2.68a5.177,5.177,0,0,0-4.655,0,1.417,1.417,0,0,0,0,2.68A5.177,5.177,0,0,0,125.016,135.044Z" fill="#3c5185" opacity="0.765"/>
          <path id="Trazado_3698" data-name="Trazado 3698" d="M124.919,134.988a1.355,1.355,0,0,0,0-2.568,4.956,4.956,0,0,0-4.461,0,1.357,1.357,0,0,0,0,2.568A4.963,4.963,0,0,0,124.919,134.988Z" fill="#3c5185" opacity="0.784"/>
          <path id="Trazado_3699" data-name="Trazado 3699" d="M124.822,134.932a1.3,1.3,0,0,0,0-2.456,4.743,4.743,0,0,0-4.267,0,1.3,1.3,0,0,0,0,2.456A4.743,4.743,0,0,0,124.822,134.932Z" fill="#3c5185" opacity="0.804"/>
          <path id="Trazado_3700" data-name="Trazado 3700" d="M124.726,134.877a1.238,1.238,0,0,0,0-2.346,4.531,4.531,0,0,0-4.074,0,1.24,1.24,0,0,0,0,2.346A4.531,4.531,0,0,0,124.726,134.877Z" fill="#3c5185" opacity="0.824"/>
          <path id="Trazado_3701" data-name="Trazado 3701" d="M124.629,134.821a1.179,1.179,0,0,0,0-2.234,4.317,4.317,0,0,0-3.88,0,1.181,1.181,0,0,0,0,2.234A4.317,4.317,0,0,0,124.629,134.821Z" fill="#3c5185" opacity="0.843"/>
          <path id="Trazado_3702" data-name="Trazado 3702" d="M124.532,134.765a1.119,1.119,0,0,0,0-2.122,4.1,4.1,0,0,0-3.686,0,1.121,1.121,0,0,0,0,2.122A4.1,4.1,0,0,0,124.532,134.765Z" fill="#3c5185" opacity="0.863"/>
          <path id="Trazado_3703" data-name="Trazado 3703" d="M124.436,134.709a1.06,1.06,0,0,0,0-2.01,3.885,3.885,0,0,0-3.493,0,1.062,1.062,0,0,0,0,2.01A3.885,3.885,0,0,0,124.436,134.709Z" fill="#3c5185" opacity="0.882"/>
          <path id="Trazado_3704" data-name="Trazado 3704" d="M124.339,134.654a1,1,0,0,0,0-1.9,3.671,3.671,0,0,0-3.3,0,1,1,0,0,0,0,1.9A3.671,3.671,0,0,0,124.339,134.654Z" fill="#3c5185" opacity="0.902"/>
          <path id="Trazado_3705" data-name="Trazado 3705" d="M124.242,134.6a.943.943,0,0,0,0-1.788,3.45,3.45,0,0,0-3.1,0,.945.945,0,0,0,0,1.788A3.45,3.45,0,0,0,124.242,134.6Z" fill="#3c5185" opacity="0.922"/>
          <path id="Trazado_3706" data-name="Trazado 3706" d="M124.145,134.542a.884.884,0,0,0,0-1.676,3.236,3.236,0,0,0-2.911,0,.886.886,0,0,0,0,1.676A3.236,3.236,0,0,0,124.145,134.542Z" fill="#3c5185" opacity="0.941"/>
          <path id="Trazado_3707" data-name="Trazado 3707" d="M124.049,134.486a.825.825,0,0,0,0-1.564,3.018,3.018,0,0,0-2.718,0,.826.826,0,0,0,0,1.564A3.018,3.018,0,0,0,124.049,134.486Z" fill="#3c5185" opacity="0.961"/>
          <path id="Trazado_3708" data-name="Trazado 3708" d="M123.952,134.431a.767.767,0,0,0,0-1.454,2.811,2.811,0,0,0-2.524,0,.768.768,0,0,0,0,1.454A2.811,2.811,0,0,0,123.952,134.431Z" fill="#3c5185" opacity="0.98"/>
          <path id="Trazado_3709" data-name="Trazado 3709" d="M123.855,134.375a.708.708,0,0,0,0-1.342,2.59,2.59,0,0,0-2.33,0,.709.709,0,0,0,0,1.342A2.59,2.59,0,0,0,123.855,134.375Z" fill="#3c5185"/>
        </g>
        <path id="Trazado_3710" data-name="Trazado 3710" d="M126.721,134.718c2.147-1.233,2.147-6.966,0-8.2a8.661,8.661,0,0,0-7.785,0c-2.135,1.233-2.135,6.966,0,8.2a8.1,8.1,0,0,0,3.839,1.2A8.2,8.2,0,0,0,126.721,134.718Z" fill="#edf3fa"/>
        <path id="Trazado_3711" data-name="Trazado 3711" d="M128.533,127.843c0-.036,0-.073,0-.109v-.858h-.22a3.51,3.51,0,0,0-1.446-1.412,8.981,8.981,0,0,0-8.077,0,3.5,3.5,0,0,0-1.438,1.412h-.2v.636a1.9,1.9,0,0,0,0,.553v.016h0a3,3,0,0,0,1.637,2.033,8.987,8.987,0,0,0,8.077,0,3.008,3.008,0,0,0,1.646-2.033h.02Z" fill="url(#linear-gradient-23)"/>
        <path id="Trazado_3712" data-name="Trazado 3712" d="M126.867,129.3c2.227-1.279,2.227-3.371,0-4.65a8.987,8.987,0,0,0-8.077,0c-2.215,1.279-2.215,3.371,0,4.65A8.981,8.981,0,0,0,126.867,129.3Z" fill="#d1e1f2"/>
        <path id="Trazado_3713" data-name="Trazado 3713" d="M126.539,129.107c2.046-1.175,2.046-3.1,0-4.272a8.256,8.256,0,0,0-7.42,0c-2.035,1.175-2.035,3.1,0,4.272A8.25,8.25,0,0,0,126.539,129.107Z" fill="#7ea7df"/>
        <path id="Trazado_3714" data-name="Trazado 3714" d="M125.866,129.267c1.675-.961,1.675-2.535,0-3.5a6.75,6.75,0,0,0-6.073,0c-1.666.961-1.666,2.535,0,3.5A6.75,6.75,0,0,0,125.866,129.267Z" fill="#4a65a3"/>
        <g id="Grupo_1650" data-name="Grupo 1650">
          <path id="Trazado_3715" data-name="Trazado 3715" d="M122.832,128.371a.446.446,0,0,1-.446-.445v-15.74a.446.446,0,0,1,.892,0v15.74A.445.445,0,0,1,122.832,128.371Z" fill="#3c5185"/>
        </g>
        <path id="Trazado_3716" data-name="Trazado 3716" d="M127.077,112.521a4.724,4.724,0,1,0-8.489,0,6.177,6.177,0,1,0,8.489,0Z" fill="url(#linear-gradient-21)"/>
        <path id="Trazado_3717" data-name="Trazado 3717" d="M116.929,117a6.155,6.155,0,0,1,1.931-4.479,4.711,4.711,0,0,1,4.109-6.777c-.046,0-.091-.007-.137-.007a4.714,4.714,0,0,0-4.244,6.784,6.171,6.171,0,0,0,4.244,10.655c.046,0,.091-.006.137-.007A6.172,6.172,0,0,1,116.929,117Z" fill="#ff9800" opacity="0.1"/>
        <path id="Trazado_3718" data-name="Trazado 3718" d="M127.077,112.521a4.715,4.715,0,0,0-4.245-6.784,4.788,4.788,0,0,0-.681.055,4.709,4.709,0,0,1,3.564,6.729,6.17,6.17,0,0,1-3.564,10.616,6.385,6.385,0,0,0,.681.039,6.171,6.171,0,0,0,4.245-10.655Z" fill="#ffad33"/>
      </g>
    </g>
  </g>
</svg>
